<svg width="246" height="119" viewBox="0 0 246 119" fill="none" xmlns="http://www.w3.org/2000/svg">
<rect x="0.670576" y="1.37321" width="244.128" height="116.516" rx="28.3534" fill="url(#paint0_linear_767_8400)" stroke="url(#paint1_linear_767_8400)" stroke-width="1.33334"/>
<path d="M52.4502 55.4845C52.4502 51.9785 51.3027 50.1299 47.6055 50.1299C44.737 50.1299 42.8246 51.9147 41.996 54.0821H41.9322V50.1936L41.8685 50.1299L36.0039 51.9147C36.7051 52.7434 37.3426 54.2733 37.3426 56.0582V62.4964C37.3426 64.6 37.2151 66.7674 36.7051 68.4247H42.6971C42.1872 66.8949 42.1234 64.9825 42.1234 62.6877V54.7195C42.8884 54.0183 43.9083 53.6359 45.247 53.6359C46.9681 53.6359 47.6693 54.4008 47.6693 55.9944V62.6239C47.6693 64.9188 47.6055 66.8311 47.0956 68.361H53.0876C52.5776 66.7036 52.4502 64.5363 52.4502 62.4327V55.4845Z" fill="#C9D0F2"/>
<path d="M67.748 63.6439V55.7395C67.748 51.9785 66.0269 50.1299 61.4372 50.1299C57.8675 50.1299 54.4253 51.851 54.4253 54.3371C54.4253 55.612 55.3814 56.3132 56.4014 56.3132C57.5488 56.3132 58.25 55.6757 58.6324 53.9546C58.8874 52.8072 59.3336 52.2972 60.5448 52.2972C62.4572 52.2972 63.0309 53.3171 63.0309 55.357V55.7395C63.0309 57.5243 61.6285 58.2893 59.0787 59.3092C56.4014 60.3928 53.8516 61.604 53.8516 64.4088C53.8516 67.0861 55.7002 68.8072 58.5687 68.8072C60.9273 68.8072 62.3934 67.7873 63.1584 65.5562H63.2221C63.2858 67.2136 64.4333 68.8072 66.7281 68.8072C68.7042 68.8072 69.6604 67.851 70.1703 66.3849C70.2978 66.0662 70.3616 65.7474 70.489 65.2375C70.2978 65.4287 69.7241 65.4925 69.5329 65.4925C68.3217 65.4925 67.748 65.0462 67.748 63.6439ZM62.9671 64.9825C62.5846 65.6837 62.1384 66.1937 60.7998 66.1937C59.3974 66.1937 58.5687 65.1737 58.5687 63.6439C58.5687 61.7315 59.1424 60.8391 60.8635 60.0104C62.2022 59.3729 62.6484 59.0542 63.0309 58.5442L62.9671 64.9825Z" fill="#C9D0F2"/>
<path d="M76.0997 62.8152V53.0622H80.1793L80.6256 50.5761H76.0359V46.3689L75.9084 46.3052L69.5977 52.9347V53.0622H71.3188V63.5801C71.3188 66.9586 72.7212 68.8072 76.4184 68.8072C78.5857 68.8072 80.1156 67.851 80.6893 66.4486C80.9443 65.9387 81.008 65.5562 81.0718 64.9188C80.4981 65.2375 79.7969 65.4287 78.522 65.4287C76.8646 65.4287 76.0997 64.7275 76.0997 62.8152Z" fill="#C9D0F2"/>
<path d="M97.4537 50.3862L91.9079 50.9599C92.4816 52.5536 92.6728 54.0834 92.6728 55.9321V64.2827C92.0354 65.1114 90.8879 65.6213 89.3581 65.6213C87.5732 65.6213 86.872 64.6014 86.872 62.7528V50.3862L81.3262 50.9599C81.8999 52.5536 82.0911 54.0834 82.0911 55.9321V62.944C82.0911 66.45 83.4935 68.8086 87.382 68.8086C90.4417 68.8086 91.9716 67.1512 92.6728 64.8564H92.7366V68.4261H98.0911C97.6449 67.0875 97.39 65.8763 97.39 63.0715L97.4537 50.3862Z" fill="#C9D0F2"/>
<path d="M109.378 50.1299C107.338 50.1299 105.872 51.4048 105.044 54.7195H104.98V50.2574L104.916 50.1936L99.1152 51.9147C99.8164 52.7434 100.454 54.2733 100.454 56.0582V62.4964C100.454 64.6 100.326 66.7674 99.8164 68.4247H105.808C105.362 66.7674 105.235 64.6 105.235 62.3689V57.9705C105.235 55.2295 106.318 53.6359 107.275 53.6359C107.657 53.6359 107.912 54.0183 108.358 54.4008C108.741 54.7833 109.187 55.102 110.016 55.102C111.482 55.102 112.247 54.0183 112.247 52.6159C112.183 51.0861 111.227 50.1299 109.378 50.1299Z" fill="#C9D0F2"/>
<path d="M126.907 58.544C126.907 52.9982 124.74 50.0659 120.15 50.0659C115.305 50.0659 111.672 54.0181 111.672 59.8827C111.672 65.6835 115.497 68.7432 120.022 68.7432C123.975 68.7432 126.142 66.2572 126.907 63.5799L126.779 63.2612C125.951 64.0898 124.676 65.2373 121.807 65.2373C118.684 65.2373 116.389 63.5161 116.389 59.054V58.544H126.907ZM119.959 52.297C121.935 52.297 122.381 53.9544 122.445 56.8229L116.453 57.3329C116.771 53.8906 117.919 52.297 119.959 52.297Z" fill="#C9D0F2"/>
<path d="M148.004 65.1737C147.813 65.365 147.239 65.4287 147.048 65.4287C145.901 65.4287 145.391 64.9825 145.391 63.5801V55.7395C145.391 51.9785 143.669 50.1299 139.08 50.1299C135.51 50.1299 132.068 51.851 132.068 54.3371C132.068 55.612 133.024 56.3132 134.044 56.3132C135.191 56.3132 135.893 55.6757 136.275 53.9546C136.53 52.8072 136.976 52.2972 138.187 52.2972C140.1 52.2972 140.673 53.3171 140.673 55.357V55.7395C140.673 57.5243 139.271 58.2893 136.721 59.3092C134.044 60.3928 131.494 61.604 131.494 64.4088C131.494 67.0861 133.343 68.8072 136.211 68.8072C138.57 68.8072 140.036 67.7873 140.801 65.5562H140.865C140.928 67.2136 142.076 68.8072 144.371 68.8072C146.347 68.8072 147.303 67.851 147.813 66.3849C147.813 66.0024 147.877 65.7474 148.004 65.1737ZM140.546 64.9825C140.163 65.6837 139.717 66.1937 138.379 66.1937C136.976 66.1937 136.148 65.1737 136.148 63.6439C136.148 61.7315 136.721 60.8391 138.442 60.0104C139.781 59.3729 140.227 59.0542 140.61 58.5442V64.9825H140.546Z" fill="#C9D0F2"/>
<path d="M171.655 54.7201L171.783 50.2579L171.719 50.1942L166.492 51.5966C166.492 51.5328 166.492 51.4691 166.492 51.4053C166.492 50.1304 165.472 49.3018 163.942 49.3018C162.922 49.3018 161.328 50.0667 160.436 51.5966H160.309C159.034 50.5767 157.185 50.0667 155.336 50.0667C151.512 50.0667 148.006 52.2978 148.006 56.505C148.006 58.9273 149.536 60.7121 151.575 61.6046V61.7321C149.791 62.242 148.452 63.3894 148.452 65.3018C148.452 67.2141 149.982 68.6165 151.703 68.9353V69.0628C149.217 69.4452 147.113 70.2739 147.113 71.9313C147.113 73.7799 149.472 75.3735 155.209 75.3735C161.328 75.3735 165.217 73.015 165.217 68.6803C165.217 65.8118 163.496 64.6006 160.5 64.6006C158.396 64.6006 155.145 64.7918 153.042 64.7918C151.894 64.7918 151.448 64.2819 151.448 63.5807C151.448 62.9432 151.639 62.497 152.149 62.1783C153.105 62.497 154.189 62.6245 155.209 62.6245C159.034 62.6245 162.54 60.3934 162.54 56.1862C162.54 54.7838 161.902 53.3814 160.946 52.234C161.201 52.0428 161.52 51.9791 161.775 51.9791C162.412 51.9791 162.731 52.3615 162.986 52.744C163.305 53.1265 163.623 53.6364 164.579 53.6364C165.217 53.6364 165.663 53.3814 165.982 52.9352C166.428 53.7639 166.747 54.9113 166.747 56.1225V62.5607C166.747 64.6643 166.619 66.8317 166.109 68.489H172.229C171.719 66.8317 171.591 64.6643 171.591 62.5607L171.655 54.7201ZM152.532 69.3177C153.36 69.1902 157.759 68.999 159.671 68.999C161.073 68.999 161.775 69.3815 161.775 70.4651C161.775 71.995 159.862 73.3974 155.336 73.3974C152.404 73.3974 151.129 72.4412 151.129 71.0389C151.193 70.2102 151.767 69.3815 152.532 69.3177ZM155.464 60.4572C153.743 60.4572 152.532 59.1185 152.532 56.4412C152.532 53.3814 153.552 52.1703 155.336 52.1703C156.994 52.1703 158.205 53.5089 158.205 56.1862C158.269 59.246 157.249 60.4572 155.464 60.4572Z" fill="#C9D0F2"/>
<path d="M169.039 49.1117C170.761 49.1117 171.972 47.8365 171.972 46.2424C171.972 44.6483 170.761 43.373 169.039 43.373C167.381 43.373 166.17 44.6483 166.17 46.2424C166.17 47.8365 167.381 49.1117 169.039 49.1117Z" fill="#C9D0F2"/>
<path d="M189.694 55.4845C189.694 51.9785 188.546 50.1299 184.849 50.1299C181.98 50.1299 180.068 51.9147 179.239 54.0821H179.112V50.1936L179.048 50.1299L173.184 51.7873C173.885 52.6159 174.522 54.1458 174.522 55.9307V62.3689C174.522 64.4725 174.395 66.6399 173.885 68.2972H179.877C179.367 66.7674 179.303 64.855 179.303 62.5602V54.7195C180.068 54.0183 181.088 53.6359 182.427 53.6359C184.148 53.6359 184.849 54.4008 184.849 55.9944V62.6239C184.849 64.9188 184.785 66.8311 184.275 68.361H190.267C189.757 66.7036 189.63 64.5363 189.63 62.4327V55.4845H189.694Z" fill="#C9D0F2"/>
<path d="M206.395 52.6803C206.713 53.0627 207.032 53.5727 207.988 53.5727C209.199 53.5727 209.773 52.6165 209.773 51.4053C209.773 50.1304 208.753 49.3018 207.223 49.3018C206.203 49.3018 204.61 50.0667 203.717 51.5966H203.59C202.315 50.5767 200.466 50.0667 198.618 50.0667C194.793 50.0667 191.287 52.2978 191.287 56.505C191.287 58.9273 192.817 60.7121 194.857 61.6046V61.7321C193.072 62.242 191.733 63.3894 191.733 65.3018C191.733 67.2141 193.263 68.6165 194.984 68.9353V69.0628C192.498 69.4452 190.395 70.2739 190.395 71.9313C190.395 73.7799 192.753 75.3735 198.49 75.3735C204.61 75.3735 208.498 73.015 208.498 68.6803C208.498 65.8118 206.777 64.6006 203.781 64.6006C201.677 64.6006 198.426 64.7918 196.323 64.7918C195.175 64.7918 194.729 64.2819 194.729 63.5807C194.729 62.9432 194.92 62.497 195.43 62.1783C196.387 62.497 197.47 62.6245 198.49 62.6245C202.315 62.6245 205.821 60.3934 205.821 56.1862C205.821 54.7838 205.183 53.3814 204.227 52.234C204.482 52.0428 204.801 51.9791 205.056 51.9791C205.821 51.9153 206.076 52.2978 206.395 52.6803ZM195.813 69.3177C196.642 69.1902 201.04 68.999 202.952 68.999C204.355 68.999 205.056 69.3815 205.056 70.4651C205.056 71.995 203.144 73.3974 198.618 73.3974C195.685 73.3974 194.41 72.4412 194.41 71.0389C194.41 70.2102 194.984 69.3815 195.813 69.3177ZM198.681 60.4572C196.96 60.4572 195.749 59.1185 195.749 56.4412C195.749 53.3814 196.769 52.1703 198.554 52.1703C200.211 52.1703 201.422 53.5089 201.422 56.1862C201.486 59.246 200.466 60.4572 198.681 60.4572Z" fill="#C9D0F2"/>
<defs>
<linearGradient id="paint0_linear_767_8400" x1="122.734" y1="0.706543" x2="122.734" y2="118.555" gradientUnits="userSpaceOnUse">
<stop offset="0.0001" stop-color="#1C2B57"/>
<stop offset="1" stop-color="#081027"/>
</linearGradient>
<linearGradient id="paint1_linear_767_8400" x1="7.77484" y1="4.46964" x2="244.685" y2="119.194" gradientUnits="userSpaceOnUse">
<stop stop-color="#C9D0F2" stop-opacity="0.2"/>
<stop offset="1" stop-color="#C9D0F2" stop-opacity="0.08"/>
</linearGradient>
</defs>
</svg>
