<svg width="246" height="119" viewBox="0 0 246 119" fill="none" xmlns="http://www.w3.org/2000/svg">
<rect x="0.670576" y="1.3737" width="244.128" height="116.516" rx="28.3534" fill="url(#paint0_linear_767_8544)" stroke="url(#paint1_linear_767_8544)" stroke-width="1.33334"/>
<path d="M58.2524 43.6098L57.2687 45.0853H56.2147L56.0039 37.5673H56.7066C57.9713 41.0101 59.8685 44.2422 63.5925 44.2422C66.2626 44.2422 67.5976 42.6261 67.5976 40.1669C67.5976 38.1996 66.6139 36.7241 64.6465 35.881C62.9601 35.1783 61.8359 34.6865 60.1495 33.9136C57.9713 32.8596 56.566 31.0328 56.566 28.2223C56.566 24.7795 59.2361 22.25 62.7493 22.25C64.2952 22.25 66.1923 22.9526 67.2463 23.7958L68.1598 22.3203H69.2137L69.3542 29.6978H68.6516C67.4571 26.0442 65.9815 23.2337 62.0467 23.2337C61.2035 23.2337 59.0253 24.0066 59.0253 26.536C59.0253 28.5034 59.8685 29.6276 61.6954 30.6815C63.1709 31.5246 64.6465 31.9463 65.9815 32.5786C68.4408 33.8433 70.1974 35.108 70.1974 38.4104C70.1974 42.3451 67.2463 45.1556 63.2412 45.1556C60.9224 45.2258 59.1658 44.3827 58.2524 43.6098Z" fill="#C9D0F2"/>
<path d="M71.1816 37.4281C71.1816 33.4232 73.7112 29.7695 77.7866 29.7695C80.8079 29.7695 82.3538 31.5261 82.3538 33.4934C82.3538 34.5473 81.7214 35.3203 80.7376 35.3203C80.1755 35.3203 78.981 34.969 78.981 33.7042C78.981 32.3693 79.3324 32.299 79.3324 31.6666C79.1919 30.7532 78.7 30.4721 77.7162 30.4721C75.9596 30.4721 74.3435 32.1584 74.3435 37.0768C74.3435 41.0115 75.7488 43.6815 78.2784 43.6815C80.2458 43.6815 81.4403 42.6978 82.424 40.8007L83.0564 41.2223C82.0024 43.3302 79.8945 45.0867 77.5758 45.0867C73.2896 45.157 71.1816 41.8547 71.1816 37.4281Z" fill="#C9D0F2"/>
<path d="M84.7429 24.0776C84.7429 22.9535 85.5861 22.04 86.6401 22.04C87.8346 22.04 88.6075 22.8832 88.6075 23.9371C88.6075 25.0613 87.7643 26.045 86.6401 26.045C85.5861 26.045 84.7429 25.1316 84.7429 24.0776ZM83.3376 44.1727C83.8295 44.1727 84.2511 44.1025 84.6727 43.9619C85.2348 43.7512 85.4456 43.1188 85.4456 42.4864V33.2118C85.3753 32.5092 85.0942 31.947 84.6727 31.5957C84.3214 31.3147 83.4079 31.0336 82.916 30.9634V30.331L88.1859 29.9797L88.3967 30.1905V42.2756C88.3967 42.9782 88.6778 43.4701 89.1696 43.7512C89.5912 43.9619 90.1533 44.1025 90.5047 44.1727V44.8051H83.3376V44.1727Z" fill="#C9D0F2"/>
<path d="M99.0059 35.4608C99.0059 33.1421 98.5842 30.4721 96.5466 30.4721C94.79 30.4721 93.5252 32.5097 93.4549 35.531L99.0059 35.4608ZM90.293 37.3579C90.293 33.4934 92.6118 29.7695 96.5466 29.7695C100.552 29.7695 102.098 32.6503 102.098 35.9526V36.2337H93.4549V36.585C93.4549 40.7305 94.6494 43.7517 97.6708 43.7517C99.849 43.7517 100.622 42.8384 101.746 40.871L102.308 41.2926C101.254 43.6112 99.2869 45.2273 96.8276 45.2273C92.4009 45.157 90.293 41.6439 90.293 37.3579Z" fill="#C9D0F2"/>
<path d="M102.236 44.1734C102.728 44.1734 103.15 44.103 103.571 43.9625C104.133 43.7517 104.344 43.1897 104.344 42.487V33.2124C104.274 32.5097 103.993 31.8774 103.571 31.5261C103.22 31.2451 102.588 31.0343 102.096 31.0343V30.4019L107.014 30.0506L107.225 30.2614V32.4395C108.349 31.2451 109.403 29.7695 111.863 29.7695C114.533 29.7695 115.797 31.8071 115.797 34.8987V42.3465C115.797 43.0491 116.008 43.541 116.5 43.822C116.922 44.0328 117.273 44.1734 117.835 44.1734V44.8057H110.879V44.1734C111.371 44.1734 111.863 44.103 112.214 43.9625C112.776 43.7517 112.987 43.1897 112.987 42.487V34.8284C112.987 32.5801 111.933 31.3856 110.668 31.3856C108.63 31.3856 107.506 32.7206 107.225 33.4934V42.3465C107.225 43.0491 107.506 43.541 107.928 43.822C108.279 44.0328 108.841 44.1734 109.263 44.2436V44.876H102.236V44.1734Z" fill="#C9D0F2"/>
<path d="M117.414 37.4281C117.414 33.4232 119.944 29.7695 124.019 29.7695C127.04 29.7695 128.586 31.5261 128.586 33.4934C128.586 34.5473 127.954 35.3203 126.97 35.3203C126.408 35.3203 125.213 34.969 125.213 33.7042C125.213 32.3693 125.565 32.299 125.565 31.6666C125.425 30.7532 124.933 30.4721 123.949 30.4721C122.192 30.4721 120.576 32.1584 120.576 37.0768C120.576 41.0115 121.981 43.6815 124.511 43.6815C126.478 43.6815 127.673 42.6978 128.656 40.8007L129.289 41.2223C128.235 43.3302 126.127 45.0867 123.808 45.0867C119.592 45.157 117.414 41.8547 117.414 37.4281Z" fill="#C9D0F2"/>
<path d="M138.004 35.4608C138.004 33.1421 137.582 30.4721 135.545 30.4721C133.788 30.4721 132.523 32.5097 132.453 35.531L138.004 35.4608ZM129.291 37.3579C129.291 33.4934 131.61 29.7695 135.545 29.7695C139.55 29.7695 141.095 32.6503 141.095 35.9526V36.2337H132.453V36.585C132.453 40.7305 133.647 43.7517 136.669 43.7517C138.847 43.7517 139.62 42.8384 140.744 40.871L141.306 41.2926C140.252 43.6112 138.285 45.2273 135.825 45.2273C131.398 45.157 129.291 41.6439 129.291 37.3579Z" fill="#C9D0F2"/>
<path d="M59.5878 69.9843C60.0797 69.9843 61.3443 69.7735 61.6251 69.633C62.258 69.4222 62.3984 68.8601 62.3984 68.298V52.6997H61.2742C60.712 52.6997 59.9387 52.6997 59.3064 52.8402C58.2524 52.9807 56.9176 55.5102 56.6368 56.7047H56.0039V51.9971H71.6028V56.7047H70.9705C70.6898 55.5102 69.3544 52.9807 68.3003 52.8402C67.668 52.77 67.0357 52.6997 66.3332 52.6997H65.209V68.1574C65.209 68.7898 65.4195 69.2114 65.9115 69.4924C66.1928 69.633 67.5276 69.914 67.9494 69.9843V70.6167H59.5176V69.9843H59.5878Z" fill="#C9D0F2"/>
<path d="M69.8455 69.9864C70.2672 69.9864 70.6188 69.9162 70.9698 69.7756C71.4617 69.6351 71.6723 69.1432 71.6723 68.5811V60.7814C71.6021 60.2193 71.3915 59.6571 70.9698 59.3058C70.689 59.095 70.1269 58.8842 69.7051 58.8842V58.3923L73.921 58.1112L74.1321 58.322V60.149C75.1863 58.6734 76.3106 57.9707 77.3647 57.9707C78.2076 57.9707 79.0512 58.7436 79.0512 59.6571C79.0512 60.6409 78.489 61.3435 77.6455 61.3435C76.8727 61.3435 76.1696 60.9922 76.1696 60.0084C76.1696 59.7274 76.3808 59.5166 76.3808 59.1653C75.1863 59.1653 74.4129 60.3598 74.1321 60.9219V68.4406C74.1321 69.073 74.3427 69.4946 74.7645 69.6351C75.1863 69.8459 75.959 69.9162 76.3808 69.9864V70.5486H69.8455V69.9864Z" fill="#C9D0F2"/>
<path d="M79.334 68.0179C79.334 65.7694 80.5285 64.9964 81.723 64.5046C83.1989 63.8721 84.8152 63.4506 85.8693 62.8181V61.2722C85.8693 60.7804 85.7991 58.5318 83.8313 58.5318C82.9883 58.5318 82.6367 59.1642 82.4262 59.4453C82.4262 59.8669 82.6367 60.4291 82.6367 61.0615C82.6367 61.7641 81.864 62.256 81.0205 62.256C80.2477 62.256 79.8961 61.6236 79.8961 60.7804C79.8961 59.1642 82.0746 57.8994 83.9716 57.8994C86.4315 57.8994 88.3285 58.321 88.3285 61.9046C88.3285 64.2937 88.1881 67.1045 88.1881 68.0179C88.1881 68.5098 88.6099 69.4233 89.3125 69.4233C90.015 69.4233 90.1554 68.3693 90.2256 67.3152H90.8585C90.7175 69.8449 89.7342 70.8286 88.1881 70.8286C86.9936 70.8286 86.2905 70.2665 85.9395 69.0017H85.7991C84.8854 70.1259 83.6207 70.8989 82.1448 70.8989C80.4583 70.8989 79.334 69.7746 79.334 68.0179ZM85.7991 68.299L85.9395 63.5208C83.6207 64.364 81.9342 65.137 81.9342 67.526C81.9342 68.8611 82.5666 69.5638 83.5505 69.5638C84.8152 69.634 85.237 69.1422 85.7991 68.299Z" fill="#C9D0F2"/>
<path d="M91.1345 69.9854C91.5563 69.9854 91.9073 69.9151 92.2588 69.7746C92.7508 69.634 92.9614 69.1422 92.9614 68.58V60.7804C92.8912 60.2182 92.6806 59.6561 92.2588 59.3047C91.9781 59.094 91.4159 58.8832 90.9941 58.8832V58.3913L95.21 58.1102L95.4212 58.321V60.148C96.4045 59.1642 97.3183 57.8994 99.4265 57.8994C101.745 57.8994 102.799 59.5858 102.799 62.1857V68.4395C102.799 69.0719 103.01 69.4233 103.432 69.634C103.783 69.7746 104.134 69.9151 104.556 69.9151V70.4773H98.4426V69.9151C98.8643 69.9151 99.2861 69.8449 99.5669 69.7044C100.059 69.5638 100.199 69.0719 100.199 68.5098V62.0452C100.199 60.148 99.2861 59.1642 98.232 59.1642C96.5455 59.1642 95.5616 60.2885 95.351 60.9209V68.3693C95.351 69.0017 95.5616 69.353 95.9834 69.5638C96.3343 69.7746 96.7561 69.8449 97.1077 69.9151V70.4773H91.0643V69.9854H91.1345Z" fill="#C9D0F2"/>
<path d="M106.596 69.8449L106.384 70.6881H105.541L105.4 66.472H105.963C106.244 67.8071 107.72 70.2665 109.687 70.2665C111.303 70.2665 112.006 69.2125 112.006 67.9476C112.006 66.6125 111.022 65.9801 109.195 65.418C107.649 64.8559 105.752 63.8721 105.752 61.5533C105.752 59.5156 107.368 57.8994 109.617 57.8994C110.601 57.8994 111.655 58.1102 112.217 58.6021L112.428 57.8994H113.2L113.341 61.6236H112.779C112.568 60.0777 111.233 58.5318 109.617 58.5318C108.282 58.5318 107.649 59.5858 107.649 60.4993C107.649 61.9749 108.493 62.3262 110.46 63.0289C112.428 63.7316 113.904 64.8559 113.904 67.0342C113.904 69.4233 111.936 70.8989 109.617 70.8989C108.422 70.9691 107.017 70.3368 106.596 69.8449Z" fill="#C9D0F2"/>
<path d="M114.254 69.985C114.675 69.985 115.097 69.9147 115.378 69.7742C115.87 69.6336 116.01 69.1418 116.01 68.5797V53.122C116.01 52.4896 115.8 51.8573 115.378 51.5762C115.097 51.3654 114.113 51.0843 113.691 51.0141V50.5223L118.329 50.2412L118.47 50.452V68.4392C118.47 69.0715 118.68 69.4931 119.172 69.7039C119.524 69.9147 119.875 69.985 120.296 70.0552V70.6173H114.254V69.985Z" fill="#C9D0F2"/>
<path d="M120.859 68.0179C120.859 65.7694 122.054 64.9964 123.248 64.5046C124.724 63.8721 126.341 63.4506 127.395 62.8181V61.2722C127.395 60.7804 127.324 58.5318 125.357 58.5318C124.513 58.5318 124.162 59.1642 123.951 59.4453C123.951 59.8669 124.162 60.4291 124.162 61.0615C124.162 61.7641 123.389 62.256 122.546 62.256C121.773 62.256 121.422 61.6236 121.422 60.7804C121.422 59.1642 123.6 57.8994 125.497 57.8994C127.957 57.8994 129.854 58.321 129.854 61.9046C129.854 64.2937 129.714 67.1045 129.714 68.0179C129.714 68.5098 130.135 69.4233 130.838 69.4233C131.54 69.4233 131.681 68.3693 131.751 67.3152H132.383C132.243 69.8449 131.259 70.8286 129.714 70.8286C128.519 70.8286 127.816 70.2665 127.465 69.0017H127.395C126.481 70.1259 125.216 70.8989 123.74 70.8989C122.054 70.8989 120.859 69.7746 120.859 68.0179ZM127.395 68.299L127.535 63.5208C125.216 64.364 123.53 65.137 123.53 67.526C123.53 68.8611 124.162 69.5638 125.146 69.5638C126.341 69.634 126.762 69.1422 127.395 68.299Z" fill="#C9D0F2"/>
<path d="M133.858 67.104V59.4454H131.469V58.3212H133.858V54.1055H136.246V58.3212H139.619V59.4454H136.246V66.7527C136.246 68.2985 136.738 69.2822 138.074 69.2822C139.268 69.2822 139.338 68.2282 139.479 67.1743H140.111C139.971 69.2119 138.917 70.828 136.95 70.828C134.912 70.828 133.858 69.493 133.858 67.104Z" fill="#C9D0F2"/>
<path d="M140.673 69.9844C141.095 69.9844 141.447 69.9141 141.797 69.7736C142.289 69.6331 142.501 69.0709 142.501 68.5791V60.78C142.43 60.2179 142.219 59.7261 141.797 59.445C141.517 59.2342 140.743 58.9531 140.322 58.9531V58.4613L144.819 58.1803L144.96 58.3911V68.5088C144.96 69.0709 145.17 69.5628 145.662 69.7736C146.014 69.9844 146.506 70.0546 146.786 70.1249V70.687H140.743V69.9844H140.673ZM141.797 52.489C141.797 51.5756 142.501 50.8027 143.414 50.8027C144.397 50.8027 145.1 51.5054 145.1 52.4188C145.1 53.4025 144.397 54.1753 143.414 54.1753C142.571 54.1753 141.797 53.4025 141.797 52.489Z" fill="#C9D0F2"/>
<path d="M147.066 64.4343C147.066 60.5696 149.385 57.8994 152.899 57.8994C156.412 57.8994 158.59 60.6398 158.59 64.2937C158.59 67.9476 156.482 70.9691 152.688 70.9691C149.666 70.9691 147.066 68.4395 147.066 64.4343ZM155.85 64.2937C155.85 61.4128 155.147 58.5318 152.828 58.5318C150.369 58.5318 149.736 61.6938 149.736 64.2235C149.736 67.4558 150.58 70.2665 152.828 70.2665C154.937 70.3368 155.85 67.5963 155.85 64.2937Z" fill="#C9D0F2"/>
<path d="M158.943 69.9854C159.365 69.9854 159.716 69.9151 160.067 69.7746C160.559 69.634 160.77 69.1422 160.77 68.58V60.7804C160.7 60.2182 160.489 59.6561 160.067 59.3047C159.787 59.094 159.224 58.8832 158.803 58.8832V58.3913L163.019 58.1102L163.23 58.321V60.148C164.213 59.1642 165.127 57.8994 167.235 57.8994C169.554 57.8994 170.608 59.5858 170.608 62.1857V68.4395C170.608 69.0719 170.819 69.4233 171.24 69.634C171.592 69.7746 171.943 69.9151 172.365 69.9151V70.4773H166.321V69.9151C166.743 69.9151 167.165 69.8449 167.446 69.7044C167.938 69.5638 168.078 69.0719 168.078 68.5098V62.0452C168.078 60.148 167.165 59.1642 166.111 59.1642C164.424 59.1642 163.44 60.2885 163.23 60.9209V68.3693C163.23 69.0017 163.44 69.353 163.862 69.5638C164.213 69.7746 164.635 69.8449 164.986 69.9151V70.4773H158.943V69.9854Z" fill="#C9D0F2"/>
<path d="M172.994 68.0179C172.994 65.7694 174.189 64.9964 175.383 64.5046C176.859 63.8721 178.475 63.4506 179.529 62.8181V61.2722C179.529 60.7804 179.459 58.5318 177.491 58.5318C176.648 58.5318 176.297 59.1642 176.086 59.4453C176.086 59.8669 176.297 60.4291 176.297 61.0615C176.297 61.7641 175.524 62.256 174.681 62.256C173.907 62.256 173.556 61.6236 173.556 60.7804C173.556 59.1642 175.735 57.8994 177.632 57.8994C180.091 57.8994 181.989 58.321 181.989 61.9046C181.989 64.2937 181.848 67.1045 181.848 68.0179C181.848 68.5098 182.269 69.4233 182.972 69.4233C183.675 69.4233 183.816 68.3693 183.886 67.3152H184.518C184.378 69.8449 183.394 70.8286 181.848 70.8286C180.653 70.8286 179.951 70.2665 179.599 69.0017H179.529C178.616 70.1259 177.35 70.8989 175.875 70.8989C174.118 70.8989 172.994 69.7746 172.994 68.0179ZM179.459 68.299L179.599 63.5208C177.28 64.364 175.594 65.137 175.594 67.526C175.594 68.8611 176.226 69.5638 177.21 69.5638C178.475 69.634 178.896 69.1422 179.459 68.299Z" fill="#C9D0F2"/>
<path d="M184.588 69.985C185.009 69.985 185.43 69.9147 185.712 69.7742C186.204 69.6336 186.344 69.1418 186.344 68.5797V53.122C186.344 52.4896 186.133 51.8573 185.712 51.5762C185.43 51.3654 184.447 51.0843 184.025 51.0141V50.5223L188.663 50.2412L188.803 50.452V68.4392C188.803 69.0715 189.014 69.4931 189.506 69.7039C189.857 69.9147 190.209 69.985 190.63 70.0552V70.6173H184.588V69.985Z" fill="#C9D0F2"/>
<path d="M56.0039 95.7245C56.425 95.6542 57.7604 95.5137 58.3226 95.0218C58.8847 94.53 59.1654 93.3356 59.1654 91.298V81.3207C59.1654 80.1965 58.9549 79.4939 58.3927 79.0723C57.7604 78.5805 56.7766 78.3697 56.1443 78.2994V77.7373H62.117L67.527 91.4385L71.8836 80.056C72.2351 79.0723 72.4457 78.0184 72.4457 77.7373H78.3482V78.3697C77.9265 78.3697 76.9426 78.5805 76.5209 78.721C75.8886 78.9318 75.7482 79.4236 75.7482 80.056V94.0382C75.7482 94.6705 75.9588 95.0922 76.5209 95.3732C76.8023 95.5137 77.9967 95.7245 78.4184 95.7948V96.4271H70.0569V95.7948C70.4786 95.7948 71.8836 95.6542 72.2351 95.4435C72.7973 95.0922 73.0078 94.6705 73.0078 94.0382V80.056L66.8245 96.0055H66.1922C65.9108 94.9516 65.4195 93.4059 64.9978 92.2114L60.2195 80.056V91.1575C60.2195 93.2653 60.5009 94.3895 61.063 94.8813C61.4847 95.2327 63.1704 95.7245 63.5922 95.7245V96.3569H56.0039V95.7245Z" fill="#C9D0F2"/>
<path d="M77.7871 90.034C77.7871 86.8017 79.7544 83.6396 83.1273 83.6396C86.5705 83.6396 87.8351 86.099 87.8351 88.8395V89.1205H80.4569V89.4015C80.4569 92.9149 81.511 95.4446 84.041 95.4446C85.8679 95.4446 86.5705 94.6716 87.4842 93.0554L87.9762 93.4068C87.1326 95.3743 85.4461 96.7094 83.3379 96.7094C79.5438 96.6391 77.7871 93.6176 77.7871 90.034ZM85.2356 88.4881C85.2356 86.5206 84.884 84.2721 83.1273 84.2721C81.6514 84.2721 80.5979 85.9585 80.5271 88.4881H85.2356Z" fill="#C9D0F2"/>
<path d="M89.0977 89.9627C89.0977 86.2388 91.6971 83.6391 94.5785 83.6391C96.1238 83.6391 97.2481 84.2714 97.5294 84.3417V79.0017C97.4593 78.4396 97.3183 77.737 96.8971 77.456C96.4754 77.1046 95.4213 76.8939 94.7188 76.8236V76.2615L99.7779 75.9805L99.9885 76.1913V93.8271C100.059 94.3892 100.2 94.8811 100.621 95.1621C100.902 95.3729 101.675 95.5134 102.097 95.5134V96.0052L97.74 96.2863L97.5996 96.0755V94.8811H97.4593C96.8971 95.5134 95.7729 96.5673 94.2269 96.5673C91.3461 96.6376 89.0977 94.0379 89.0977 89.9627ZM97.5294 94.1784V86.4496C97.2481 85.5362 96.4754 84.2012 94.8592 84.2012C93.0325 84.2012 91.8381 86.4496 91.8381 90.1735C91.8381 92.9137 92.7511 95.3729 95.1406 95.3729C96.2648 95.4432 96.8971 94.9513 97.5294 94.1784Z" fill="#C9D0F2"/>
<path d="M102.87 95.7246C103.292 95.7246 103.644 95.6543 103.995 95.5138C104.487 95.3733 104.698 94.8112 104.698 94.3193V86.5202C104.628 85.9581 104.416 85.4663 103.995 85.1852C103.714 84.9744 102.941 84.6934 102.52 84.6934V84.2016L107.016 83.9205L107.157 84.1313V94.2491C107.157 94.8112 107.367 95.303 107.859 95.5138C108.211 95.7246 108.703 95.7949 108.984 95.8651V96.4272H102.941V95.7246H102.87ZM104.066 78.2293C104.066 77.3158 104.768 76.543 105.681 76.543C106.665 76.543 107.367 77.2456 107.367 78.159C107.367 79.1427 106.665 79.9156 105.681 79.9156C104.768 79.9156 104.066 79.1427 104.066 78.2293Z" fill="#C9D0F2"/>
<path d="M108.982 90.1043C108.982 86.7314 111.161 83.6396 114.604 83.6396C117.134 83.6396 118.469 85.1152 118.469 86.8017C118.469 87.7151 117.977 88.3475 117.064 88.3475C116.572 88.3475 115.588 88.0665 115.588 87.0125C115.588 85.8882 115.94 85.818 115.94 85.3261C115.798 84.5531 115.448 84.3423 114.604 84.3423C113.129 84.3423 111.723 85.818 111.723 89.8935C111.723 93.196 112.918 95.4446 115.026 95.4446C116.712 95.4446 117.766 94.6014 118.539 93.0554L119.101 93.4068C118.188 95.2338 116.431 96.6391 114.464 96.6391C110.809 96.6391 108.982 93.8284 108.982 90.1043Z" fill="#C9D0F2"/>
<path d="M119.594 95.7246C120.015 95.7246 120.366 95.6543 120.718 95.5138C121.21 95.3733 121.42 94.8112 121.42 94.3193V86.5202C121.35 85.9581 121.14 85.4663 120.718 85.1852C120.437 84.9744 119.664 84.6934 119.242 84.6934V84.2016L123.739 83.9205L123.88 84.1313V94.2491C123.88 94.8112 124.091 95.303 124.583 95.5138C124.934 95.7246 125.425 95.7949 125.707 95.8651V96.4272H119.664V95.7246H119.594ZM120.718 78.2293C120.718 77.3158 121.42 76.543 122.334 76.543C123.318 76.543 124.021 77.2456 124.021 78.159C124.021 79.1427 123.318 79.9156 122.334 79.9156C121.491 79.9156 120.718 79.1427 120.718 78.2293Z" fill="#C9D0F2"/>
<path d="M126.478 95.7257C126.9 95.7257 127.252 95.6554 127.603 95.5148C128.095 95.3743 128.306 94.8824 128.306 94.3203V86.5206C128.235 85.9585 128.024 85.3963 127.603 85.045C127.322 84.8342 126.76 84.6234 126.338 84.6234V84.1315L130.554 83.8505L130.765 84.0612V85.8882C131.749 84.9045 132.662 83.6396 134.77 83.6396C137.089 83.6396 138.143 85.3261 138.143 87.926V94.1798C138.143 94.8122 138.354 95.1635 138.776 95.3743C139.127 95.5148 139.478 95.6554 139.9 95.6554V96.2175H133.857V95.6554C134.278 95.6554 134.7 95.5851 134.981 95.4446C135.473 95.304 135.614 94.8122 135.614 94.25V87.7855C135.614 85.8882 134.7 84.9045 133.646 84.9045C131.959 84.9045 130.976 86.0287 130.765 86.6611V94.1095C130.765 94.7419 130.976 95.0933 131.397 95.304C131.749 95.5148 132.17 95.5851 132.522 95.6554V96.2175H126.478V95.7257Z" fill="#C9D0F2"/>
<path d="M140.746 90.034C140.746 86.8017 142.713 83.6396 146.086 83.6396C149.529 83.6396 150.795 86.099 150.795 88.8395V89.1205H143.416V89.4015C143.416 92.9149 144.47 95.4446 147 95.4446C148.827 95.4446 149.529 94.6716 150.443 93.0554L150.935 93.4068C150.092 95.3743 148.405 96.7094 146.297 96.7094C142.503 96.6391 140.746 93.6176 140.746 90.034ZM148.195 88.4881C148.195 86.5206 147.843 84.2721 146.086 84.2721C144.611 84.2721 143.557 85.9585 143.487 88.4881H148.195Z" fill="#C9D0F2"/>
<defs>
<linearGradient id="paint0_linear_767_8544" x1="122.734" y1="0.707031" x2="122.734" y2="118.556" gradientUnits="userSpaceOnUse">
<stop offset="0.0001" stop-color="#1C2B57"/>
<stop offset="1" stop-color="#081027"/>
</linearGradient>
<linearGradient id="paint1_linear_767_8544" x1="7.77484" y1="4.47013" x2="244.685" y2="119.195" gradientUnits="userSpaceOnUse">
<stop stop-color="#C9D0F2" stop-opacity="0.2"/>
<stop offset="1" stop-color="#C9D0F2" stop-opacity="0.08"/>
</linearGradient>
</defs>
</svg>
