<svg width="246" height="119" viewBox="0 0 246 119" fill="none" xmlns="http://www.w3.org/2000/svg">
<rect x="0.670576" y="1.03972" width="244.128" height="116.516" rx="28.3534" fill="url(#paint0_linear_767_8390)" stroke="url(#paint1_linear_767_8390)" stroke-width="1.33334"/>
<path d="M72.1554 58.7557C76.0638 59.6514 81.7635 61.4427 81.7635 66.5725C81.7635 74.5522 71.4225 74.3894 69.3055 74.3894L57.3359 74.2265V73.5751C62.5472 72.9237 62.5472 71.6209 62.71 67.1425V52.1603C62.5472 47.6819 62.5472 46.3791 57.5802 45.7277V45.0762L66.3742 44.7505C71.1782 44.5877 79.8093 45.0762 79.8093 51.916C79.8093 56.1501 75.5752 57.7786 72.1554 58.6743V58.7557ZM66.537 66.7354C66.537 70.0738 66.2927 73.3308 70.6897 73.3308C74.4353 73.3308 77.1223 70.8881 77.1223 67.0611C77.1223 64.4555 74.6795 59.1628 68.2469 59.4885L66.537 59.57V66.7354ZM66.537 58.6743C70.5268 58.5929 75.4938 57.5343 75.4938 52.5674C75.4938 47.3562 70.934 45.8091 66.537 45.8091V58.6743Z" fill="#C9D0F2"/>
<path d="M86.32 53.7889C86.32 47.1935 86.0757 46.2164 81.2716 45.7278V45.0764L91.8569 44.7507C102.768 44.425 103.582 49.7177 103.582 51.8347C103.582 55.4989 101.302 57.5345 98.2081 58.9187L98.4524 59.2444C101.791 65.107 105.944 72.5168 113.028 73.9824L112.946 74.2267C108.386 73.9824 104.885 74.5524 102.442 71.9468C99.5923 68.934 97.3124 65.1885 96.4167 63.3157C94.7068 59.733 93.1597 60.7915 90.147 60.2215V67.1427C90.147 71.8654 90.2284 72.761 96.1725 73.5753V74.2267H81.0273V73.5753C86.2386 72.9239 86.2386 71.6211 86.4014 67.1427V53.7889H86.32ZM90.147 59.4887C94.2997 59.4073 99.1038 57.5345 99.1038 52.7304C99.1038 47.682 94.6254 45.6464 90.147 45.6464V59.4887Z" fill="#C9D0F2"/>
<path d="M117.754 61.9307C117.021 64.1292 115.148 68.6076 115.148 70.6432C115.148 73.2488 118.161 73.2488 120.115 73.5745V74.2259H114.741L108.96 74.1445L108.309 73.8188V73.5745C112.136 72.516 112.543 71.7018 113.846 68.2819L118.731 55.4981L121.337 48.4141C121.744 47.2742 122.314 46.2156 121.825 45.4014C122.965 44.9128 125.164 44.18 126.059 43.04L134.446 68.3633C135.586 71.5389 136.319 72.7603 139.82 73.4117V74.0631H127.118V73.4117C128.665 73.086 130.456 72.5974 130.456 70.6432C130.456 68.8519 128.828 64.7806 127.688 61.7679H117.754V61.9307ZM122.558 48.6584L118.487 59.8951H127.036L122.558 48.6584Z" fill="#C9D0F2"/>
<path d="M148.858 67.1416C149.021 71.62 149.021 72.9228 154.232 73.5742V74.2256H139.738V73.5742C144.95 72.9228 144.95 71.62 145.112 67.1416V51.9151C144.95 47.4367 144.95 46.1339 139.738 45.4825V44.8311H154.232V45.4825C149.021 46.1339 149.021 47.4367 148.858 51.9151V67.1416Z" fill="#C9D0F2"/>
<path d="M182.081 67.4673L181.837 51.6708C181.755 47.5995 180.697 46.3781 175.811 45.4825V44.8311H187.618V45.4825C184.605 45.8896 184.035 47.5181 183.709 50.2866C183.139 55.0092 183.302 65.4317 183.547 74.877L182.977 75.0399C176.055 66.8973 168.401 59.3248 161.073 51.4265V59.4062C161.073 70.1543 160.829 72.3528 167.099 73.5742V74.2256H154.152V73.5742C160.015 73.0042 159.77 69.0144 159.77 59.1619V52.6479C159.77 48.3323 159.119 46.6224 153.582 45.401V44.8311H160.747L182.081 67.4673Z" fill="#C9D0F2"/>
<defs>
<linearGradient id="paint0_linear_767_8390" x1="122.734" y1="0.373047" x2="122.734" y2="118.222" gradientUnits="userSpaceOnUse">
<stop offset="0.0001" stop-color="#1C2B57"/>
<stop offset="1" stop-color="#081027"/>
</linearGradient>
<linearGradient id="paint1_linear_767_8390" x1="7.77484" y1="4.13614" x2="244.685" y2="118.861" gradientUnits="userSpaceOnUse">
<stop stop-color="#C9D0F2" stop-opacity="0.2"/>
<stop offset="1" stop-color="#C9D0F2" stop-opacity="0.08"/>
</linearGradient>
</defs>
</svg>
