<svg width="247" height="119" viewBox="0 0 247 119" fill="none" xmlns="http://www.w3.org/2000/svg">
<rect x="1.33269" y="1.04167" width="244.128" height="116.516" rx="28.3534" fill="url(#paint0_linear_767_8385)" stroke="url(#paint1_linear_767_8385)" stroke-width="1.33334"/>
<path d="M66.4 48.562L66.48 54.082H66.64C67.76 50.962 70.5601 48.402 74.6401 48.402C79.9201 48.402 81.5201 51.042 81.5201 56.0821V66.0021C81.5201 69.0421 81.6801 72.1621 82.4001 74.4822H73.8401C74.5601 72.2421 74.6401 69.5221 74.6401 66.2421V56.8021C74.6401 54.482 73.7601 53.442 71.2001 53.442C69.2801 53.442 67.84 54.002 66.72 54.9621V66.3221C66.72 69.6021 66.8 72.3221 67.52 74.5622H59.04C59.84 72.2421 59.92 69.0421 59.92 66.0821V56.8021C59.92 54.322 59.04 52.082 58 50.962L66.4 48.562ZM97.1202 69.6021V60.3221C96.5602 61.1221 95.9202 61.6021 94.0802 62.4021C91.6802 63.6021 90.8002 64.8821 90.8002 67.5221C90.8002 69.7621 92.0802 71.2021 94.0002 71.2021C95.9202 71.2821 96.5602 70.5621 97.1202 69.6021ZM94.8802 48.482C101.44 48.482 103.92 51.122 103.92 56.4821V67.6821C103.92 69.6821 104.72 70.3221 106.32 70.3221C106.56 70.3221 107.44 70.1621 107.68 69.9221C107.52 70.7221 107.44 71.1221 107.28 71.5221C106.48 73.7621 105.12 75.0422 102.4 75.0422C99.1202 75.0422 97.5202 72.7221 97.4402 70.4021H97.3602C96.2402 73.6821 94.1602 75.0422 90.8002 75.0422C86.7201 75.0422 84.0801 72.5621 84.0801 68.7221C84.0801 64.6421 87.7601 62.8821 91.6002 61.4421C95.2802 60.0021 97.2002 58.9621 97.2002 56.3221V55.7621C97.2002 52.882 96.3202 51.442 93.6002 51.442C91.9202 51.442 91.2802 52.242 90.9602 53.842C90.4002 56.3221 89.4402 57.2021 87.8401 57.2021C86.4001 57.2021 85.0401 56.2421 85.0401 54.402C84.8801 50.882 89.8402 48.482 94.8802 48.482ZM122.56 71.6821C121.68 73.6821 119.52 75.0422 116.48 75.0422C111.28 75.0422 109.2 72.4021 109.2 67.6021V52.562H106.72V52.402L115.76 43.042L115.92 43.122V49.042H122.48L121.84 52.642H116V66.5621C116 69.2021 117.12 70.3221 119.52 70.3221C121.36 70.3221 122.32 70.0821 123.2 69.6021C122.96 70.4821 122.88 70.9621 122.56 71.6821ZM131.92 48.882V66.4821C131.92 69.1221 132.96 70.5621 135.52 70.5621C137.68 70.5621 139.28 69.8421 140.24 68.6421V56.7221C140.24 54.082 140 51.922 139.12 49.682L146.96 48.882V66.8821C146.96 70.8821 147.36 72.6421 148 74.5622H140.32V69.4421H140.24C139.12 72.7221 137.04 75.0422 132.64 75.0422C127.12 75.0422 125.04 71.6821 125.04 66.7221V56.7221C125.04 54.082 124.8 51.922 123.92 49.682L131.92 48.882ZM157.68 54.9621C158.801 50.242 160.961 48.402 163.841 48.402C166.481 48.402 167.841 49.762 167.841 51.922C167.841 53.842 166.721 55.4421 164.721 55.4421C163.521 55.4421 162.801 54.8821 162.321 54.402C161.761 53.842 161.361 53.282 160.721 53.282C159.361 53.282 157.84 55.6021 157.84 59.4421V65.8421C157.84 68.9621 158.081 72.0821 158.721 74.4822H150.24C151.04 72.1621 151.12 68.9621 151.12 66.0021V56.8021C151.12 54.322 150.24 52.082 149.2 50.962L157.52 48.562L157.6 48.642V55.0421L157.68 54.9621ZM173.761 58.7221L182.321 57.9221C182.241 53.842 181.601 51.442 178.801 51.442C175.921 51.522 174.241 53.842 173.761 58.7221ZM178.881 75.0422C172.321 75.0422 166.961 70.7221 166.961 62.4021C166.961 54.002 172.081 48.322 179.041 48.322C185.601 48.322 188.721 52.482 188.721 60.4021H173.761V61.2021C173.761 67.5221 177.041 70.0821 181.521 70.0821C185.601 70.0821 187.361 68.4821 188.561 67.2821L188.721 67.6821C187.601 71.5221 184.561 75.0422 178.881 75.0422Z" fill="#C9D0F2"/>
<defs>
<linearGradient id="paint0_linear_767_8385" x1="123.397" y1="0.375" x2="123.397" y2="118.224" gradientUnits="userSpaceOnUse">
<stop offset="0.0001" stop-color="#1C2B57"/>
<stop offset="1" stop-color="#081027"/>
</linearGradient>
<linearGradient id="paint1_linear_767_8385" x1="8.43695" y1="4.1381" x2="245.347" y2="118.863" gradientUnits="userSpaceOnUse">
<stop stop-color="#C9D0F2" stop-opacity="0.2"/>
<stop offset="1" stop-color="#C9D0F2" stop-opacity="0.08"/>
</linearGradient>
</defs>
</svg>
