<svg width="1440" height="748" viewBox="0 0 1440 748" fill="none" xmlns="http://www.w3.org/2000/svg">
<g filter="url(#filter0_f_228_439)">
<ellipse cx="1383" cy="591.5" rx="108" ry="107.5" fill="#6580DA"/>
</g>
<g filter="url(#filter1_f_228_439)">
<ellipse cx="85" cy="407.5" rx="108" ry="107.5" fill="#6580DA"/>
</g>
<g style="mix-blend-mode:color" filter="url(#filter2_bi_228_439)">
<path d="M2 140C2 112.386 24.3858 90 52 90L1390 90C1417.61 90 1440 112.386 1440 140V748L2 748L2 140Z" fill="url(#paint0_radial_228_439)"/>
<path d="M1440 749H1441V748V140C1441 111.833 1418.17 89 1390 89L52 89C23.8335 89 1 111.833 1 140L1 748L1 749H2L1440 749Z" stroke="url(#paint1_linear_228_439)" stroke-opacity="0.4" stroke-width="2"/>
</g>
<defs>
<filter id="filter0_f_228_439" x="975" y="184" width="816" height="815" filterUnits="userSpaceOnUse" color-interpolation-filters="sRGB">
<feFlood flood-opacity="0" result="BackgroundImageFix"/>
<feBlend mode="normal" in="SourceGraphic" in2="BackgroundImageFix" result="shape"/>
<feGaussianBlur stdDeviation="150" result="effect1_foregroundBlur_228_439"/>
</filter>
<filter id="filter1_f_228_439" x="-323" y="0" width="816" height="815" filterUnits="userSpaceOnUse" color-interpolation-filters="sRGB">
<feFlood flood-opacity="0" result="BackgroundImageFix"/>
<feBlend mode="normal" in="SourceGraphic" in2="BackgroundImageFix" result="shape"/>
<feGaussianBlur stdDeviation="150" result="effect1_foregroundBlur_228_439"/>
</filter>
<filter id="filter2_bi_228_439" x="-42" y="46" width="1526" height="746" filterUnits="userSpaceOnUse" color-interpolation-filters="sRGB">
<feFlood flood-opacity="0" result="BackgroundImageFix"/>
<feGaussianBlur in="BackgroundImageFix" stdDeviation="21"/>
<feComposite in2="SourceAlpha" operator="in" result="effect1_backgroundBlur_228_439"/>
<feBlend mode="normal" in="SourceGraphic" in2="effect1_backgroundBlur_228_439" result="shape"/>
<feColorMatrix in="SourceAlpha" type="matrix" values="0 0 0 0 0 0 0 0 0 0 0 0 0 0 0 0 0 0 127 0" result="hardAlpha"/>
<feOffset dx="-5" dy="-5"/>
<feGaussianBlur stdDeviation="125"/>
<feComposite in2="hardAlpha" operator="arithmetic" k2="-1" k3="1"/>
<feColorMatrix type="matrix" values="0 0 0 0 1 0 0 0 0 1 0 0 0 0 1 0 0 0 0.02 0"/>
<feBlend mode="normal" in2="shape" result="effect2_innerShadow_228_439"/>
</filter>
<radialGradient id="paint0_radial_228_439" cx="0" cy="0" r="1" gradientUnits="userSpaceOnUse" gradientTransform="translate(2 90) rotate(24.5879) scale(1581.39 831.494)">
<stop stop-color="white" stop-opacity="0.4"/>
<stop offset="1" stop-color="white" stop-opacity="0"/>
</radialGradient>
<linearGradient id="paint1_linear_228_439" x1="2" y1="90" x2="68.0398" y2="843.157" gradientUnits="userSpaceOnUse">
<stop stop-color="white"/>
<stop offset="1" stop-color="#EEEDED" stop-opacity="0.5"/>
</linearGradient>
</defs>
</svg>
