<svg width="228" height="169" viewBox="0 0 228 169" fill="none" xmlns="http://www.w3.org/2000/svg">
<path d="M76.7447 115.991C76.5643 115.735 76.5139 115.397 76.6214 114.955L76.637 114.898C76.7663 114.418 77.0459 114.005 77.4835 113.653C77.919 113.304 78.3891 113.133 78.898 113.133C79.3806 113.133 79.6951 113.279 79.8803 113.541C80.0686 113.809 80.1152 114.166 79.9888 114.635C79.8594 115.115 79.5798 115.529 79.1423 115.88L79.1422 115.88C78.7068 116.229 78.2361 116.4 77.7278 116.4C77.2451 116.4 76.9299 116.254 76.7447 115.991ZM71.5372 130.886H69.0189L75.0758 118.75H77.5941L71.5372 130.886Z" fill="#C9D0F2" stroke="#C9D0F2" stroke-width="0.270463"/>
<path d="M81.2976 127.516L81.2446 127.949L81.5333 127.621L89.3474 118.75H92.1116L81.0745 130.886H78.6061L79.7523 118.75H82.3689L81.2976 127.516Z" fill="#C9D0F2" stroke="#C9D0F2" stroke-width="0.270463"/>
<path d="M100.668 124.172L100.668 124.172C100.312 125.489 99.6138 126.615 98.5746 127.548C97.5337 128.483 96.3953 128.957 95.162 128.957L100.668 124.172ZM100.668 124.172C100.931 123.194 100.874 122.363 100.466 121.7L100.466 121.7M100.668 124.172L100.466 121.7M100.466 121.7C100.05 121.022 99.2851 120.703 98.2242 120.703C96.991 120.703 95.8532 121.173 94.8142 122.1L94.8142 122.1M100.466 121.7L94.8142 122.1M94.8142 122.1C93.7771 123.025 93.0797 124.147 92.7248 125.464L94.8142 122.1ZM92.9224 127.947C92.5173 127.277 92.4609 126.443 92.7248 125.464L92.9224 127.947ZM92.9224 127.947C93.3362 128.633 94.0993 128.957 95.1612 128.957L92.9224 127.947ZM90.6264 129.682L90.6264 129.682C89.8469 128.698 89.6646 127.389 90.1133 125.725C90.6565 123.713 91.7582 122 93.424 120.583C95.0862 119.169 96.9659 118.463 99.0678 118.463C100.761 118.463 101.982 118.972 102.761 119.966C103.538 120.958 103.72 122.272 103.271 123.934L103.271 123.934C102.733 125.93 101.633 127.636 99.9668 129.053C98.3046 130.467 96.4249 131.172 94.323 131.172C92.6295 131.172 91.407 130.668 90.6264 129.682Z" fill="#C9D0F2" stroke="#C9D0F2" stroke-width="0.270463"/>
<path d="M136.455 118.63L136.624 118.64L135.444 121.025C135.257 121.001 135.072 120.989 134.889 120.989C132.708 120.989 130.978 122.186 129.7 124.53L129.7 124.53L129.697 124.536L126.602 130.885H124.131L130.048 118.75H132.519L131.782 120.261L131.995 120.419C133.287 119.226 134.772 118.631 136.455 118.63Z" fill="#C9D0F2" stroke="#C9D0F2" stroke-width="0.270463"/>
<path d="M143.56 118.463L143.561 118.464H143.617C144.478 118.464 145.21 118.609 145.818 118.893C146.429 119.179 146.866 119.553 147.141 120.011C147.423 120.482 147.601 120.979 147.675 121.502C147.745 121.993 147.727 122.483 147.621 122.973H145.015C145.081 122.326 144.926 121.785 144.532 121.366L144.532 121.366C144.109 120.917 143.499 120.702 142.725 120.702C141.552 120.702 140.469 121.178 139.477 122.113C138.485 123.047 137.808 124.189 137.445 125.534C137.173 126.54 137.206 127.367 137.577 127.993C137.955 128.63 138.645 128.932 139.598 128.932C140.373 128.932 141.127 128.713 141.857 128.279C142.563 127.86 143.132 127.32 143.559 126.661H146.174C145.522 127.832 144.559 128.866 143.281 129.762C141.939 130.701 140.392 131.171 138.632 131.171C137.022 131.171 135.9 130.654 135.23 129.642L135.23 129.642C134.556 128.625 134.421 127.326 134.853 125.725C135.378 123.777 136.457 122.078 138.093 120.628C139.709 119.195 141.53 118.476 143.56 118.463Z" fill="#C9D0F2" stroke="#C9D0F2" stroke-width="0.270463"/>
<path d="M157.105 120.609C155.184 120.609 153.697 121.678 152.645 123.766L152.644 123.766L149.071 130.886H146.602L155.463 113.229H157.932L154.572 119.924L154.786 120.083C155.922 119.003 157.269 118.464 158.831 118.464C159.972 118.464 160.768 118.794 161.255 119.427C161.739 120.057 161.841 120.959 161.515 122.166C161.378 122.675 161.122 123.283 160.743 123.992L160.743 123.992L160.741 123.995L157.293 130.886H154.824L158.409 123.72L158.409 123.72L158.41 123.718C158.627 123.27 158.774 122.91 158.847 122.643L158.847 122.643C159.008 122.045 158.955 121.54 158.648 121.161C158.34 120.779 157.81 120.609 157.105 120.609Z" fill="#C9D0F2" stroke="#C9D0F2" stroke-width="0.270463"/>
<path d="M168.813 115.991C168.632 115.735 168.582 115.396 168.689 114.955L168.705 114.898C168.834 114.418 169.114 114.005 169.551 113.653C169.987 113.304 170.457 113.133 170.966 113.133C171.448 113.133 171.763 113.279 171.948 113.541C172.136 113.809 172.183 114.166 172.057 114.635C171.927 115.115 171.648 115.529 171.21 115.88L171.21 115.88C170.775 116.229 170.304 116.4 169.796 116.4C169.313 116.4 168.998 116.254 168.813 115.991ZM163.605 130.886H161.087L167.144 118.75H169.662L163.605 130.886Z" fill="#C9D0F2" stroke="#C9D0F2" stroke-width="0.270463"/>
<path d="M175.543 120.751H175.46L175.422 120.825L170.37 130.886H167.852L172.843 120.947L172.942 120.751H172.723H171.041L172.046 118.75H173.863H173.946L173.984 118.676L175.567 115.524H178.085L176.563 118.555L176.464 118.75H176.683H178.553L177.548 120.751H175.543Z" fill="#C9D0F2" stroke="#C9D0F2" stroke-width="0.270463"/>
<path d="M198.806 118.139L198.807 118.14H198.839C199.701 118.14 200.433 118.285 201.041 118.569C201.652 118.856 202.089 119.229 202.363 119.687C202.645 120.159 202.823 120.656 202.898 121.178C202.967 121.669 202.949 122.159 202.843 122.65H200.237C200.303 122.002 200.148 121.462 199.754 121.043L199.754 121.042C199.331 120.593 198.721 120.378 197.947 120.378C196.775 120.378 195.691 120.854 194.699 121.789C193.707 122.723 193.031 123.865 192.667 125.211C192.396 126.216 192.428 127.043 192.799 127.669C193.177 128.307 193.867 128.608 194.819 128.608C195.595 128.608 196.349 128.389 197.079 127.956C197.785 127.536 198.353 126.997 198.78 126.337H201.396C200.744 127.508 199.782 128.542 198.502 129.438C197.161 130.377 195.613 130.847 193.854 130.847C192.243 130.847 191.122 130.33 190.452 129.319L190.452 129.319C189.778 128.302 189.643 127.002 190.074 125.401C190.6 123.453 191.678 121.754 193.314 120.304C194.937 118.866 196.766 118.147 198.806 118.139Z" fill="#C9D0F2" stroke="#C9D0F2" stroke-width="0.270463"/>
<path d="M209.994 120.427H209.91L209.873 120.502L204.821 130.562H202.303L207.294 120.623L207.392 120.427H207.173H205.491L206.497 118.427H208.314H208.397L208.434 118.352L210.018 115.2H212.536L211.013 118.231L210.915 118.427H211.134H213.004L211.998 120.427H209.994Z" fill="#C9D0F2" stroke="#C9D0F2" stroke-width="0.270463"/>
<path d="M13.5361 91.6069H213.898" stroke="#C9D0F2" stroke-width="5.15773" stroke-miterlimit="10"/>
<path d="M13.5361 109.429H213.898" stroke="#C9D0F2" stroke-width="5.15773" stroke-miterlimit="10"/>
<path d="M131.268 96.5014L125.583 102.134H87.2731L92.2151 96.5014H131.268Z" fill="#C9D0F2" stroke="#C9D0F2" stroke-width="0.270463"/>
<path d="M89.702 81.4234L89.701 81.394C89.6243 79.1741 89.1694 77.0176 88.3433 74.9752L88.3433 74.9751C87.4625 72.7967 86.1999 70.8388 84.5913 69.1557C82.9735 67.4635 81.086 66.1332 78.9817 65.2029L78.9817 65.2029C76.819 64.246 74.5247 63.7558 72.1586 63.7437L72.1562 63.7437C70.5957 63.7074 69.0846 63.9675 67.6622 64.5192C66.2035 65.0853 64.9023 65.9302 63.7928 67.0313M89.702 81.4234L68.4294 84.0456C66.6844 84.0456 64.741 83.1892 63.1975 81.7152L63.1974 81.7152C61.4841 80.0796 60.4983 77.9623 60.4156 75.7553L60.4156 75.7553C60.3528 74.0825 60.6243 72.4653 61.2215 70.9465M89.702 81.4234L89.7151 81.4497L89.7159 81.4513L89.7184 81.4563C89.7181 81.6118 89.7165 81.7672 89.7132 81.9218H89.7131V81.9247C89.7131 81.9292 89.7132 81.9338 89.7132 81.9383M89.702 81.4234L89.7132 81.9383M63.7928 67.0313L63.6976 66.9354M63.7928 67.0313L63.6976 66.9354M63.7928 67.0313C62.6697 68.1461 61.8052 69.4633 61.2215 70.9465M63.6976 66.9354C62.5611 68.0634 61.6861 69.3965 61.0957 70.897M63.6976 66.9354C64.8203 65.821 66.1373 64.966 67.6133 64.3932L61.0957 70.897M61.2215 70.9465L61.0957 70.897M61.2215 70.9465L61.0957 70.897M89.7132 81.9383L89.7101 82.0636C89.6455 84.7097 89.1964 87.2005 88.372 89.6837H82.2221C83.2867 87.2642 83.9055 84.6924 83.9715 81.8935L83.9716 81.8935L83.9715 81.8885C83.8811 75.0696 78.6315 69.5349 72.1573 69.4853L72.0867 69.4848C70.4549 69.4303 68.9479 70.0038 67.8385 71.1054C66.6857 72.2497 66.0888 73.8266 66.1528 75.5398C66.1528 75.5398 66.1528 75.5398 66.1528 75.5398L66.2879 75.5348M89.7132 81.9383L74.8148 79.6244L74.7027 79.5841M66.2879 75.5348C66.3088 76.0957 66.5455 76.5758 66.7941 76.9299C66.7843 76.9656 66.775 77.0014 66.7662 77.0374L66.8975 77.0697L67.0042 76.9867C66.9834 76.96 66.9626 76.9325 66.9419 76.904C67.4456 75.1681 69.0468 73.8989 70.9448 73.8989C73.2469 73.8989 75.113 75.765 75.113 78.067C75.113 78.5552 75.0285 79.0238 74.8744 79.4589L74.8607 79.4968L74.7533 79.456C74.7531 79.4566 74.7529 79.4572 74.7526 79.4578C74.7369 79.4992 74.7202 79.5413 74.7027 79.5841M66.2879 75.5348C66.2252 73.8568 66.8095 72.3173 67.9338 71.2014L66.2879 75.5348ZM74.7027 79.5841C74.0238 81.2433 72.0407 83.9119 68.6295 84.0419C68.6294 84.0419 68.6293 84.0419 68.6292 84.0419L74.7027 79.5841Z" fill="#C9D0F2" stroke="#C9D0F2" stroke-width="0.270463"/>
<path d="M63.1099 102.325L63.1099 102.325L63.1176 102.325C70.0474 102.3 76.3373 98.7461 80.1319 93.5243H86.8737C85.6107 95.9546 83.8556 98.3004 81.9037 100.252C79.4548 102.701 76.6022 104.624 73.4252 105.968C72.6739 106.285 71.9121 106.566 71.1411 106.811H53.7859C45.1329 104.822 37.817 100.636 32.3155 94.4692L32.3155 94.4691C32.2811 94.4306 32.2449 94.3901 32.2073 94.3481C31.9825 94.0966 31.7092 93.7909 31.4796 93.5243H39.6347C45.6257 98.6087 53.7213 101.819 63.1099 102.325Z" fill="#C9D0F2" stroke="#C9D0F2" stroke-width="0.270463"/>
<path d="M34.8355 88.6887L34.904 88.7709L34.9114 88.7672C35.0257 88.8889 35.2437 89.1138 35.4563 89.3328L35.4904 89.3679C35.6216 89.5032 35.7492 89.6347 35.8511 89.7403H28.6926C28.6872 89.7344 28.6815 89.7282 28.6755 89.7216C28.6445 89.688 28.6027 89.6436 28.554 89.5924C28.457 89.4903 28.3312 89.3595 28.2056 89.2289L28.2037 89.2269C28.0774 89.0955 27.9514 88.9644 27.8546 88.8626C27.8062 88.8116 27.7655 88.7684 27.7359 88.7363C27.721 88.7202 27.7094 88.7074 27.7013 88.6981C27.6966 88.6927 27.6941 88.6898 27.6931 88.6886C25.9664 86.0091 24.5471 83.0909 23.4504 79.961L23.3228 80.0058L23.4504 79.961C21.6983 74.9609 20.8095 69.5315 20.8095 63.8226C20.8095 55.3348 22.4344 47.0924 25.6397 39.3225L25.5147 39.271L25.6398 39.3225C27.1806 35.586 29.0893 31.9784 31.3125 28.5983C33.5135 25.2518 36.0435 22.0975 38.8314 19.2241C41.6185 16.3515 44.688 13.7338 47.9551 11.4435C51.2528 9.13268 54.7816 7.1332 58.4439 5.50238C66.0558 2.11269 74.159 0.307115 82.5297 0.135232H82.5895C88.9294 0.135232 95.0836 0.540984 100.88 1.34006C106.808 2.15746 112.556 3.41405 117.962 5.07295C123.472 6.76393 128.803 8.92684 133.807 11.5028C138.884 14.1169 143.784 17.2366 148.368 20.7757C148.776 21.0909 149.047 21.3142 149.355 21.5688C149.505 21.693 149.665 21.8246 149.854 21.9779L146.033 26.2722C145.865 26.1365 145.73 26.0243 145.601 25.9171C145.38 25.7339 145.177 25.5656 144.86 25.3203C127.915 12.2401 107.553 5.88222 82.6209 5.87683L82.618 5.87689C51.6963 6.52395 26.5474 32.5138 26.5474 63.8241C26.5474 73.7915 29.5133 82.2988 34.8355 88.6887Z" fill="#C9D0F2" stroke="#C9D0F2" stroke-width="0.270463"/>
<path d="M196.151 89.6623C189.274 77.6548 182.704 67.4728 174.652 56.7997L178.491 52.4173C179.649 53.9402 180.581 55.2975 181.587 56.7626C182.115 57.5319 182.664 58.3309 183.276 59.1993L183.276 59.1993C190.645 69.645 197.109 79.6928 202.755 89.6623H196.151Z" fill="#C9D0F2" stroke="#C9D0F2" stroke-width="0.270463"/>
<path d="M155.734 54.0094C157.346 54.7795 158.75 56.4208 159.517 58.4421L155.734 54.0094ZM155.734 54.0094C155.672 53.9795 155.61 53.9512 155.547 53.9245L155.734 54.0094ZM153.406 32.7754L153.46 32.56L153.31 32.5953C152.723 32.0603 152.397 31.7971 152.067 31.5413C152.011 31.4985 151.956 31.4559 151.899 31.4123C151.629 31.2041 151.329 30.9731 150.859 30.5801L154.517 26.1609C158.066 29.1585 160.482 31.3785 163.986 35.0397C163.986 35.0401 163.986 35.0405 163.987 35.041L169.566 41.1796C169.566 41.18 169.567 41.1804 169.567 41.1808C170.878 42.6957 171.712 43.8055 172.685 45.1011C173.209 45.7975 173.772 46.5476 174.472 47.4431L170.515 51.6486C170.459 51.5762 170.403 51.5042 170.347 51.4325C167.092 47.2367 164.749 44.2164 161.172 40.3885L161.172 40.3884L161.17 40.3857L158.779 37.9712L158.737 37.9291L158.678 37.9312C151.289 38.1952 144.276 42.3716 140.724 49.3731L140.724 49.3731L140.722 49.3776C137.863 55.5686 140.213 62.8266 146.034 65.6626L146.068 65.679C147.524 66.4444 149.142 66.582 150.628 66.0633L150.628 66.0633C152.162 65.5269 153.38 64.3621 154.061 62.7887C154.331 62.1657 154.283 61.521 154.181 61.0578L154.121 60.7854L153.944 61.0011C152.795 62.4034 150.798 62.8975 149.089 62.0807C147.079 61.1201 146.228 58.713 147.189 56.7032L147.189 56.7031C147.399 56.2641 147.677 55.8801 148.006 55.5592L148.101 55.4661L148.09 55.454C149.417 54.2493 152.358 52.6944 155.493 54.0486L155.494 54.0488C155.555 54.0747 155.615 54.1022 155.675 54.1312L155.675 54.1314C157.25 54.8836 158.633 56.4942 159.391 58.4901C160.23 60.7052 160.207 63.0402 159.33 65.0675L159.454 65.1211L159.33 65.0675C158.666 66.604 157.723 67.946 156.529 69.0588C155.364 70.1452 154.016 70.9605 152.521 71.482C151.046 71.9967 149.508 72.1985 147.948 72.0798C146.425 71.9642 144.951 71.547 143.558 70.8413L143.556 70.8402C141.427 69.8097 139.568 68.3772 138.03 66.5819C136.533 64.835 135.404 62.8208 134.673 60.5965C133.948 58.3843 133.653 56.0734 133.797 53.7278L133.662 53.7195L133.797 53.7278C133.932 51.5282 134.452 49.3869 135.34 47.3508L135.392 47.2332L135.381 47.2278C135.439 47.1082 135.498 46.9889 135.558 46.87L135.558 46.87L135.559 46.8665C135.564 46.8567 135.568 46.8473 135.572 46.8382L135.621 46.7431C137.145 43.7448 139.185 41.103 141.693 38.8819C144.276 36.5953 147.241 34.8505 150.506 33.6968L150.506 33.6968C151.406 33.3787 152.315 33.1105 153.233 32.8914L153.35 32.9985L153.405 32.7785L153.406 32.7754ZM152.566 71.6097C154.078 71.082 155.442 70.2568 156.622 69.1577L143.497 70.9619C144.905 71.6755 146.397 72.0976 147.937 72.2147C149.516 72.3347 151.073 72.1305 152.566 71.6097Z" fill="#C9D0F2" stroke="#C9D0F2" stroke-width="0.270463"/>
<path d="M206.921 97.8961L206.928 97.9091L209.005 102.126L204.398 102.134L204.398 102.134L134.813 102.134L139.697 96.3936H199.334H199.562L199.452 96.1932C198.967 95.3117 198.48 94.4295 197.991 93.5486H204.549C205.369 95.041 206.16 96.4926 206.921 97.8961Z" fill="#C9D0F2" stroke="#C9D0F2" stroke-width="0.270463"/>
<path d="M163.392 9.96176L164.967 11.3554L58.5109 130.884H56.3575L55.1067 114.27H57.2016L58.2424 128.394L58.266 128.714L58.4786 128.474L163.392 9.96176Z" fill="#C9D0F2" stroke="#C9D0F2" stroke-width="0.270463"/>
<path d="M121.542 113.835L122.839 130.884H120.737L119.613 116.309L119.588 115.99L119.376 116.23L106.461 130.884H103.801L210.063 10.1585L211.641 11.5476L121.575 113.736L121.537 113.779L121.542 113.835Z" fill="#C9D0F2" stroke="#C9D0F2" stroke-width="0.270463"/>
<path d="M12.1738 136.348H212.535" stroke="#C9D0F2" stroke-width="5.15773" stroke-miterlimit="10"/>
<path d="M179.139 124.406L179.147 124.384C179.616 123.059 180.556 121.897 181.693 121.089C182.83 120.28 184.173 119.818 185.452 119.906C185.452 119.906 185.452 119.906 185.452 119.906L185.443 120.041L179.139 124.406ZM179.139 124.406V124.407V124.406ZM185.567 118.239C187.22 118.353 188.568 119.109 189.39 120.368L189.39 120.368L189.376 120.376L189.365 120.387L180.807 128.869L180.656 129.018L180.856 129.092C181.064 129.168 181.284 129.226 181.517 129.265V129.267L181.634 129.283C183.431 129.526 185.485 128.625 186.915 127.004L188.189 128.086C186.59 129.91 184.323 130.991 182.207 130.991C181.938 130.991 181.672 130.974 181.41 130.938L181.41 130.938C179.888 130.732 178.645 129.944 177.9 128.724C177.074 127.369 176.948 125.586 177.571 123.826L177.571 123.826C178.763 120.461 182.286 118.011 185.567 118.239L185.567 118.239Z" fill="#C9D0F2" stroke="#C9D0F2" stroke-width="0.270463"/>
<path d="M1.62533 162.087C1.51697 162.087 1.43324 162.057 1.37414 161.998C1.31504 161.929 1.28548 161.846 1.28548 161.747V152.099C1.28548 151.99 1.31504 151.906 1.37414 151.847C1.43324 151.778 1.51697 151.744 1.62533 151.744H5.67386C6.41265 151.744 7.01353 151.867 7.4765 152.113C7.94932 152.35 8.29408 152.675 8.51079 153.089C8.73736 153.502 8.85064 153.965 8.85064 154.477C8.85064 154.881 8.78168 155.231 8.64378 155.527C8.51572 155.812 8.35319 156.049 8.15618 156.236C7.95917 156.413 7.76708 156.551 7.57993 156.649C7.96409 156.837 8.30394 157.142 8.59945 157.566C8.90481 157.989 9.0575 158.501 9.0575 159.102C9.0575 159.644 8.93436 160.141 8.6881 160.595C8.44184 161.048 8.07245 161.412 7.57993 161.688C7.09725 161.954 6.5013 162.087 5.79207 162.087H1.62533ZM2.7335 160.89H5.59998C6.23041 160.89 6.71801 160.718 7.06278 160.373C7.40754 160.028 7.57993 159.605 7.57993 159.102C7.57993 158.58 7.40754 158.152 7.06278 157.817C6.71801 157.472 6.23041 157.3 5.59998 157.3H2.7335V160.89ZM2.7335 156.118H5.45223C6.08266 156.118 6.5604 155.975 6.88547 155.689C7.21053 155.394 7.37307 154.995 7.37307 154.492C7.37307 153.99 7.21053 153.606 6.88547 153.34C6.5604 153.074 6.08266 152.941 5.45223 152.941H2.7335V156.118ZM14.7032 162.235C13.8758 162.235 13.1616 162.087 12.5607 161.791C11.9697 161.496 11.5117 161.048 11.1866 160.447C10.8714 159.836 10.7138 159.053 10.7138 158.097V152.099C10.7138 151.99 10.7433 151.906 10.8024 151.847C10.8615 151.778 10.9453 151.744 11.0536 151.744H11.8072C11.9155 151.744 11.9992 151.778 12.0584 151.847C12.1273 151.906 12.1618 151.99 12.1618 152.099V158.127C12.1618 159.092 12.3883 159.807 12.8415 160.27C13.2946 160.732 13.9152 160.964 14.7032 160.964C15.4814 160.964 16.097 160.732 16.5502 160.27C17.0131 159.807 17.2446 159.092 17.2446 158.127V152.099C17.2446 151.99 17.2742 151.906 17.3333 151.847C17.4022 151.778 17.486 151.744 17.5845 151.744H18.3528C18.4513 151.744 18.5301 151.778 18.5892 151.847C18.6582 151.906 18.6926 151.99 18.6926 152.099V158.097C18.6926 159.053 18.5301 159.836 18.205 160.447C17.8898 161.048 17.4367 161.496 16.8457 161.791C16.2546 162.087 15.5405 162.235 14.7032 162.235ZM21.1498 162.087C21.0414 162.087 20.9577 162.057 20.8986 161.998C20.8395 161.929 20.81 161.846 20.81 161.747V152.084C20.81 151.985 20.8395 151.906 20.8986 151.847C20.9577 151.778 21.0414 151.744 21.1498 151.744H21.9329C22.0314 151.744 22.1102 151.778 22.1693 151.847C22.2383 151.906 22.2727 151.985 22.2727 152.084V160.801H27.1783C27.2866 160.801 27.3704 160.836 27.4295 160.905C27.4984 160.964 27.5329 161.048 27.5329 161.156V161.747C27.5329 161.846 27.4984 161.929 27.4295 161.998C27.3704 162.057 27.2866 162.087 27.1783 162.087H21.1498ZM29.1228 162.087C29.0144 162.087 28.9307 162.057 28.8716 161.998C28.8125 161.929 28.7829 161.846 28.7829 161.747V152.099C28.7829 151.99 28.8125 151.906 28.8716 151.847C28.9307 151.778 29.0144 151.744 29.1228 151.744H32.4769C33.4915 151.744 34.309 151.897 34.9296 152.202C35.5502 152.507 36.0033 152.96 36.289 153.561C36.5747 154.152 36.7224 154.881 36.7323 155.748C36.7421 156.191 36.747 156.581 36.747 156.915C36.747 157.25 36.7421 157.635 36.7323 158.068C36.7126 158.974 36.5599 159.728 36.2742 160.329C35.9984 160.92 35.5551 161.363 34.9444 161.658C34.3435 161.944 33.5456 162.087 32.5507 162.087H29.1228ZM30.231 160.831H32.4769C33.1565 160.831 33.6983 160.737 34.1022 160.55C34.5061 160.363 34.7966 160.063 34.974 159.649C35.1611 159.235 35.2596 158.689 35.2695 158.009C35.2892 157.713 35.299 157.457 35.299 157.24C35.299 157.014 35.299 156.792 35.299 156.576C35.299 156.349 35.2892 156.093 35.2695 155.807C35.2498 154.852 35.0232 154.147 34.5898 153.694C34.1564 153.231 33.4274 153 32.403 153H30.231V160.831ZM38.9572 162.087C38.8488 162.087 38.7651 162.057 38.706 161.998C38.6469 161.929 38.6173 161.846 38.6173 161.747V152.084C38.6173 151.985 38.6469 151.906 38.706 151.847C38.7651 151.778 38.8488 151.744 38.9572 151.744H39.7403C39.8486 151.744 39.9324 151.778 39.9915 151.847C40.0506 151.906 40.0801 151.985 40.0801 152.084V161.747C40.0801 161.846 40.0506 161.929 39.9915 161.998C39.9324 162.057 39.8486 162.087 39.7403 162.087H38.9572ZM42.6446 162.087C42.5363 162.087 42.4525 162.057 42.3934 161.998C42.3343 161.929 42.3048 161.846 42.3048 161.747V152.099C42.3048 151.99 42.3343 151.906 42.3934 151.847C42.4525 151.778 42.5363 151.744 42.6446 151.744H43.3243C43.4425 151.744 43.5312 151.773 43.5903 151.833C43.6494 151.882 43.6839 151.921 43.6937 151.951L48.5992 159.486V152.099C48.5992 151.99 48.6288 151.906 48.6879 151.847C48.747 151.778 48.8307 151.744 48.9391 151.744H49.6483C49.7567 151.744 49.8404 151.778 49.8995 151.847C49.9684 151.906 50.0029 151.99 50.0029 152.099V161.732C50.0029 161.831 49.9684 161.915 49.8995 161.983C49.8404 162.052 49.7616 162.087 49.6631 162.087H48.9538C48.8455 162.087 48.7618 162.057 48.7027 161.998C48.6534 161.939 48.6189 161.9 48.5992 161.88L43.7085 154.418V161.747C43.7085 161.846 43.674 161.929 43.605 161.998C43.5459 162.057 43.4622 162.087 43.3539 162.087H42.6446ZM55.9935 162.235C55.1169 162.235 54.3731 162.072 53.7624 161.747C53.1615 161.422 52.6986 160.964 52.3735 160.373C52.0583 159.782 51.881 159.087 51.8416 158.29C51.8317 157.856 51.8268 157.398 51.8268 156.915C51.8268 156.423 51.8317 155.955 51.8416 155.512C51.881 154.714 52.0583 154.024 52.3735 153.443C52.6986 152.852 53.1665 152.399 53.7772 152.084C54.3879 151.759 55.1267 151.596 55.9935 151.596C56.6831 151.596 57.284 151.695 57.7962 151.892C58.3084 152.089 58.727 152.34 59.0521 152.645C59.387 152.941 59.6333 153.251 59.7909 153.576C59.9584 153.901 60.047 154.187 60.0569 154.433C60.0667 154.522 60.0421 154.596 59.983 154.655C59.9239 154.704 59.8451 154.729 59.7466 154.729H58.8748C58.7763 154.729 58.7024 154.709 58.6532 154.67C58.6138 154.63 58.5744 154.561 58.535 154.463C58.4463 154.207 58.2985 153.955 58.0917 153.709C57.8947 153.463 57.6238 153.261 57.279 153.103C56.9441 152.936 56.5156 152.852 55.9935 152.852C55.2055 152.852 54.5702 153.064 54.0875 153.487C53.6147 153.911 53.3585 154.61 53.3191 155.586C53.2896 156.462 53.2896 157.339 53.3191 158.216C53.3585 159.201 53.6196 159.91 54.1023 160.343C54.5849 160.767 55.2154 160.979 55.9935 160.979C56.5156 160.979 56.9786 160.88 57.3825 160.683C57.7962 160.486 58.1212 160.191 58.3577 159.797C58.5941 159.393 58.7123 158.881 58.7123 158.26V157.639H56.4959C56.3974 157.639 56.3137 157.61 56.2447 157.551C56.1856 157.482 56.1561 157.393 56.1561 157.285V156.812C56.1561 156.704 56.1856 156.62 56.2447 156.561C56.3137 156.492 56.3974 156.457 56.4959 156.457H59.8352C59.9436 156.457 60.0273 156.492 60.0864 156.561C60.1455 156.62 60.1751 156.704 60.1751 156.812V158.23C60.1751 159.038 60.0076 159.743 59.6727 160.343C59.3476 160.944 58.8699 161.412 58.2394 161.747C57.609 162.072 56.8604 162.235 55.9935 162.235ZM67.4246 162.087C67.3261 162.087 67.2424 162.057 67.1734 161.998C67.1143 161.929 67.0848 161.846 67.0848 161.747V153.059H64.2479C64.1494 153.059 64.0656 153.029 63.9967 152.97C63.9376 152.901 63.908 152.818 63.908 152.719V152.099C63.908 151.99 63.9376 151.906 63.9967 151.847C64.0656 151.778 64.1494 151.744 64.2479 151.744H71.3697C71.4781 151.744 71.5618 151.778 71.6209 151.847C71.6899 151.906 71.7244 151.99 71.7244 152.099V152.719C71.7244 152.818 71.6899 152.901 71.6209 152.97C71.5618 153.029 71.4781 153.059 71.3697 153.059H68.5476V161.747C68.5476 161.846 68.5131 161.929 68.4442 161.998C68.385 162.057 68.3013 162.087 68.193 162.087H67.4246ZM73.3678 162.087C73.2595 162.087 73.1757 162.057 73.1166 161.998C73.0575 161.929 73.028 161.846 73.028 161.747V152.099C73.028 151.99 73.0575 151.906 73.1166 151.847C73.1757 151.778 73.2595 151.744 73.3678 151.744H76.9731C78.0862 151.744 78.9678 152.005 79.6179 152.527C80.2681 153.049 80.5931 153.822 80.5931 154.847C80.5931 155.605 80.401 156.226 80.0169 156.709C79.6426 157.181 79.1303 157.511 78.4802 157.699L80.7557 161.629C80.7852 161.688 80.8 161.742 80.8 161.791C80.8 161.87 80.7655 161.939 80.6965 161.998C80.6374 162.057 80.5685 162.087 80.4897 162.087H79.7805C79.613 162.087 79.4899 162.043 79.4111 161.954C79.3323 161.865 79.2633 161.777 79.2042 161.688L77.0617 157.935H74.476V161.747C74.476 161.846 74.4415 161.929 74.3726 161.998C74.3135 162.057 74.2297 162.087 74.1214 162.087H73.3678ZM74.476 156.679H76.914C77.6528 156.679 78.2044 156.526 78.5689 156.221C78.9333 155.906 79.1156 155.443 79.1156 154.832C79.1156 154.231 78.9333 153.773 78.5689 153.458C78.2142 153.143 77.6626 152.985 76.914 152.985H74.476V156.679ZM81.6629 162.087C81.5841 162.087 81.5151 162.057 81.456 161.998C81.3969 161.939 81.3674 161.87 81.3674 161.791C81.3674 161.742 81.3723 161.688 81.3821 161.629L85.0465 152.069C85.0859 151.97 85.1401 151.892 85.209 151.833C85.278 151.773 85.3814 151.744 85.5193 151.744H86.5241C86.662 151.744 86.7654 151.773 86.8344 151.833C86.9033 151.892 86.9575 151.97 86.9969 152.069L90.6465 161.629C90.6662 161.688 90.676 161.742 90.676 161.791C90.676 161.87 90.6465 161.939 90.5874 161.998C90.5283 162.057 90.4593 162.087 90.3805 162.087H89.627C89.5088 162.087 89.4201 162.057 89.361 161.998C89.3117 161.939 89.2773 161.885 89.2576 161.836L88.4449 159.738H83.5985L82.7858 161.836C82.776 161.885 82.7415 161.939 82.6824 161.998C82.6233 162.057 82.5346 162.087 82.4164 162.087H81.6629ZM84.027 158.467H88.0164L86.0217 153.222L84.027 158.467ZM92.243 162.087C92.1346 162.087 92.0509 162.057 91.9918 161.998C91.9327 161.929 91.9031 161.846 91.9031 161.747V152.099C91.9031 151.99 91.9327 151.906 91.9918 151.847C92.0509 151.778 92.1346 151.744 92.243 151.744H92.9226C93.0408 151.744 93.1295 151.773 93.1886 151.833C93.2477 151.882 93.2822 151.921 93.292 151.951L98.1976 159.486V152.099C98.1976 151.99 98.2271 151.906 98.2862 151.847C98.3453 151.778 98.429 151.744 98.5374 151.744H99.2466C99.355 151.744 99.4387 151.778 99.4978 151.847C99.5668 151.906 99.6012 151.99 99.6012 152.099V161.732C99.6012 161.831 99.5668 161.915 99.4978 161.983C99.4387 162.052 99.3599 162.087 99.2614 162.087H98.5522C98.4438 162.087 98.3601 162.057 98.301 161.998C98.2517 161.939 98.2173 161.9 98.1976 161.88L93.3068 154.418V161.747C93.3068 161.846 93.2723 161.929 93.2034 161.998C93.1443 162.057 93.0605 162.087 92.9522 162.087H92.243ZM105.149 162.235C104.292 162.235 103.573 162.102 102.991 161.836C102.41 161.57 101.962 161.23 101.647 160.816C101.341 160.393 101.179 159.949 101.159 159.486C101.159 159.408 101.189 159.339 101.248 159.28C101.317 159.211 101.396 159.176 101.484 159.176H102.238C102.356 159.176 102.445 159.206 102.504 159.265C102.563 159.324 102.602 159.393 102.622 159.472C102.681 159.708 102.804 159.944 102.991 160.181C103.179 160.407 103.444 160.599 103.789 160.757C104.144 160.905 104.597 160.979 105.149 160.979C105.996 160.979 106.616 160.831 107.01 160.535C107.414 160.23 107.616 159.826 107.616 159.324C107.616 158.979 107.508 158.703 107.291 158.496C107.084 158.28 106.764 158.088 106.331 157.92C105.897 157.753 105.336 157.57 104.646 157.373C103.927 157.167 103.331 156.94 102.858 156.694C102.386 156.448 102.031 156.142 101.795 155.778C101.568 155.413 101.455 154.95 101.455 154.389C101.455 153.857 101.598 153.384 101.883 152.97C102.169 152.547 102.583 152.212 103.124 151.966C103.666 151.719 104.316 151.596 105.075 151.596C105.685 151.596 106.217 151.68 106.67 151.847C107.133 152.005 107.518 152.222 107.823 152.497C108.128 152.763 108.36 153.054 108.517 153.369C108.675 153.675 108.759 153.975 108.769 154.271C108.769 154.34 108.744 154.408 108.695 154.477C108.646 154.537 108.567 154.566 108.458 154.566H107.675C107.606 154.566 107.532 154.546 107.454 154.507C107.385 154.468 107.33 154.394 107.291 154.285C107.232 153.881 107.005 153.542 106.611 153.266C106.217 152.99 105.705 152.852 105.075 152.852C104.434 152.852 103.912 152.975 103.508 153.222C103.114 153.468 102.917 153.852 102.917 154.374C102.917 154.709 103.011 154.99 103.198 155.216C103.385 155.433 103.681 155.625 104.085 155.792C104.489 155.96 105.016 156.137 105.666 156.324C106.454 156.541 107.099 156.773 107.601 157.019C108.104 157.255 108.473 157.556 108.71 157.92C108.956 158.275 109.079 158.733 109.079 159.294C109.079 159.915 108.916 160.447 108.591 160.89C108.266 161.324 107.808 161.658 107.217 161.895C106.636 162.121 105.946 162.235 105.149 162.235ZM111.003 162.087C110.894 162.087 110.811 162.057 110.751 161.998C110.692 161.929 110.663 161.846 110.663 161.747V152.084C110.663 151.985 110.692 151.906 110.751 151.847C110.811 151.778 110.894 151.744 111.003 151.744H111.786C111.884 151.744 111.963 151.778 112.022 151.847C112.091 151.906 112.126 151.985 112.126 152.084V160.801H117.031C117.139 160.801 117.223 160.836 117.282 160.905C117.351 160.964 117.386 161.048 117.386 161.156V161.747C117.386 161.846 117.351 161.929 117.282 161.998C117.223 162.057 117.139 162.087 117.031 162.087H111.003ZM117.941 162.087C117.863 162.087 117.794 162.057 117.734 161.998C117.675 161.939 117.646 161.87 117.646 161.791C117.646 161.742 117.651 161.688 117.661 161.629L121.325 152.069C121.364 151.97 121.419 151.892 121.488 151.833C121.556 151.773 121.66 151.744 121.798 151.744H122.803C122.94 151.744 123.044 151.773 123.113 151.833C123.182 151.892 123.236 151.97 123.275 152.069L126.925 161.629C126.945 161.688 126.955 161.742 126.955 161.791C126.955 161.87 126.925 161.939 126.866 161.998C126.807 162.057 126.738 162.087 126.659 162.087H125.905C125.787 162.087 125.699 162.057 125.639 161.998C125.59 161.939 125.556 161.885 125.536 161.836L124.723 159.738H119.877L119.064 161.836C119.054 161.885 119.02 161.939 118.961 161.998C118.902 162.057 118.813 162.087 118.695 162.087H117.941ZM120.305 158.467H124.295L122.3 153.222L120.305 158.467ZM129.685 162.087C129.587 162.087 129.503 162.057 129.434 161.998C129.375 161.929 129.346 161.846 129.346 161.747V153.059H126.509C126.41 153.059 126.326 153.029 126.258 152.97C126.198 152.901 126.169 152.818 126.169 152.719V152.099C126.169 151.99 126.198 151.906 126.258 151.847C126.326 151.778 126.41 151.744 126.509 151.744H133.631C133.739 151.744 133.823 151.778 133.882 151.847C133.951 151.906 133.985 151.99 133.985 152.099V152.719C133.985 152.818 133.951 152.901 133.882 152.97C133.823 153.029 133.739 153.059 133.631 153.059H130.808V161.747C130.808 161.846 130.774 161.929 130.705 161.998C130.646 162.057 130.562 162.087 130.454 162.087H129.685ZM135.629 162.087C135.52 162.087 135.437 162.057 135.377 161.998C135.318 161.929 135.289 161.846 135.289 161.747V152.084C135.289 151.985 135.318 151.906 135.377 151.847C135.437 151.778 135.52 151.744 135.629 151.744H136.412C136.52 151.744 136.604 151.778 136.663 151.847C136.722 151.906 136.752 151.985 136.752 152.084V161.747C136.752 161.846 136.722 161.929 136.663 161.998C136.604 162.057 136.52 162.087 136.412 162.087H135.629ZM142.7 162.235C141.853 162.235 141.129 162.092 140.528 161.806C139.927 161.511 139.464 161.062 139.139 160.462C138.814 159.851 138.632 159.087 138.592 158.171C138.582 157.738 138.577 157.324 138.577 156.93C138.577 156.526 138.582 156.108 138.592 155.674C138.632 154.768 138.819 154.014 139.154 153.414C139.498 152.803 139.971 152.35 140.572 152.054C141.183 151.749 141.892 151.596 142.7 151.596C143.498 151.596 144.197 151.749 144.798 152.054C145.409 152.35 145.886 152.803 146.231 153.414C146.576 154.014 146.763 154.768 146.793 155.674C146.812 156.108 146.822 156.526 146.822 156.93C146.822 157.324 146.812 157.738 146.793 158.171C146.763 159.087 146.581 159.851 146.246 160.462C145.921 161.062 145.458 161.511 144.857 161.806C144.256 162.092 143.537 162.235 142.7 162.235ZM142.7 160.979C143.448 160.979 144.059 160.752 144.532 160.299C145.015 159.846 145.276 159.112 145.315 158.097C145.335 157.654 145.345 157.26 145.345 156.915C145.345 156.561 145.335 156.167 145.315 155.733C145.295 155.054 145.167 154.502 144.931 154.078C144.704 153.655 144.399 153.345 144.015 153.148C143.631 152.951 143.192 152.852 142.7 152.852C142.207 152.852 141.769 152.951 141.385 153.148C141.001 153.345 140.69 153.655 140.454 154.078C140.227 154.502 140.099 155.054 140.07 155.733C140.06 156.167 140.055 156.561 140.055 156.915C140.055 157.26 140.06 157.654 140.07 158.097C140.109 159.112 140.37 159.846 140.853 160.299C141.335 160.752 141.951 160.979 142.7 160.979ZM148.963 162.087C148.855 162.087 148.771 162.057 148.712 161.998C148.653 161.929 148.623 161.846 148.623 161.747V152.099C148.623 151.99 148.653 151.906 148.712 151.847C148.771 151.778 148.855 151.744 148.963 151.744H149.643C149.761 151.744 149.849 151.773 149.909 151.833C149.968 151.882 150.002 151.921 150.012 151.951L154.918 159.486V152.099C154.918 151.99 154.947 151.906 155.006 151.847C155.065 151.778 155.149 151.744 155.257 151.744H155.967C156.075 151.744 156.159 151.778 156.218 151.847C156.287 151.906 156.321 151.99 156.321 152.099V161.732C156.321 161.831 156.287 161.915 156.218 161.983C156.159 162.052 156.08 162.087 155.981 162.087H155.272C155.164 162.087 155.08 162.057 155.021 161.998C154.972 161.939 154.937 161.9 154.918 161.88L150.027 154.418V161.747C150.027 161.846 149.992 161.929 149.923 161.998C149.864 162.057 149.781 162.087 149.672 162.087H148.963ZM158.884 162.087C158.776 162.087 158.692 162.057 158.633 161.998C158.574 161.929 158.544 161.846 158.544 161.747V152.084C158.544 151.985 158.574 151.906 158.633 151.847C158.692 151.778 158.776 151.744 158.884 151.744H159.667C159.766 151.744 159.844 151.778 159.903 151.847C159.972 151.906 160.007 151.985 160.007 152.084V160.801H164.912C165.021 160.801 165.104 160.836 165.164 160.905C165.233 160.964 165.267 161.048 165.267 161.156V161.747C165.267 161.846 165.233 161.929 165.164 161.998C165.104 162.057 165.021 162.087 164.912 162.087H158.884ZM172.721 162.235C171.864 162.235 171.145 162.102 170.564 161.836C169.983 161.57 169.534 161.23 169.219 160.816C168.914 160.393 168.751 159.949 168.732 159.486C168.732 159.408 168.761 159.339 168.82 159.28C168.889 159.211 168.968 159.176 169.057 159.176H169.81C169.928 159.176 170.017 159.206 170.076 159.265C170.135 159.324 170.175 159.393 170.194 159.472C170.253 159.708 170.377 159.944 170.564 160.181C170.751 160.407 171.017 160.599 171.362 160.757C171.716 160.905 172.169 160.979 172.721 160.979C173.568 160.979 174.189 160.831 174.583 160.535C174.987 160.23 175.189 159.826 175.189 159.324C175.189 158.979 175.08 158.703 174.863 158.496C174.657 158.28 174.336 158.088 173.903 157.92C173.47 157.753 172.908 157.57 172.219 157.373C171.5 157.167 170.904 156.94 170.431 156.694C169.958 156.448 169.603 156.142 169.367 155.778C169.14 155.413 169.027 154.95 169.027 154.389C169.027 153.857 169.17 153.384 169.456 152.97C169.741 152.547 170.155 152.212 170.697 151.966C171.238 151.719 171.889 151.596 172.647 151.596C173.258 151.596 173.79 151.68 174.243 151.847C174.706 152.005 175.09 152.222 175.395 152.497C175.701 152.763 175.932 153.054 176.09 153.369C176.247 153.675 176.331 153.975 176.341 154.271C176.341 154.34 176.316 154.408 176.267 154.477C176.218 154.537 176.139 154.566 176.031 154.566H175.248C175.179 154.566 175.105 154.546 175.026 154.507C174.957 154.468 174.903 154.394 174.863 154.285C174.804 153.881 174.578 153.542 174.184 153.266C173.79 152.99 173.278 152.852 172.647 152.852C172.007 152.852 171.485 152.975 171.081 153.222C170.687 153.468 170.49 153.852 170.49 154.374C170.49 154.709 170.583 154.99 170.771 155.216C170.958 155.433 171.253 155.625 171.657 155.792C172.061 155.96 172.588 156.137 173.238 156.324C174.026 156.541 174.671 156.773 175.174 157.019C175.676 157.255 176.046 157.556 176.282 157.92C176.528 158.275 176.651 158.733 176.651 159.294C176.651 159.915 176.489 160.447 176.164 160.89C175.839 161.324 175.381 161.658 174.79 161.895C174.208 162.121 173.519 162.235 172.721 162.235ZM181.959 162.235C181.052 162.235 180.299 162.067 179.698 161.732C179.107 161.397 178.659 160.929 178.353 160.329C178.048 159.728 177.881 159.028 177.851 158.23C177.841 157.827 177.836 157.393 177.836 156.93C177.836 156.467 177.841 156.024 177.851 155.6C177.881 154.803 178.048 154.103 178.353 153.502C178.659 152.901 179.107 152.433 179.698 152.099C180.299 151.764 181.052 151.596 181.959 151.596C182.638 151.596 183.234 151.69 183.747 151.877C184.259 152.064 184.682 152.315 185.017 152.63C185.362 152.946 185.623 153.3 185.8 153.694C185.978 154.078 186.076 154.477 186.096 154.891C186.106 154.98 186.076 155.054 186.007 155.113C185.948 155.172 185.874 155.201 185.786 155.201H184.973C184.884 155.201 184.805 155.177 184.737 155.128C184.677 155.078 184.633 154.99 184.604 154.862C184.436 154.093 184.121 153.566 183.658 153.281C183.205 152.995 182.638 152.852 181.959 152.852C181.161 152.852 180.53 153.079 180.067 153.532C179.604 153.975 179.358 154.689 179.329 155.674C179.299 156.482 179.299 157.309 179.329 158.157C179.358 159.142 179.604 159.861 180.067 160.314C180.53 160.757 181.161 160.979 181.959 160.979C182.638 160.979 183.205 160.836 183.658 160.55C184.121 160.265 184.436 159.738 184.604 158.969C184.633 158.841 184.677 158.753 184.737 158.703C184.805 158.654 184.884 158.629 184.973 158.629H185.786C185.874 158.629 185.948 158.659 186.007 158.718C186.076 158.767 186.106 158.836 186.096 158.925C186.076 159.339 185.978 159.743 185.8 160.137C185.623 160.531 185.362 160.885 185.017 161.2C184.682 161.516 184.259 161.767 183.747 161.954C183.234 162.141 182.638 162.235 181.959 162.235ZM188.063 162.087C187.955 162.087 187.871 162.057 187.812 161.998C187.753 161.929 187.723 161.846 187.723 161.747V152.084C187.723 151.985 187.753 151.906 187.812 151.847C187.871 151.778 187.955 151.744 188.063 151.744H188.846C188.955 151.744 189.038 151.778 189.097 151.847C189.157 151.906 189.186 151.985 189.186 152.084V161.747C189.186 161.846 189.157 161.929 189.097 161.998C189.038 162.057 188.955 162.087 188.846 162.087H188.063ZM191.751 162.087C191.642 162.087 191.559 162.057 191.499 161.998C191.44 161.929 191.411 161.846 191.411 161.747V152.099C191.411 151.99 191.44 151.906 191.499 151.847C191.559 151.778 191.642 151.744 191.751 151.744H197.853C197.961 151.744 198.045 151.778 198.104 151.847C198.163 151.906 198.193 151.99 198.193 152.099V152.66C198.193 152.768 198.163 152.852 198.104 152.911C198.045 152.97 197.961 153 197.853 153H192.829V156.236H197.528C197.636 156.236 197.72 156.27 197.779 156.339C197.838 156.398 197.868 156.482 197.868 156.59V157.137C197.868 157.236 197.838 157.319 197.779 157.388C197.72 157.447 197.636 157.477 197.528 157.477H192.829V160.831H197.971C198.08 160.831 198.163 160.861 198.222 160.92C198.281 160.979 198.311 161.062 198.311 161.171V161.747C198.311 161.846 198.281 161.929 198.222 161.998C198.163 162.057 198.08 162.087 197.971 162.087H191.751ZM200.358 162.087C200.25 162.087 200.166 162.057 200.107 161.998C200.048 161.929 200.019 161.846 200.019 161.747V152.099C200.019 151.99 200.048 151.906 200.107 151.847C200.166 151.778 200.25 151.744 200.358 151.744H201.038C201.156 151.744 201.245 151.773 201.304 151.833C201.363 151.882 201.398 151.921 201.408 151.951L206.313 159.486V152.099C206.313 151.99 206.343 151.906 206.402 151.847C206.461 151.778 206.545 151.744 206.653 151.744H207.362C207.471 151.744 207.554 151.778 207.613 151.847C207.682 151.906 207.717 151.99 207.717 152.099V161.732C207.717 161.831 207.682 161.915 207.613 161.983C207.554 162.052 207.475 162.087 207.377 162.087H206.668C206.559 162.087 206.476 162.057 206.417 161.998C206.367 161.939 206.333 161.9 206.313 161.88L201.422 154.418V161.747C201.422 161.846 201.388 161.929 201.319 161.998C201.26 162.057 201.176 162.087 201.068 162.087H200.358ZM213.663 162.235C212.757 162.235 212.003 162.067 211.402 161.732C210.811 161.397 210.363 160.929 210.058 160.329C209.752 159.728 209.585 159.028 209.555 158.23C209.546 157.827 209.541 157.393 209.541 156.93C209.541 156.467 209.546 156.024 209.555 155.6C209.585 154.803 209.752 154.103 210.058 153.502C210.363 152.901 210.811 152.433 211.402 152.099C212.003 151.764 212.757 151.596 213.663 151.596C214.343 151.596 214.939 151.69 215.451 151.877C215.963 152.064 216.387 152.315 216.722 152.63C217.066 152.946 217.327 153.3 217.505 153.694C217.682 154.078 217.781 154.477 217.8 154.891C217.81 154.98 217.781 155.054 217.712 155.113C217.653 155.172 217.579 155.201 217.49 155.201H216.677C216.589 155.201 216.51 155.177 216.441 155.128C216.382 155.078 216.337 154.99 216.308 154.862C216.14 154.093 215.825 153.566 215.362 153.281C214.909 152.995 214.343 152.852 213.663 152.852C212.865 152.852 212.235 153.079 211.772 153.532C211.309 153.975 211.063 154.689 211.033 155.674C211.003 156.482 211.003 157.309 211.033 158.157C211.063 159.142 211.309 159.861 211.772 160.314C212.235 160.757 212.865 160.979 213.663 160.979C214.343 160.979 214.909 160.836 215.362 160.55C215.825 160.265 216.14 159.738 216.308 158.969C216.337 158.841 216.382 158.753 216.441 158.703C216.51 158.654 216.589 158.629 216.677 158.629H217.49C217.579 158.629 217.653 158.659 217.712 158.718C217.781 158.767 217.81 158.836 217.8 158.925C217.781 159.339 217.682 159.743 217.505 160.137C217.327 160.531 217.066 160.885 216.722 161.2C216.387 161.516 215.963 161.767 215.451 161.954C214.939 162.141 214.343 162.235 213.663 162.235ZM219.768 162.087C219.659 162.087 219.575 162.057 219.516 161.998C219.457 161.929 219.428 161.846 219.428 161.747V152.099C219.428 151.99 219.457 151.906 219.516 151.847C219.575 151.778 219.659 151.744 219.768 151.744H225.87C225.978 151.744 226.062 151.778 226.121 151.847C226.18 151.906 226.21 151.99 226.21 152.099V152.66C226.21 152.768 226.18 152.852 226.121 152.911C226.062 152.97 225.978 153 225.87 153H220.846V156.236H225.545C225.653 156.236 225.737 156.27 225.796 156.339C225.855 156.398 225.885 156.482 225.885 156.59V157.137C225.885 157.236 225.855 157.319 225.796 157.388C225.737 157.447 225.653 157.477 225.545 157.477H220.846V160.831H225.988C226.096 160.831 226.18 160.861 226.239 160.92C226.298 160.979 226.328 161.062 226.328 161.171V161.747C226.328 161.846 226.298 161.929 226.239 161.998C226.18 162.057 226.096 162.087 225.988 162.087H219.768Z" fill="#C9D0F2"/>
</svg>
