<svg width="24" height="24" viewBox="0 0 24 24" fill="none" xmlns="http://www.w3.org/2000/svg">
<mask id="mask0_741_394" style="mask-type:alpha" maskUnits="userSpaceOnUse" x="0" y="0" width="24" height="24">
<rect width="24" height="24" fill="#D9D9D9"/>
</mask>
<g mask="url(#mask0_741_394)">
<path d="M5.49983 22.5577V21.8077C5.49983 19.4846 5.97676 17.6391 6.93061 16.2712C7.88446 14.9032 9.18894 13.4795 10.8441 12C9.18253 10.5205 7.87484 9.0968 6.92101 7.72885C5.96716 6.36092 5.49023 4.51541 5.49023 2.19233V1.44235H6.99018V2.19233C6.99018 2.45259 6.99756 2.69875 7.01231 2.9308C7.02706 3.16285 7.05238 3.39106 7.08828 3.61543H16.9017C16.9376 3.39106 16.963 3.16285 16.9777 2.9308C16.9924 2.69875 16.9998 2.45259 16.9998 2.19233V1.44235H18.4998V2.19233C18.4998 4.51541 18.0229 6.36092 17.069 7.72885C16.1152 9.0968 14.8107 10.5205 13.1556 12C14.8107 13.4731 16.1152 14.8952 17.069 16.2664C18.0229 17.6375 18.4998 19.4846 18.4998 21.8077V22.5577H16.9998V21.8077C16.9998 21.5474 16.9924 21.3013 16.9777 21.0692C16.963 20.8372 16.9376 20.6089 16.9017 20.3846H7.09788C7.06198 20.6089 7.03667 20.8372 7.02193 21.0692C7.00718 21.3013 6.99981 21.5474 6.99981 21.8077V22.5577H5.49983ZM8.59406 7.50003H15.396C15.6575 7.13849 15.8883 6.76574 16.0883 6.38175C16.2883 5.99777 16.4582 5.57565 16.5979 5.1154H7.39211C7.53826 5.5654 7.70813 5.98335 7.90173 6.36925C8.09533 6.75515 8.32611 7.13208 8.59406 7.50003ZM11.9998 11.0173C12.3908 10.6699 12.7655 10.3289 13.1239 9.99425C13.4822 9.65964 13.8191 9.32822 14.1344 9H9.85556C10.1709 9.32822 10.5094 9.65964 10.871 9.99425C11.2325 10.3289 11.6088 10.6699 11.9998 11.0173ZM9.86518 15H14.1344C13.8191 14.6718 13.4822 14.3404 13.1239 14.0058C12.7655 13.6711 12.3908 13.3301 11.9998 12.9827C11.6088 13.3301 11.2341 13.6711 10.8758 14.0058C10.5174 14.3404 10.1806 14.6718 9.86518 15ZM7.40173 18.8846H16.5979C16.4517 18.4346 16.2819 18.0167 16.0883 17.6308C15.8947 17.2449 15.6639 16.8679 15.396 16.5H8.60366C8.33571 16.8679 8.10333 17.2423 7.90653 17.6231C7.70973 18.0038 7.54147 18.4244 7.40173 18.8846Z" fill="#EEF0FB"/>
</g>
</svg>
