<svg width="158" height="158" viewBox="0 0 158 158" fill="none" xmlns="http://www.w3.org/2000/svg">
<path d="M47.8227 20.4309C46.6521 20.3296 45.7247 19.2515 45.824 18.1034C45.9271 16.9103 47.0033 16.0054 48.1965 16.1086C49.3896 16.2118 50.2719 17.286 50.1688 18.4791C50.0695 19.6272 49.0158 20.534 47.8227 20.4309Z" fill="#F0F1F1"/>
<path d="M61.8567 19.6735C61.678 19.7079 61.5336 19.6804 61.4099 19.5979C61.2862 19.5154 61.2175 19.3848 61.1831 19.2267L58.1177 3.36322C58.0833 3.18452 58.1039 3.03331 58.1795 2.90959C58.2551 2.78587 58.3857 2.70339 58.5644 2.66902L59.6847 2.45595C59.8772 2.42159 60.0353 2.43533 60.1453 2.50407C60.2621 2.5728 60.3308 2.63466 60.3583 2.6759L70.8195 13.5082L68.4688 1.3631C68.4344 1.1844 68.455 1.03318 68.5306 0.909465C68.6062 0.785746 68.7369 0.71014 68.9156 0.668901L70.084 0.442082C70.2627 0.407716 70.4139 0.435209 70.5376 0.517689C70.6614 0.600168 70.7438 0.737633 70.7782 0.909465L73.8369 16.7524C73.8712 16.9173 73.8368 17.0617 73.7612 17.1991C73.6856 17.3366 73.555 17.4122 73.3901 17.4466L72.2216 17.6734C72.0429 17.7078 71.8985 17.6871 71.7954 17.6047C71.6855 17.5222 71.6168 17.4741 71.5755 17.4466L61.1625 6.73113L63.4925 18.78C63.5269 18.9449 63.4925 19.0893 63.4101 19.213C63.3276 19.3367 63.1901 19.4192 63.0182 19.4536L61.8498 19.6804L61.8567 19.6735Z" fill="#F4F4F5"/>
<path d="M80.0477 17.2678C79.869 17.2541 79.7316 17.1854 79.6422 17.0685C79.5529 16.9517 79.5185 16.8142 79.5322 16.6492L80.9688 0.552036C80.9825 0.373331 81.0443 0.235865 81.1543 0.132766C81.2643 0.0365403 81.4086 -0.00469935 81.5873 0.0090472L91.7667 0.91632C91.9454 0.930066 92.0828 0.998799 92.1722 1.11564C92.2615 1.23249 92.2959 1.37683 92.2822 1.56241L92.1997 2.49717C92.186 2.67588 92.1241 2.81334 92.0141 2.9027C91.9041 2.99205 91.7598 3.02642 91.5811 3.01267L83.2026 2.26348L82.7214 7.659L90.557 8.36008C90.7357 8.37382 90.8731 8.44256 90.9625 8.5594C91.0518 8.67625 91.0862 8.82059 91.0725 9.00616L90.99 9.92031C90.9763 10.0853 90.9144 10.2159 90.8044 10.3121C90.6944 10.4083 90.5501 10.4496 90.3714 10.4358L82.5358 9.73473L82.0341 15.3296L90.6119 16.0925C90.7906 16.1063 90.9282 16.1681 91.0175 16.2781C91.1069 16.3881 91.1412 16.5324 91.1274 16.7111L91.045 17.6734C91.0312 17.8383 90.9693 17.9689 90.8594 18.0651C90.7494 18.1614 90.6051 18.2026 90.4263 18.1889L80.0477 17.261V17.2678Z" fill="#F4F4F5"/>
<path d="M99.672 20.9174C99.5139 20.8624 99.4108 20.7662 99.3421 20.6287C99.2802 20.4913 99.2733 20.3469 99.3283 20.1889L104.318 6.52478L99.8575 4.89581C99.6995 4.84083 99.5964 4.7446 99.5276 4.60714C99.4658 4.46967 99.4589 4.32533 99.5139 4.16725L99.8713 3.19124C99.9332 3.01941 100.036 2.90256 100.174 2.8407C100.311 2.77884 100.456 2.77197 100.614 2.82696L111.817 6.91656C111.989 6.97842 112.106 7.08151 112.168 7.21898C112.229 7.35645 112.229 7.50766 112.168 7.67949L111.81 8.65549C111.755 8.81358 111.659 8.91668 111.521 8.98541C111.384 9.04727 111.233 9.04727 111.061 8.98541L106.621 7.36332L101.631 21.0274C101.576 21.1855 101.48 21.2886 101.342 21.3573C101.205 21.4192 101.053 21.4192 100.882 21.3573L99.672 20.9174Z" fill="#F4F4F5"/>
<path d="M112.311 26.8764C112.139 26.7458 112.043 26.6015 112.008 26.4297C111.981 26.2647 112.008 26.0791 112.098 25.8798L119.136 11.281C119.163 11.2191 119.191 11.1641 119.218 11.1297C119.246 11.0885 119.266 11.061 119.28 11.0541C119.363 10.951 119.473 10.8892 119.61 10.8686C119.748 10.8479 119.871 10.8823 119.974 10.9579L120.999 11.7346C121.273 11.9408 121.349 12.1745 121.218 12.4288L115.527 24.134L122.944 18.7591C123.074 18.6697 123.225 18.6147 123.397 18.5873C123.569 18.5598 123.748 18.6216 123.933 18.7591L124.662 19.3089C124.861 19.4602 124.964 19.6182 124.985 19.7832C125.006 19.9482 124.985 20.1062 124.916 20.2437L121.782 28.8559L131.48 20.1819C131.686 19.9894 131.941 20.0031 132.229 20.2162L133.254 20.9929C133.357 21.0754 133.419 21.1785 133.439 21.3228C133.46 21.4672 133.425 21.584 133.35 21.6871C133.343 21.7008 133.315 21.7215 133.281 21.7558C133.247 21.7902 133.205 21.8314 133.164 21.8864L121.033 32.6294C120.861 32.7737 120.696 32.8493 120.524 32.8699C120.352 32.8905 120.187 32.8287 120.016 32.705L119.246 32.1207C119.06 31.9833 118.95 31.8252 118.916 31.6534C118.882 31.4815 118.895 31.3097 118.971 31.1379L122.208 21.7696L114.098 27.4538C113.933 27.5569 113.768 27.6187 113.603 27.6394C113.431 27.66 113.259 27.5981 113.074 27.4538L112.304 26.8696L112.311 26.8764Z" fill="#F4F4F5"/>
<path d="M129.18 43.6201C128.362 42.4585 127.867 41.3313 127.682 40.2247C127.496 39.1181 127.668 38.0527 128.184 37.0286C128.699 35.9976 129.565 35.0147 130.782 34.08C131.366 33.6469 131.93 33.2414 132.479 32.8565C133.022 32.4716 133.6 32.0798 134.205 31.6743C135.483 30.8564 136.7 30.389 137.861 30.2722C139.023 30.1553 140.095 30.3684 141.092 30.9045C142.088 31.4475 142.975 32.2654 143.752 33.372C144.521 34.4649 144.989 35.5715 145.161 36.6918C145.332 37.8121 145.167 38.8981 144.673 39.9566C144.178 41.0151 143.319 41.998 142.109 42.9121C141.532 43.3589 140.975 43.7713 140.425 44.1562C139.882 44.5411 139.298 44.926 138.686 45.3178C137.401 46.1632 136.191 46.6443 135.043 46.7749C133.895 46.9055 132.83 46.6993 131.854 46.1563C130.878 45.6133 129.984 44.7679 129.18 43.6201ZM130.899 42.4104C131.62 43.4345 132.521 44.06 133.6 44.273C134.679 44.493 135.937 44.1356 137.359 43.2145C137.985 42.8159 138.535 42.4447 139.016 42.1079C139.497 41.7712 140.019 41.3794 140.597 40.9326C141.511 40.2522 142.143 39.5442 142.501 38.8225C142.858 38.1008 142.989 37.3791 142.886 36.6574C142.782 35.9426 142.501 35.2484 142.026 34.5748C141.552 33.9013 140.995 33.3926 140.356 33.0558C139.717 32.7191 138.995 32.5953 138.191 32.6847C137.387 32.774 136.507 33.1314 135.545 33.7432C134.94 34.1487 134.397 34.5198 133.923 34.8566C133.449 35.1934 132.906 35.5852 132.308 36.0251C130.954 37.0561 130.204 38.1214 130.046 39.2212C129.888 40.3209 130.17 41.3794 130.892 42.4035L130.899 42.4104Z" fill="#F4F4F5"/>
<path d="M135.588 54.0262C135.533 53.8543 135.533 53.7031 135.608 53.5794C135.684 53.4557 135.794 53.3595 135.952 53.3114L151.266 48.1701C151.438 48.1152 151.589 48.1152 151.726 48.1701C151.857 48.232 151.953 48.342 152.015 48.5138L153.939 54.2392C154.531 56.0057 154.585 57.5453 154.104 58.8581C153.623 60.1709 152.565 61.0988 150.943 61.6418C149.74 62.0473 148.654 62.0748 147.698 61.7242C146.736 61.3737 145.939 60.7345 145.293 59.8066L140.268 65.5114C140.193 65.587 140.11 65.642 140.035 65.6695C139.911 65.7107 139.78 65.697 139.657 65.6283C139.526 65.5595 139.444 65.4633 139.402 65.3327L139.024 64.2055C138.935 63.9374 138.942 63.7175 139.038 63.5457C139.134 63.3738 139.237 63.2157 139.347 63.0783L144.166 57.6759L142.791 53.5725L136.742 55.607C136.584 55.662 136.44 55.6551 136.303 55.5864C136.165 55.5177 136.069 55.4008 136.014 55.229L135.615 54.033L135.588 54.0262ZM144.764 52.9058L146.063 56.7755C146.454 57.9508 146.997 58.7412 147.685 59.1536C148.372 59.566 149.197 59.6141 150.166 59.2842C151.121 58.9612 151.754 58.4319 152.056 57.6965C152.359 56.9611 152.317 55.9919 151.919 54.8029L150.62 50.9332L144.757 52.9058H144.764Z" fill="#F4F4F5"/>
<path d="M140.157 70.7829C140.15 70.6042 140.191 70.4599 140.294 70.3568C140.398 70.2537 140.528 70.1987 140.693 70.185L156.832 69.3739C157.01 69.367 157.161 69.4083 157.271 69.4976C157.381 69.5939 157.443 69.7313 157.45 69.91L157.512 71.1472C157.519 71.3259 157.478 71.4771 157.374 71.5871C157.271 71.6971 157.134 71.7589 156.948 71.7658L150.817 72.0751L157.478 78.3573C157.546 78.4191 157.636 78.5291 157.739 78.6803C157.842 78.8315 157.904 79.0377 157.918 79.3058L157.986 80.6392C157.986 80.7698 157.952 80.8866 157.856 80.9897C157.759 81.0928 157.649 81.1478 157.519 81.1547C157.388 81.1547 157.278 81.1341 157.196 81.0722L149.347 73.814L141.573 82.3575C141.477 82.4469 141.367 82.495 141.236 82.5019C141.105 82.5087 140.989 82.4675 140.886 82.3713C140.782 82.275 140.727 82.1651 140.721 82.0345L140.652 80.653C140.638 80.3712 140.679 80.1581 140.782 80C140.879 79.8488 140.961 79.7319 141.023 79.6632L147.614 72.2469L140.817 72.5906C140.652 72.5975 140.514 72.5494 140.398 72.4531C140.288 72.35 140.226 72.2126 140.219 72.027L140.157 70.7898V70.7829Z" fill="#F4F4F5"/>
<path d="M139.889 87.1419C139.917 86.9632 139.992 86.8326 140.109 86.7501C140.226 86.6677 140.37 86.6402 140.535 86.6677L156.536 89.0733C156.701 89.1008 156.825 89.1695 156.914 89.2795C157.004 89.3964 157.038 89.5407 157.01 89.7194L156.818 91.0184C156.791 91.1971 156.715 91.3277 156.598 91.4102C156.481 91.4927 156.337 91.5202 156.172 91.4927L140.171 89.0871C140.006 89.0596 139.882 88.9908 139.793 88.8809C139.704 88.764 139.669 88.6197 139.697 88.441L139.889 87.1419Z" fill="#F4F4F5"/>
<path d="M138.485 95.2179C138.554 95.0461 138.65 94.9361 138.788 94.8811C138.925 94.8261 139.07 94.833 139.221 94.888L154.287 100.723C154.459 100.785 154.576 100.888 154.638 101.019C154.699 101.15 154.699 101.301 154.638 101.473L154.225 102.531C154.156 102.717 154.06 102.84 153.936 102.895C153.813 102.95 153.73 102.985 153.675 102.978L138.939 106.085L150.479 110.552C150.651 110.621 150.768 110.717 150.83 110.848C150.892 110.978 150.892 111.13 150.83 111.301L150.404 112.408C150.335 112.58 150.239 112.69 150.094 112.752C149.957 112.813 149.799 112.813 149.634 112.752L134.588 106.923C134.437 106.861 134.32 106.765 134.251 106.621C134.183 106.476 134.176 106.332 134.238 106.181L134.664 105.074C134.733 104.902 134.822 104.799 134.953 104.744C135.076 104.696 135.159 104.662 135.207 104.641L149.819 101.514L138.375 97.0806C138.224 97.0187 138.114 96.9225 138.052 96.785C137.991 96.6475 137.991 96.4895 138.052 96.3245L138.479 95.2179H138.485Z" fill="#F4F4F5"/>
<path d="M127.214 116.243C128.122 115.088 129.104 114.277 130.156 113.816C131.208 113.356 132.294 113.218 133.4 113.411C134.514 113.603 135.613 114.084 136.699 114.854C137.277 115.287 137.888 115.761 138.535 116.263C139.174 116.765 139.785 117.253 140.356 117.727C141.366 118.607 142.095 119.555 142.535 120.586C142.975 121.617 143.092 122.697 142.879 123.831C142.672 124.965 142.116 126.106 141.222 127.247C140.507 128.154 139.758 128.841 138.968 129.316C138.177 129.783 137.414 130.085 136.679 130.209C135.943 130.333 135.277 130.333 134.679 130.209C134.081 130.085 133.62 129.907 133.283 129.666C133.16 129.584 133.084 129.48 133.077 129.35C133.063 129.219 133.112 129.082 133.215 128.951L134.115 127.803C134.218 127.673 134.314 127.597 134.417 127.583C134.514 127.563 134.651 127.583 134.816 127.632C135.242 127.776 135.723 127.845 136.26 127.838C136.796 127.824 137.339 127.68 137.909 127.405C138.473 127.123 139.029 126.642 139.566 125.955C140.383 124.917 140.755 123.865 140.693 122.8C140.631 121.734 139.978 120.669 138.734 119.61C137.614 118.662 136.459 117.755 135.27 116.889C133.929 115.92 132.734 115.535 131.668 115.727C130.603 115.92 129.668 116.531 128.864 117.555C128.321 118.243 127.97 118.958 127.812 119.7C127.647 120.442 127.709 121.178 127.991 121.899C128.273 122.621 128.823 123.308 129.641 123.948L130.458 124.587L132.754 121.666C132.857 121.535 132.981 121.459 133.132 121.446C133.283 121.425 133.428 121.473 133.572 121.59L134.198 122.078C134.342 122.188 134.424 122.319 134.438 122.47C134.459 122.621 134.411 122.758 134.314 122.889L130.864 127.288C130.754 127.432 130.623 127.508 130.479 127.522C130.335 127.535 130.19 127.48 130.046 127.37L128.177 125.906C127.111 125.068 126.355 124.126 125.908 123.068C125.455 122.009 125.345 120.896 125.558 119.727C125.778 118.552 126.335 117.397 127.228 116.256L127.214 116.243Z" fill="#F4F4F5"/>
<path d="M116.274 140.512C115.103 140.411 114.176 139.333 114.275 138.185C114.378 136.991 115.454 136.087 116.648 136.19C117.841 136.293 118.723 137.367 118.62 138.56C118.521 139.708 117.467 140.615 116.274 140.512Z" fill="#F0F1F1"/>
<path d="M95.1352 137.461C96.5992 137.062 97.8845 137.007 98.9979 137.289C100.111 137.571 101.039 138.128 101.795 138.966C102.551 139.805 103.129 140.863 103.527 142.135C103.72 142.781 103.919 143.482 104.118 144.231C104.318 144.98 104.51 145.695 104.675 146.389C104.978 147.688 105.012 148.898 104.785 149.998C104.551 151.104 104.029 152.06 103.211 152.857C102.393 153.661 101.252 154.259 99.7883 154.658C98.6886 154.953 97.6851 155.063 96.7779 154.988C95.8706 154.912 95.0664 154.692 94.379 154.328C93.6917 153.964 93.1212 153.51 92.6607 152.96C92.2071 152.41 91.8703 151.805 91.6572 151.146C91.6022 151.008 91.616 150.877 91.6916 150.754C91.7672 150.63 91.8772 150.548 92.0215 150.513L93.3344 150.156C93.4787 150.115 93.6093 150.121 93.7399 150.176C93.8636 150.225 93.9804 150.348 94.0835 150.548C94.6884 151.716 95.4307 152.431 96.2898 152.692C97.1558 152.953 98.1388 152.933 99.2385 152.637C100.531 152.287 101.452 151.647 102.002 150.719C102.551 149.792 102.641 148.527 102.256 146.918C101.947 145.599 101.589 144.265 101.17 142.904C100.689 141.324 99.9808 140.272 99.0322 139.757C98.0837 139.234 96.9703 139.152 95.6781 139.495C94.5784 139.791 93.7261 140.272 93.1075 140.939C92.4958 141.599 92.2209 142.588 92.2827 143.908C92.2896 144.128 92.2552 144.293 92.1727 144.396C92.0903 144.506 91.9803 144.575 91.8359 144.616L90.5231 144.973C90.3788 145.015 90.2482 145.001 90.1176 144.946C89.987 144.884 89.9183 144.781 89.8908 144.637C89.7396 143.956 89.7258 143.262 89.8358 142.547C89.9526 141.832 90.2138 141.145 90.6262 140.485C91.0386 139.825 91.616 139.234 92.3652 138.705C93.1075 138.176 94.0354 137.763 95.1352 137.468V137.461Z" fill="#F4F4F5"/>
<path d="M77.8175 139.523C79.2334 139.557 80.4431 139.832 81.4397 140.341C82.4363 140.849 83.1924 141.619 83.7079 142.65C84.2303 143.674 84.5052 144.959 84.5327 146.492C84.5327 147.221 84.5258 147.915 84.5052 148.582C84.4846 149.248 84.4639 149.949 84.4296 150.671C84.3265 152.19 83.9828 153.448 83.3848 154.445C82.7869 155.441 81.9827 156.184 80.9586 156.665C79.9345 157.146 78.7454 157.366 77.3914 157.338C76.0579 157.304 74.8895 157.029 73.886 156.5C72.8825 155.97 72.1058 155.194 71.5559 154.17C71.0061 153.139 70.7174 151.867 70.7037 150.348C70.6899 149.62 70.6899 148.925 70.7037 148.259C70.7174 147.592 70.7518 146.891 70.7999 146.169C70.8824 144.636 71.2191 143.372 71.7965 142.368C72.3739 141.365 73.1711 140.636 74.1884 140.176C75.2056 139.715 76.4153 139.495 77.8175 139.53V139.523ZM77.7694 141.626C76.5185 141.598 75.4806 141.949 74.6627 142.691C73.8448 143.434 73.3842 144.65 73.2743 146.348C73.2262 147.09 73.1918 147.75 73.178 148.341C73.1643 148.925 73.1643 149.585 73.178 150.307C73.178 151.448 73.3705 152.376 73.7417 153.091C74.1128 153.805 74.6146 154.341 75.2538 154.685C75.8861 155.029 76.6216 155.214 77.4464 155.235C78.2712 155.256 79.0066 155.104 79.6596 154.795C80.3125 154.479 80.8348 153.97 81.2404 153.276C81.6459 152.575 81.8865 151.661 81.9621 150.52C81.9965 149.798 82.0171 149.138 82.0308 148.554C82.0446 147.97 82.0515 147.303 82.0515 146.561C82.024 144.863 81.6184 143.619 80.828 142.842C80.0376 142.066 79.0203 141.66 77.7625 141.633L77.7694 141.626Z" fill="#F4F4F5"/>
<path d="M65.6344 138.547C65.8062 138.602 65.9231 138.698 65.985 138.829C66.0468 138.959 66.0468 139.104 65.9987 139.262L60.9194 154.603C60.8644 154.775 60.7681 154.898 60.6444 154.967C60.5207 155.036 60.3695 155.043 60.1976 154.988L59.1186 154.63C58.933 154.569 58.8024 154.479 58.7405 154.362C58.6718 154.245 58.6443 154.163 58.6443 154.108L54.809 139.544L50.9187 151.29C50.8637 151.462 50.7675 151.586 50.6438 151.654C50.5132 151.723 50.3689 151.73 50.1971 151.675L49.0698 151.304C48.898 151.249 48.7743 151.152 48.7124 151.015C48.6437 150.878 48.6368 150.726 48.6986 150.555L53.7711 135.241C53.8261 135.083 53.9155 134.966 54.0598 134.89C54.1973 134.815 54.3485 134.801 54.4997 134.856L55.6269 135.227C55.7987 135.282 55.9156 135.371 55.9705 135.495C56.0255 135.619 56.0668 135.701 56.0874 135.743L59.9364 150.176L63.7923 138.526C63.8473 138.368 63.9367 138.258 64.0742 138.189C64.2116 138.121 64.3629 138.114 64.5347 138.176L65.6619 138.547H65.6344Z" fill="#F4F4F5"/>
<path d="M48.6172 131.873C48.7615 131.976 48.8509 132.1 48.8646 132.251C48.8852 132.395 48.8441 132.533 48.7478 132.67L39.3658 145.826C39.2627 145.97 39.1389 146.059 38.9946 146.094C38.8503 146.121 38.7059 146.087 38.5616 145.984L37.6337 145.324C37.4756 145.207 37.3794 145.083 37.3519 144.953C37.3244 144.822 37.3175 144.733 37.3312 144.678L37.9636 129.632L30.7811 139.708C30.678 139.853 30.5542 139.942 30.4099 139.976C30.2655 140.004 30.1212 139.97 29.9769 139.86L29.0077 139.172C28.8634 139.069 28.774 138.939 28.7465 138.787C28.719 138.636 28.7603 138.492 28.8703 138.341L38.2317 125.206C38.3279 125.068 38.4517 124.986 38.6097 124.958C38.7678 124.931 38.9053 124.958 39.0428 125.055L40.0118 125.742C40.1562 125.845 40.2386 125.969 40.2593 126.099C40.273 126.23 40.2868 126.319 40.2937 126.367L39.7095 141.296L46.8302 131.302C46.9264 131.165 47.0501 131.089 47.2013 131.062C47.3526 131.034 47.4968 131.076 47.648 131.179L48.6172 131.866V131.873Z" fill="#F4F4F5"/>
<path d="M34.3293 120.36C34.4462 120.504 34.4875 120.642 34.4669 120.786C34.4462 120.931 34.3706 121.054 34.24 121.157L21.5864 131.206C21.442 131.316 21.2977 131.371 21.1533 131.357C21.009 131.344 20.8784 131.268 20.7684 131.13L14.4175 123.123C14.3075 122.979 14.2594 122.834 14.2801 122.697C14.3007 122.559 14.3831 122.422 14.5275 122.312L15.2629 121.728C15.4072 121.611 15.5447 121.563 15.6821 121.583C15.8196 121.597 15.9434 121.68 16.0602 121.824L21.2908 128.416L25.5385 125.048L20.6447 118.882C20.5347 118.738 20.4866 118.594 20.5072 118.456C20.5278 118.319 20.6103 118.181 20.7546 118.071L21.4695 117.501C21.6001 117.398 21.7375 117.35 21.8819 117.363C22.0262 117.377 22.1568 117.453 22.2668 117.59L27.1606 123.755L31.5595 120.264L26.2052 113.521C26.0952 113.377 26.0471 113.239 26.0609 113.102C26.0746 112.964 26.1571 112.841 26.2945 112.724L27.0506 112.126C27.1812 112.023 27.3186 111.975 27.463 111.988C27.6073 112.002 27.7379 112.078 27.8479 112.215L34.3225 120.374L34.3293 120.36Z" fill="#F4F4F5"/>
<path d="M23.0352 102.022C23.6194 103.424 23.8531 104.689 23.7156 105.83C23.585 106.971 23.152 107.967 22.4234 108.826C21.6949 109.686 20.7189 110.4 19.5092 110.964C18.8906 111.239 18.2239 111.528 17.509 111.83C16.7942 112.132 16.1069 112.407 15.4471 112.669C14.1961 113.143 13.0071 113.335 11.8799 113.253C10.7527 113.17 9.74224 112.779 8.83497 112.071C7.93457 111.37 7.18538 110.318 6.60116 108.916C6.16127 107.864 5.92075 106.888 5.87951 105.974C5.83827 105.06 5.94824 104.242 6.2163 103.513C6.48435 102.785 6.86231 102.159 7.34344 101.63C7.83144 101.101 8.38821 100.695 9.01368 100.393C9.14427 100.317 9.27483 100.317 9.40542 100.372C9.53601 100.434 9.63227 100.53 9.69413 100.668L10.2234 101.926C10.2784 102.063 10.2922 102.194 10.2578 102.324C10.2234 102.455 10.1134 102.585 9.94156 102.716C8.86245 103.472 8.25079 104.297 8.10645 105.19C7.96211 106.084 8.10637 107.053 8.54626 108.105C9.06176 109.335 9.81785 110.167 10.8076 110.593C11.7973 111.019 13.0689 110.937 14.6085 110.339C15.8732 109.864 17.1516 109.328 18.4438 108.73C19.949 108.05 20.8907 107.204 21.2825 106.194C21.6742 105.19 21.6124 104.07 21.0969 102.84C20.657 101.788 20.0659 101.005 19.3305 100.482C18.595 99.9599 17.5777 99.8156 16.2787 100.056C16.0656 100.09 15.8938 100.077 15.777 100.008C15.6601 99.9393 15.5708 99.8362 15.5158 99.7056L14.9866 98.4478C14.9316 98.3103 14.9247 98.1729 14.966 98.0423C15.0072 97.9117 15.1034 97.8223 15.2409 97.7811C15.8939 97.5405 16.5812 97.4374 17.3029 97.4512C18.0246 97.4718 18.7394 97.6367 19.4474 97.9598C20.1553 98.2828 20.8151 98.7777 21.4405 99.4444C22.0591 100.111 22.5953 100.97 23.0352 102.022Z" fill="#F4F4F5"/>
<path d="M18.6837 86.9147C18.7043 87.0796 18.67 87.2171 18.5738 87.3408C18.4775 87.4577 18.3538 87.5333 18.1888 87.5539L3.74805 89.3547L4.33915 94.0698C4.35977 94.2347 4.32546 94.3722 4.22923 94.4959C4.13301 94.6128 4.00925 94.6884 3.84429 94.709L2.8133 94.8396C2.63459 94.8602 2.48336 94.8258 2.36652 94.7365C2.24967 94.6471 2.17411 94.5165 2.15349 94.3516L0.67572 82.5158C0.6551 82.3371 0.689483 82.1859 0.778836 82.069C0.868188 81.9522 1.00564 81.8766 1.19122 81.856L2.22221 81.7254C2.38717 81.7047 2.5315 81.7391 2.64835 81.8353C2.76519 81.9316 2.84084 82.0622 2.86146 82.2477L3.44567 86.9353L17.8864 85.1345C18.0514 85.1139 18.1957 85.1483 18.3126 85.2445C18.4294 85.3407 18.505 85.4713 18.5256 85.6569L18.6837 86.9353V86.9147Z" fill="#F4F4F5"/>
<path d="M18.2381 74.88C18.2243 75.0587 18.1625 75.1961 18.0456 75.2855C17.9288 75.3748 17.7913 75.4161 17.6264 75.4023L1.48104 74.2545C1.31608 74.2407 1.18544 74.1858 1.08234 74.0758C0.979237 73.9727 0.938038 73.8283 0.951785 73.6428L1.04802 72.3369C1.06177 72.1581 1.12365 72.0207 1.24049 71.9313C1.35734 71.842 1.49479 71.8007 1.65975 71.8145L17.8051 72.9623C17.97 72.9761 18.1006 73.0311 18.2037 73.141C18.3068 73.251 18.3481 73.3885 18.3343 73.574L18.245 74.88H18.2381Z" fill="#F4F4F5"/>
<path d="M20.8654 61.3391C20.4668 62.7 19.8894 63.7928 19.1333 64.6245C18.3841 65.4493 17.4425 65.9854 16.3153 66.2191C15.1881 66.4528 13.8822 66.3841 12.3907 66.0129C11.6896 65.8205 11.016 65.6349 10.3768 65.4424C9.73757 65.25 9.07084 65.0507 8.37664 64.8238C6.94013 64.329 5.81297 63.6691 5.00192 62.8375C4.19088 62.0058 3.6822 61.0298 3.48975 59.9163C3.29043 58.8028 3.38668 57.5931 3.77158 56.2941C4.14961 55.0157 4.72009 53.9572 5.4899 53.1255C6.25971 52.2938 7.21511 51.744 8.3492 51.4759C9.48329 51.2079 10.7892 51.2697 12.2601 51.6478C12.968 51.8196 13.6416 52.0052 14.2808 52.1907C14.9201 52.3832 15.5868 52.5894 16.2741 52.83C17.7312 53.3111 18.8722 53.9641 19.6832 54.7751C20.4943 55.5861 21.0028 56.5553 21.1816 57.655C21.3603 58.7547 21.2572 59.985 20.8585 61.3253L20.8654 61.3391ZM18.8447 60.7411C19.2021 59.5383 19.1265 58.4454 18.6247 57.4626C18.123 56.4797 17.0645 55.7167 15.4561 55.1738C14.7551 54.9332 14.1227 54.727 13.5591 54.562C12.9955 54.3971 12.3632 54.2252 11.6552 54.0534C10.5555 53.7647 9.60697 53.7029 8.81654 53.8747C8.02611 54.0465 7.38007 54.3902 6.88519 54.9194C6.39032 55.4418 6.01918 56.1016 5.78549 56.8921C5.5518 57.6825 5.50362 58.4317 5.63421 59.1465C5.77168 59.8545 6.12224 60.5005 6.69272 61.071C7.2632 61.6415 8.08798 62.1158 9.16708 62.4869C9.86128 62.7069 10.4867 62.8993 11.0435 63.0643C11.6071 63.2292 12.2463 63.4079 12.9611 63.6073C14.6107 64.0265 15.9098 63.9509 16.8652 63.3942C17.8206 62.8375 18.4804 61.9508 18.8309 60.748L18.8447 60.7411Z" fill="#F4F4F5"/>
<path d="M24.9651 49.8746C24.862 50.0258 24.7452 50.1151 24.6009 50.1357C24.4565 50.1564 24.3191 50.1289 24.1747 50.0326L10.6894 41.1318C10.5381 41.0287 10.4419 40.9118 10.4075 40.7675C10.3732 40.6231 10.4075 40.4788 10.5038 40.3276L11.1292 39.3791C11.2391 39.2141 11.356 39.1179 11.4866 39.0835C11.6172 39.0491 11.7065 39.0423 11.7547 39.056L26.814 39.1522L16.4904 32.3408C16.3391 32.2446 16.2429 32.1209 16.2085 31.9765C16.1742 31.8322 16.2085 31.6879 16.3048 31.5367L16.9578 30.5469C17.0609 30.3957 17.1845 30.3063 17.3289 30.272C17.4801 30.2445 17.6244 30.272 17.7757 30.3751L31.2404 39.2622C31.3778 39.3516 31.4672 39.4753 31.5016 39.6265C31.5359 39.7777 31.5084 39.9221 31.4191 40.0595L30.7662 41.0493C30.6699 41.2005 30.5531 41.2898 30.4156 41.3105C30.285 41.3311 30.1957 41.3448 30.1476 41.3586L15.2051 41.3105L25.4463 48.0669C25.5837 48.1562 25.6662 48.28 25.7006 48.4243C25.7281 48.5755 25.7006 48.7198 25.5975 48.8711L24.9445 49.8608L24.9651 49.8746Z" fill="#F4F4F5"/>
<path d="M39.9152 32.1282C38.8224 33.0561 37.757 33.6678 36.726 33.9565C35.695 34.2452 34.7534 34.2933 33.908 34.094C33.0557 33.8947 32.3684 33.5097 31.846 32.9393C31.7635 32.8362 31.7223 32.7124 31.7361 32.5612C31.7498 32.41 31.8116 32.2863 31.9216 32.1901L32.8839 31.3722C33.0351 31.2416 33.1794 31.1866 33.3169 31.2003C33.4544 31.2141 33.5781 31.2553 33.6881 31.3378C34.018 31.5784 34.4304 31.7433 34.9184 31.8327C35.4064 31.9289 35.9562 31.8808 36.5679 31.6952C37.1797 31.5096 37.8395 31.1178 38.5406 30.5199C39.6197 29.6057 40.252 28.7328 40.4376 27.9218C40.6232 27.1039 40.4377 26.3753 39.8947 25.7361C39.5235 25.2962 39.0836 25.0556 38.5818 25.0144C38.0801 24.9731 37.4683 25.0831 36.7329 25.3374C35.9974 25.5917 35.0833 25.9698 33.9905 26.4646C32.8495 26.9801 31.8391 27.3375 30.9731 27.5369C30.107 27.7362 29.3236 27.7293 28.6294 27.5094C27.942 27.2963 27.289 26.8289 26.6842 26.1141C26.1068 25.4337 25.7769 24.6707 25.6876 23.8322C25.5982 22.9868 25.7632 22.1139 26.1893 21.2135C26.6155 20.3131 27.3097 19.447 28.2788 18.6291C29.0555 17.9693 29.8253 17.4881 30.5882 17.1995C31.3512 16.9108 32.0729 16.7733 32.7533 16.7871C33.4338 16.8008 34.0454 16.9245 34.5816 17.1445C35.1177 17.3713 35.5576 17.6668 35.8875 18.0311C35.9631 18.1205 36.0044 18.2305 36.0112 18.3679C36.0112 18.5054 35.9494 18.6291 35.8119 18.746L34.8084 19.5914C34.7191 19.667 34.6091 19.722 34.4716 19.7495C34.3342 19.7769 34.1829 19.7495 34.0111 19.6532C33.4956 19.1996 32.8426 19.014 32.0385 19.0896C31.2343 19.1652 30.4301 19.5433 29.6259 20.2237C28.808 20.9179 28.2788 21.6396 28.0383 22.3819C27.7977 23.1311 27.9558 23.8322 28.5262 24.4989C28.8905 24.925 29.3098 25.1793 29.7909 25.2618C30.272 25.3443 30.8563 25.2687 31.5574 25.0487C32.2516 24.8219 33.1175 24.4783 34.1554 24.0178C35.3995 23.4404 36.4717 23.0349 37.3721 22.7943C38.2725 22.5606 39.0767 22.54 39.7709 22.7393C40.4651 22.9387 41.1249 23.3923 41.7298 24.114C42.4034 24.9044 42.7676 25.7567 42.8295 26.6708C42.8913 27.585 42.6714 28.506 42.1697 29.4339C41.6748 30.3618 40.9119 31.2622 39.8947 32.1282H39.9152Z" fill="#F4F4F5"/>
</svg>
