<svg width="161" height="160" viewBox="0 0 161 160" fill="none" xmlns="http://www.w3.org/2000/svg">
<path d="M46.7819 18.3803C46.6281 18.4503 46.4883 18.4642 46.3485 18.4083C46.2087 18.3524 46.1038 18.2545 46.0338 18.1007L45.6214 17.2408C45.5515 17.087 45.5305 16.9471 45.5794 16.8003C45.6213 16.6605 45.7192 16.5486 45.8731 16.4787L52.6965 13.1859C52.8433 13.116 52.9971 13.102 53.1439 13.1509C53.2907 13.1999 53.3956 13.3047 53.4725 13.4515L53.892 14.3115C53.9619 14.4653 53.9759 14.6121 53.9269 14.7589C53.878 14.9057 53.7731 15.0106 53.6263 15.0875L46.8029 18.3803H46.7819Z" fill="#F4F4F5"/>
<path d="M65.3183 19.1985C65.1366 19.2265 64.9897 19.1985 64.8709 19.1076C64.752 19.0167 64.6821 18.8909 64.6541 18.7231L62.0184 2.50348C61.9904 2.32171 62.0184 2.1679 62.0953 2.04206C62.1722 1.91622 62.3051 1.83931 62.4939 1.81135L68.8069 0.783641C70.0304 0.580895 71.128 0.60886 72.0998 0.860544C73.0646 1.11223 73.8616 1.58763 74.4838 2.29374C75.106 2.99985 75.5185 3.94367 75.7073 5.11819C75.896 6.29271 75.8121 7.31343 75.4416 8.17335C75.0711 9.03327 74.4697 9.73239 73.6308 10.2777C72.7919 10.823 71.7642 11.1936 70.5337 11.3893L66.1362 12.1024L67.143 18.3106C67.171 18.4784 67.143 18.6252 67.0451 18.7441C66.9543 18.8699 66.8214 18.9468 66.6396 18.9748L65.3252 19.1915L65.3183 19.1985ZM65.7657 10.026L70.0653 9.3269C71.2888 9.13115 72.1627 8.70468 72.687 8.06149C73.2113 7.4183 73.3861 6.57236 73.2183 5.53067C73.0506 4.50296 72.6241 3.7549 71.939 3.29349C71.2538 2.82507 70.275 2.69923 69.0166 2.90198L64.717 3.6011L65.7587 10.033L65.7657 10.026Z" fill="#F4F4F5"/>
<path d="M85.0457 17.4577C84.8639 17.4297 84.731 17.3528 84.6471 17.227C84.5632 17.1011 84.5353 16.9613 84.5632 16.7935L87.143 0.559916C87.171 0.378144 87.2478 0.23832 87.3597 0.147434C87.4786 0.0565485 87.6254 0.0215925 87.8072 0.0565485L93.8686 1.02134C95.7422 1.31497 97.1544 1.99311 98.1122 3.0418C99.063 4.09048 99.4056 5.48173 99.133 7.20856C98.9302 8.48795 98.4478 9.47371 97.6787 10.1728C96.9097 10.8789 95.9589 11.2984 94.8124 11.4382L97.5878 18.6602C97.6228 18.765 97.6298 18.8629 97.6158 18.9468C97.5949 19.0796 97.5249 19.1845 97.3991 19.2684C97.2732 19.3523 97.1474 19.3803 97.0146 19.3593L95.8191 19.1705C95.5394 19.1286 95.3437 19.0167 95.2318 18.8489C95.12 18.6811 95.0291 18.5133 94.9521 18.3456L92.3514 11.4592L88.0029 10.7671L86.9822 17.178C86.9543 17.3458 86.8773 17.4717 86.7585 17.5625C86.6326 17.6534 86.4788 17.6814 86.297 17.6534L85.0317 17.4507L85.0457 17.4577ZM88.3525 8.65574L92.4563 9.30592C93.7008 9.50167 94.6656 9.38981 95.3647 8.96335C96.0568 8.53689 96.4903 7.8098 96.6511 6.78209C96.8118 5.76837 96.6301 4.9504 96.1127 4.32818C95.5884 3.69897 94.7005 3.28649 93.4421 3.09073L89.3383 2.44055L88.3525 8.65574Z" fill="#F4F4F5"/>
<path d="M109.566 24.9523C108.287 24.2811 107.315 23.4841 106.644 22.5683C105.973 21.6524 105.63 20.6108 105.623 19.4362C105.616 18.2617 105.945 16.9753 106.616 15.5631C106.945 14.9059 107.273 14.2697 107.588 13.6685C107.909 13.0672 108.245 12.445 108.608 11.8018C109.391 10.4665 110.279 9.48075 111.272 8.83755C112.265 8.19436 113.341 7.89374 114.488 7.92171C115.642 7.94967 116.823 8.28525 118.04 8.93543C119.242 9.57163 120.179 10.3546 120.85 11.2915C121.521 12.2283 121.878 13.284 121.913 14.4725C121.948 15.661 121.626 16.9474 120.948 18.3316C120.633 19.0028 120.319 19.632 119.997 20.2332C119.683 20.8345 119.333 21.4497 118.955 22.0929C118.179 23.4492 117.306 24.4489 116.327 25.0991C115.348 25.7493 114.285 26.0499 113.153 26.008C112.02 25.966 110.818 25.6095 109.559 24.9453L109.566 24.9523ZM110.566 23.0647C111.692 23.6589 112.796 23.8057 113.88 23.5051C114.956 23.2045 115.935 22.3026 116.802 20.8065C117.187 20.1563 117.515 19.5691 117.795 19.0377C118.075 18.5134 118.368 17.9121 118.683 17.248C119.193 16.2063 119.445 15.2765 119.431 14.4585C119.417 13.6405 119.207 12.9204 118.781 12.3192C118.361 11.7179 117.781 11.2216 117.033 10.8301C116.292 10.4385 115.551 10.2358 114.817 10.2288C114.083 10.2218 113.369 10.4385 112.684 10.893C111.999 11.3474 111.363 12.0745 110.776 13.0742C110.419 13.7174 110.098 14.3047 109.818 14.829C109.538 15.3534 109.231 15.9546 108.895 16.6328C108.147 18.1918 107.951 19.5061 108.322 20.5688C108.685 21.6385 109.433 22.4634 110.559 23.0647H110.566Z" fill="#F4F4F5"/>
<path d="M125.093 36.6065C124.498 35.9842 124.023 35.3271 123.653 34.621C123.282 33.9148 123.051 33.2017 122.953 32.4677C122.856 31.7336 122.932 31.0135 123.177 30.2934C123.422 29.5733 123.855 28.8952 124.491 28.245C124.603 28.1401 124.729 28.0842 124.876 28.0842C125.023 28.0842 125.156 28.1401 125.274 28.266L126.211 29.2517C126.337 29.3845 126.4 29.5314 126.4 29.6852C126.4 29.839 126.344 29.9858 126.246 30.1256C125.75 30.6919 125.456 31.2722 125.379 31.8594C125.302 32.4467 125.379 33.02 125.617 33.5793C125.855 34.1386 126.204 34.6699 126.68 35.1733C127.561 36.0961 128.532 36.5086 129.602 36.4177C130.672 36.3268 131.713 35.7955 132.72 34.8377L139.187 28.6714L133.021 22.2046C132.902 22.0857 132.846 21.9459 132.853 21.7921C132.853 21.6383 132.916 21.5055 133.042 21.3866L133.79 20.6735C133.909 20.5546 134.048 20.4987 134.202 20.5057C134.356 20.5057 134.489 20.5686 134.608 20.6945L142.095 28.5456C142.221 28.6784 142.284 28.8252 142.284 28.9791C142.284 29.1329 142.214 29.2727 142.081 29.3985L134.433 36.6904C133.447 37.6272 132.412 38.2564 131.329 38.571C130.245 38.8856 129.169 38.8926 128.113 38.571C127.057 38.2564 126.057 37.5992 125.107 36.6065H125.093Z" fill="#F4F4F5"/>
<path d="M134.49 48.2471C134.407 48.0793 134.4 47.9325 134.448 47.7927C134.504 47.6528 134.602 47.548 134.756 47.478L149.543 40.2981C149.71 40.2142 149.864 40.2002 150.004 40.2421C150.144 40.2841 150.256 40.389 150.34 40.5567L154.877 49.911C154.961 50.0788 154.968 50.2326 154.919 50.3654C154.863 50.5052 154.751 50.6101 154.59 50.694L153.73 51.1135C153.563 51.1974 153.416 51.2114 153.276 51.1624C153.143 51.1135 153.031 51.0086 152.954 50.8408L149.214 43.1435L144.257 45.5485L147.753 52.7494C147.837 52.9172 147.844 53.071 147.795 53.2038C147.739 53.3437 147.627 53.4485 147.466 53.5324L146.627 53.9379C146.473 54.0148 146.327 54.0288 146.187 53.9869C146.047 53.9449 145.935 53.8401 145.851 53.6723L142.356 46.4713L137.217 48.9672L141.041 56.8463C141.125 57.0141 141.139 57.1609 141.09 57.3007C141.041 57.4405 140.936 57.5454 140.769 57.6223L139.888 58.0488C139.734 58.1257 139.587 58.1396 139.447 58.0977C139.307 58.0557 139.196 57.9509 139.112 57.7831L134.483 48.2541L134.49 48.2471Z" fill="#F4F4F5"/>
<path d="M142.023 71.367C141.813 69.8359 141.918 68.5286 142.344 67.445C142.771 66.3613 143.456 65.4944 144.4 64.8372C145.343 64.1801 146.483 63.7396 147.825 63.5019C148.503 63.3901 149.237 63.2852 150.013 63.1733C150.797 63.0685 151.545 62.9706 152.258 62.8867C153.614 62.7539 154.83 62.8727 155.914 63.2432C156.998 63.6208 157.893 64.2709 158.599 65.2008C159.305 66.1306 159.759 67.3541 159.969 68.8851C160.13 70.0317 160.109 71.0594 159.913 71.9683C159.717 72.8771 159.389 73.6532 158.941 74.2963C158.487 74.9465 157.955 75.4639 157.34 75.8484C156.725 76.2399 156.068 76.4986 155.376 76.6244C155.229 76.6594 155.096 76.6314 154.984 76.5405C154.872 76.4496 154.803 76.3238 154.782 76.177L154.593 74.8067C154.572 74.6599 154.593 74.5201 154.663 74.4012C154.733 74.2824 154.865 74.1845 155.075 74.1006C156.334 73.6392 157.152 72.989 157.522 72.15C157.9 71.3111 158.005 70.3183 157.851 69.1718C157.662 67.8225 157.138 66.8157 156.278 66.1376C155.411 65.4594 154.145 65.2148 152.474 65.3895C151.104 65.5294 149.706 65.7181 148.287 65.9698C146.63 66.2495 145.476 66.8297 144.833 67.7176C144.19 68.6055 143.952 69.7171 144.141 71.0664C144.302 72.213 144.672 73.1428 145.26 73.8489C145.847 74.555 146.812 74.9605 148.147 75.0654C148.371 75.0863 148.531 75.1423 148.629 75.2402C148.727 75.338 148.783 75.4569 148.804 75.6107L148.993 76.981C149.014 77.1278 148.986 77.2676 148.909 77.3865C148.832 77.5053 148.72 77.5682 148.566 77.5752C147.867 77.6381 147.161 77.5682 146.455 77.3585C145.749 77.1488 145.092 76.7992 144.477 76.2958C143.868 75.7925 143.344 75.1353 142.91 74.3173C142.477 73.4993 142.176 72.5136 142.023 71.367Z" fill="#F4F4F5"/>
<path d="M142.028 89.8164C142.056 89.6486 142.133 89.5228 142.259 89.4389C142.385 89.348 142.532 89.3201 142.692 89.348L157.276 91.8788L158.101 87.1178C158.129 86.95 158.206 86.8242 158.332 86.7403C158.458 86.6494 158.604 86.6215 158.772 86.6494L159.814 86.8312C159.996 86.8661 160.128 86.943 160.219 87.0689C160.31 87.1947 160.338 87.3415 160.31 87.5023L158.234 99.4573C158.206 99.6391 158.122 99.7719 157.996 99.8628C157.87 99.9537 157.716 99.9817 157.535 99.9467L156.493 99.7649C156.325 99.737 156.199 99.6601 156.115 99.5342C156.032 99.4084 155.997 99.2546 156.032 99.0728L156.857 94.3328L142.273 91.8019C142.105 91.774 141.979 91.6971 141.895 91.5712C141.804 91.4454 141.776 91.2916 141.811 91.1098L142.035 89.8234L142.028 89.8164Z" fill="#F4F4F5"/>
<path d="M145.869 105.344C145.939 105.19 146.043 105.093 146.183 105.044C146.323 104.995 146.47 105.009 146.624 105.079L147.491 105.477C147.644 105.547 147.749 105.652 147.805 105.785C147.861 105.925 147.854 106.064 147.784 106.218L144.638 113.111C144.568 113.265 144.463 113.37 144.317 113.419C144.17 113.475 144.023 113.468 143.869 113.398L143.002 113C142.848 112.93 142.744 112.825 142.695 112.678C142.646 112.531 142.646 112.384 142.716 112.231L145.862 105.337L145.869 105.344Z" fill="#F4F4F5"/>
<path d="M124.289 124.661C124.421 124.556 124.561 124.514 124.715 124.535C124.869 124.556 124.995 124.633 125.1 124.766L135.132 137.784C135.244 137.93 135.293 138.077 135.272 138.231C135.251 138.385 135.174 138.511 135.041 138.616L134.041 139.385C133.881 139.51 133.734 139.559 133.587 139.538C133.44 139.517 133.342 139.496 133.272 139.462L122.862 134.652L124.827 145.977C124.841 146.047 124.841 146.152 124.827 146.292C124.813 146.425 124.729 146.558 124.568 146.683L123.589 147.438C123.443 147.55 123.296 147.599 123.142 147.578C122.988 147.557 122.855 147.473 122.743 147.327L112.711 134.309C112.606 134.176 112.564 134.036 112.585 133.883C112.606 133.729 112.69 133.596 112.837 133.484L113.816 132.729C113.949 132.624 114.088 132.582 114.242 132.603C114.396 132.624 114.522 132.701 114.627 132.834L122.184 142.643L120.506 133.575C120.457 133.4 120.457 133.239 120.506 133.079C120.555 132.925 120.66 132.785 120.821 132.659L121.436 132.184C121.611 132.051 121.772 131.981 121.919 131.988C122.065 131.988 122.226 132.03 122.394 132.114L130.755 136.029L123.198 126.22C123.093 126.087 123.051 125.947 123.072 125.794C123.093 125.64 123.17 125.514 123.303 125.409L124.282 124.654L124.289 124.661Z" fill="#F4F4F5"/>
<path d="M106.322 136.93C106.448 136.889 106.573 136.902 106.699 136.972C106.825 137.035 106.909 137.133 106.951 137.266C106.979 137.343 106.993 137.434 107.007 137.539L105.916 154.947C105.902 155.129 105.853 155.282 105.769 155.415C105.686 155.548 105.532 155.646 105.308 155.716L103.672 156.226C103.448 156.296 103.267 156.303 103.12 156.24C102.98 156.177 102.847 156.079 102.735 155.94L91.9338 142.258C91.8709 142.174 91.8289 142.09 91.8009 142.006C91.759 141.88 91.773 141.754 91.8429 141.629C91.9128 141.503 92.0037 141.419 92.1366 141.377L93.36 140.992C93.5488 140.929 93.7095 140.936 93.8284 141.006C93.9472 141.076 94.0311 141.146 94.0941 141.216L96.4851 144.215L104.364 141.747L104.616 137.923C104.609 137.839 104.637 137.734 104.7 137.609C104.763 137.483 104.895 137.392 105.084 137.329L106.308 136.944L106.322 136.93ZM104.322 144.02L97.8343 146.054L103.749 153.563L104.322 144.02Z" fill="#F4F4F5"/>
<path d="M84.7304 142.132C84.9121 142.132 85.052 142.195 85.1499 142.307C85.2478 142.419 85.2967 142.559 85.2897 142.726L84.8073 159.156C84.8073 159.338 84.7443 159.484 84.6465 159.589C84.5416 159.694 84.3948 159.743 84.213 159.743L83.0525 159.708C82.8498 159.708 82.703 159.652 82.6051 159.554C82.5072 159.456 82.4513 159.387 82.4373 159.338L74.4603 146.264L74.0898 158.841C74.0898 159.023 74.0269 159.17 73.929 159.275C73.8311 159.38 73.6843 159.428 73.4955 159.428L72.2861 159.394C72.1043 159.394 71.9575 159.331 71.8526 159.219C71.7477 159.107 71.6987 158.96 71.7057 158.771L72.1882 142.37C72.1882 142.202 72.2511 142.062 72.363 141.95C72.4748 141.839 72.6146 141.783 72.7824 141.79L73.9919 141.825C74.1736 141.825 74.3135 141.881 74.4044 141.985C74.4953 142.09 74.5581 142.16 74.5861 142.188L82.5421 155.136L82.9057 142.657C82.9057 142.489 82.9686 142.349 83.0804 142.244C83.1923 142.139 83.3391 142.09 83.5279 142.097L84.7374 142.132H84.7304Z" fill="#F4F4F5"/>
<path d="M65.4227 140.573C65.5485 140.622 65.6394 140.713 65.6954 140.838C65.7513 140.964 65.7583 141.097 65.7093 141.223C65.6814 141.3 65.6394 141.384 65.5905 141.475L53.9641 154.471C53.8452 154.604 53.7054 154.695 53.5586 154.751C53.4118 154.8 53.23 154.786 53.0133 154.702L51.4124 154.094C51.1956 154.01 51.0488 153.898 50.9719 153.765C50.902 153.632 50.86 153.472 50.853 153.29L50.832 135.861C50.832 135.756 50.8531 135.665 50.881 135.581C50.93 135.455 51.0208 135.364 51.1467 135.308C51.2725 135.252 51.4053 135.246 51.5312 135.294L52.7337 135.749C52.9225 135.819 53.0412 135.917 53.0902 136.049C53.1391 136.175 53.1672 136.287 53.1672 136.378L53.1881 140.209L60.9064 143.146L63.4722 140.3C63.5211 140.23 63.605 140.16 63.7379 140.104C63.8707 140.048 64.0245 140.055 64.2132 140.125L65.4087 140.58L65.4227 140.573ZM59.4662 144.9L53.1182 142.481V152.038L59.4662 144.9Z" fill="#F4F4F5"/>
<path d="M41.153 127.548C42.3065 128.499 43.1035 129.52 43.544 130.603C43.9844 131.687 44.0963 132.792 43.8795 133.917C43.6628 135.043 43.1455 136.148 42.3275 137.238C41.8731 137.818 41.3766 138.427 40.8523 139.07C40.321 139.713 39.8106 140.314 39.3213 140.888C38.4054 141.894 37.4197 142.607 36.364 143.027C35.3083 143.446 34.2037 143.537 33.0572 143.3C31.9106 143.055 30.764 142.468 29.6245 141.524C28.7156 140.776 28.0374 139.993 27.576 139.182C27.1146 138.364 26.8349 137.581 26.7231 136.833C26.6182 136.078 26.6322 135.399 26.7721 134.798C26.9119 134.197 27.1076 133.729 27.3593 133.393C27.4432 133.267 27.555 133.197 27.6879 133.19C27.8277 133.183 27.9536 133.232 28.0864 133.337L29.2329 134.281C29.3587 134.386 29.4357 134.491 29.4497 134.588C29.4637 134.686 29.4497 134.826 29.3868 134.994C29.226 135.427 29.142 135.917 29.142 136.455C29.142 137 29.2749 137.56 29.5476 138.14C29.8202 138.72 30.2956 139.294 30.9807 139.86C32.0154 140.713 33.0781 141.125 34.1617 141.083C35.2454 141.041 36.343 140.405 37.4546 139.168C38.4473 138.049 39.3982 136.896 40.307 135.714C41.3278 134.379 41.7472 133.169 41.5794 132.079C41.4116 130.988 40.8174 130.03 39.7897 129.184C39.1046 128.618 38.3844 128.24 37.6364 128.059C36.8883 127.877 36.1403 127.919 35.3922 128.185C34.6511 128.45 33.938 128.996 33.2668 129.807L32.5957 130.624L35.5111 133.029C35.6369 133.134 35.7138 133.267 35.7278 133.421C35.7418 133.575 35.6928 133.722 35.574 133.861L35.0636 134.484C34.9448 134.623 34.8119 134.707 34.6581 134.721C34.5043 134.735 34.3645 134.693 34.2316 134.581L29.8481 130.96C29.7083 130.841 29.6314 130.708 29.6245 130.562C29.6175 130.415 29.6734 130.268 29.7852 130.128L31.3233 128.261C32.1972 127.199 33.183 126.458 34.2666 126.024C35.3503 125.591 36.4898 125.5 37.6713 125.752C38.8599 126.003 40.0204 126.598 41.16 127.534L41.153 127.548Z" fill="#F4F4F5"/>
<path d="M30.5487 117.034C30.6466 117.187 30.6746 117.341 30.6396 117.481C30.6047 117.621 30.5138 117.74 30.367 117.831L16.4684 126.605C16.3146 126.702 16.1609 126.737 16.0141 126.709C15.8673 126.681 15.7484 126.591 15.6505 126.437L10.0994 117.649C10.0016 117.495 9.9736 117.341 10.0086 117.201C10.0505 117.055 10.1414 116.936 10.3022 116.838L11.1132 116.327C11.267 116.23 11.4138 116.195 11.5537 116.23C11.6935 116.258 11.8124 116.355 11.9102 116.509L16.4754 123.745L21.1386 120.802L16.867 114.034C16.7691 113.881 16.7411 113.727 16.7761 113.587C16.818 113.44 16.9089 113.321 17.0697 113.223L17.8598 112.727C17.9996 112.636 18.1464 112.608 18.2932 112.636C18.44 112.664 18.5588 112.755 18.6567 112.909L22.9284 119.676L27.7592 116.628L23.0822 109.224C22.9843 109.071 22.9493 108.924 22.9843 108.784C23.0192 108.644 23.1101 108.525 23.2639 108.427L24.0959 107.903C24.2357 107.812 24.3825 107.784 24.5293 107.812C24.6761 107.84 24.795 107.931 24.8929 108.085L30.5487 117.048V117.034Z" fill="#F4F4F5"/>
<path d="M21.4868 100.506C21.5218 100.667 21.5008 100.814 21.4169 100.947C21.333 101.08 21.2141 101.164 21.0464 101.198L5.00856 104.799C4.82679 104.841 4.67295 104.82 4.54012 104.736C4.40728 104.652 4.3234 104.533 4.28844 104.366L4.01577 103.135C3.97383 102.939 3.98777 102.778 4.06468 102.66C4.14158 102.541 4.21152 102.457 4.26745 102.408L13.0275 94.9973L1.93241 91.9981C1.8625 91.9771 1.76459 91.9351 1.64574 91.8722C1.52689 91.8023 1.44302 91.6695 1.40107 91.4737L1.1284 90.2712C1.08645 90.0895 1.1074 89.9356 1.1913 89.8028C1.27519 89.67 1.40807 89.5861 1.58285 89.5441L17.6206 85.9437C17.7814 85.9087 17.9352 85.9297 18.0611 86.0136C18.1939 86.0975 18.2778 86.2303 18.3198 86.4051L18.5924 87.6076C18.6274 87.7684 18.6064 87.9152 18.5225 88.048C18.4386 88.1809 18.3198 88.2648 18.152 88.2997L6.07115 91.0123L14.9989 93.3124C15.1737 93.3404 15.3275 93.4103 15.4464 93.5221C15.5652 93.634 15.6491 93.7878 15.6911 93.9836L15.8658 94.7456C15.9148 94.9553 15.9078 95.1301 15.8379 95.2699C15.775 95.4028 15.6701 95.5286 15.5233 95.6475L8.44818 101.569L20.529 98.8564C20.6898 98.8215 20.8366 98.8425 20.9695 98.9263C21.1023 99.0102 21.1862 99.1291 21.2211 99.2969L21.4938 100.499L21.4868 100.506Z" fill="#F4F4F5"/>
<path d="M18.251 77.2323C18.23 77.4141 18.16 77.5539 18.0412 77.6378C17.9223 77.7217 17.7755 77.7567 17.6077 77.7427L1.28328 75.8201C1.10151 75.7991 0.961705 75.7292 0.863828 75.6174C0.765951 75.5055 0.730972 75.3587 0.751945 75.1699L1.96841 64.8439C1.98938 64.6621 2.05933 64.5223 2.17818 64.4384C2.29703 64.3545 2.45085 64.3196 2.63263 64.3405L3.58342 64.4524C3.76519 64.4734 3.90498 64.5433 3.98888 64.6551C4.07976 64.767 4.10774 64.9138 4.08677 65.0956L3.08707 73.5969L8.56116 74.2401L9.49796 66.2911C9.51893 66.1093 9.58888 65.9695 9.70773 65.8856C9.82658 65.8017 9.9804 65.7667 10.1622 65.7877L11.085 65.8996C11.2528 65.9206 11.3856 65.9835 11.4765 66.0953C11.5744 66.2072 11.6093 66.354 11.5883 66.5358L10.6515 74.4848L16.3284 75.1559L17.3491 66.4589C17.37 66.2771 17.44 66.1373 17.5518 66.0534C17.6637 65.9695 17.8105 65.9345 17.9923 65.9555L18.9641 66.0744C19.1319 66.0953 19.2647 66.1583 19.3555 66.2701C19.4534 66.382 19.4884 66.5288 19.4674 66.7176L18.23 77.2393L18.251 77.2323Z" fill="#F4F4F5"/>
<path d="M21.7578 58.664C21.6809 58.8317 21.5691 58.9366 21.4292 58.9786C21.2894 59.0205 21.1426 59.0065 20.9888 58.9366L6.12546 51.9244C5.95767 51.8475 5.84583 51.7357 5.7899 51.6028C5.73397 51.463 5.7479 51.3162 5.8248 51.1484L6.32124 50.0997C6.40513 49.918 6.51696 49.7991 6.6428 49.7502C6.76865 49.7012 6.85954 49.6733 6.90847 49.6802L22.0794 47.5969L10.6977 42.2276C10.53 42.1507 10.418 42.0389 10.3621 41.906C10.3062 41.7662 10.3202 41.6194 10.3971 41.4516L10.9144 40.361C10.9913 40.1932 11.1032 40.0883 11.25 40.0324C11.3968 39.9834 11.5506 39.9904 11.7184 40.0743L26.5608 47.0725C26.7146 47.1424 26.8194 47.2543 26.8753 47.4011C26.9313 47.5479 26.9313 47.7017 26.8544 47.8486L26.3371 48.9392C26.2602 49.107 26.1553 49.2118 26.0224 49.2538C25.8896 49.2957 25.8057 49.3237 25.7567 49.3377L10.7047 51.449L21.9955 56.7763C22.1493 56.8462 22.2472 56.9581 22.3031 57.0979C22.3521 57.2447 22.345 57.3985 22.2611 57.5663L21.7438 58.657L21.7578 58.664Z" fill="#F4F4F5"/>
<path d="M34.904 37.5364C34.7851 37.6552 34.6523 37.7251 34.4985 37.7251C34.3446 37.7251 34.2048 37.6762 34.086 37.5573L23.3265 27.3991L20.0057 30.9157C19.8868 31.0345 19.754 31.0975 19.6002 31.1044C19.4464 31.1044 19.3065 31.0555 19.1877 30.9367L18.4187 30.2096C18.2858 30.0837 18.216 29.9439 18.209 29.7901C18.209 29.6363 18.2579 29.4965 18.3768 29.3776L26.7032 20.5547C26.8291 20.4219 26.969 20.352 27.1228 20.345C27.2766 20.345 27.4234 20.4009 27.5562 20.5267L28.3252 21.2538C28.4441 21.3727 28.507 21.5055 28.514 21.6593C28.521 21.8131 28.4581 21.9599 28.3322 22.0928L25.0323 25.5884L35.7918 35.7466C35.9107 35.8655 35.9736 35.9983 35.9806 36.1521C35.9876 36.3059 35.9246 36.4527 35.7988 36.5855L34.897 37.5364H34.904Z" fill="#F4F4F5"/>
</svg>
