<svg width="161" height="160" viewBox="0 0 161 160" fill="none" xmlns="http://www.w3.org/2000/svg">
<path d="M55.2037 23.4889C53.8759 24.0899 52.6669 24.3904 51.5767 24.3834C50.4865 24.3834 49.557 24.1598 48.7813 23.7265C48.0056 23.2932 47.4395 22.7271 47.0831 22.0213C47.0272 21.9025 47.0272 21.7627 47.0831 21.623C47.139 21.4762 47.2299 21.3784 47.3696 21.3155L48.5367 20.7843C48.7184 20.7005 48.8792 20.6865 49.0119 20.7354C49.1447 20.7843 49.2565 20.8682 49.3404 20.973C49.599 21.2945 49.9554 21.574 50.4096 21.8047C50.8639 22.0353 51.416 22.1401 52.0659 22.1331C52.7158 22.1261 53.4706 21.9304 54.3232 21.5391C55.637 20.9451 56.4966 20.2742 56.9089 19.5264C57.3142 18.7787 57.3422 18.0169 56.9927 17.2412C56.7481 16.7101 56.3918 16.3467 55.9165 16.172C55.4413 15.9903 54.8054 15.9274 54.0157 15.9693C53.226 16.0112 52.2266 16.123 51.0176 16.3047C49.7597 16.4864 48.6695 16.5563 47.768 16.5074C46.8665 16.4585 46.1047 16.2279 45.4827 15.8295C44.8678 15.4242 44.3646 14.7882 43.9663 13.9217C43.5959 13.097 43.4841 12.2584 43.6308 11.4128C43.7776 10.5602 44.1899 9.75656 44.8538 8.99482C45.5247 8.23308 46.4402 7.58316 47.6213 7.05203C48.5717 6.62574 49.4522 6.37416 50.2769 6.30427C51.1015 6.23439 51.8493 6.30427 52.5062 6.50694C53.1701 6.7096 53.7361 7.00312 54.1974 7.3735C54.6586 7.74389 55.001 8.15621 55.2246 8.60347C55.2736 8.7083 55.2806 8.83409 55.2526 8.96687C55.2247 9.09965 55.1199 9.20448 54.9521 9.28135L53.7361 9.83344C53.6313 9.88236 53.5055 9.90332 53.3587 9.88935C53.219 9.88236 53.0792 9.80548 52.9395 9.66571C52.5621 9.07869 51.975 8.71529 51.1714 8.56154C50.3677 8.40779 49.4732 8.56154 48.4948 9.00181C47.5024 9.44907 46.7826 10.0081 46.3354 10.6721C45.8881 11.336 45.8532 12.0697 46.2166 12.8804C46.4542 13.3975 46.7896 13.7679 47.2369 13.9776C47.6841 14.1872 48.2782 14.2851 49.0189 14.2571C49.7667 14.2362 50.7031 14.1383 51.8423 13.9706C53.219 13.754 54.3791 13.6561 55.3295 13.6771C56.2799 13.6981 57.0626 13.9077 57.6916 14.2921C58.3206 14.6834 58.8307 15.3124 59.2221 16.1789C59.6553 17.1434 59.7742 18.0798 59.5785 18.9883C59.3828 19.8968 58.9076 20.7354 58.1668 21.5041C57.419 22.2729 56.4267 22.9368 55.1897 23.5028L55.2037 23.4889Z" fill="#F4F4F5"/>
<path d="M71.8712 18.3801C71.7035 18.401 71.5567 18.3661 71.4379 18.2682C71.3121 18.1774 71.2423 18.0446 71.2213 17.8769L69.2995 3.20813L64.5124 3.83709C64.3447 3.85806 64.1979 3.82312 64.0791 3.73227C63.9603 3.64142 63.8834 3.50864 63.8625 3.34091L63.7227 2.29265C63.7017 2.11095 63.7366 1.9572 63.8275 1.83141C63.9183 1.7126 64.0512 1.63573 64.2189 1.61477L76.239 0.0493535C76.4207 0.0283882 76.5745 0.0633304 76.7002 0.15418C76.8191 0.24503 76.8959 0.384799 76.9169 0.566499L77.0567 1.61477C77.0776 1.78249 77.0427 1.92226 76.9518 2.04805C76.861 2.17384 76.7212 2.24373 76.5395 2.26469L71.7734 2.88666L73.6952 17.5554C73.7162 17.7231 73.6812 17.8629 73.5834 17.9887C73.4925 18.1145 73.3528 18.1844 73.1711 18.2053L71.8712 18.3731V18.3801Z" fill="#F4F4F5"/>
<path d="M85.8558 17.7372C85.6741 17.7093 85.5413 17.6254 85.4644 17.5066C85.3875 17.3878 85.3596 17.234 85.3875 17.0733L88.155 0.881068C88.1829 0.699368 88.2598 0.559599 88.3786 0.475738C88.4974 0.384888 88.6442 0.356934 88.8259 0.384888L94.8779 1.41918C96.7438 1.74065 98.1484 2.4325 99.0919 3.49475C100.035 4.55699 100.357 5.94769 100.063 7.66685C99.8466 8.93875 99.3505 9.92412 98.5747 10.616C97.799 11.3078 96.8416 11.7202 95.6955 11.8459L98.386 19.093C98.421 19.1978 98.428 19.2956 98.414 19.3795C98.3931 19.5123 98.3162 19.6171 98.1904 19.701C98.0646 19.7848 97.9388 19.8128 97.806 19.7848L96.618 19.5822C96.3385 19.5332 96.1428 19.4214 96.0379 19.2537C95.9331 19.079 95.8423 18.9113 95.7654 18.7505L93.2496 11.839L88.9097 11.0982L87.8195 17.4996C87.7916 17.6673 87.7147 17.7931 87.5889 17.884C87.4631 17.9748 87.3094 18.0028 87.1277 17.9678L85.8628 17.7512L85.8558 17.7372ZM89.2661 8.98068L93.3614 9.67953C94.5983 9.88918 95.5697 9.79134 96.2756 9.37203C96.9814 8.95273 97.4147 8.23292 97.5894 7.2126C97.7641 6.20627 97.5894 5.38163 97.0792 4.75267C96.5691 4.12371 95.6815 3.69741 94.4236 3.48077L90.3354 2.78193L89.2731 8.98068H89.2661Z" fill="#F4F4F5"/>
<path d="M103.404 21.5597C103.285 21.4968 103.208 21.3989 103.167 21.2592C103.125 21.1264 103.139 20.9936 103.201 20.8748C103.243 20.7979 103.292 20.721 103.355 20.6442L116.528 9.22505C116.668 9.10624 116.808 9.03636 116.962 9.00142C117.115 8.96648 117.29 9.00142 117.5 9.12022L119.009 9.92389C119.219 10.0357 119.345 10.1615 119.408 10.3083C119.464 10.455 119.485 10.6157 119.464 10.7974L117.276 28.0799C117.255 28.1847 117.227 28.2756 117.192 28.3454C117.129 28.4642 117.032 28.5411 116.892 28.5831C116.759 28.625 116.626 28.611 116.514 28.5481L115.382 27.9401C115.208 27.8423 115.096 27.7305 115.068 27.5977C115.04 27.4649 115.019 27.3531 115.033 27.2622L115.494 23.4605L108.212 19.5749L105.312 22.0768C105.256 22.1397 105.165 22.1956 105.025 22.2375C104.893 22.2795 104.732 22.2515 104.557 22.1607L103.425 21.5527L103.404 21.5597ZM109.861 18.0165L115.851 21.2172L117.06 11.7409L109.854 18.0165H109.861Z" fill="#F4F4F5"/>
<path d="M123.363 34.6983C123.244 34.5795 123.181 34.4467 123.174 34.293C123.174 34.1392 123.23 33.9995 123.342 33.8807L133.608 23.2303L130.127 19.8758C130.008 19.757 129.946 19.6242 129.946 19.4705C129.946 19.3167 130.001 19.177 130.113 19.0582L130.847 18.2964C130.973 18.1636 131.113 18.0938 131.273 18.0938C131.434 18.0938 131.567 18.1497 131.686 18.2615L140.421 26.6756C140.554 26.8014 140.624 26.9481 140.624 27.1019C140.624 27.2556 140.561 27.4024 140.435 27.5351L139.702 28.2969C139.583 28.4157 139.45 28.4786 139.296 28.4856C139.142 28.4926 138.996 28.4297 138.863 28.2969L135.404 24.9634L125.138 35.6138C125.019 35.7326 124.886 35.7955 124.732 35.8025C124.578 35.8025 124.432 35.7396 124.299 35.6138L123.356 34.7053L123.363 34.6983Z" fill="#F4F4F5"/>
<path d="M132.581 45.2995C132.49 45.1388 132.469 44.985 132.511 44.8453C132.553 44.7055 132.651 44.5937 132.798 44.5098L147.117 36.4591C147.278 36.3683 147.431 36.3403 147.578 36.3753C147.725 36.4102 147.837 36.5081 147.928 36.6688L153.015 45.7258C153.106 45.8866 153.127 46.0403 153.085 46.1801C153.036 46.3198 152.938 46.4386 152.777 46.5295L151.946 46.9977C151.785 47.0886 151.638 47.1165 151.499 47.0746C151.359 47.0396 151.247 46.9348 151.156 46.7741L146.963 39.3174L142.162 42.015L146.083 48.9894C146.173 49.1502 146.194 49.3039 146.152 49.4437C146.103 49.5834 146.006 49.7022 145.845 49.7931L145.034 50.2473C144.888 50.3312 144.741 50.3522 144.601 50.3172C144.461 50.2823 144.335 50.1845 144.252 50.0237L140.331 43.0492L135.355 45.8446L139.646 53.476C139.737 53.6367 139.765 53.7835 139.723 53.9233C139.688 54.063 139.583 54.1749 139.423 54.2657L138.57 54.7479C138.423 54.8318 138.276 54.8527 138.137 54.8178C137.997 54.7829 137.878 54.685 137.787 54.5243L132.595 45.2925L132.581 45.2995Z" fill="#F4F4F5"/>
<path d="M141.403 67.5859C141.102 66.1253 141.123 64.8325 141.459 63.7073C141.794 62.5892 142.402 61.6597 143.283 60.9259C144.156 60.1921 145.26 59.654 146.574 59.3186C147.294 59.1578 148.063 58.9901 148.873 58.8224C149.684 58.6547 150.467 58.5079 151.208 58.3751C152.549 58.1725 153.765 58.2354 154.856 58.5708C155.939 58.9063 156.854 59.5282 157.595 60.4367C158.336 61.3452 158.853 62.5263 159.146 63.9729C159.377 65.126 159.419 66.1603 159.265 67.0827C159.112 68.0052 158.839 68.7949 158.448 69.4448C158.056 70.0948 157.623 70.6119 157.134 70.9963C156.645 71.3806 156.197 71.6182 155.792 71.7161C155.645 71.765 155.519 71.744 155.408 71.6672C155.296 71.5903 155.226 71.4645 155.191 71.3038L154.898 69.8502C154.863 69.6824 154.87 69.5567 154.925 69.4728C154.974 69.3889 155.079 69.2911 155.226 69.1933C155.624 68.9556 155.995 68.6342 156.337 68.2079C156.68 67.7886 156.931 67.2644 157.085 66.6425C157.239 66.0205 157.232 65.2727 157.05 64.3992C156.784 63.0853 156.211 62.1 155.345 61.45C154.478 60.7931 153.22 60.6045 151.578 60.87C150.103 61.1146 148.643 61.4151 147.189 61.7645C145.561 62.1629 144.471 62.8408 143.919 63.7912C143.367 64.7416 143.227 65.8667 143.485 67.1666C143.66 68.0402 143.982 68.7809 144.45 69.3959C144.918 70.0109 145.526 70.4512 146.267 70.7097C147.014 70.9683 147.902 70.9963 148.936 70.7796L149.971 70.57L149.216 66.8731C149.181 66.7054 149.209 66.5586 149.293 66.4328C149.377 66.307 149.509 66.2232 149.691 66.1882L150.481 66.0275C150.662 65.9925 150.816 66.0135 150.942 66.0974C151.068 66.1812 151.152 66.307 151.187 66.4747L152.319 72.0445C152.354 72.2262 152.333 72.373 152.242 72.4988C152.151 72.6246 152.018 72.6945 151.844 72.7364L149.474 73.2186C148.126 73.4912 146.896 73.4562 145.778 73.1068C144.659 72.7574 143.723 72.1144 142.961 71.178C142.199 70.2415 141.668 69.0465 141.375 67.5999L141.403 67.5859Z" fill="#F4F4F5"/>
<path d="M142.601 86.0492C142.622 85.8814 142.685 85.7487 142.811 85.6508C142.936 85.553 143.076 85.518 143.244 85.532L149.149 86.168L160.002 81.2411C160.051 81.2271 160.107 81.2201 160.156 81.2062C160.205 81.1922 160.268 81.1922 160.331 81.2062C160.463 81.2201 160.575 81.283 160.666 81.3948C160.757 81.5067 160.792 81.6255 160.778 81.7582L160.638 83.0581C160.624 83.2049 160.568 83.3376 160.484 83.4495C160.4 83.5613 160.282 83.6312 160.142 83.6661L151.511 87.6705L159.087 93.422C159.212 93.5198 159.303 93.6246 159.366 93.7434C159.429 93.8622 159.45 93.995 159.436 94.1418L159.296 95.4207C159.282 95.5674 159.219 95.6932 159.108 95.7771C158.996 95.8609 158.877 95.9029 158.744 95.8889C158.674 95.8889 158.618 95.8679 158.57 95.847C158.521 95.826 158.472 95.7911 158.43 95.7561L148.87 88.6489L142.964 88.0129C142.797 87.9919 142.664 87.929 142.573 87.8033C142.475 87.6845 142.44 87.5307 142.454 87.349L142.594 86.0492H142.601Z" fill="#F4F4F5"/>
<path d="M147.302 101.696C147.365 101.543 147.463 101.431 147.603 101.382C147.743 101.326 147.889 101.333 148.043 101.389L148.938 101.731C149.091 101.794 149.203 101.892 149.273 102.025C149.336 102.158 149.343 102.304 149.273 102.458L146.534 109.516C146.471 109.67 146.373 109.782 146.233 109.845C146.093 109.908 145.94 109.908 145.786 109.845L144.891 109.502C144.737 109.44 144.626 109.342 144.563 109.202C144.5 109.062 144.5 108.908 144.563 108.755L147.302 101.696Z" fill="#F4F4F5"/>
<path d="M125.736 122.487C126.728 121.439 127.748 120.712 128.811 120.307C129.873 119.901 130.97 119.852 132.102 120.16C133.234 120.467 134.388 121.131 135.569 122.152C136.121 122.648 136.638 123.13 137.134 123.591C137.63 124.059 138.14 124.549 138.665 125.073C139.741 126.177 140.454 127.302 140.81 128.427C141.166 129.552 141.173 130.671 140.838 131.775C140.502 132.879 139.86 133.927 138.916 134.926C137.987 135.912 136.973 136.611 135.897 137.009C134.821 137.407 133.703 137.463 132.55 137.184C131.397 136.904 130.243 136.247 129.083 135.227C128.524 134.745 128 134.27 127.504 133.801C127.008 133.333 126.505 132.837 125.994 132.306C124.897 131.202 124.163 130.083 123.8 128.972C123.437 127.854 123.423 126.757 123.765 125.674C124.108 124.591 124.771 123.528 125.75 122.494L125.736 122.487ZM127.287 123.955C126.414 124.884 125.973 125.904 125.98 127.03C125.98 128.148 126.588 129.329 127.797 130.566C128.322 131.111 128.804 131.586 129.237 131.991C129.67 132.397 130.166 132.844 130.726 133.326C131.592 134.095 132.417 134.584 133.213 134.794C134.01 135.003 134.751 134.982 135.443 134.738C136.135 134.493 136.771 134.067 137.344 133.459C137.917 132.851 138.308 132.194 138.518 131.488C138.727 130.782 138.699 130.035 138.448 129.259C138.196 128.476 137.665 127.672 136.854 126.841C136.33 126.324 135.848 125.855 135.415 125.45C134.982 125.045 134.485 124.584 133.926 124.08C132.626 122.941 131.41 122.41 130.285 122.48C129.16 122.55 128.161 123.046 127.287 123.969V123.955Z" fill="#F4F4F5"/>
<path d="M114.966 132.145C115.127 132.054 115.28 132.033 115.42 132.082C115.56 132.131 115.672 132.229 115.748 132.376L123.583 146.821C123.666 146.982 123.694 147.135 123.659 147.282C123.624 147.429 123.527 147.541 123.359 147.632L117.74 150.679C116.65 151.273 115.609 151.608 114.609 151.692C113.61 151.776 112.701 151.587 111.884 151.126C111.059 150.665 110.367 149.91 109.801 148.862C109.235 147.813 108.984 146.821 109.047 145.892C109.116 144.955 109.452 144.095 110.067 143.306C110.682 142.516 111.527 141.824 112.625 141.237L116.538 139.113L113.54 133.585C113.463 133.438 113.442 133.291 113.484 133.145C113.526 132.998 113.631 132.879 113.792 132.788L114.966 132.152V132.145ZM117.565 140.951L113.743 143.026C112.653 143.62 111.968 144.305 111.681 145.088C111.402 145.871 111.513 146.723 112.017 147.653C112.513 148.568 113.163 149.134 113.966 149.344C114.77 149.553 115.734 149.358 116.853 148.75L120.675 146.674L117.572 140.944L117.565 140.951Z" fill="#F4F4F5"/>
<path d="M93.4795 140.846C93.6402 140.811 93.787 140.846 93.9198 140.923C94.0456 141.006 94.1294 141.132 94.1643 141.3L97.0366 155.815L101.775 154.879C101.942 154.844 102.082 154.879 102.215 154.955C102.341 155.039 102.425 155.165 102.453 155.333L102.655 156.367C102.69 156.549 102.669 156.703 102.578 156.828C102.488 156.954 102.369 157.038 102.201 157.066L90.3067 159.421C90.125 159.456 89.9713 159.435 89.8455 159.344C89.7197 159.26 89.6358 159.128 89.6009 158.946L89.3982 157.912C89.3633 157.744 89.3982 157.597 89.4821 157.471C89.5659 157.345 89.6987 157.262 89.8804 157.227L94.5976 156.297L91.7324 141.782C91.6974 141.614 91.7324 141.468 91.8092 141.342C91.8931 141.216 92.0259 141.132 92.2076 141.097L93.4934 140.846H93.4795Z" fill="#F4F4F5"/>
<path d="M79.2812 142.145C79.4629 142.145 79.6027 142.208 79.7005 142.32C79.7984 142.432 79.8473 142.572 79.8403 142.739L79.3022 159.183C79.3022 159.351 79.2393 159.484 79.1345 159.595C79.0296 159.7 78.8899 159.749 78.7012 159.742L77.3664 159.7C77.1847 159.7 77.0449 159.637 76.9471 159.526C76.8492 159.414 76.8003 159.274 76.8073 159.106L77.3454 142.662C77.3454 142.495 77.4083 142.355 77.5131 142.25C77.618 142.145 77.7647 142.096 77.9464 142.103L79.2812 142.145Z" fill="#F4F4F5"/>
<path d="M68.9561 141.481C69.1169 141.53 69.2357 141.628 69.3056 141.761C69.3755 141.901 69.3894 142.047 69.3335 142.208L64.4206 157.883C64.3647 158.058 64.2669 158.184 64.1341 158.254C63.9943 158.323 63.8476 158.337 63.6869 158.282L62.4848 157.904C62.2892 157.841 62.1634 157.75 62.1005 157.625C62.0376 157.499 61.9957 157.401 61.9817 157.324L59.955 146.038L51.7995 154.13C51.7506 154.186 51.6597 154.242 51.5409 154.312C51.4221 154.382 51.2684 154.382 51.0727 154.326L49.8986 153.956C49.7239 153.9 49.5981 153.802 49.5283 153.669C49.4584 153.529 49.4514 153.376 49.5003 153.201L54.4132 137.526C54.4621 137.365 54.56 137.253 54.6927 137.176C54.8255 137.1 54.9862 137.1 55.1609 137.155L56.335 137.526C56.4957 137.575 56.6076 137.673 56.6844 137.805C56.7543 137.945 56.7683 138.092 56.7194 138.253L53.0155 150.063L59.4798 143.494C59.5916 143.354 59.7314 143.263 59.8851 143.214C60.0389 143.166 60.2136 143.173 60.4093 143.235L61.1501 143.466C61.3597 143.529 61.5065 143.627 61.5903 143.746C61.6742 143.864 61.7301 144.025 61.758 144.207L63.3374 153.299L67.0413 141.488C67.0902 141.328 67.188 141.216 67.3208 141.139C67.4536 141.062 67.6074 141.055 67.7681 141.104L68.9422 141.474L68.9561 141.481Z" fill="#F4F4F5"/>
<path d="M47.4586 132.543C47.6124 132.641 47.7033 132.767 47.7312 132.913C47.7592 133.06 47.7242 133.2 47.6334 133.347L38.6812 147.149C38.5903 147.289 38.4715 147.379 38.3317 147.414C38.185 147.449 38.0382 147.414 37.8845 147.317L36.7663 146.59C36.6126 146.492 36.5217 146.366 36.4938 146.219C36.4658 146.073 36.5008 145.926 36.5916 145.786L45.5438 131.984C45.6347 131.844 45.7535 131.753 45.8932 131.718C46.04 131.683 46.1868 131.718 46.3405 131.816L47.4586 132.543Z" fill="#F4F4F5"/>
<path d="M39.8057 127.197C39.9315 127.33 39.9874 127.477 39.9734 127.63C39.9595 127.784 39.8896 127.917 39.7708 128.036L38.9881 128.783C38.8064 128.958 38.6246 129.063 38.4499 129.091C38.2752 129.119 38.1424 129.147 38.0586 129.154L22.3346 131.229L28.5054 137.687C28.6242 137.806 28.6801 137.945 28.6731 138.099C28.6731 138.253 28.6102 138.386 28.4844 138.504L27.7576 139.196C27.6248 139.322 27.4781 139.385 27.3243 139.385C27.1706 139.385 27.0378 139.322 26.919 139.196L19.05 130.957C18.9242 130.824 18.8613 130.677 18.8613 130.524C18.8613 130.37 18.9312 130.23 19.064 130.104L19.8467 129.356C19.9934 129.217 20.1402 129.126 20.28 129.084C20.4267 129.042 20.5665 129.007 20.7133 128.986L36.4233 126.82L30.0289 120.125C29.9031 119.992 29.8402 119.845 29.8402 119.691C29.8402 119.538 29.9101 119.398 30.0428 119.272L30.7696 118.58C30.8884 118.461 31.0282 118.406 31.182 118.413C31.3357 118.42 31.4755 118.482 31.6013 118.615L39.7987 127.204L39.8057 127.197Z" fill="#F4F4F5"/>
<path d="M28.0152 113.87C28.0711 113.989 28.0781 114.122 28.0362 114.255C27.9873 114.387 27.9034 114.485 27.7846 114.548C27.7077 114.583 27.6239 114.618 27.526 114.646L10.1597 116.176C9.97802 116.19 9.81729 116.162 9.67752 116.106C9.53775 116.044 9.41198 115.911 9.30715 115.701L8.55939 114.164C8.45456 113.954 8.42659 113.772 8.46154 113.626C8.49648 113.479 8.58036 113.332 8.69916 113.199L20.6005 100.473C20.6773 100.396 20.7542 100.341 20.8241 100.306C20.9429 100.25 21.0757 100.243 21.2085 100.285C21.3412 100.334 21.4391 100.417 21.502 100.536L22.0611 101.689C22.1519 101.871 22.1659 102.025 22.1169 102.151C22.068 102.276 22.0121 102.374 21.9492 102.444L19.3426 105.253L22.9626 112.668L26.7783 112.347C26.8621 112.326 26.9669 112.34 27.1067 112.382C27.2395 112.431 27.3513 112.542 27.4421 112.724L28.0013 113.877L28.0152 113.87ZM20.7123 112.955L17.7352 106.847L11.194 113.814L20.7123 112.948V112.955Z" fill="#F4F4F5"/>
<path d="M19.5658 91.5282C19.5937 91.6959 19.5658 91.8427 19.4749 91.9685C19.391 92.0943 19.2582 92.1712 19.0975 92.1991L4.5336 94.7778L5.37222 99.537C5.40018 99.7047 5.37222 99.8445 5.28137 99.9703C5.19052 100.096 5.0647 100.173 4.90397 100.201L3.86269 100.383C3.68099 100.418 3.52727 100.383 3.40147 100.299C3.27568 100.208 3.1988 100.082 3.17084 99.9213L1.06032 87.9781C1.02538 87.7964 1.06036 87.6426 1.14422 87.5168C1.23507 87.391 1.36782 87.3142 1.54952 87.2792L2.59079 87.0975C2.75851 87.0696 2.89829 87.0975 3.03107 87.1884C3.15686 87.2792 3.23375 87.412 3.26869 87.5937L4.10731 92.3249L18.6712 89.7462C18.8389 89.7182 18.9787 89.7462 19.1045 89.837C19.2303 89.9279 19.3072 90.0606 19.3421 90.2423L19.5728 91.5282H19.5658Z" fill="#F4F4F5"/>
<path d="M18.5482 77.2996C18.5412 77.4813 18.4783 77.6211 18.3594 77.719C18.2476 77.8098 18.1009 77.8587 17.9402 77.8447L1.51031 76.9782C1.34259 76.9712 1.20979 76.9153 1.10497 76.8035C1.00014 76.6986 0.951254 76.5519 0.965231 76.3702L1.0351 75.0354C1.04209 74.8537 1.105 74.7139 1.2238 74.6161C1.33562 74.5182 1.48236 74.4763 1.65009 74.4903L18.0799 75.3569C18.2477 75.3638 18.3805 75.4198 18.4853 75.5316C18.5901 75.6364 18.639 75.7832 18.625 75.9649L18.5551 77.2996H18.5482Z" fill="#F4F4F5"/>
<path d="M21.5425 61.5265C21.1162 62.9032 20.5082 64.0074 19.7325 64.839C18.9567 65.6706 17.9923 66.1947 16.8462 66.4184C15.6931 66.642 14.3654 66.5512 12.8559 66.1528C12.15 65.9502 11.4651 65.7475 10.8152 65.5448C10.1653 65.3422 9.49437 65.1255 8.79552 64.8879C7.34193 64.3638 6.2098 63.6719 5.39215 62.8193C4.58149 61.9597 4.07836 60.9604 3.89666 59.8283C3.71496 58.6961 3.82676 57.4662 4.23908 56.1523C4.64441 54.8525 5.24542 53.7903 6.03512 52.9586C6.8318 52.127 7.81015 51.5819 8.97023 51.3303C10.1303 51.0787 11.4512 51.1556 12.9397 51.5609C13.6525 51.7496 14.3374 51.9453 14.9873 52.141C15.6372 52.3436 16.3081 52.5673 17 52.8189C18.4746 53.329 19.6207 54.0069 20.4383 54.8525C21.256 55.6981 21.7521 56.6765 21.9198 57.8016C22.0876 58.9268 21.9618 60.1707 21.5355 61.5265H21.5425ZM19.5018 60.8905C19.8792 59.6745 19.8233 58.5634 19.3271 57.557C18.8309 56.5507 17.7687 55.761 16.1404 55.181C15.4276 54.9224 14.7916 54.7057 14.2186 54.531C13.6455 54.3563 13.0096 54.1746 12.2967 53.9859C11.1786 53.6714 10.2212 53.6016 9.4175 53.7623C8.61383 53.923 7.94996 54.2655 7.4398 54.7966C6.92266 55.3207 6.54527 55.9846 6.29369 56.7813C6.0421 57.585 5.98619 58.3467 6.11198 59.0665C6.23777 59.7933 6.5872 60.4502 7.16025 61.0373C7.7333 61.6313 8.56493 62.1205 9.65513 62.5118C10.354 62.7494 10.9899 62.9521 11.556 63.1268C12.122 63.3015 12.772 63.4972 13.4988 63.7069C15.169 64.1541 16.4968 64.1052 17.4752 63.5461C18.4536 62.987 19.1384 62.1065 19.5158 60.8835L19.5018 60.8905Z" fill="#F4F4F5"/>
<path d="M26.9132 48.1367C26.8014 48.2834 26.6756 48.3673 26.5288 48.3883C26.3821 48.4022 26.2423 48.3603 26.1025 48.2625L12.8385 38.5695C12.6917 38.4577 12.6009 38.3319 12.5729 38.1851C12.5449 38.0384 12.5869 37.8916 12.6917 37.7448L13.3766 36.8084C13.4954 36.6477 13.6212 36.5498 13.7539 36.5219C13.8867 36.4939 13.9776 36.4869 14.0335 36.5079L29.3242 37.3325L19.163 29.9108C19.0162 29.799 18.9254 29.6732 18.8974 29.5264C18.8695 29.3797 18.9114 29.2329 19.0162 29.0862L19.7291 28.1148C19.8409 27.968 19.9667 27.8772 20.1204 27.8562C20.2742 27.8352 20.4209 27.8772 20.5747 27.982L33.8178 37.661C33.9506 37.7588 34.0344 37.8916 34.0694 38.0454C34.0973 38.2061 34.0694 38.3459 33.9645 38.4856L33.2517 39.464C33.1399 39.6108 33.0211 39.6946 32.8813 39.7086C32.7485 39.7226 32.6577 39.7366 32.6088 39.7435L17.4369 38.9748L27.5142 46.3337C27.647 46.4315 27.7308 46.5573 27.7518 46.711C27.7728 46.8648 27.7308 47.0115 27.626 47.1653L26.9132 48.1437V48.1367Z" fill="#F4F4F5"/>
<path d="M35.3372 26.5772C35.2044 26.682 35.0646 26.717 34.9178 26.689C34.7711 26.6611 34.6453 26.5842 34.5475 26.4514L33.9674 25.6897C33.8626 25.5569 33.8207 25.4171 33.8346 25.2704C33.8486 25.1236 33.9255 24.9978 34.0583 24.893L40.0823 20.3086C40.2151 20.2037 40.3549 20.1688 40.5086 20.1898C40.6623 20.2107 40.7882 20.2876 40.893 20.4204L41.473 21.1821C41.5778 21.3149 41.6128 21.4617 41.5918 21.6154C41.5709 21.7692 41.494 21.8949 41.3612 21.9998L35.3372 26.5842V26.5772Z" fill="#F4F4F5"/>
</svg>
