<svg width="158" height="158" viewBox="0 0 158 158" fill="none" xmlns="http://www.w3.org/2000/svg">
<path d="M47.936 20.4309C46.7653 20.3296 45.838 19.2515 45.9372 18.1034C46.0404 16.9103 47.1166 16.0054 48.3097 16.1086C49.5029 16.2118 50.3852 17.286 50.282 18.4791C50.1828 19.6272 49.1291 20.534 47.936 20.4309Z" fill="#F0F1F1"/>
<path d="M60.038 19.9602C59.8588 20.0015 59.714 19.974 59.59 19.8913C59.4728 19.8086 59.3901 19.6845 59.3557 19.526L55.9096 3.6948C55.8682 3.5156 55.889 3.36398 55.9648 3.23992C56.0406 3.11586 56.1646 3.03316 56.3438 2.9918L61.8506 1.79258C63.5116 1.4273 64.9107 1.38594 66.041 1.66852C67.1714 1.9511 68.0742 2.52314 68.7565 3.39844C69.4388 4.27374 69.942 5.42472 70.2659 6.8376C70.4382 7.56127 70.5898 8.19535 70.7069 8.74672C70.8241 9.29809 70.9551 9.92527 71.0929 10.642C71.3824 12.1376 71.4031 13.4196 71.1549 14.5016C70.9068 15.5768 70.3417 16.4659 69.4457 17.162C68.5497 17.8581 67.2954 18.3819 65.6619 18.7334L60.038 19.9602ZM61.4095 17.5066L65.0968 16.7071C66.2134 16.4659 67.068 16.1144 67.6607 15.6664C68.2534 15.2184 68.6325 14.6188 68.7772 13.8744C68.9288 13.1301 68.8874 12.1997 68.6669 11.0831C68.5911 10.5938 68.5153 10.1665 68.4395 9.80121C68.3637 9.43593 68.2809 9.07754 68.2051 8.71226C68.1224 8.34697 68.019 7.93345 67.8881 7.47168C67.5159 5.91406 66.8887 4.832 66.0135 4.23238C65.1382 3.63277 63.8631 3.5225 62.1814 3.88778L58.6182 4.66659L61.4164 17.5135L61.4095 17.5066Z" fill="#F4F4F5"/>
<path d="M74.6237 17.0307C74.4928 17.0307 74.3756 16.9687 74.286 16.8653C74.1895 16.7619 74.1481 16.6448 74.155 16.5138C74.155 16.4311 74.1689 16.3415 74.1964 16.245L81.1436 0.517224C81.2195 0.358706 81.316 0.227756 81.4331 0.131266C81.5503 0.0416687 81.7295 0.000316058 81.9638 0.00720817L83.6524 0.0899135C83.8798 0.103698 84.0521 0.158835 84.1624 0.262216C84.2727 0.365598 84.3554 0.50344 84.4174 0.675743L89.7381 17.0169C89.7657 17.1203 89.7795 17.2099 89.7726 17.2926C89.7726 17.4236 89.7106 17.5407 89.6072 17.6303C89.5038 17.7199 89.3866 17.7682 89.2557 17.7613L87.9944 17.6993C87.7946 17.6924 87.6567 17.6303 87.5671 17.5269C87.4844 17.4236 87.4224 17.3271 87.3948 17.2444L86.2093 13.6536L78.0836 13.2469L76.5467 16.6999C76.526 16.7826 76.4639 16.8722 76.3606 16.9618C76.2572 17.0514 76.1055 17.0996 75.9057 17.0859L74.6444 17.0238L74.6237 17.0307ZM78.8899 11.1586L85.5822 11.4895L82.6737 2.52283L78.8899 11.1517V11.1586Z" fill="#F4F4F5"/>
<path d="M94.7165 19.395C94.5579 19.3536 94.4408 19.264 94.365 19.1331C94.2891 19.0021 94.2753 18.8574 94.3236 18.692L98.2452 4.63897L93.6551 3.35704C93.4965 3.31569 93.3794 3.22609 93.3036 3.09514C93.2277 2.96419 93.214 2.81945 93.2553 2.65404L93.5379 1.6478C93.5861 1.47549 93.6757 1.34454 93.8067 1.27562C93.9376 1.19981 94.0823 1.18602 94.2409 1.22738L105.758 4.4391C105.93 4.48734 106.054 4.57694 106.13 4.70789C106.206 4.83884 106.219 4.99736 106.171 5.16966L105.889 6.17591C105.847 6.33443 105.758 6.45159 105.62 6.52741C105.482 6.60322 105.33 6.61701 105.158 6.56876L100.595 5.29372L96.6738 19.3467C96.6324 19.5052 96.5428 19.6224 96.4119 19.6982C96.2809 19.774 96.1224 19.7878 95.9501 19.7396L94.7096 19.395H94.7165Z" fill="#F4F4F5"/>
<path d="M101.483 21.166C101.365 21.104 101.29 21.0075 101.248 20.8696C101.207 20.7318 101.221 20.6077 101.283 20.4906C101.324 20.4148 101.372 20.339 101.434 20.2631L114.474 9.06346C114.612 8.9463 114.757 8.87738 114.901 8.84292C115.053 8.80845 115.225 8.84292 115.432 8.96008L116.914 9.75957C117.121 9.86984 117.245 9.9939 117.3 10.1386C117.355 10.2834 117.369 10.4419 117.355 10.6142L115.122 27.6515C115.101 27.7549 115.074 27.8445 115.039 27.9134C114.977 28.0305 114.881 28.1064 114.743 28.1477C114.605 28.1891 114.481 28.1753 114.364 28.1133L113.247 27.5136C113.075 27.4171 112.972 27.3069 112.937 27.1759C112.903 27.045 112.889 26.9347 112.903 26.8451L113.378 23.0958L106.217 19.2293L103.343 21.6829C103.288 21.7449 103.199 21.8001 103.061 21.8414C102.923 21.8828 102.771 21.8552 102.599 21.7587L101.483 21.1591V21.166ZM107.865 17.6993L113.757 20.8834L114.991 11.5446L107.858 17.7062L107.865 17.6993Z" fill="#F4F4F5"/>
<path d="M120.436 32.9995C120.354 32.8961 120.312 32.7789 120.319 32.6411C120.326 32.5033 120.381 32.3861 120.485 32.3034C120.547 32.2483 120.622 32.1931 120.705 32.1449L136.867 26.2935C137.032 26.2383 137.198 26.2177 137.343 26.2383C137.494 26.259 137.646 26.3624 137.797 26.5347L138.9 27.8097C139.052 27.982 139.128 28.1474 139.128 28.2991C139.128 28.4507 139.086 28.6092 139.004 28.7677L130.878 43.9097C130.823 43.9993 130.768 44.0751 130.705 44.1234C130.602 44.2061 130.485 44.2474 130.347 44.2405C130.209 44.2336 130.092 44.1785 130.009 44.0751L129.182 43.1171C129.051 42.9655 128.996 42.8276 129.01 42.6898C129.024 42.5588 129.051 42.4486 129.093 42.3728L130.864 39.037L125.536 32.8823L121.98 34.1574C121.904 34.1987 121.801 34.2125 121.663 34.2056C121.525 34.1987 121.387 34.116 121.256 33.9644L120.429 33.0064L120.436 32.9995ZM127.632 32.0208L132.015 37.0865L136.481 28.7884L127.632 32.0208Z" fill="#F4F4F5"/>
<path d="M131.783 47.1152C131.707 46.9497 131.693 46.7981 131.748 46.6672C131.804 46.5293 131.907 46.4259 132.059 46.357L146.704 39.4236C146.87 39.3477 147.021 39.3271 147.159 39.3753C147.297 39.4236 147.407 39.5201 147.483 39.6855L147.972 40.7193C148.055 40.8985 148.083 41.0501 148.041 41.1811C148 41.312 147.966 41.3947 147.924 41.4292L140.012 54.2898L151.226 48.9829C151.391 48.9071 151.543 48.8864 151.68 48.9347C151.818 48.976 151.929 49.0794 152.004 49.2448L152.514 50.32C152.59 50.4854 152.604 50.637 152.556 50.7818C152.501 50.9265 152.397 51.0368 152.232 51.1126L137.614 58.0323C137.462 58.1012 137.31 58.115 137.166 58.0667C137.021 58.0185 136.904 57.922 136.835 57.7704L136.325 56.6952C136.249 56.5298 136.235 56.385 136.283 56.261C136.332 56.1369 136.366 56.0542 136.38 56.006L144.189 43.2211L133.065 48.4867C132.913 48.5556 132.768 48.5694 132.624 48.5143C132.479 48.466 132.369 48.3557 132.293 48.1903L131.783 47.1152Z" fill="#F4F4F5"/>
<path d="M138.069 61.0711C138.048 60.9402 138.076 60.8161 138.159 60.7058C138.241 60.5887 138.345 60.5197 138.476 60.4991C138.558 60.4853 138.648 60.4784 138.751 60.4784L155.609 63.8486C155.782 63.8831 155.927 63.952 156.044 64.0485C156.161 64.145 156.237 64.3104 156.278 64.5378L156.561 66.1988C156.602 66.4263 156.581 66.6055 156.499 66.7364C156.416 66.8674 156.306 66.9777 156.154 67.0741L141.357 75.8133C141.267 75.8616 141.177 75.896 141.095 75.9098C140.964 75.9305 140.84 75.9029 140.729 75.8202C140.612 75.7375 140.543 75.6341 140.523 75.5032L140.309 74.2557C140.275 74.0627 140.302 73.9111 140.385 73.8008C140.468 73.6975 140.543 73.6216 140.619 73.5734L143.865 71.6367L142.501 63.6143L138.8 62.8631C138.717 62.8631 138.613 62.8217 138.503 62.739C138.386 62.6563 138.317 62.5185 138.283 62.3255L138.069 61.078V61.0711ZM144.727 63.9658L145.85 70.5684L153.969 65.7853L144.72 63.9658H144.727Z" fill="#F4F4F5"/>
<path d="M140.312 79.1359C140.326 78.9567 140.388 78.8189 140.505 78.7293C140.622 78.6397 140.76 78.5983 140.926 78.6121L157.108 79.8458C157.274 79.8596 157.405 79.9216 157.508 80.025C157.611 80.1284 157.653 80.2731 157.639 80.4592L157.543 81.7687C157.529 81.9341 157.467 82.065 157.35 82.1615C157.232 82.258 157.095 82.3063 156.929 82.2925L142.332 81.1828L141.704 89.3982C141.691 89.5774 141.629 89.7222 141.512 89.8187C141.394 89.9151 141.25 89.9634 141.064 89.9496L140.071 89.8738C139.906 89.86 139.775 89.798 139.678 89.6808C139.582 89.5637 139.533 89.4189 139.547 89.2328L140.319 79.1359H140.312Z" fill="#F4F4F5"/>
<path d="M137.993 94.9317C138.042 94.7732 138.124 94.656 138.262 94.5802C138.393 94.5044 138.538 94.4906 138.703 94.5388L144.334 96.1516L155.713 93.188C155.768 93.188 155.816 93.188 155.871 93.188C155.927 93.188 155.982 93.188 156.044 93.2087C156.175 93.2431 156.271 93.3258 156.34 93.4499C156.409 93.5739 156.423 93.698 156.388 93.8221L156.037 95.0626C155.996 95.2074 155.927 95.3245 155.823 95.4141C155.72 95.5037 155.596 95.5589 155.458 95.5658L146.395 98.0056L152.791 104.87C152.894 104.987 152.97 105.104 153.011 105.229C153.053 105.353 153.053 105.484 153.011 105.628L152.667 106.848C152.625 106.993 152.543 107.096 152.419 107.165C152.294 107.234 152.17 107.248 152.046 107.213C151.984 107.193 151.929 107.172 151.888 107.145C151.846 107.117 151.805 107.076 151.764 107.034L143.672 98.5225L138.042 96.9097C137.883 96.8615 137.766 96.7719 137.69 96.6409C137.614 96.51 137.607 96.3515 137.656 96.1792L138.007 94.9386L137.993 94.9317Z" fill="#F4F4F5"/>
<path d="M131.718 109.247C132.441 108 133.234 107.069 134.109 106.449C134.985 105.829 135.86 105.471 136.728 105.367C137.597 105.271 138.376 105.402 139.065 105.76C139.182 105.829 139.258 105.932 139.292 106.077C139.333 106.222 139.313 106.36 139.237 106.491L138.603 107.586C138.506 107.759 138.389 107.862 138.251 107.897C138.114 107.931 137.983 107.931 137.852 107.897C137.459 107.786 137.018 107.766 136.521 107.841C136.025 107.917 135.522 108.145 135.005 108.524C134.488 108.903 133.999 109.496 133.537 110.295C132.827 111.529 132.517 112.556 132.621 113.39C132.724 114.223 133.137 114.851 133.868 115.271C134.371 115.561 134.861 115.643 135.35 115.512C135.839 115.381 136.384 115.071 136.99 114.582C137.597 114.093 138.334 113.431 139.203 112.597C140.105 111.729 140.939 111.053 141.697 110.571C142.456 110.088 143.193 109.833 143.917 109.806C144.64 109.778 145.412 109.999 146.226 110.467C146.998 110.915 147.57 111.522 147.935 112.287C148.3 113.052 148.438 113.934 148.341 114.926C148.245 115.919 147.873 116.967 147.239 118.069C146.722 118.958 146.157 119.668 145.536 120.192C144.916 120.723 144.282 121.095 143.627 121.309C142.979 121.522 142.359 121.619 141.773 121.584C141.187 121.55 140.677 121.419 140.243 121.185C140.14 121.129 140.064 121.033 140.016 120.909C139.968 120.785 139.988 120.64 140.078 120.482L140.739 119.344C140.795 119.241 140.884 119.158 141.008 119.082C141.132 119.007 141.284 118.986 141.47 119.02C142.104 119.275 142.793 119.234 143.524 118.889C144.254 118.545 144.889 117.918 145.419 117.008C145.957 116.077 146.219 115.216 146.191 114.43C146.17 113.645 145.778 113.031 145.02 112.59C144.53 112.307 144.048 112.211 143.572 112.294C143.09 112.376 142.559 112.645 141.98 113.093C141.394 113.541 140.698 114.155 139.878 114.94C138.899 115.905 138.024 116.65 137.252 117.173C136.48 117.697 135.729 117.987 135.005 118.035C134.282 118.083 133.51 117.869 132.69 117.401C131.787 116.877 131.153 116.195 130.794 115.354C130.429 114.513 130.326 113.569 130.484 112.521C130.643 111.474 131.056 110.371 131.725 109.213L131.718 109.247Z" fill="#F4F4F5"/>
<path d="M125.911 117.986C126.028 117.849 126.159 117.773 126.311 117.773C126.455 117.773 126.593 117.821 126.717 117.924L139.054 128.462C139.178 128.573 139.254 128.697 139.268 128.841C139.289 128.986 139.233 129.131 139.116 129.269L138.262 130.268C138.144 130.406 138.013 130.475 137.862 130.482C137.717 130.482 137.579 130.434 137.455 130.33L125.118 119.785C124.994 119.675 124.918 119.551 124.905 119.406C124.884 119.261 124.939 119.117 125.056 118.979L125.911 117.979V117.986Z" fill="#F4F4F5"/>
<path d="M117.278 126.133C118.394 125.223 119.476 124.638 120.51 124.369C121.551 124.1 122.495 124.072 123.343 124.293C124.19 124.514 124.873 124.913 125.39 125.492C125.472 125.596 125.507 125.72 125.493 125.871C125.479 126.023 125.41 126.147 125.293 126.237L124.307 127.036C124.156 127.16 124.004 127.215 123.866 127.201C123.729 127.188 123.605 127.139 123.494 127.057C123.17 126.809 122.757 126.636 122.267 126.533C121.778 126.43 121.227 126.464 120.606 126.636C119.993 126.809 119.318 127.181 118.601 127.767C117.498 128.663 116.843 129.517 116.643 130.331C116.444 131.144 116.609 131.881 117.14 132.536C117.505 132.984 117.939 133.239 118.435 133.287C118.939 133.342 119.559 133.246 120.296 133.005C121.041 132.763 121.964 132.405 123.074 131.936C124.232 131.447 125.245 131.109 126.127 130.93C127.002 130.751 127.788 130.779 128.477 131.006C129.166 131.233 129.807 131.716 130.4 132.446C130.965 133.142 131.282 133.908 131.351 134.755C131.42 135.603 131.234 136.478 130.786 137.367C130.338 138.263 129.621 139.111 128.636 139.911C127.836 140.558 127.057 141.013 126.286 141.289C125.514 141.565 124.79 141.682 124.108 141.654C123.425 141.627 122.812 141.489 122.281 141.255C121.751 141.013 121.316 140.71 120.992 140.338C120.917 140.248 120.882 140.138 120.875 140C120.875 139.862 120.944 139.738 121.082 139.628L122.102 138.801C122.192 138.725 122.309 138.677 122.447 138.649C122.584 138.622 122.736 138.656 122.902 138.76C123.405 139.221 124.059 139.428 124.866 139.366C125.672 139.311 126.485 138.946 127.306 138.277C128.139 137.602 128.684 136.892 128.946 136.147C129.208 135.403 129.056 134.693 128.505 134.011C128.153 133.577 127.733 133.308 127.257 133.218C126.782 133.129 126.189 133.184 125.486 133.397C124.783 133.604 123.908 133.935 122.86 134.376C121.606 134.928 120.517 135.314 119.607 135.527C118.697 135.741 117.891 135.748 117.202 135.527C116.513 135.307 115.865 134.838 115.265 134.107C114.61 133.301 114.259 132.433 114.217 131.523C114.176 130.613 114.417 129.69 114.934 128.766C115.451 127.842 116.23 126.96 117.271 126.119L117.278 126.133Z" fill="#F4F4F5"/>
<path d="M109.674 146.535C108.504 146.434 107.576 145.356 107.676 144.208C107.779 143.015 108.855 142.11 110.048 142.213C111.241 142.316 112.124 143.39 112.02 144.583C111.921 145.731 110.867 146.638 109.674 146.535Z" fill="#F0F1F1"/>
<path d="M98.4166 137.098C98.5958 137.057 98.7406 137.077 98.8646 137.16C98.9887 137.243 99.0645 137.367 99.1058 137.525L102.766 153.308C102.807 153.487 102.793 153.639 102.717 153.763C102.641 153.887 102.517 153.977 102.345 154.018L96.859 155.293C95.198 155.679 93.8058 155.741 92.6755 155.472C91.5452 155.211 90.6354 154.645 89.9393 153.777C89.2432 152.909 88.7263 151.771 88.3817 150.358C88.1956 149.635 88.044 149.001 87.9131 148.456C87.7821 147.912 87.6511 147.278 87.4995 146.568C87.1893 145.079 87.148 143.79 87.3824 142.708C87.6167 141.626 88.1749 140.73 89.0502 140.027C89.9324 139.324 91.1868 138.78 92.8133 138.401L98.4235 137.098H98.4166ZM97.0795 139.572L93.4061 140.427C92.2964 140.682 91.4418 141.04 90.856 141.502C90.2633 141.964 89.8979 142.564 89.7601 143.308C89.6223 144.052 89.6705 144.983 89.9117 146.099C89.9944 146.589 90.0703 147.016 90.1599 147.381C90.2426 147.746 90.3253 148.105 90.4149 148.47C90.4976 148.835 90.6148 149.242 90.7526 149.704C91.1455 151.261 91.7864 152.33 92.6686 152.915C93.5507 153.501 94.8327 153.598 96.5075 153.212L100.064 152.385L97.0933 139.572H97.0795Z" fill="#F4F4F5"/>
<path d="M83.8647 140.227C83.9956 140.227 84.1128 140.282 84.2093 140.385C84.3058 140.489 84.3471 140.606 84.3471 140.737C84.3471 140.82 84.3334 140.909 84.3127 141.006L77.5791 156.823C77.5102 156.988 77.4136 157.113 77.2896 157.209C77.1724 157.305 76.9932 157.347 76.7658 157.34L75.0772 157.278C74.8429 157.271 74.6706 157.216 74.5603 157.113C74.4501 157.009 74.3605 156.871 74.2984 156.706L68.764 140.44C68.7365 140.337 68.7227 140.248 68.7227 140.165C68.7227 140.034 68.7779 139.917 68.8812 139.82C68.9846 139.724 69.1018 139.682 69.2327 139.682L70.5009 139.731C70.7007 139.731 70.8455 139.793 70.9282 139.896C71.0178 139.999 71.0729 140.089 71.1074 140.179L72.341 143.749L80.4737 144.045L81.9694 140.571C81.99 140.489 82.0521 140.399 82.1555 140.303C82.2588 140.206 82.4104 140.165 82.6103 140.172L83.8716 140.22L83.8647 140.227ZM79.6742 146.154L72.982 145.906L76.0077 154.831L79.6742 146.154Z" fill="#F4F4F5"/>
<path d="M63.7372 138.132C63.8957 138.173 64.0129 138.263 64.0887 138.394C64.1645 138.525 64.1853 138.67 64.1439 138.828L60.4152 152.929L65.0191 154.149C65.1776 154.191 65.2948 154.28 65.3706 154.411C65.4464 154.542 65.4672 154.687 65.4189 154.845L65.1501 155.852C65.1019 156.024 65.0123 156.155 64.8813 156.231C64.7504 156.306 64.6056 156.327 64.4471 156.279L52.8821 153.226C52.7098 153.177 52.5789 153.088 52.5031 152.957C52.4273 152.826 52.4135 152.674 52.4617 152.495L52.7305 151.489C52.7719 151.33 52.8615 151.213 52.9924 151.137C53.1234 151.062 53.275 151.048 53.4542 151.096L58.0374 152.309L61.7661 138.208C61.8074 138.049 61.897 137.932 62.028 137.856C62.1589 137.78 62.3106 137.767 62.4898 137.808L63.7372 138.139V138.132Z" fill="#F4F4F5"/>
<path d="M56.9612 136.45C57.0784 136.512 57.1611 136.609 57.2024 136.74C57.2438 136.871 57.2369 137.002 57.1748 137.119C57.1404 137.195 57.0853 137.27 57.0301 137.346L44.1419 148.725C44.0041 148.842 43.8662 148.918 43.7146 148.952C43.563 148.987 43.3907 148.952 43.1839 148.842L41.6883 148.063C41.4815 147.953 41.3506 147.829 41.2955 147.691C41.2403 147.546 41.2196 147.388 41.2403 147.216L43.239 130.151C43.2528 130.047 43.2804 129.958 43.3217 129.889C43.3837 129.772 43.4803 129.689 43.6181 129.648C43.7491 129.606 43.88 129.613 43.9971 129.675L45.1205 130.261C45.2928 130.351 45.4032 130.461 45.4376 130.592C45.4721 130.723 45.4858 130.833 45.4789 130.923L45.0585 134.679L52.2745 138.449L55.1141 135.961C55.1692 135.892 55.2589 135.844 55.3967 135.802C55.5276 135.761 55.6862 135.789 55.8585 135.878L56.9819 136.464L56.9612 136.45ZM50.6273 140L44.6863 136.898L43.5767 146.258L50.6205 140H50.6273Z" fill="#F4F4F5"/>
<path d="M37.8414 124.871C37.931 124.968 37.9723 125.092 37.9586 125.23C37.9517 125.367 37.8965 125.485 37.8 125.574C37.7379 125.629 37.6622 125.685 37.5795 125.74L21.4933 131.812C21.3279 131.874 21.1693 131.894 21.0177 131.874C20.8661 131.853 20.7144 131.756 20.5628 131.584L19.4394 130.323C19.2878 130.151 19.2051 129.985 19.2051 129.834C19.2051 129.682 19.2396 129.523 19.3223 129.365L27.2482 114.12C27.3033 114.03 27.3585 113.954 27.4205 113.899C27.517 113.809 27.6411 113.775 27.7789 113.782C27.9167 113.789 28.0339 113.844 28.1235 113.94L28.9643 114.885C29.0953 115.036 29.1573 115.174 29.1435 115.305C29.1297 115.443 29.1022 115.546 29.0608 115.622L27.3378 118.985L32.7481 125.064L36.2906 123.741C36.3665 123.7 36.4698 123.679 36.6077 123.686C36.7455 123.693 36.8833 123.775 37.0143 123.92L37.8552 124.864L37.8414 124.871ZM30.6598 125.946L26.2075 120.943L21.8516 129.296L30.6598 125.946Z" fill="#F4F4F5"/>
<path d="M26.3069 110.915C26.3896 111.081 26.4034 111.232 26.3482 111.363C26.2931 111.501 26.1966 111.604 26.045 111.68L11.4958 118.813C11.3304 118.896 11.1787 118.91 11.0409 118.869C10.903 118.827 10.7928 118.724 10.7101 118.558L10.207 117.532C10.1174 117.352 10.0966 117.201 10.1311 117.07C10.1724 116.939 10.2069 116.856 10.2414 116.822L17.9743 103.858L6.83672 109.316C6.67131 109.399 6.51966 109.413 6.38181 109.371C6.24397 109.33 6.13371 109.227 6.05101 109.061L5.5272 107.993C5.44449 107.827 5.43066 107.676 5.47891 107.531C5.52715 107.386 5.63748 107.276 5.796 107.193L20.3245 100.074C20.4693 99.998 20.6209 99.9911 20.7725 100.032C20.9242 100.081 21.0344 100.177 21.1102 100.322L21.6341 101.39C21.7168 101.556 21.7305 101.7 21.6823 101.824C21.634 101.948 21.5996 102.038 21.5858 102.079L13.9493 114.968L24.9974 109.55C25.149 109.475 25.2938 109.468 25.4385 109.516C25.5832 109.564 25.6935 109.675 25.7762 109.833L26.3 110.901L26.3069 110.915Z" fill="#F4F4F5"/>
<path d="M19.8331 97.0415C19.8606 97.1725 19.8331 97.2965 19.7503 97.4137C19.6676 97.5309 19.5643 97.5998 19.4333 97.6205C19.3506 97.6343 19.261 97.6411 19.1576 97.648L2.25817 94.5052C2.08587 94.4708 1.93423 94.4019 1.81707 94.3054C1.6999 94.2089 1.61721 94.0503 1.57586 93.8229L1.27256 92.1619C1.23121 91.9345 1.24505 91.7553 1.32776 91.6243C1.40357 91.4934 1.52073 91.3762 1.67236 91.2866L16.3456 82.3476C16.4352 82.2993 16.5248 82.2648 16.6075 82.2511C16.7385 82.2235 16.8625 82.2511 16.9797 82.3338C17.0969 82.4165 17.1658 82.5199 17.1865 82.6508L17.4139 83.8983C17.4484 84.0913 17.4277 84.2429 17.345 84.3532C17.2623 84.4634 17.1865 84.5392 17.1107 84.5875L13.8921 86.5655L15.367 94.5673L19.0818 95.2703C19.1645 95.2703 19.2679 95.3116 19.385 95.3943C19.5022 95.477 19.578 95.608 19.6125 95.8078L19.84 97.0553L19.8331 97.0415ZM13.1339 94.2364L11.9209 87.6476L3.864 92.541L13.1339 94.2364Z" fill="#F4F4F5"/>
<path d="M17.3452 79.0117C17.3314 79.1909 17.2694 79.3287 17.1591 79.4252C17.0488 79.5148 16.9041 79.5562 16.7387 79.5493L0.542245 78.5361C0.376834 78.5224 0.24583 78.4672 0.142449 78.3638C0.0390671 78.2605 -0.00225189 78.1157 0.00464022 77.9365L0.0873422 76.627C0.101126 76.4616 0.163169 76.3307 0.273443 76.2273C0.390608 76.1239 0.52844 76.0825 0.693851 76.0894L15.3051 77.0061L15.822 68.7838C15.8358 68.6046 15.8978 68.4599 16.0081 68.3634C16.1253 68.26 16.27 68.2186 16.4492 68.2324L17.4417 68.2945C17.6071 68.3014 17.738 68.3634 17.8414 68.4805C17.9448 68.5977 17.9862 68.7424 17.9724 68.9216L17.3383 79.0255L17.3452 79.0117Z" fill="#F4F4F5"/>
<path d="M19.456 63.1875C19.4147 63.346 19.3251 63.4632 19.1941 63.539C19.0632 63.6148 18.9184 63.6286 18.7599 63.5872L13.1084 62.0503L1.77095 65.1724C1.71582 65.1724 1.6675 65.1724 1.61237 65.1793C1.55723 65.1793 1.50209 65.1793 1.44006 65.1586C1.31601 65.1242 1.21267 65.0483 1.14375 64.9243C1.07483 64.8002 1.05418 64.6762 1.08864 64.5521L1.42635 63.3046C1.4677 63.1599 1.53658 63.0427 1.63996 62.9531C1.74334 62.8635 1.86742 62.8084 2.00526 62.7946L11.0339 60.2308L4.54151 53.4558C4.43813 53.3386 4.36235 53.2215 4.3141 53.0974C4.26586 52.9734 4.26585 52.8424 4.3072 52.6977L4.63801 51.4778C4.67936 51.333 4.75524 51.2297 4.8793 51.1607C5.00336 51.0918 5.12736 51.0711 5.25142 51.1056C5.31345 51.1194 5.36857 51.147 5.40992 51.1745C5.45128 51.2021 5.49267 51.2434 5.53402 51.2848L13.7425 59.6863L19.394 61.2232C19.5526 61.2646 19.6697 61.3542 19.7455 61.4851C19.8214 61.6161 19.8351 61.7677 19.7868 61.9469L19.4491 63.1944L19.456 63.1875Z" fill="#F4F4F5"/>
<path d="M25.526 48.7896C24.823 50.044 24.0373 50.9882 23.1688 51.6223C22.3004 52.2564 21.432 52.6285 20.5636 52.7388C19.6952 52.8491 18.9165 52.7319 18.2204 52.3735C18.1032 52.3115 18.0273 52.2012 17.986 52.0565C17.9446 51.9118 17.9584 51.7739 18.0343 51.643L18.6546 50.5402C18.7511 50.3679 18.8682 50.2645 18.9992 50.2232C19.137 50.1887 19.2679 50.1818 19.3989 50.2232C19.7917 50.3335 20.2398 50.3404 20.7291 50.2577C21.2184 50.1749 21.7215 49.9406 22.2315 49.5547C22.7415 49.1687 23.224 48.5691 23.6789 47.7627C24.375 46.5221 24.6644 45.4883 24.5542 44.6544C24.4439 43.8204 24.0166 43.2001 23.2791 42.7866C22.776 42.504 22.2798 42.4282 21.7973 42.5661C21.3149 42.7039 20.7704 43.0209 20.1708 43.5172C19.5712 44.0134 18.8406 44.6888 17.986 45.5366C17.09 46.4187 16.2699 47.108 15.5186 47.5973C14.7674 48.0866 14.03 48.3554 13.3063 48.3899C12.5826 48.4243 11.8107 48.2176 10.9836 47.7558C10.2048 47.3216 9.62589 46.722 9.24682 45.957C8.86776 45.1919 8.72301 44.3167 8.80572 43.3173C8.88842 42.3248 9.24684 41.2703 9.86713 40.1607C10.3703 39.2647 10.9285 38.548 11.5419 38.0104C12.1553 37.4728 12.7893 37.0937 13.4372 36.8663C14.0851 36.6388 14.6985 36.5424 15.2843 36.563C15.8701 36.5906 16.3801 36.7147 16.8212 36.9421C16.9246 36.9972 17.0004 37.0868 17.0556 37.2109C17.1107 37.3349 17.09 37.4797 17.0004 37.6382L16.3594 38.7823C16.3043 38.8857 16.2147 38.9753 16.0975 39.0442C15.9804 39.12 15.8219 39.1407 15.6358 39.1131C14.9949 38.865 14.3125 38.9201 13.5819 39.2716C12.8582 39.6231 12.2311 40.2572 11.7142 41.1807C11.1904 42.1181 10.9423 42.9796 10.9767 43.7653C11.0112 44.551 11.404 45.1575 12.1691 45.5917C12.6584 45.8674 13.1477 45.957 13.6233 45.8674C14.0988 45.7778 14.6296 45.5021 15.2085 45.0472C15.7874 44.5923 16.4767 43.9652 17.283 43.1657C18.2479 42.187 19.1163 41.4358 19.8813 40.8982C20.6463 40.3606 21.3907 40.0642 22.1212 40.0022C22.8518 39.9402 23.6168 40.1469 24.4439 40.6087C25.3536 41.1187 25.9946 41.7941 26.3668 42.6281C26.739 43.462 26.8561 44.4063 26.7114 45.4539C26.5667 46.5015 26.1669 47.6111 25.5122 48.7827L25.526 48.7896Z" fill="#F4F4F5"/>
<path d="M31.2173 39.9679C31.1001 40.1057 30.9691 40.1815 30.8244 40.1884C30.6797 40.1953 30.5418 40.1471 30.4109 40.0437L17.9362 29.6711C17.8121 29.5677 17.7363 29.4436 17.7156 29.292C17.6949 29.1473 17.7432 29.0025 17.8604 28.8647L18.7012 27.8516C18.8184 27.7137 18.9493 27.6379 19.094 27.631C19.2387 27.6241 19.3766 27.6724 19.5007 27.7758L31.9754 38.1484C32.0995 38.2518 32.1752 38.3827 32.1959 38.5274C32.2166 38.6722 32.1684 38.8169 32.0512 38.9547L31.2104 39.9679H31.2173Z" fill="#F4F4F5"/>
<path d="M39.7456 31.7036C38.6428 32.6272 37.5676 33.2268 36.5338 33.5093C35.5 33.7919 34.5558 33.8264 33.7081 33.6265C32.8603 33.4197 32.1711 33.0269 31.6473 32.4549C31.5646 32.3515 31.5301 32.2274 31.5439 32.0758C31.5577 31.9242 31.6198 31.8001 31.7369 31.7036L32.7087 30.8903C32.8603 30.7663 33.005 30.7043 33.1498 30.718C33.2945 30.7318 33.4117 30.7801 33.522 30.8559C33.8528 31.0971 34.2663 31.2694 34.7557 31.3659C35.245 31.4624 35.7963 31.421 36.4166 31.2418C37.03 31.0626 37.6917 30.6767 38.4084 30.084C39.4974 29.1742 40.1453 28.3127 40.3314 27.4925C40.5244 26.6793 40.3451 25.9418 39.8076 25.2939C39.4354 24.846 39.0012 24.6047 38.498 24.5565C37.9949 24.5082 37.3747 24.6116 36.6372 24.8666C35.8998 25.1148 34.9762 25.4869 33.8804 25.9763C32.7294 26.4863 31.7162 26.8309 30.8409 27.0239C29.9656 27.2168 29.1868 27.2031 28.4907 26.9756C27.8015 26.7551 27.1537 26.2795 26.5472 25.5559C25.9751 24.8666 25.6511 24.1016 25.5684 23.2539C25.4857 22.4062 25.6649 21.5309 26.0991 20.6349C26.5334 19.732 27.2364 18.8774 28.2151 18.0572C29.0008 17.4025 29.7796 16.9338 30.5446 16.6444C31.3096 16.3618 32.0332 16.2308 32.7225 16.2515C33.4048 16.2722 34.0182 16.3962 34.5558 16.6306C35.0934 16.858 35.5276 17.1613 35.8584 17.5334C35.9342 17.623 35.9756 17.7333 35.9756 17.8711C35.9756 18.009 35.9135 18.133 35.7757 18.2502L34.7626 19.0911C34.673 19.1669 34.5627 19.2151 34.4249 19.2427C34.287 19.2702 34.1354 19.2427 33.97 19.1393C33.46 18.6844 32.7983 18.4845 31.9988 18.5535C31.1925 18.6224 30.3861 18.9946 29.5728 19.67C28.7457 20.3592 28.2082 21.076 27.9601 21.8203C27.712 22.5647 27.8635 23.2746 28.4287 23.95C28.7871 24.3842 29.2075 24.6392 29.69 24.7219C30.1724 24.8046 30.7582 24.7426 31.4612 24.522C32.1642 24.3015 33.0327 23.9638 34.0734 23.5089C35.3208 22.9437 36.4029 22.544 37.3057 22.3097C38.2086 22.0753 39.015 22.0684 39.7111 22.2752C40.4072 22.482 41.062 22.9437 41.6616 23.6674C42.3301 24.4669 42.6885 25.3284 42.7436 26.2382C42.7987 27.1548 42.5713 28.0784 42.0613 29.0019C41.5513 29.9323 40.7863 30.8214 39.7594 31.6829L39.7456 31.7036Z" fill="#F4F4F5"/>
</svg>
