<svg width="160" height="160" viewBox="0 0 160 160" fill="none" xmlns="http://www.w3.org/2000/svg">
<path d="M87.8568 21.0559C87.7017 21.0285 87.5893 20.965 87.5196 20.8655C87.4524 20.7518 87.4312 20.6245 87.456 20.4835L89.8871 6.67331C89.9144 6.51822 89.9778 6.40584 90.0773 6.33619C90.1793 6.25243 90.3078 6.22425 90.4629 6.25164L95.8341 7.20035C96.8774 7.38461 97.7499 7.71317 98.4516 8.18601C99.1674 8.66135 99.6772 9.27475 99.981 10.0262C100.287 10.7636 100.352 11.6328 100.176 12.6338C99.9999 13.6349 99.642 14.4294 99.1024 15.0174C98.5628 15.6053 97.8755 16 97.0406 16.2014C96.2197 16.4054 95.2877 16.4152 94.2444 16.2309L90.5014 15.5698L89.5707 20.857C89.5459 20.998 89.4754 21.1092 89.3594 21.1904C89.2599 21.2601 89.1326 21.2812 88.9776 21.2538L87.8568 21.0559ZM90.793 13.7896L94.4514 14.4357C95.4947 14.62 96.318 14.5256 96.9216 14.1524C97.5251 13.7793 97.905 13.1486 98.0614 12.2603C98.2153 11.3862 98.0807 10.6646 97.6575 10.0956C97.2344 9.52656 96.4871 9.14742 95.4157 8.95818L91.7573 8.31201L90.793 13.7896Z" fill="#EEF0FB"/>
<path d="M106.103 26.4843C105.965 26.4092 105.878 26.3135 105.844 26.197C105.816 26.0679 105.836 25.9403 105.904 25.8144L112.569 13.4772C112.644 13.3387 112.74 13.2521 112.856 13.2174C112.979 13.1702 113.11 13.1841 113.248 13.2592L117.855 15.7562C119.277 16.5271 120.223 17.4715 120.693 18.5894C121.163 19.7072 121.044 20.9211 120.337 22.231C119.813 23.2009 119.138 23.8613 118.314 24.2124C117.509 24.5577 116.627 24.6249 115.667 24.4139L115.859 31.0155C115.856 31.1115 115.837 31.191 115.803 31.254C115.749 31.3548 115.657 31.4191 115.528 31.4469C115.412 31.4815 115.303 31.4715 115.203 31.417L114.297 30.9257C114.083 30.8098 113.956 30.6678 113.916 30.4999C113.877 30.3319 113.85 30.1708 113.836 30.0165L113.691 23.7338L110.387 21.9429L107.754 26.8173C107.686 26.9432 107.584 27.0264 107.448 27.0668C107.332 27.1015 107.204 27.0813 107.066 27.0062L106.103 26.4843ZM111.255 20.337L114.37 22.0255C115.314 22.5372 116.124 22.7241 116.801 22.586C117.484 22.4354 118.037 21.9697 118.459 21.1887C118.874 20.4204 118.958 19.7085 118.71 19.053C118.474 18.4044 117.878 17.8208 116.922 17.3023L113.807 15.6137L111.255 20.337Z" fill="#EEF0FB"/>
<path d="M124.197 40.395C123.356 39.4962 122.788 38.5859 122.494 37.6641C122.21 36.7326 122.225 35.7954 122.539 34.8526C122.863 33.9001 123.491 32.9472 124.422 31.9938C124.871 31.5522 125.305 31.1353 125.722 30.7432C126.15 30.3414 126.598 29.9301 127.067 29.5093C128.067 28.6494 129.051 28.0982 130.02 27.8557C131.009 27.6138 131.959 27.6646 132.869 28.0081C133.799 28.3523 134.665 28.9528 135.467 29.8099C136.26 30.6564 136.793 31.5504 137.066 32.4917C137.359 33.4338 137.354 34.3915 137.049 35.3649C136.755 36.3286 136.143 37.277 135.212 38.21C134.773 38.6622 134.339 39.0892 133.911 39.491C133.494 39.883 133.046 40.2842 132.567 40.6946C131.567 41.5747 130.577 42.141 129.598 42.3933C128.638 42.6462 127.704 42.601 126.794 42.2575C125.895 41.9042 125.029 41.2833 124.197 40.395ZM125.528 39.1453C126.271 39.9396 127.118 40.3622 128.068 40.413C129.027 40.4743 130.064 40.0211 131.178 39.0534C131.667 38.6332 132.094 38.2516 132.459 37.9086C132.835 37.5558 133.243 37.1533 133.682 36.7011C134.383 36.0039 134.84 35.3192 135.054 34.6469C135.277 33.9851 135.303 33.3524 135.13 32.7488C134.957 32.1452 134.626 31.5821 134.137 31.0595C133.648 30.5369 133.108 30.1698 132.518 29.9583C131.927 29.7467 131.29 29.7262 130.607 29.8968C129.933 30.0779 129.222 30.4909 128.472 31.1358C128.003 31.5566 127.581 31.9434 127.205 32.2962C126.84 32.6393 126.428 33.0365 125.968 33.488C124.932 34.5394 124.414 35.5465 124.413 36.5095C124.413 37.4724 124.784 38.351 125.528 39.1453Z" fill="#EEF0FB"/>
<path d="M134.951 57.3494C134.646 56.6861 134.44 56.0163 134.334 55.3401C134.234 54.6768 134.245 54.0331 134.368 53.4089C134.496 52.7977 134.758 52.2355 135.152 51.7225C135.546 51.2094 136.088 50.7779 136.778 50.4279C136.895 50.3739 137.011 50.368 137.125 50.41C137.251 50.446 137.345 50.5291 137.405 50.6592L137.889 51.7127C137.955 51.8557 137.96 51.9873 137.905 52.1073C137.869 52.2343 137.792 52.3409 137.674 52.4269C137.113 52.7488 136.716 53.1369 136.484 53.591C136.265 54.0391 136.172 54.5232 136.207 55.0434C136.241 55.5636 136.381 56.0903 136.626 56.6236C137.081 57.6121 137.753 58.2165 138.642 58.4368C139.531 58.6571 140.515 58.5183 141.594 58.0204L148.516 54.826L145.33 47.9002C145.271 47.7701 145.259 47.6416 145.295 47.5146C145.35 47.3945 145.442 47.3045 145.572 47.2445L146.372 46.8756C146.502 46.8156 146.624 46.8066 146.738 46.8487C146.87 46.8977 146.967 46.9873 147.027 47.1174L150.894 55.5259C150.96 55.6689 150.965 55.8005 150.91 55.9205C150.874 56.0476 150.785 56.1441 150.642 56.2101L142.453 59.9893C141.4 60.4752 140.39 60.6965 139.425 60.6533C138.46 60.61 137.592 60.3167 136.822 59.7733C136.065 59.2239 135.441 58.4159 134.951 57.3494Z" fill="#EEF0FB"/>
<path d="M139.036 71.1615C139.018 71.005 139.048 70.8793 139.123 70.7845C139.214 70.688 139.33 70.6319 139.472 70.6162L153.409 69.071C153.566 69.0537 153.692 69.083 153.786 69.1589C153.895 69.2332 153.959 69.3486 153.976 69.5052L154.95 78.3203C154.967 78.4768 154.931 78.6033 154.841 78.6997C154.765 78.7946 154.648 78.8507 154.492 78.868L153.681 78.9579C153.524 78.9753 153.399 78.946 153.304 78.8701C153.209 78.7942 153.153 78.678 153.136 78.5214L152.334 71.2644L147.66 71.7826L148.41 78.5701C148.427 78.7266 148.39 78.8531 148.3 78.9495C148.224 79.0443 148.108 79.1004 147.952 79.1178L147.162 79.2053C147.02 79.2211 146.894 79.1918 146.785 79.1175C146.69 79.0416 146.634 78.9253 146.617 78.7688L145.867 71.9814L141.022 72.5185L141.843 79.9463C141.86 80.1028 141.831 80.2285 141.755 80.3233C141.679 80.4182 141.562 80.4743 141.406 80.4916L140.574 80.5839C140.431 80.5997 140.306 80.5704 140.197 80.4961C140.102 80.4202 140.046 80.3039 140.028 80.1474L139.036 71.1615Z" fill="#EEF0FB"/>
<path d="M137.841 93.9709C138.117 92.683 138.584 91.6632 139.243 90.9115C139.898 90.1739 140.7 89.6797 141.646 89.4292C142.593 89.1787 143.638 89.1542 144.781 89.3558C145.357 89.465 145.975 89.5904 146.633 89.7317C147.29 89.873 147.919 90.0153 148.518 90.1586C149.642 90.4442 150.585 90.8957 151.346 91.5131C152.107 92.1304 152.635 92.9102 152.931 93.8524C153.224 94.8085 153.233 95.9306 152.957 97.2185C152.751 98.1844 152.436 99.0027 152.014 99.6735C151.593 100.344 151.107 100.87 150.557 101.249C150.004 101.643 149.421 101.906 148.807 102.037C148.207 102.172 147.61 102.19 147.017 102.092C146.888 102.079 146.792 102.014 146.729 101.898C146.663 101.796 146.643 101.682 146.67 101.556L146.917 100.402C146.944 100.276 147.003 100.171 147.094 100.088C147.182 100.019 147.322 99.9832 147.513 99.9803C148.655 99.9769 149.5 99.6898 150.047 99.119C150.591 98.5623 150.966 97.801 151.173 96.8351C151.416 95.7012 151.285 94.7361 150.783 93.9398C150.294 93.1466 149.354 92.5786 147.963 92.2359C146.824 91.9473 145.649 91.6947 144.436 91.4781C143.027 91.2194 141.931 91.3499 141.146 91.8695C140.375 92.3921 139.868 93.2204 139.626 94.3543C139.419 95.3202 139.449 96.1687 139.717 96.8999C139.982 97.645 140.635 98.2539 141.676 98.7264C141.849 98.8075 141.961 98.8975 142.013 98.9966C142.062 99.1096 142.073 99.2291 142.047 99.3551L141.799 100.51C141.772 100.636 141.708 100.732 141.606 100.798C141.515 100.881 141.408 100.902 141.285 100.861C140.703 100.706 140.159 100.443 139.653 100.071C139.147 99.6986 138.723 99.2194 138.38 98.6332C138.034 98.0611 137.806 97.3824 137.696 96.5974C137.586 95.8123 137.634 94.9368 137.841 93.9709Z" fill="#EEF0FB"/>
<path d="M130.846 111.373C130.919 111.249 131.017 111.166 131.142 111.124C131.272 111.101 131.399 111.126 131.522 111.198L142.394 117.62L144.485 114.067C144.558 113.943 144.657 113.86 144.782 113.818C144.911 113.795 145.038 113.82 145.161 113.892L145.938 114.351C146.073 114.431 146.156 114.53 146.187 114.648C146.222 114.785 146.204 114.915 146.131 115.039L140.88 123.959C140.8 124.094 140.695 124.174 140.566 124.197C140.441 124.239 140.311 124.221 140.175 124.141L139.398 123.682C139.275 123.609 139.196 123.504 139.16 123.367C139.13 123.249 139.155 123.122 139.235 122.987L141.315 119.452L130.443 113.03C130.32 112.958 130.241 112.853 130.205 112.715C130.175 112.598 130.2 112.471 130.28 112.335L130.846 111.373Z" fill="#EEF0FB"/>
<path d="M121.203 128.935C121.516 128.662 121.873 128.483 122.274 128.399C122.674 128.335 123.073 128.368 123.469 128.497C123.855 128.635 124.184 128.861 124.457 129.174C124.738 129.499 124.916 129.856 124.991 130.247C125.054 130.648 125.023 131.036 124.895 131.413C124.766 131.811 124.546 132.146 124.233 132.419C123.909 132.701 123.547 132.874 123.148 132.938C122.757 133.013 122.368 132.991 121.981 132.873C121.594 132.755 121.259 132.534 120.977 132.209C120.705 131.896 120.532 131.534 120.459 131.123C120.386 130.711 120.409 130.312 120.527 129.924C120.654 129.547 120.88 129.217 121.203 128.935Z" fill="#EEF0FB"/>
<path d="M107.315 133.33C107.447 133.275 107.576 133.267 107.701 133.308C107.819 133.367 107.905 133.463 107.96 133.595L113.349 146.541C113.409 146.687 113.416 146.816 113.37 146.928C113.316 147.059 113.223 147.152 113.091 147.208L112.1 147.621C111.942 147.688 111.806 147.698 111.694 147.651C111.582 147.605 111.501 147.561 111.453 147.519L103.938 141.256L103.051 151.028C103.047 151.092 103.028 151.177 102.995 151.284C102.949 151.397 102.846 151.486 102.688 151.552L101.717 151.957C101.571 152.018 101.44 152.019 101.322 151.959C101.197 151.919 101.104 151.826 101.043 151.68L95.6549 138.734C95.5999 138.602 95.5993 138.47 95.6533 138.339C95.6996 138.227 95.7953 138.14 95.9407 138.08L96.9116 137.674C97.0437 137.619 97.1725 137.612 97.298 137.652C97.4158 137.712 97.5022 137.808 97.5572 137.94L101.617 147.694L102.236 139.849C102.234 139.695 102.269 139.556 102.342 139.432C102.42 139.322 102.538 139.234 102.697 139.168L103.311 138.911C103.483 138.84 103.629 138.817 103.749 138.845C103.874 138.886 103.998 138.958 104.119 139.063L110.138 144.136L106.078 134.382C106.023 134.249 106.022 134.118 106.076 133.987C106.123 133.874 106.212 133.79 106.344 133.735L107.315 133.33Z" fill="#EEF0FB"/>
<path d="M88.9372 139.179C89.0514 139.17 89.1545 139.206 89.2465 139.285C89.3384 139.364 89.3886 139.461 89.397 139.575C89.4023 139.647 89.4009 139.726 89.3929 139.813L85.1001 154.061C85.0535 154.208 84.9834 154.328 84.8897 154.421C84.7961 154.514 84.6493 154.568 84.4494 154.582L82.9931 154.69C82.7933 154.704 82.6402 154.673 82.534 154.594C82.4277 154.516 82.3408 154.408 82.2732 154.269L75.9651 140.803C75.9303 140.719 75.9102 140.642 75.905 140.57C75.8966 140.456 75.9321 140.353 76.0114 140.261C76.0908 140.169 76.1876 140.119 76.3018 140.11L77.394 140.03C77.5653 140.017 77.697 140.051 77.7889 140.13C77.8666 140.21 77.9224 140.285 77.9562 140.355L79.3576 143.309L86.382 142.791L87.3364 139.663C87.3454 139.59 87.3896 139.508 87.469 139.416C87.5483 139.324 87.6737 139.272 87.845 139.259L88.9372 139.179ZM85.8963 144.678L80.114 145.105L83.5639 152.494L85.8963 144.678Z" fill="#EEF0FB"/>
<path d="M69.0773 138.688C69.2299 138.727 69.3373 138.798 69.3995 138.903C69.4582 139.021 69.47 139.149 69.4349 139.288L65.998 152.883C65.9594 153.036 65.8879 153.143 65.7836 153.205C65.6758 153.281 65.5456 153.3 65.3929 153.261L64.4354 153.018C64.2689 152.976 64.1545 152.903 64.0923 152.798C64.0266 152.708 63.9921 152.64 63.9887 152.595L59.7625 140.224L57.1308 150.634C57.0922 150.787 57.0208 150.894 56.9165 150.956C56.8087 151.032 56.6784 151.051 56.5258 151.012L55.5267 150.759C55.374 150.72 55.2684 150.641 55.2097 150.523C55.1336 150.415 55.1148 150.285 55.1534 150.132L58.5851 136.558C58.6202 136.419 58.6986 136.314 58.8203 136.241C58.9281 136.165 59.0514 136.145 59.1902 136.18L60.1893 136.433C60.342 136.472 60.4494 136.544 60.5116 136.648C60.5599 136.749 60.5945 136.817 60.6152 136.852L64.8469 149.113L67.4575 138.787C67.4926 138.648 67.571 138.542 67.6927 138.47C67.797 138.408 67.9255 138.396 68.0782 138.435L69.0773 138.688Z" fill="#EEF0FB"/>
<path d="M51.8751 132.574C51.9715 132.636 52.0327 132.727 52.0588 132.845C52.0848 132.964 52.067 133.072 52.0053 133.168C51.9668 133.228 51.9183 133.291 51.86 133.356L39.8941 142.187C39.7688 142.276 39.6408 142.33 39.5102 142.349C39.3796 142.367 39.2299 142.322 39.0612 142.214L37.8321 141.425C37.6634 141.317 37.56 141.2 37.5219 141.073C37.4838 140.947 37.4792 140.808 37.5081 140.656L40.5266 126.087C40.5487 125.999 40.5791 125.925 40.6176 125.864C40.6793 125.768 40.7694 125.707 40.888 125.681C41.0066 125.655 41.1141 125.673 41.2105 125.734L42.1323 126.326C42.2769 126.418 42.3622 126.524 42.3883 126.643C42.4023 126.754 42.402 126.847 42.3876 126.923L41.7394 130.13L47.6682 133.933L50.3047 132.001C50.3553 131.948 50.4399 131.909 50.5585 131.883C50.6771 131.857 50.8086 131.89 50.9532 131.983L51.8751 132.574ZM46.1494 135.152L41.2689 132.022L39.6032 140.01L46.1494 135.152Z" fill="#EEF0FB"/>
<path d="M33.5445 116.509C34.3446 117.5 34.8398 118.49 35.03 119.478C35.2112 120.455 35.1164 121.398 34.7454 122.306C34.3655 123.203 33.7429 124.038 32.8776 124.813C32.397 125.22 31.8842 125.645 31.339 126.086C30.7826 126.536 30.2496 126.959 29.7399 127.353C28.8027 128.038 27.862 128.468 26.9179 128.643C25.9536 128.816 25.0148 128.701 24.1013 128.299C23.1768 127.905 22.3189 127.218 21.5278 126.238C20.8985 125.458 20.4614 124.688 20.2164 123.929C19.9715 123.169 19.8731 122.466 19.9214 121.819C19.9495 121.17 20.0752 120.608 20.2986 120.132C20.5129 119.645 20.7547 119.284 21.0239 119.048C21.115 118.955 21.2209 118.916 21.3416 118.928C21.4512 118.95 21.551 119.017 21.6409 119.128L22.4365 120.114C22.5264 120.226 22.5715 120.327 22.572 120.419C22.5634 120.5 22.5215 120.607 22.4462 120.742C22.2378 121.076 22.089 121.473 21.9996 121.932C21.9012 122.38 21.9203 122.871 22.057 123.405C22.1735 123.937 22.47 124.499 22.9464 125.089C23.6657 125.98 24.4847 126.505 25.4037 126.664C26.3137 126.811 27.3374 126.461 28.4749 125.614C29.4921 124.846 30.4824 124.044 31.4457 123.209C32.5224 122.264 33.0852 121.32 33.1343 120.377C33.1722 119.444 32.8361 118.537 32.1259 117.657C31.6494 117.067 31.1156 116.633 30.5245 116.357C29.9244 116.069 29.2939 115.971 28.6331 116.064C27.9611 116.166 27.2747 116.501 26.5737 117.069L25.8727 117.636L27.8955 120.143C27.9854 120.254 28.0284 120.376 28.0246 120.508C28.0006 120.638 27.9275 120.753 27.8051 120.852L27.271 121.284C27.1486 121.383 27.0271 121.426 26.9064 121.413C26.7655 121.399 26.6502 121.335 26.5603 121.224L23.5127 117.447C23.4138 117.324 23.3763 117.198 23.4002 117.068C23.4131 116.947 23.4807 116.837 23.6031 116.738L25.2053 115.441C26.1177 114.702 27.066 114.248 28.0504 114.077C29.0258 113.895 29.9904 114.008 30.944 114.414C31.8866 114.83 32.7534 115.528 33.5445 116.509Z" fill="#EEF0FB"/>
<path d="M25.54 103.302C25.5951 103.45 25.5975 103.579 25.5471 103.689C25.4834 103.805 25.3845 103.888 25.2504 103.938L12.1208 108.862C11.9734 108.917 11.8444 108.92 11.7339 108.87C11.61 108.824 11.5205 108.728 11.4653 108.581L8.36018 100.273C8.30504 100.126 8.30935 99.994 8.37311 99.8783C8.42346 99.7677 8.52236 99.6848 8.66981 99.6295L9.43386 99.3429C9.5813 99.2876 9.71028 99.2851 9.82078 99.3354C9.93128 99.3857 10.0141 99.4846 10.0692 99.6321L12.6256 106.471L17.0289 104.82L14.638 98.4233C14.5828 98.2757 14.5872 98.1442 14.6509 98.0285C14.7013 97.9179 14.8002 97.8349 14.9476 97.7796L15.6916 97.5006C15.8256 97.4504 15.9546 97.4479 16.0785 97.4931C16.189 97.5434 16.2718 97.6423 16.3269 97.7898L18.7178 104.186L23.282 102.475L20.6656 95.4747C20.6104 95.3272 20.608 95.1981 20.6584 95.0875C20.7088 94.9768 20.8077 94.8939 20.9551 94.8386L21.7393 94.5445C21.8733 94.4942 22.0023 94.4917 22.1262 94.537C22.2367 94.5873 22.3195 94.6862 22.3746 94.8337L25.54 103.302Z" fill="#EEF0FB"/>
<path d="M21.1205 86.8497C21.1258 86.9927 21.0873 87.1159 21.0052 87.2192C20.9082 87.3088 20.7881 87.3562 20.6451 87.3614L6.63199 87.8774C6.47462 87.8832 6.35145 87.8448 6.26246 87.7621C6.15864 87.6656 6.1041 87.5459 6.09885 87.4028L6.05947 86.3298C6.05317 86.1581 6.09137 86.0278 6.17406 85.9388C6.25674 85.8498 6.32618 85.7899 6.38235 85.7592L14.8858 80.912L6.04844 76.6603C5.99016 76.6338 5.91679 76.5864 5.82833 76.518C5.73934 76.4353 5.69169 76.3082 5.68539 76.1365L5.6468 75.085C5.64103 74.9276 5.68664 74.8041 5.78363 74.7146C5.8658 74.6113 5.98556 74.5568 6.14293 74.551L20.156 74.035C20.2991 74.0297 20.4225 74.0753 20.5263 74.1718C20.6153 74.2544 20.6627 74.3745 20.6685 74.5318L20.7071 75.5834C20.7123 75.7264 20.6739 75.8496 20.5917 75.9529C20.4947 76.0424 20.3747 76.0898 20.2316 76.0951L9.67352 76.4839L16.8009 79.81C16.946 79.862 17.0636 79.9436 17.1537 80.0549C17.2294 80.1667 17.2704 80.3085 17.2767 80.4802L17.3011 81.1454C17.3079 81.3314 17.2774 81.4758 17.2096 81.5785C17.1274 81.6819 17.0161 81.7719 16.8757 81.8487L10.0122 85.7115L20.5703 85.3228C20.7133 85.3175 20.8368 85.3631 20.9406 85.4595C21.0296 85.5422 21.0767 85.6551 21.0819 85.7982L21.1205 86.8497Z" fill="#EEF0FB"/>
<path d="M22.6124 65.7938C22.5682 65.945 22.4929 66.0497 22.3864 66.108C22.2661 66.1622 22.1373 66.1692 21.9999 66.1289L8.54385 62.1835C8.39273 62.1392 8.28801 62.0637 8.22968 61.9571C8.15761 61.8464 8.14366 61.7155 8.18783 61.5644L10.6755 53.0516C10.7197 52.9005 10.8019 52.7978 10.9222 52.7435C11.0287 52.6852 11.1575 52.6783 11.3086 52.7226L12.0917 52.9522C12.2428 52.9965 12.3475 53.0719 12.4058 53.1785C12.4642 53.2852 12.4713 53.414 12.4271 53.5652L10.3791 60.5733L14.8919 61.8965L16.8074 55.3419C16.8516 55.1907 16.9338 55.088 17.054 55.0338C17.1606 54.9755 17.2894 54.9685 17.4405 55.0128L18.2029 55.2364C18.3403 55.2766 18.445 55.3521 18.5171 55.4627C18.5754 55.5694 18.5825 55.6983 18.5383 55.8494L16.6229 62.404L21.3006 63.7756L23.3967 56.6026C23.4409 56.4514 23.5163 56.3467 23.6228 56.2884C23.7293 56.2302 23.8581 56.2232 24.0092 56.2675L24.8129 56.5031C24.9503 56.5434 25.055 56.6189 25.1271 56.7295C25.1854 56.8361 25.1925 56.965 25.1483 57.1162L22.6124 65.7938Z" fill="#EEF0FB"/>
<path d="M29.5035 49.116C29.4139 49.2455 29.3093 49.321 29.1899 49.3427C29.0587 49.3561 28.9343 49.322 28.8167 49.2403L17.2995 41.2411C17.1702 41.1513 17.0947 41.0466 17.073 40.927C17.0396 40.7992 17.0677 40.6705 17.1574 40.541L17.7196 39.7288C17.8174 39.5876 17.926 39.5062 18.0454 39.4845C18.1531 39.4547 18.2286 39.4462 18.2721 39.4589L31.3249 39.8444L22.5062 33.7195C22.3769 33.6296 22.3014 33.5249 22.2797 33.4053C22.2463 33.2775 22.2744 33.1489 22.3641 33.0194L22.9507 32.1719C23.0404 32.0424 23.1508 31.9709 23.282 31.9575C23.4096 31.9241 23.538 31.9523 23.6674 32.0421L35.1669 40.0291C35.2845 40.1107 35.3559 40.2213 35.3812 40.3609C35.4146 40.4887 35.3906 40.6114 35.3091 40.7292L34.7224 41.5767C34.6328 41.7062 34.5283 41.7817 34.4088 41.8033C34.2975 41.8132 34.222 41.8217 34.1822 41.8289L21.2297 41.487L29.9778 47.563C30.0954 47.6446 30.1669 47.7553 30.1921 47.8948C30.2138 48.0144 30.1798 48.139 30.0902 48.2685L29.5035 49.116Z" fill="#EEF0FB"/>
<path d="M45.6136 31.8234C45.4991 31.9094 45.3761 31.948 45.2445 31.9394C45.1158 31.9107 45.0085 31.839 44.9228 31.7244L37.3597 21.6132L34.0621 24.0881C33.9476 24.174 33.8245 24.2127 33.6929 24.204C33.5642 24.1753 33.457 24.1037 33.3712 23.989L32.831 23.2668C32.7367 23.1407 32.6982 23.0175 32.7154 22.8971C32.7355 22.7567 32.8029 22.6436 32.9174 22.5576L41.1958 16.3447C41.3218 16.2502 41.4491 16.2173 41.5778 16.246C41.7094 16.2546 41.8224 16.322 41.9167 16.4481L42.4569 17.1703C42.5427 17.2849 42.5755 17.4125 42.5554 17.5529C42.5381 17.6732 42.4665 17.7806 42.3405 17.8752L39.0601 20.3371L46.6231 30.4483C46.7089 30.5629 46.7417 30.6904 46.7215 30.8308C46.7043 30.9512 46.6327 31.0586 46.5067 31.1531L45.6136 31.8234Z" fill="#EEF0FB"/>
<path d="M61.2693 19.3352C60.8755 19.4666 60.4772 19.4938 60.0745 19.4169C59.6808 19.3218 59.3256 19.1385 59.009 18.8668C58.7059 18.5906 58.4889 18.2556 58.3579 17.8616C58.2224 17.4541 58.1955 17.0556 58.2772 16.6661C58.3725 16.2721 58.5515 15.9256 58.8142 15.6267C59.086 15.3097 59.4187 15.0855 59.8126 14.9541C60.22 14.8182 60.6205 14.7977 61.0142 14.8928C61.4034 14.9742 61.754 15.144 62.0661 15.402C62.3782 15.6601 62.602 15.9929 62.7375 16.4005C62.8685 16.7944 62.8887 17.1952 62.7979 17.6028C62.7071 18.0104 62.5326 18.3704 62.2745 18.6829C62.0118 18.9818 61.6767 19.1992 61.2693 19.3352Z" fill="#EEF0FB"/>
</svg>
