<svg width="160" height="160" viewBox="0 0 160 160" fill="none" xmlns="http://www.w3.org/2000/svg">
<path d="M86.8443 21.0539C86.6892 21.0265 86.5768 20.9631 86.5072 20.8636C86.44 20.75 86.4188 20.6227 86.4437 20.4817L88.8795 6.67235C88.9069 6.51727 88.9703 6.40489 89.0698 6.33521C89.1718 6.25143 89.3004 6.22321 89.4555 6.25055L94.2561 7.09676C95.7082 7.35273 96.8399 7.77753 97.651 8.37115C98.4621 8.96477 98.9963 9.72762 99.2534 10.6597C99.5131 11.5777 99.5405 12.6582 99.3358 13.9014C99.238 14.5383 99.1468 15.0964 99.0623 15.5758C98.9777 16.0551 98.8737 16.6037 98.7502 17.2215C98.4932 18.5136 98.0844 19.5536 97.5238 20.3416C96.9799 21.1179 96.2335 21.6405 95.2848 21.9094C94.3527 22.1666 93.1746 22.1697 91.7506 21.9187L86.8443 21.0539ZM88.7475 19.5359L91.962 20.1025C92.9348 20.274 93.7338 20.2768 94.3591 20.1108C94.9844 19.9448 95.4762 19.5881 95.8344 19.0407C96.2067 18.4958 96.4857 17.7382 96.6714 16.7679C96.7742 16.3499 96.853 15.9858 96.9077 15.6757C96.9649 15.3514 97.0208 15.0342 97.0756 14.724C97.1328 14.3998 97.1833 14.0307 97.2272 13.6169C97.4403 12.2444 97.2938 11.1792 96.7878 10.4213C96.2844 9.64935 95.2995 9.13413 93.8333 8.87567L90.7245 8.32768L88.7475 19.5359Z" fill="#EEF0FB"/>
<path d="M110.577 29.0517C110.483 28.986 110.426 28.8934 110.405 28.7737C110.384 28.6541 110.406 28.5474 110.472 28.4536C110.513 28.395 110.564 28.3346 110.625 28.2725L122.959 19.9465C123.088 19.8621 123.218 19.8135 123.349 19.8006C123.481 19.7877 123.629 19.8387 123.793 19.9537L124.989 20.791C125.153 20.906 125.252 21.0273 125.285 21.1552C125.317 21.283 125.316 21.4219 125.281 21.572L121.655 35.9935C121.63 36.0802 121.596 36.1529 121.555 36.2116C121.489 36.3054 121.397 36.3628 121.277 36.3839C121.157 36.405 121.051 36.3827 120.957 36.3171L120.06 35.689C119.919 35.5905 119.838 35.4815 119.817 35.3618C119.808 35.2504 119.812 35.1572 119.829 35.0822L120.611 31.9073L114.841 27.8682L112.124 29.6885C112.071 29.739 111.985 29.7747 111.865 29.7958C111.745 29.8169 111.615 29.7782 111.474 29.6797L110.577 29.0517ZM116.41 26.7127L121.16 30.0376L123.159 22.1312L116.41 26.7127Z" fill="#EEF0FB"/>
<path d="M132.114 51.5367C132.042 51.4127 132.019 51.2858 132.043 51.1561C132.087 51.0317 132.171 50.9336 132.295 50.8621L143.231 44.5503L141.169 40.9799C141.097 40.856 141.073 40.7291 141.098 40.5994C141.142 40.4749 141.225 40.3769 141.349 40.3054L142.131 39.8545C142.267 39.7758 142.394 39.7522 142.511 39.7836C142.648 39.8203 142.752 39.9006 142.824 40.0246L148 48.9876C148.079 49.124 148.097 49.2544 148.053 49.3789C148.029 49.5086 147.948 49.6128 147.812 49.6916L147.031 50.1424C146.907 50.214 146.776 50.2314 146.639 50.1947C146.522 50.1633 146.424 50.0794 146.345 49.943L144.294 46.3912L133.358 52.703C133.234 52.7746 133.103 52.792 132.967 52.7553C132.849 52.7239 132.751 52.64 132.672 52.5036L132.114 51.5367Z" fill="#EEF0FB"/>
<path d="M138.905 70.8145C138.895 70.7004 138.929 70.5969 139.007 70.5038C139.085 70.4108 139.181 70.3593 139.295 70.3493C139.367 70.343 139.446 70.3433 139.532 70.3501L153.838 74.4449C153.985 74.4894 154.106 74.5579 154.201 74.6502C154.295 74.7426 154.351 74.8886 154.368 75.0883L154.496 76.5429C154.513 76.7426 154.483 76.8961 154.406 77.0034C154.33 77.1107 154.222 77.1991 154.085 77.2686L140.706 83.7631C140.623 83.7991 140.546 83.8202 140.475 83.8264C140.361 83.8364 140.257 83.8024 140.164 83.7243C140.071 83.6462 140.019 83.5501 140.009 83.436L139.914 82.345C139.899 82.1739 139.931 82.0418 140.009 81.9487C140.088 81.8699 140.162 81.8131 140.231 81.7784L143.166 80.3361L142.552 73.3194L139.411 72.4085C139.338 72.4005 139.255 72.3575 139.162 72.2794C139.069 72.2013 139.015 72.0767 139 71.9055L138.905 70.8145ZM144.446 73.7789L144.951 79.5548L152.293 76.0027L144.446 73.7789Z" fill="#EEF0FB"/>
<path d="M139.486 103.162C139.628 102.772 139.854 102.443 140.165 102.176C140.484 101.926 140.849 101.762 141.259 101.682C141.663 101.616 142.061 101.654 142.451 101.796C142.855 101.943 143.184 102.169 143.438 102.475C143.687 102.794 143.847 103.15 143.918 103.541C143.998 103.951 143.966 104.351 143.824 104.741C143.677 105.145 143.444 105.471 143.125 105.72C142.819 105.975 142.468 106.144 142.071 106.228C141.675 106.313 141.275 106.281 140.872 106.135C140.481 105.993 140.155 105.76 139.892 105.435C139.629 105.111 139.456 104.751 139.371 104.355C139.301 103.963 139.339 103.566 139.486 103.162Z" fill="#EEF0FB"/>
<path d="M125.107 119.35C125.188 119.269 125.29 119.229 125.411 119.229C125.533 119.229 125.634 119.269 125.715 119.35C125.765 119.401 125.816 119.462 125.867 119.532L131.926 133.12C131.987 133.262 132.012 133.399 132.002 133.53C131.992 133.662 131.916 133.798 131.774 133.94L130.742 134.972C130.6 135.114 130.463 135.19 130.332 135.2C130.2 135.21 130.063 135.185 129.922 135.124L116.344 129.051C116.263 129.011 116.198 128.965 116.147 128.915C116.066 128.834 116.026 128.733 116.026 128.611C116.026 128.49 116.066 128.389 116.147 128.308L116.922 127.533C117.043 127.412 117.165 127.351 117.286 127.351C117.397 127.361 117.489 127.381 117.559 127.412L120.551 128.733L125.533 123.753L124.211 120.762C124.171 120.701 124.151 120.61 124.151 120.489C124.151 120.367 124.211 120.246 124.333 120.125L125.107 119.35ZM126.398 125.499L122.298 129.598L129.739 132.938L126.398 125.499Z" fill="#EEF0FB"/>
<path d="M103.592 135.047C103.74 134.993 103.869 134.991 103.979 135.043C104.094 135.108 104.176 135.207 104.225 135.342L109.023 148.518C109.076 148.666 109.078 148.795 109.026 148.905C108.98 149.029 108.883 149.117 108.735 149.171L107.807 149.509C107.645 149.568 107.509 149.571 107.399 149.52C107.294 149.482 107.227 149.446 107.199 149.41L96.7526 141.557L100.426 151.646C100.48 151.794 100.481 151.923 100.43 152.033C100.383 152.157 100.286 152.245 100.138 152.299L99.1696 152.652C99.0216 152.705 98.8901 152.7 98.7751 152.635C98.6515 152.589 98.5628 152.492 98.5089 152.344L93.7188 139.187C93.6698 139.053 93.6753 138.921 93.7352 138.793C93.7816 138.669 93.8721 138.583 94.0066 138.534L94.9753 138.182C95.1233 138.128 95.2523 138.127 95.3624 138.178C95.4591 138.234 95.5257 138.271 95.5624 138.288L105.952 146.048L102.308 136.039C102.259 135.905 102.265 135.773 102.324 135.645C102.376 135.535 102.475 135.453 102.623 135.399L103.592 135.047Z" fill="#EEF0FB"/>
<path d="M79.0443 139.98C79.1584 139.99 79.2545 140.041 79.3326 140.134C79.4106 140.227 79.4447 140.331 79.4347 140.445C79.4285 140.516 79.4145 140.594 79.3927 140.678L72.876 154.055C72.8065 154.193 72.7181 154.3 72.6108 154.377C72.5034 154.454 72.35 154.483 72.1503 154.466L70.6956 154.339C70.4959 154.321 70.3499 154.265 70.2576 154.171C70.1653 154.077 70.0968 153.956 70.0522 153.808L65.9797 139.505C65.9586 139.417 65.9512 139.337 65.9575 139.266C65.9675 139.152 66.019 139.056 66.112 138.978C66.2051 138.9 66.3087 138.866 66.4228 138.876L67.5138 138.971C67.6849 138.986 67.8095 139.04 67.8876 139.133C67.9514 139.225 67.9945 139.308 68.0168 139.382L68.9275 142.522L75.9442 143.136L77.3866 140.201C77.4072 140.131 77.4639 140.057 77.557 139.979C77.65 139.901 77.7821 139.869 77.9533 139.884L79.0443 139.98ZM75.1628 144.921L69.3869 144.416L71.6102 152.263L75.1628 144.921Z" fill="#EEF0FB"/>
<path d="M51.6969 132.741C51.8333 132.82 51.9172 132.918 51.9486 133.035C51.9729 133.165 51.9493 133.292 51.8777 133.416L44.8539 145.577C44.7823 145.701 44.6878 145.779 44.5704 145.81C44.4459 145.854 44.3155 145.837 44.1791 145.758L43.1934 145.189C43.0694 145.118 42.9952 145.017 42.971 144.887C42.9271 144.763 42.941 144.638 43.0126 144.515L49.349 133.543L43.1743 129.979C43.0379 129.901 42.9576 129.796 42.9333 129.667C42.8895 129.542 42.9069 129.412 42.9857 129.275L43.4153 128.532C43.4869 128.408 43.5911 128.327 43.728 128.291C43.8454 128.259 43.9723 128.283 44.1087 128.362L51.6969 132.741Z" fill="#EEF0FB"/>
<path d="M30.263 113.17C30.3451 113.287 30.3797 113.412 30.3668 113.543C30.334 113.671 30.259 113.776 30.1417 113.858L25.9899 116.764L21.7812 126.027C21.7542 126.064 21.7273 126.1 21.7003 126.136C21.6733 126.173 21.6364 126.207 21.5895 126.24C21.4956 126.306 21.3889 126.328 21.2693 126.307C21.1496 126.286 21.0569 126.228 20.9912 126.135L20.3506 125.22C20.2767 125.114 20.2403 125 20.2414 124.877C20.2309 124.762 20.2602 124.654 20.3294 124.553L23.6269 117.134L15.5246 117.694C15.3897 117.701 15.2742 117.686 15.178 117.648C15.0619 117.607 14.9668 117.534 14.8929 117.428L14.2646 116.531C14.1907 116.426 14.1643 116.313 14.1854 116.193C14.2065 116.074 14.2639 115.981 14.3577 115.916C14.4046 115.883 14.4498 115.86 14.4932 115.847C14.5366 115.834 14.5841 115.827 14.6357 115.826L24.7702 115.023L28.922 112.117C29.0393 112.035 29.1677 112.006 29.3073 112.03C29.427 112.052 29.532 112.127 29.6223 112.256L30.263 113.17Z" fill="#EEF0FB"/>
<path d="M21.1682 88.7425C21.3844 89.9691 21.3755 91.0319 21.1415 91.9309C20.9074 92.8298 20.5341 93.5571 20.0215 94.1127C19.4923 94.6567 18.8989 95.0013 18.2412 95.1463C18.1284 95.1662 18.0223 95.1414 17.9228 95.0717C17.8067 94.9904 17.7375 94.8863 17.7151 94.7594L17.525 93.6809C17.4952 93.5117 17.5151 93.3773 17.5848 93.2778C17.6545 93.1783 17.7432 93.1045 17.851 93.0564C18.1745 92.9121 18.4818 92.6762 18.7729 92.3487C19.05 92.0236 19.2578 91.5944 19.3964 91.0612C19.5184 90.5163 19.5098 89.8491 19.3707 89.0596C19.157 87.8471 18.7889 86.9962 18.2666 86.5069C17.7276 86.0059 17.0987 85.8188 16.3797 85.9457C15.8862 86.0327 15.5188 86.2574 15.2774 86.6198C15.0194 86.9706 14.8253 87.4773 14.6949 88.1399C14.5646 88.8026 14.4454 89.6522 14.3374 90.6888C14.2228 91.7703 14.0488 92.6804 13.8157 93.4194C13.5825 94.1583 13.2349 94.7429 12.7729 95.1733C12.3084 95.5896 11.6744 95.8686 10.8707 96.0104C10.1094 96.1446 9.39668 96.0596 8.73248 95.7552C8.05418 95.4532 7.47046 94.9456 6.98133 94.2324C6.49219 93.5191 6.15195 92.6197 5.9606 91.5341C5.80653 90.66 5.79217 89.8775 5.91753 89.1867C6.02631 88.4843 6.23956 87.8797 6.55728 87.373C6.8609 86.8688 7.2184 86.4641 7.62979 86.159C8.02708 85.8563 8.43596 85.6606 8.85643 85.5719C8.95512 85.5545 9.06002 85.5723 9.17113 85.6254C9.26815 85.681 9.33032 85.7863 9.35766 85.9414L9.55522 87.0622C9.57261 87.1609 9.56305 87.2716 9.52654 87.3944C9.48754 87.503 9.39547 87.5992 9.25033 87.683C8.68721 87.8695 8.25797 88.2796 7.96261 88.9132C7.66726 89.5468 7.5991 90.3147 7.75815 91.217C7.91967 92.1334 8.22761 92.8496 8.68196 93.3655C9.13382 93.8672 9.73336 94.0522 10.4806 93.9204C10.9599 93.8359 11.3381 93.6311 11.6152 93.306C11.8781 92.9834 12.0785 92.5119 12.2163 91.8916C12.3541 91.2713 12.4749 90.4722 12.5787 89.4945C12.6901 88.3119 12.8586 87.33 13.0844 86.5487C13.296 85.77 13.6328 85.1655 14.0948 84.7351C14.5402 84.2931 15.1647 84.0012 15.9683 83.8595C16.8565 83.7028 17.6588 83.8011 18.3753 84.1545C19.0776 84.5103 19.6725 85.0813 20.16 85.8676C20.6309 86.6422 20.9669 87.6005 21.1682 88.7425Z" fill="#EEF0FB"/>
<path d="M22.396 64.9321C22.3552 65.0843 22.2823 65.1907 22.1771 65.2514C22.058 65.3084 21.9294 65.3184 21.7911 65.2814L8.22596 61.6452C8.08768 61.6081 7.98817 61.537 7.92742 61.4318C7.85285 61.3229 7.83594 61.1923 7.87668 61.0402L8.17114 59.9409C8.21189 59.7887 8.29177 59.6842 8.41079 59.6271C8.51598 59.5664 8.63771 59.5546 8.77599 59.5916L22.3412 63.2278C22.4794 63.2649 22.5859 63.3379 22.6604 63.4468C22.7212 63.552 22.7312 63.6807 22.6904 63.8328L22.396 64.9321Z" fill="#EEF0FB"/>
<path d="M35.6895 40.72C34.8888 41.6739 34.0688 42.3502 33.2297 42.7487C32.3905 43.1473 31.5933 43.3288 30.8381 43.2932C30.0811 43.2376 29.4357 43.0045 28.9018 42.594C28.814 42.5204 28.7649 42.4231 28.7543 42.3021C28.7419 42.1609 28.7772 42.041 28.86 41.9423L29.5641 41.1035C29.6746 40.9719 29.7903 40.9008 29.9113 40.8902C30.0324 40.8796 30.146 40.9002 30.2521 40.9518C30.5706 41.1069 30.9489 41.1906 31.387 41.2031C31.8141 41.2063 32.2765 41.0897 32.7742 40.8531C33.27 40.5964 33.7757 40.161 34.2911 39.5469C35.0826 38.6039 35.498 37.7751 35.5371 37.0605C35.5744 36.3257 35.3134 35.7237 34.754 35.2545C34.3701 34.9325 33.9618 34.7955 33.529 34.8435C33.0944 34.8714 32.5814 35.0483 31.9899 35.3744C31.3985 35.7004 30.671 36.1553 29.8073 36.7388C28.9051 37.3461 28.096 37.7979 27.38 38.0942C26.664 38.3905 25.9926 38.5 25.3659 38.4228C24.7484 38.3346 24.127 38.0283 23.5018 37.5038C22.9095 37.007 22.5165 36.4064 22.3228 35.702C22.1181 34.9884 22.1317 34.215 22.3637 33.3819C22.5957 32.5488 23.0661 31.7101 23.7748 30.8658C24.3454 30.186 24.9357 29.6721 25.5455 29.3241C26.1536 28.9559 26.7539 28.7307 27.3463 28.6484C27.9278 28.5568 28.4676 28.5706 28.9659 28.6895C29.4532 28.7993 29.8659 28.9867 30.2042 29.2518C30.281 29.3162 30.3347 29.408 30.3655 29.5272C30.3853 29.6372 30.3445 29.7526 30.2433 29.8732L29.5116 30.7449C29.4472 30.8217 29.3562 30.8855 29.2387 30.9364C29.1304 30.9764 28.9975 30.9677 28.84 30.9103C28.3351 30.5989 27.745 30.5337 27.0697 30.7147C26.3945 30.8957 25.7623 31.3371 25.1732 32.0389C24.575 32.7516 24.2243 33.4478 24.1211 34.1273C24.0272 34.796 24.2709 35.3741 24.8522 35.8617C25.2251 36.1745 25.6251 36.3326 26.0523 36.3358C26.4684 36.3299 26.9584 36.1803 27.5223 35.8872C28.0861 35.594 28.7759 35.173 29.5918 34.6241C30.5694 33.9493 31.43 33.4473 32.1736 33.118C32.9063 32.7796 33.586 32.649 34.2127 32.7263C34.8377 32.7834 35.4627 33.0741 36.0879 33.5985C36.7789 34.1782 37.2193 34.8559 37.4092 35.6318C37.588 36.3984 37.533 37.2211 37.244 38.0999C36.9532 38.9584 36.4351 39.8318 35.6895 40.72Z" fill="#EEF0FB"/>
<path d="M54.0177 22.0403C53.6414 22.2157 53.2487 22.2882 52.8396 22.2578C52.4374 22.2083 52.0634 22.0668 51.7174 21.8332C51.3845 21.5935 51.1303 21.2855 50.9548 20.9093C50.7732 20.5201 50.7006 20.1274 50.737 19.7314C50.7864 19.3293 50.9245 18.9648 51.1511 18.638C51.3848 18.2922 51.6897 18.0316 52.066 17.8562C52.4553 17.6747 52.851 17.6087 53.2532 17.6581C53.6493 17.6946 54.0173 17.8232 54.3572 18.0438C54.6971 18.2645 54.9578 18.5694 55.1394 18.9586C55.3149 19.3349 55.381 19.7305 55.3376 20.1456C55.2943 20.5607 55.1623 20.9381 54.9417 21.2779C54.715 21.6047 54.407 21.8588 54.0177 22.0403Z" fill="#EEF0FB"/>
</svg>
