<svg width="174" height="174" viewBox="0 0 174 174" fill="none" xmlns="http://www.w3.org/2000/svg">
<path d="M74.6743 165.317C73.3454 165.112 72.2746 164.777 71.462 164.311C70.6408 163.852 70.0679 163.254 69.7432 162.516C69.4185 161.778 69.3364 160.889 69.4969 159.848C69.6289 158.991 69.8943 158.299 70.2931 157.771C70.6908 157.25 71.168 156.851 71.7247 156.574C72.2814 156.297 72.8587 156.107 73.4568 156.002L70.1372 148.042L72.33 148.38L75.2536 155.746L78.6204 156.265L79.6615 149.509L81.5442 149.8L79.0489 165.991L74.6743 165.317ZM75.036 163.706L77.4171 164.073L78.3746 157.86L75.8052 157.464C74.4836 157.26 73.4712 157.38 72.768 157.823C72.0574 158.266 71.6212 159.011 71.4597 160.059C71.2901 161.16 71.5023 161.99 72.0963 162.55C72.6828 163.109 73.6627 163.494 75.036 163.706Z" fill="white"/>
<path d="M56.5971 142.368L64.9366 146.063L58.3004 161.041L49.961 157.346L50.6418 155.809L57.2396 158.733L59.3866 153.887L53.1679 151.132L53.8397 149.615L60.0584 152.37L62.514 146.828L55.9163 143.905L56.5971 142.368Z" fill="white"/>
<path d="M40.7571 136.27C41.3572 135.506 42.0605 135.004 42.867 134.764C43.663 134.525 44.5124 134.532 45.4153 134.786C46.3182 135.039 47.2307 135.528 48.1528 136.253C48.6403 136.636 49.0829 137.022 49.4806 137.411C49.8783 137.799 50.2246 138.181 50.5195 138.555C50.8144 138.929 51.0491 139.29 51.2236 139.636L50.0949 141.072C49.7975 140.544 49.3939 139.951 48.8843 139.294C48.37 138.642 47.7663 138.044 47.0732 137.5C46.4272 136.992 45.814 136.648 45.2338 136.467C44.6489 136.293 44.115 136.277 43.632 136.42C43.1386 136.564 42.7118 136.865 42.3518 137.323C42.0056 137.764 41.814 138.207 41.777 138.653C41.7354 139.105 41.846 139.629 42.109 140.225C42.3615 140.823 42.7669 141.564 43.3252 142.45C43.7191 143.073 44.0346 143.663 44.2715 144.22C44.5039 144.782 44.6456 145.321 44.6967 145.837C44.7479 146.352 44.6945 146.861 44.5367 147.364C44.3729 147.862 44.0949 148.361 43.7025 148.86C43.1624 149.548 42.5275 149.999 41.7979 150.214C41.0577 150.43 40.2777 150.425 39.4579 150.199C38.6276 149.974 37.8101 149.545 37.0055 148.913C36.3183 148.373 35.7347 147.81 35.2548 147.223C34.7691 146.633 34.3678 146.037 34.0511 145.437L35.529 144.517C35.8407 145.076 36.2071 145.625 36.6283 146.165C37.0436 146.701 37.5273 147.185 38.0794 147.619C38.6315 148.053 39.163 148.338 39.674 148.473C40.1746 148.61 40.6401 148.61 41.0706 148.474C41.5011 148.337 41.8756 148.066 42.1941 147.661C42.5496 147.208 42.751 146.759 42.7985 146.311C42.8401 145.86 42.7447 145.352 42.5124 144.79C42.2695 144.228 41.9008 143.549 41.4063 142.752C40.8656 141.88 40.4533 141.081 40.1693 140.354C39.8808 139.633 39.7739 138.941 39.8487 138.278C39.9188 137.62 40.2216 136.951 40.7571 136.27Z" fill="white"/>
<path d="M33.9369 121.261L39.4977 128.491L26.5118 138.479L20.951 131.249L22.2834 130.224L26.6828 135.944L30.8841 132.713L26.7374 127.321L28.052 126.31L32.1987 131.702L37.004 128.006L32.6045 122.286L33.9369 121.261Z" fill="white"/>
<path d="M26.6471 105.694L22.6106 109.542L25.116 115.612L30.6873 115.482L31.4227 117.263L13.7719 117.615L13.1178 116.03L25.8946 103.871L26.6471 105.694ZM21.2646 110.716L17.2208 114.458C17.1136 114.551 16.9384 114.704 16.6952 114.917C16.4491 115.124 16.1941 115.338 15.9302 115.56C15.6663 115.782 15.4539 115.963 15.2931 116.102C15.6048 116.054 15.9192 116.013 16.2365 115.979C16.5441 115.941 16.8344 115.91 17.1074 115.887C17.3736 115.866 17.6009 115.849 17.7894 115.835L23.3083 115.667L21.2646 110.716Z" fill="white"/>
<path d="M8.34841 96.6505C8.18775 95.3155 8.22208 94.194 8.4514 93.2861C8.67242 92.3716 9.0945 91.6587 9.71766 91.1473C10.3408 90.6359 11.1753 90.3173 12.2211 90.1914C13.0814 90.0879 13.8196 90.157 14.4356 90.3989C15.0442 90.6417 15.5568 90.9938 15.9735 91.4553C16.3902 91.9168 16.7293 92.4215 16.9909 92.9694L23.7633 87.6286L24.0284 89.8314L17.7213 94.6309L18.1283 98.013L24.9147 97.1962L25.1423 99.0875L8.87727 101.045L8.34841 96.6505ZM9.99721 96.5649L10.2851 98.9569L16.5263 98.2058L16.2157 95.6247C16.0559 94.2971 15.6678 93.3544 15.0514 92.7965C14.4341 92.2312 13.5989 92.012 12.5457 92.1387C11.4406 92.2717 10.6983 92.6996 10.3188 93.4225C9.93838 94.1379 9.83119 95.1854 9.99721 96.5649Z" fill="white"/>
<path d="M10.5219 72.9333C10.3851 73.8268 10.4169 74.6554 10.6174 75.4192C10.8116 76.1744 11.1619 76.8478 11.6684 77.4392C12.1686 78.0222 12.8082 78.5093 13.5872 78.9006C14.3661 79.292 15.2688 79.5662 16.2952 79.7234C17.6539 79.9314 18.8676 79.9018 19.9363 79.6347C20.9988 79.359 21.8677 78.8421 22.543 78.084C23.2195 77.3185 23.6549 76.3006 23.8494 75.0306C23.9602 74.3069 24.0051 73.6185 23.9842 72.9654C23.957 72.3037 23.8975 71.656 23.8056 71.0222L25.4449 71.2732C25.576 71.8979 25.6435 72.543 25.6474 73.2087C25.6586 73.8754 25.5959 74.6556 25.4591 75.5491C25.2069 77.1958 24.6564 78.5209 23.8075 79.5246C22.9523 80.5197 21.8583 81.1986 20.5256 81.5613C19.194 81.9167 17.679 81.9644 15.9806 81.7043C14.7548 81.5167 13.6621 81.1755 12.7024 80.681C11.7366 80.1779 10.9347 79.5412 10.2969 78.771C9.66023 77.9933 9.216 77.094 8.96423 76.073C8.7062 75.0435 8.67272 73.9047 8.86379 72.6568C8.98929 71.8371 9.19149 71.0594 9.47039 70.3237C9.7493 69.588 10.087 68.9369 10.4836 68.3704L11.9633 69.3678C11.6479 69.8485 11.3578 70.386 11.093 70.9803C10.8219 71.566 10.6315 72.217 10.5219 72.9333Z" fill="white"/>
<path d="M33.0819 54.3185L32.2728 56.043L25.2833 52.7635L21.6278 60.5543L28.6172 63.8338L27.808 65.5584L12.977 58.5994L13.7862 56.8749L20.1061 59.8403L23.7617 52.0495L17.4418 49.0841L18.251 47.3595L33.0819 54.3185Z" fill="white"/>
<path d="M38.5557 35.6798C38.2061 35.2909 38.0534 34.9309 38.0975 34.6C38.1367 34.2636 38.2923 33.973 38.5646 33.7283C38.848 33.4737 39.1618 33.3423 39.5061 33.3342C39.8453 33.3206 40.1897 33.5083 40.5393 33.8972C40.8838 34.2806 41.0387 34.6486 41.0041 35.0011C40.9644 35.3481 40.8028 35.649 40.5195 35.9036C40.2472 36.1483 39.9392 36.2694 39.5955 36.2669C39.2468 36.2589 38.9002 36.0632 38.5557 35.6798Z" fill="white"/>
<path d="M55.7832 14.4935L60.1455 12.9151C62.0702 12.2187 63.6215 11.9831 64.7993 12.2084C65.9771 12.4336 66.8164 13.2382 67.3171 14.6221C67.5332 15.2192 67.6117 15.7985 67.5527 16.36C67.4982 16.912 67.3091 17.4213 66.9854 17.888C66.6617 18.3547 66.2019 18.7634 65.6058 19.1141L65.644 19.2195C66.3565 19.0808 67.0234 19.058 67.6449 19.1509C68.2664 19.2438 68.8162 19.4897 69.2942 19.8887C69.7723 20.2878 70.1523 20.8771 70.4345 21.6569C70.7776 22.6052 70.8461 23.4861 70.6399 24.2995C70.4408 25.1104 70.0018 25.8293 69.323 26.4562C68.6416 27.0761 67.753 27.5843 66.6572 27.9808L61.3571 29.8985L55.7832 14.4935ZM59.9649 20.452L62.9153 19.3845C64.257 18.8991 65.1041 18.3423 65.4568 17.7142C65.8165 17.0836 65.8426 16.3433 65.5351 15.4933C65.2173 14.6152 64.6795 14.0948 63.9215 13.9321C63.1706 13.7669 62.1243 13.927 60.7826 14.4125L58.1273 15.3732L59.9649 20.452ZM60.5101 21.9588L62.5956 27.7225L65.7988 26.5635C67.1686 26.0679 68.0414 25.4502 68.4172 24.7105C68.7905 23.9637 68.812 23.1337 68.4815 22.2205C68.2706 21.6375 67.9602 21.1857 67.5503 20.8653C67.1474 20.5424 66.6186 20.3762 65.9638 20.3669C65.3135 20.348 64.5106 20.5113 63.5553 20.857L60.5101 21.9588Z" fill="white"/>
<path d="M77.9497 25.2959L75.8536 9.04813L77.7429 8.80439L79.839 25.0522L77.9497 25.2959Z" fill="white"/>
<path d="M89.5527 8.22374L94.1728 8.64331C96.2113 8.82843 97.7161 9.27264 98.6874 9.97594C99.6587 10.6792 100.078 11.7637 99.9447 13.2293C99.8873 13.8617 99.7128 14.4197 99.4214 14.9033C99.138 15.3801 98.7509 15.7613 98.2599 16.0467C97.7689 16.3322 97.1791 16.5074 96.4906 16.5724L96.4805 16.684C97.1846 16.8605 97.7984 17.1225 98.3219 17.4701C98.8454 17.8176 99.2391 18.2735 99.5029 18.8375C99.7667 19.4015 99.8611 20.0964 99.7861 20.9223C99.6949 21.9266 99.3836 22.7535 98.852 23.4028C98.3279 24.0528 97.6256 24.5178 96.745 24.7979C95.8652 25.0706 94.8449 25.1542 93.6843 25.0488L88.0711 24.539L89.5527 8.22374ZM90.8144 15.3931L93.9391 15.6768C95.3601 15.8059 96.3634 15.6607 96.9491 15.2413C97.5422 14.8226 97.8796 14.1632 97.9614 13.263C98.0458 12.333 97.7793 11.6337 97.1617 11.1651C96.5516 10.6971 95.5361 10.3986 94.1151 10.2696L91.3029 10.0142L90.8144 15.3931ZM90.6695 16.9889L90.1151 23.0932L93.5076 23.4013C94.9584 23.533 96.0107 23.3435 96.6647 22.8328C97.3193 22.3147 97.6906 21.5721 97.7784 20.6049C97.8345 19.9874 97.7448 19.4467 97.5094 18.9828C97.2815 18.5195 96.8729 18.1448 96.2838 17.8588C95.7028 17.566 94.9064 17.3737 93.8946 17.2818L90.6695 16.9889Z" fill="white"/>
<path d="M104.905 27.2717L110.478 11.8667L112.27 12.5148L107.275 26.3182L114.114 28.7925L113.534 30.3942L104.905 27.2717Z" fill="white"/>
<path d="M118.84 33.5156L127.416 19.5573L129.039 20.5545L120.463 34.5128L118.84 33.5156Z" fill="white"/>
<path d="M143.017 43.478C142.118 44.3644 141.186 45.0577 140.221 45.558C139.262 46.0531 138.293 46.3368 137.315 46.4091C136.348 46.4815 135.393 46.3269 134.45 45.9452C133.507 45.5635 132.603 44.9338 131.738 44.0561C130.846 43.1518 130.211 42.2202 129.832 41.2614C129.458 40.3079 129.317 39.3455 129.409 38.3742C129.505 37.4082 129.813 36.449 130.332 35.4965C130.857 34.5494 131.568 33.6326 132.467 32.7462C133.659 31.5713 134.898 30.7375 136.185 30.2448C137.472 29.752 138.759 29.6581 140.046 29.963C141.338 30.2732 142.579 31.0321 143.77 32.2396C144.908 33.3939 145.618 34.6086 145.9 35.8837C146.186 37.164 146.079 38.4496 145.579 39.7402C145.089 41.031 144.235 42.2769 143.017 43.478ZM133.86 34.1902C132.87 35.1658 132.153 36.1512 131.707 37.1464C131.262 38.1416 131.128 39.1232 131.306 40.0912C131.489 41.0644 132.024 42.0006 132.911 42.8996C133.802 43.8039 134.728 44.3492 135.688 44.5356C136.654 44.7273 137.634 44.6048 138.631 44.1681C139.627 43.7314 140.619 43.0252 141.609 42.0497C143.114 40.5654 143.978 39.0897 144.199 37.6228C144.432 36.1559 143.89 34.7549 142.573 33.4197C141.681 32.5154 140.753 31.9621 139.788 31.7598C138.822 31.5576 137.839 31.6669 136.838 32.0877C135.847 32.5086 134.854 33.2094 133.86 34.1902Z" fill="white"/>
<path d="M150.988 56.5483L153.575 61.6562L146.488 65.2465C145.84 64.6118 145.247 63.92 144.708 63.1712C144.173 62.429 143.652 61.5581 143.146 60.5585C142.376 59.0391 142.03 57.6027 142.106 56.2492C142.186 54.9024 142.649 53.6755 143.495 52.5686C144.348 51.4583 145.547 50.5115 147.093 49.7283C148.606 48.962 150.075 48.5901 151.502 48.6126C152.932 48.6419 154.242 49.0626 155.433 49.8749C156.633 50.6904 157.635 51.8912 158.438 53.4772C158.85 54.2902 159.164 55.0987 159.378 55.9027C159.603 56.7101 159.737 57.4961 159.782 58.261L157.973 58.3607C157.933 57.7027 157.831 57.005 157.666 56.2676C157.505 55.5368 157.249 54.8248 156.898 54.1318C156.294 52.9389 155.529 52.0409 154.604 51.4377C153.682 50.8412 152.657 50.5443 151.527 50.5469C150.402 50.5561 149.222 50.873 147.989 51.4976C146.77 52.1154 145.807 52.8504 145.099 53.7027C144.399 54.5517 144.01 55.5192 143.932 56.6054C143.854 57.6916 144.148 58.8911 144.813 60.2039C145.147 60.8637 145.471 61.4115 145.784 61.8475C146.103 62.2802 146.414 62.6627 146.717 62.9952L151.195 60.7266L149.468 57.318L150.988 56.5483Z" fill="white"/>
<path d="M164.441 73.0236C164.684 74.346 164.72 75.4674 164.547 76.3879C164.384 77.3143 164.007 78.0522 163.417 78.6014C162.827 79.1506 162.014 79.5206 160.978 79.7114C160.126 79.8683 159.385 79.8453 158.755 79.6423C158.132 79.4379 157.599 79.1184 157.154 78.6837C156.709 78.2491 156.339 77.7665 156.044 77.236L149.618 82.9884L149.216 80.8064L155.212 75.6232L154.595 72.2731L147.872 73.5111L147.527 71.6376L163.639 68.6706L164.441 73.0236ZM162.8 73.2117L162.364 70.8423L156.182 71.9809L156.652 74.5375C156.895 75.8526 157.341 76.7693 157.991 77.2877C158.642 77.8134 159.489 77.9802 160.533 77.7881C161.627 77.5865 162.341 77.1131 162.675 76.3681C163.01 75.6303 163.052 74.5782 162.8 73.2117Z" fill="white"/>
<path d="M148.576 98.7534L153.935 97.2096L154.522 90.6695L149.523 88.2066L149.696 86.287L165.506 94.1425L165.353 95.85L148.4 100.718L148.576 98.7534ZM155.671 96.7918L160.988 95.3455C161.126 95.3128 161.352 95.2582 161.666 95.1814C161.98 95.1121 162.305 95.04 162.642 94.9653C162.979 94.8905 163.251 94.8287 163.458 94.7797C163.159 94.6779 162.861 94.5687 162.564 94.452C162.274 94.3434 162.002 94.2365 161.749 94.1313C161.504 94.0267 161.294 93.9367 161.121 93.8611L156.151 91.457L155.671 96.7918Z" fill="white"/>
<path d="M160.671 115.104C159.923 117.081 158.99 118.378 157.871 118.993C156.757 119.618 155.48 119.659 154.04 119.115C153.39 118.869 152.813 118.527 152.307 118.089C151.807 117.66 151.422 117.123 151.155 116.479C150.894 115.838 150.781 115.08 150.816 114.207C150.854 113.343 151.085 112.352 151.508 111.234L152.213 109.368L146.185 107.091L146.859 105.309L162.184 111.099L160.671 115.104ZM159.214 114.362L159.99 112.307L153.743 109.946L153.113 111.613C152.744 112.591 152.541 113.445 152.505 114.174C152.466 114.91 152.619 115.531 152.963 116.036C153.314 116.544 153.881 116.946 154.664 117.242C155.684 117.628 156.565 117.589 157.307 117.127C158.055 116.667 158.691 115.745 159.214 114.362Z" fill="white"/>
<path d="M132.419 130.66L133.569 129.141L139.724 133.802L144.919 126.941L138.764 122.28L139.914 120.762L152.974 130.651L151.825 132.17L146.259 127.955L141.064 134.816L146.63 139.031L145.48 140.549L132.419 130.66Z" fill="white"/>
<path d="M128.963 144.073L130.403 153.259L128.763 154.49L127.111 143.192L123.299 138.109L124.823 136.966L128.582 141.977L139.027 146.792L137.36 148.042L128.963 144.073Z" fill="white"/>
<path d="M106.647 155.02C106.785 155.524 106.759 155.914 106.571 156.19C106.385 156.473 106.116 156.663 105.763 156.759C105.395 156.859 105.056 156.836 104.744 156.688C104.435 156.548 104.212 156.226 104.074 155.721C103.939 155.224 103.966 154.825 104.155 154.526C104.346 154.234 104.626 154.038 104.993 153.937C105.347 153.841 105.676 153.871 105.982 154.028C106.29 154.192 106.512 154.522 106.647 155.02Z" fill="white"/>
</svg>
