<svg width="160" height="160" viewBox="0 0 160 160" fill="none" xmlns="http://www.w3.org/2000/svg">
<path d="M91.1543 22.0231C89.9278 21.8063 88.9321 21.4341 88.1674 20.9064C87.4026 20.3787 86.8467 19.7789 86.4997 19.107C86.1693 18.4234 86.0483 17.7478 86.1367 17.0802C86.1566 16.9674 86.2162 16.8761 86.3157 16.8065C86.4317 16.7252 86.5532 16.6958 86.6801 16.7183L87.7585 16.9089C87.9277 16.9388 88.0471 17.0035 88.1168 17.1031C88.1865 17.2026 88.2256 17.3113 88.2339 17.429C88.259 17.7824 88.3757 18.1519 88.584 18.5377C88.7948 18.9093 89.1271 19.2515 89.5808 19.5643C90.0511 19.8655 90.681 20.0859 91.4705 20.2254C92.6829 20.4397 93.6082 20.3852 94.2465 20.0619C94.9014 19.727 95.2921 19.2 95.4186 18.4809C95.5054 17.9874 95.4197 17.5652 95.1617 17.2143C94.9202 16.8518 94.5104 16.4958 93.9323 16.1465C93.3541 15.7972 92.5964 15.3943 91.6592 14.9379C90.6822 14.4599 89.8863 13.9849 89.2716 13.5128C88.657 13.0407 88.2263 12.5139 87.9798 11.9324C87.7473 11.3534 87.7017 10.6621 87.8431 9.85838C87.977 9.097 88.3005 8.45635 88.8135 7.93643C89.3289 7.40241 90.0054 7.02768 90.8427 6.81223C91.6801 6.59679 92.6415 6.58501 93.727 6.77687C94.6011 6.93136 95.3413 7.18577 95.9476 7.54008C96.5705 7.88279 97.0657 8.29016 97.4333 8.7622C97.8034 9.22013 98.0615 9.69463 98.2077 10.1857C98.3564 10.6626 98.4006 11.1139 98.3403 11.5393C98.3229 11.638 98.2703 11.7305 98.1825 11.8167C98.0971 11.8889 97.9769 11.9112 97.8218 11.8838L96.701 11.6857C96.6024 11.6683 96.5016 11.6214 96.3987 11.5451C96.31 11.4712 96.251 11.3518 96.2219 11.1867C96.239 10.5937 96.0003 10.0499 95.5059 9.55547C95.0114 9.06101 94.3131 8.73405 93.4108 8.57457C92.4945 8.41261 91.7163 8.45679 91.0763 8.70711C90.4504 8.95993 90.0717 9.45998 89.9403 10.2073C89.856 10.6866 89.9192 11.1122 90.13 11.4838C90.3433 11.8413 90.7179 12.191 91.2537 12.5329C91.7896 12.8747 92.4991 13.2618 93.3824 13.6942C94.4557 14.2037 95.3208 14.6983 95.9778 15.1778C96.6372 15.6433 97.0902 16.1668 97.3368 16.7483C97.6 17.3182 97.6609 18.0049 97.5195 18.8086C97.3632 19.6969 96.9967 20.4172 96.4199 20.9694C95.8455 21.5076 95.1057 21.8711 94.2003 22.06C93.3115 22.2372 92.2962 22.225 91.1543 22.0231Z" fill="#EEF0FB"/>
<path d="M105.803 26.6229C105.674 26.5602 105.584 26.4683 105.531 26.3471C105.498 26.2193 105.512 26.091 105.575 25.9622L111.081 14.5993L107.374 12.7942C107.245 12.7316 107.155 12.6396 107.102 12.5185C107.068 12.3907 107.083 12.2624 107.145 12.1335L107.539 11.3219C107.607 11.1802 107.699 11.0895 107.814 11.0498C107.947 11.0035 108.079 11.0117 108.207 11.0743L117.513 15.6058C117.655 15.6748 117.742 15.7731 117.776 15.9009C117.829 16.0221 117.821 16.1535 117.752 16.2952L117.359 17.1069C117.296 17.2357 117.198 17.3233 117.064 17.3696C116.95 17.4093 116.821 17.3946 116.68 17.3257L112.992 15.53L107.486 26.8929C107.423 27.0218 107.325 27.1093 107.192 27.1556C107.077 27.1953 106.949 27.1807 106.807 27.1118L105.803 26.6229Z" fill="#EEF0FB"/>
<path d="M117.035 33.5327C116.918 33.4275 116.856 33.3143 116.849 33.1928C116.852 33.0607 116.901 32.9412 116.996 32.8344L126.333 22.3726C126.438 22.2551 126.551 22.193 126.672 22.1863C126.803 22.1689 126.927 22.2127 127.044 22.3179L130.945 25.8162C132.149 26.8963 132.85 28.0348 133.049 29.2318C133.247 30.4287 132.85 31.5826 131.859 32.6934C131.125 33.5158 130.316 34.0023 129.434 34.1529C128.571 34.3023 127.698 34.1631 126.813 33.7352L125.471 40.2048C125.446 40.2975 125.41 40.3706 125.362 40.424C125.286 40.5095 125.182 40.5508 125.05 40.548C124.929 40.5547 124.826 40.5198 124.74 40.4434L123.973 39.7552C123.792 39.5927 123.702 39.4251 123.702 39.2525C123.703 39.0799 123.714 38.9169 123.736 38.7634L125.05 32.6151L122.252 30.1061L118.563 34.2395C118.467 34.3463 118.349 34.4037 118.208 34.4115C118.087 34.4182 117.967 34.369 117.85 34.2639L117.035 33.5327ZM123.467 28.7443L126.105 31.1099C126.904 31.8268 127.649 32.1965 128.339 32.2191C129.038 32.231 129.683 31.9058 130.274 31.2436C130.856 30.5921 131.102 29.9186 131.013 29.2231C130.934 28.5372 130.49 27.8311 129.68 27.1047L127.042 24.739L123.467 28.7443Z" fill="#EEF0FB"/>
<path d="M127.376 43.8467C127.315 43.7498 127.297 43.6421 127.324 43.5234C127.351 43.4048 127.413 43.3149 127.51 43.2536C127.57 43.2153 127.64 43.1793 127.721 43.1454L142.299 40.22C142.45 40.1919 142.589 40.1973 142.715 40.2361C142.841 40.275 142.957 40.3792 143.064 40.5488L143.842 41.7843C143.949 41.9538 143.993 42.104 143.974 42.2347C143.955 42.3655 143.9 42.4934 143.809 42.6184L134.897 54.5376C134.84 54.6077 134.781 54.662 134.721 54.7003C134.624 54.7615 134.516 54.7788 134.398 54.752C134.28 54.7253 134.19 54.6635 134.129 54.5666L133.545 53.64C133.454 53.4946 133.421 53.3626 133.448 53.244C133.482 53.1375 133.522 53.053 133.567 52.9905L135.514 50.3602L131.76 44.4006L128.554 45.0323C128.486 45.0585 128.393 45.0582 128.274 45.0315C128.156 45.0048 128.051 44.9187 127.959 44.7734L127.376 43.8467ZM133.652 43.9398L136.743 48.8455L141.639 42.3151L133.652 43.9398Z" fill="#EEF0FB"/>
<path d="M136.98 63.193C136.939 63.0557 136.946 62.9267 137.001 62.8063C137.073 62.6956 137.177 62.62 137.315 62.5796L149.427 59.0143L148.268 55.0575C148.228 54.9201 148.235 54.7912 148.289 54.6708C148.361 54.5601 148.466 54.4845 148.603 54.4441L149.469 54.1894C149.62 54.1449 149.749 54.1518 149.855 54.21C149.979 54.2778 150.062 54.3805 150.102 54.5179L153.011 64.451C153.056 64.6021 153.042 64.7331 152.97 64.8438C152.916 64.9642 152.813 65.0467 152.662 65.0911L151.797 65.3458C151.659 65.3862 151.529 65.3725 151.404 65.3046C151.298 65.2464 151.222 65.1418 151.178 64.9907L150.025 61.0545L137.912 64.6198C137.775 64.6602 137.644 64.6465 137.52 64.5786C137.413 64.5204 137.338 64.4158 137.293 64.2647L136.98 63.193Z" fill="#EEF0FB"/>
<path d="M139.447 76.568C139.446 76.4105 139.488 76.2885 139.573 76.2019C139.673 76.1152 139.794 76.0713 139.937 76.0702L153.959 75.9587C154.117 75.9574 154.239 75.9994 154.325 76.0846C154.426 76.1697 154.477 76.291 154.478 76.4485L154.549 85.317C154.55 85.4744 154.501 85.5965 154.401 85.6832C154.316 85.7698 154.195 85.8137 154.037 85.815L153.221 85.8215C153.064 85.8227 152.942 85.7807 152.855 85.6955C152.769 85.6103 152.725 85.489 152.723 85.3315L152.666 78.0305L147.963 78.0679L148.017 84.8965C148.018 85.0539 147.969 85.176 147.87 85.2627C147.784 85.3493 147.663 85.3932 147.506 85.3945L146.711 85.4008C146.568 85.4019 146.446 85.3599 146.345 85.2748C146.258 85.1896 146.214 85.0683 146.213 84.9108L146.159 78.0823L141.285 78.121L141.344 85.5938C141.345 85.7513 141.303 85.8733 141.218 85.9599C141.133 86.0464 141.011 86.0904 140.854 86.0916L140.016 86.0983C139.873 86.0994 139.751 86.0574 139.65 85.9723C139.564 85.8871 139.52 85.7658 139.519 85.6083L139.447 76.568Z" fill="#EEF0FB"/>
<path d="M136.977 96.587C137.316 95.3587 137.831 94.3798 138.522 93.6504C139.21 92.9347 140.03 92.4638 140.983 92.2378C141.933 92.0256 142.974 92.0467 144.107 92.3012C144.718 92.4557 145.361 92.6266 146.037 92.8139C146.727 93.0051 147.38 93.1936 147.997 93.3794C149.099 93.7443 149.997 94.2604 150.689 94.9276C151.391 95.6124 151.845 96.4439 152.05 97.4219C152.27 98.4037 152.212 99.5018 151.877 100.716C151.61 101.682 151.24 102.486 150.766 103.127C150.293 103.768 149.779 104.257 149.226 104.594C148.682 104.949 148.153 105.173 147.636 105.268C147.117 105.376 146.682 105.39 146.333 105.308C146.205 105.287 146.112 105.224 146.052 105.118C146.005 105.017 146.001 104.897 146.039 104.759L146.376 103.537C146.414 103.399 146.471 103.303 146.545 103.25C146.615 103.21 146.727 103.181 146.88 103.164C147.273 103.139 147.682 103.03 148.107 102.836C148.528 102.655 148.915 102.354 149.269 101.932C149.633 101.528 149.916 100.96 150.118 100.229C150.422 99.1247 150.371 98.1524 149.964 97.3117C149.554 96.4849 148.673 95.8546 147.323 95.4209C146.106 95.0392 144.879 94.6989 143.639 94.4C142.244 94.0729 141.15 94.1633 140.357 94.6713C139.577 95.1832 139.037 95.9842 138.736 97.0745C138.534 97.8059 138.493 98.4928 138.613 99.1351C138.729 99.7912 139.018 100.361 139.478 100.845C139.952 101.333 140.624 101.698 141.493 101.939L142.362 102.18L143.219 99.0745C143.257 98.9364 143.331 98.8306 143.44 98.7569C143.559 98.7009 143.695 98.6939 143.847 98.736L144.509 98.9195C144.661 98.9616 144.767 99.0355 144.827 99.1412C144.896 99.2646 144.912 99.3953 144.874 99.5333L143.584 104.212C143.542 104.364 143.462 104.467 143.342 104.524C143.236 104.583 143.108 104.592 142.956 104.55L140.969 104C139.838 103.686 138.916 103.178 138.204 102.476C137.488 101.787 137.018 100.936 136.792 99.9228C136.58 98.9134 136.642 97.8014 136.977 96.587Z" fill="#EEF0FB"/>
<path d="M130.823 111.205C130.898 111.083 130.997 111.001 131.123 110.96C131.253 110.939 131.379 110.966 131.501 111.041L135.826 113.683L145.991 113.829C146.035 113.839 146.079 113.849 146.123 113.86C146.167 113.87 146.214 113.89 146.263 113.92C146.36 113.979 146.423 114.068 146.452 114.186C146.481 114.305 146.465 114.413 146.406 114.51L145.826 115.465C145.759 115.575 145.669 115.654 145.556 115.702C145.455 115.758 145.344 115.774 145.224 115.751L137.111 115.702L140.873 122.907C140.934 123.028 140.966 123.14 140.97 123.243C140.979 123.366 140.95 123.483 140.883 123.593L140.314 124.529C140.247 124.639 140.155 124.708 140.037 124.737C139.919 124.765 139.811 124.75 139.713 124.69C139.665 124.66 139.626 124.628 139.596 124.593C139.567 124.559 139.542 124.518 139.52 124.471L134.721 115.499L130.397 112.857C130.275 112.782 130.197 112.676 130.163 112.538C130.135 112.42 130.161 112.294 130.243 112.159L130.823 111.205Z" fill="#EEF0FB"/>
<path d="M122.727 127.558C123.032 127.276 123.383 127.087 123.782 126.991C124.179 126.916 124.578 126.937 124.978 127.054C125.368 127.181 125.703 127.397 125.985 127.703C126.276 128.018 126.464 128.371 126.55 128.76C126.625 129.158 126.605 129.548 126.488 129.929C126.371 130.33 126.16 130.671 125.856 130.953C125.54 131.245 125.184 131.429 124.786 131.504C124.399 131.59 124.009 131.58 123.619 131.473C123.229 131.366 122.888 131.155 122.597 130.839C122.316 130.534 122.132 130.177 122.047 129.768C121.962 129.359 121.973 128.958 122.08 128.567C122.196 128.186 122.412 127.85 122.727 127.558Z" fill="#EEF0FB"/>
<path d="M106.759 133.206C107.858 132.649 108.89 132.359 109.856 132.335C110.828 132.324 111.722 132.601 112.536 133.167C113.357 133.746 114.093 134.617 114.744 135.78C115.04 136.336 115.317 136.87 115.575 137.381C115.839 137.905 116.107 138.452 116.378 139.021C116.92 140.223 117.17 141.323 117.129 142.323C117.082 143.342 116.766 144.241 116.18 145.019C115.588 145.816 114.769 146.481 113.722 147.011C112.687 147.535 111.681 147.797 110.702 147.795C109.717 147.813 108.801 147.539 107.954 146.973C107.114 146.42 106.378 145.565 105.747 144.408C105.438 143.859 105.151 143.322 104.887 142.798C104.629 142.286 104.371 141.743 104.113 141.168C103.551 139.959 103.288 138.849 103.323 137.837C103.351 136.843 103.658 135.957 104.243 135.179C104.835 134.414 105.674 133.756 106.759 133.206ZM107.581 134.836C106.611 135.328 105.967 136.023 105.651 136.921C105.322 137.827 105.464 138.95 106.077 140.293C106.341 140.881 106.586 141.399 106.812 141.846C107.044 142.306 107.314 142.811 107.624 143.361C108.094 144.23 108.621 144.861 109.205 145.256C109.776 145.657 110.375 145.859 111.001 145.862C111.628 145.865 112.261 145.705 112.9 145.381C113.538 145.058 114.042 144.642 114.411 144.134C114.78 143.626 114.979 143.019 115.009 142.314C115.025 141.616 114.83 140.816 114.424 139.915C114.153 139.346 113.901 138.831 113.669 138.371C113.444 137.924 113.179 137.416 112.877 136.847C112.161 135.556 111.343 134.775 110.421 134.504C109.498 134.233 108.552 134.344 107.581 134.836Z" fill="#EEF0FB"/>
<path d="M94.9573 137.995C95.112 137.965 95.2395 137.984 95.3401 138.052C95.4434 138.135 95.5085 138.246 95.5355 138.387L98.1831 152.157C98.2128 152.312 98.1936 152.439 98.1255 152.54C98.0601 152.655 97.9501 152.727 97.7955 152.757L92.4401 153.791C91.3999 153.992 90.4679 153.997 89.644 153.807C88.806 153.619 88.1113 153.228 87.5599 152.635C87.0112 152.055 86.6409 151.267 86.449 150.268C86.257 149.27 86.3084 148.4 86.6031 147.658C86.8977 146.916 87.3991 146.301 88.1074 145.814C88.8015 145.33 89.6687 144.988 90.7088 144.787L94.4407 144.066L93.4271 138.794C93.4001 138.653 93.4263 138.524 93.5058 138.407C93.5739 138.306 93.6853 138.241 93.8399 138.211L94.9573 137.995ZM94.8024 145.833L91.1548 146.538C90.1147 146.739 89.3791 147.121 88.9483 147.686C88.5174 148.25 88.3871 148.975 88.5574 149.861C88.725 150.733 89.1077 151.359 89.7056 151.739C90.3036 152.119 91.1367 152.206 92.2049 152L95.8525 151.295L94.8024 145.833Z" fill="#EEF0FB"/>
<path d="M75.3335 139.56C75.4761 139.573 75.5936 139.626 75.6859 139.72C75.7628 139.828 75.795 139.953 75.7825 140.095L74.6847 152.674L78.792 153.034C78.9346 153.047 79.0521 153.1 79.1445 153.195C79.2213 153.302 79.2535 153.427 79.2411 153.57L79.1627 154.468C79.149 154.625 79.0956 154.742 79.0026 154.821C78.894 154.912 78.7684 154.951 78.6258 154.938L68.3149 154.034C68.158 154.02 68.0412 153.96 67.9643 153.853C67.8719 153.758 67.8326 153.633 67.8463 153.476L67.9247 152.577C67.9372 152.435 67.9977 152.318 68.1062 152.227C68.1992 152.149 68.3242 152.116 68.4811 152.13L72.5669 152.489L73.6647 139.91C73.6772 139.767 73.7377 139.65 73.8462 139.559C73.9393 139.481 74.0642 139.449 74.2211 139.463L75.3335 139.56Z" fill="#EEF0FB"/>
<path d="M59.03 135.845C59.1771 135.901 59.2754 135.985 59.3251 136.096C59.3696 136.22 59.3664 136.35 59.3154 136.483L54.3138 149.607C54.2628 149.74 54.1819 149.832 54.0711 149.882C53.9552 149.944 53.8238 149.948 53.6767 149.891L52.6138 149.484C52.4668 149.428 52.371 149.338 52.3265 149.213C52.2768 149.102 52.2775 148.98 52.3285 148.846L57.3301 135.723C57.381 135.589 57.4645 135.491 57.5804 135.428C57.6912 135.378 57.8201 135.382 57.9672 135.438L59.03 135.845Z" fill="#EEF0FB"/>
<path d="M49.4311 131.488C49.5456 131.574 49.6173 131.681 49.646 131.81C49.6548 131.942 49.6163 132.065 49.5306 132.18L41.1403 143.415C41.046 143.541 40.9389 143.613 40.8188 143.63C40.6787 143.651 40.5514 143.618 40.4368 143.532L39.5781 142.887C39.4406 142.784 39.3633 142.672 39.346 142.552C39.3287 142.432 39.3257 142.34 39.3371 142.277L40.9039 132.606L32.0545 136.812C31.9973 136.841 31.9144 136.868 31.8058 136.894C31.6857 136.911 31.5569 136.868 31.4195 136.765L30.5779 136.133C30.4519 136.039 30.3846 135.926 30.3758 135.794C30.3471 135.665 30.3798 135.537 30.474 135.411L38.8644 124.176C38.9501 124.061 39.063 123.994 39.2031 123.974C39.3232 123.956 39.4462 123.995 39.5722 124.089L40.4138 124.721C40.5283 124.807 40.5999 124.914 40.6287 125.043C40.6374 125.175 40.599 125.298 40.5133 125.413L34.1916 133.878L41.2487 130.422C41.3802 130.341 41.5174 130.301 41.6604 130.301C41.7949 130.313 41.9308 130.37 42.0682 130.473L42.6007 130.872C42.7495 130.984 42.8426 131.099 42.8799 131.216C42.9087 131.345 42.9089 131.489 42.8805 131.646L41.5772 139.421L47.8989 130.955C47.9846 130.841 48.0975 130.773 48.2376 130.753C48.3577 130.736 48.475 130.77 48.5895 130.856L49.4311 131.488Z" fill="#EEF0FB"/>
<path d="M32.9981 116.303C33.0933 116.429 33.1328 116.552 33.1164 116.672C33.0887 116.801 33.0179 116.909 32.9041 116.996L21.7383 125.514C21.6245 125.601 21.5075 125.637 21.3872 125.62C21.2556 125.613 21.1422 125.546 21.047 125.421L20.3588 124.514C20.2636 124.389 20.2298 124.261 20.2576 124.132C20.2739 124.012 20.339 123.908 20.4528 123.821L31.6186 115.303C31.7324 115.216 31.8551 115.177 31.9867 115.184C32.107 115.2 32.2147 115.271 32.3099 115.397L32.9981 116.303Z" fill="#EEF0FB"/>
<path d="M24.888 101.185C25.3408 102.345 25.5408 103.389 25.4879 104.317C25.4351 105.245 25.2121 106.032 24.8189 106.678C24.4071 107.316 23.8932 107.772 23.2772 108.044C23.1706 108.086 23.0616 108.082 22.9505 108.034C22.8207 107.977 22.7324 107.889 22.6856 107.768L22.2875 106.748C22.225 106.588 22.2182 106.452 22.2669 106.341C22.3157 106.23 22.3882 106.14 22.4844 106.071C22.773 105.866 23.0278 105.574 23.2488 105.195C23.4565 104.821 23.5759 104.359 23.607 103.809C23.6196 103.25 23.4801 102.598 23.1887 101.851C22.7411 100.704 22.2134 99.9421 21.6053 99.5654C20.9788 99.1806 20.3257 99.1215 19.6459 99.388C19.1795 99.571 18.8635 99.864 18.6981 100.267C18.5142 100.662 18.4234 101.198 18.4258 101.873C18.4282 102.549 18.4783 103.406 18.576 104.444C18.6761 105.527 18.6844 106.454 18.601 107.225C18.5176 107.996 18.2917 108.638 17.9235 109.151C17.5501 109.652 16.9835 110.051 16.2238 110.348C15.5041 110.631 14.7889 110.688 14.0782 110.521C13.3541 110.359 12.6824 109.976 12.063 109.373C11.4435 108.771 10.9335 107.956 10.5327 106.929C10.2101 106.102 10.0424 105.337 10.0295 104.635C9.99819 103.925 10.0884 103.289 10.3003 102.73C10.4988 102.175 10.7697 101.708 11.1129 101.327C11.4428 100.952 11.8051 100.679 12.1998 100.509C12.2931 100.472 12.3994 100.469 12.5187 100.499C12.6247 100.534 12.7063 100.625 12.7635 100.772L13.1773 101.832C13.2137 101.926 13.2261 102.036 13.2144 102.164C13.1975 102.278 13.1262 102.39 13.0004 102.501C12.4851 102.796 12.145 103.283 11.98 103.962C11.815 104.642 11.899 105.409 12.2321 106.262C12.5703 107.129 13.0128 107.771 13.5593 108.187C14.1007 108.59 14.7246 108.653 15.431 108.376C15.8841 108.198 16.2145 107.922 16.4222 107.549C16.6165 107.18 16.7203 106.678 16.7335 106.043C16.7467 105.407 16.7082 104.6 16.618 103.62C16.4949 102.438 16.4672 101.442 16.535 100.631C16.5894 99.8254 16.8008 99.1658 17.169 98.6524C17.5187 98.1308 18.0734 97.7211 18.8331 97.4232C19.6728 97.094 20.4784 97.0318 21.2499 97.2368C22.0081 97.4469 22.7032 97.8894 23.3353 98.5642C23.9489 99.2308 24.4665 100.104 24.888 101.185Z" fill="#EEF0FB"/>
<path d="M21.6772 91.4267C21.688 91.5407 21.6548 91.6446 21.5774 91.7383C21.5 91.832 21.4044 91.8843 21.2904 91.8952C21.2191 91.902 21.14 91.9024 21.0532 91.8963L6.71765 87.9186C6.56971 87.8752 6.44824 87.8078 6.35323 87.7162C6.25822 87.6246 6.20121 87.4791 6.18221 87.2795L6.04374 85.8259C6.02473 85.6264 6.05323 85.4726 6.12923 85.3647C6.20523 85.2567 6.31178 85.1674 6.44885 85.0968L19.7764 78.4927C19.8592 78.456 19.9362 78.4343 20.0075 78.4275C20.1215 78.4166 20.2253 78.4498 20.3189 78.5271C20.4126 78.6044 20.4649 78.7001 20.4757 78.8141L20.5796 79.9043C20.5959 80.0754 20.5653 80.2077 20.488 80.3014C20.4092 80.3808 20.3356 80.4382 20.2671 80.4736L17.3436 81.9399L18.0116 88.9516L21.159 89.8368C21.2316 89.8442 21.3147 89.8866 21.4084 89.964C21.502 90.0413 21.557 90.1654 21.5733 90.3365L21.6772 91.4267ZM16.1141 88.5076L15.5643 82.7358L8.25061 86.3481L16.1141 88.5076Z" fill="#EEF0FB"/>
<path d="M21.8021 69.8209C21.7762 69.9617 21.7119 70.0736 21.6093 70.1565C21.4952 70.2228 21.3678 70.2429 21.227 70.2168L8.81086 67.9203L8.06447 71.9752C8.03855 72.116 7.97429 72.2278 7.87169 72.3108C7.7576 72.377 7.63017 72.3971 7.48939 72.3711L6.60252 72.207C6.44768 72.1784 6.33579 72.114 6.26688 72.0139C6.18648 71.8971 6.15924 71.7684 6.18516 71.6276L8.05891 61.4481C8.08742 61.2932 8.15872 61.1826 8.27281 61.1164C8.37541 61.0334 8.50414 61.0063 8.65899 61.0349L9.54586 61.199C9.68663 61.225 9.79722 61.2964 9.87762 61.4132C9.94653 61.5133 9.96674 61.6408 9.93823 61.7957L9.19572 65.8295L21.6119 68.126C21.7526 68.1521 21.8632 68.2235 21.9436 68.3403C22.0125 68.4404 22.0327 68.5679 22.0042 68.7227L21.8021 69.8209Z" fill="#EEF0FB"/>
<path d="M27.0227 53.8997C26.9529 54.0408 26.8605 54.1308 26.7455 54.1696C26.6177 54.202 26.4896 54.1864 26.3614 54.1227L13.7841 47.874C13.6559 47.8103 13.5723 47.7209 13.5335 47.6057C13.4818 47.4841 13.4909 47.3527 13.5607 47.2115L14.0651 46.1913C14.1349 46.0501 14.2337 45.9633 14.3615 45.9309C14.4765 45.8921 14.5981 45.9046 14.7263 45.9683L27.3037 52.2169C27.4319 52.2806 27.5218 52.3733 27.5735 52.4949C27.6123 52.6101 27.5969 52.7383 27.5271 52.8794L27.0227 53.8997Z" fill="#EEF0FB"/>
<path d="M36.5095 40.3438C35.6824 41.2558 34.8221 41.8954 33.9286 42.2627C33.0245 42.6203 32.0911 42.68 31.1282 42.4417C30.1548 42.1939 29.1568 41.6427 28.1343 40.7884C27.6591 40.3747 27.2099 39.975 26.7866 39.5893C26.3528 39.194 25.9078 38.7789 25.4519 38.344C24.5168 37.4144 23.8901 36.4753 23.5716 35.5265C23.2521 34.5575 23.227 33.6049 23.4962 32.6688C23.7644 31.7123 24.2928 30.7993 25.0814 29.9297C25.8604 29.0708 26.7072 28.4673 27.6219 28.1193C28.5356 27.7511 29.4888 27.6803 30.4814 27.907C31.4635 28.124 32.4557 28.6602 33.4581 29.5155C33.9429 29.9186 34.4022 30.3178 34.8361 30.7131C35.2593 31.0988 35.6941 31.5144 36.1405 31.9599C37.0957 32.8885 37.7379 33.832 38.067 34.7904C38.3951 35.7285 38.4245 36.6657 38.1553 37.6019C37.8756 38.5284 37.3269 39.4424 36.5095 40.3438ZM35.1603 39.1143C35.8912 38.3084 36.2441 37.4291 36.219 36.4765C36.2035 35.5133 35.67 34.5139 34.6186 33.4783C34.1616 33.0232 33.748 32.6269 33.3776 32.2894C32.9967 31.9422 32.5638 31.5671 32.079 31.1641C31.3296 30.5199 30.6121 30.1178 29.9262 29.9577C29.25 29.787 28.6186 29.812 28.0319 30.0327C27.4452 30.2534 26.9114 30.6289 26.4306 31.1592C25.9497 31.6894 25.6276 32.2578 25.4641 32.8642C25.3007 33.4706 25.3311 34.1084 25.5553 34.7776C25.7891 35.4361 26.2566 36.114 26.9579 36.8111C27.4139 37.246 27.8323 37.637 28.2133 37.9842C28.5836 38.3216 29.0117 38.702 29.4975 39.1254C30.6259 40.0761 31.669 40.5135 32.627 40.4374C33.585 40.3613 34.4294 39.9203 35.1603 39.1143Z" fill="#EEF0FB"/>
<path d="M44.8073 32.2748C44.6736 32.358 44.5477 32.3857 44.4295 32.3581C44.3038 32.3182 44.2033 32.2374 44.128 32.1157L36.7478 20.1924C36.6649 20.0585 36.6374 19.9323 36.6651 19.8139C36.6853 19.6833 36.7622 19.5765 36.896 19.4933L37.7348 18.9716C37.8806 18.8808 38.0127 18.8493 38.1308 18.877C38.2414 18.8925 38.3141 18.9147 38.3489 18.9437L50.1668 24.4905L44.5158 15.3609C44.4329 15.227 44.4053 15.1008 44.4331 14.9824C44.4533 14.8518 44.5302 14.745 44.664 14.6618L45.5392 14.1174C45.6729 14.0342 45.8026 14.0125 45.9283 14.0524C46.0586 14.0725 46.1652 14.1495 46.2481 14.2834L53.617 26.1885C53.6923 26.3102 53.7138 26.4401 53.6814 26.5783C53.6613 26.7089 53.5904 26.812 53.4688 26.8876L52.5935 27.432C52.4598 27.5151 52.3339 27.5429 52.2157 27.5152C52.1097 27.48 52.0371 27.4578 51.9977 27.4485L40.2545 21.9816L45.8603 31.0383C45.9356 31.16 45.9571 31.2899 45.9248 31.4281C45.897 31.5465 45.8163 31.6472 45.6826 31.7304L44.8073 32.2748Z" fill="#EEF0FB"/>
<path d="M63.4854 18.8072C63.0862 18.9212 62.6872 18.931 62.2882 18.8366C61.8991 18.7244 61.5524 18.5257 61.248 18.2404C60.9574 17.9512 60.7554 17.607 60.6418 17.2076C60.5244 16.7945 60.515 16.3952 60.6137 16.0097C60.7262 15.6202 60.9203 15.2818 61.1958 14.9947C61.4812 14.6898 61.8235 14.4803 62.2227 14.3663C62.6357 14.2483 63.0367 14.2454 63.4258 14.3575C63.811 14.4559 64.1538 14.6409 64.4542 14.9124C64.7547 15.1839 64.9636 15.5261 65.0811 15.9393C65.1946 16.3386 65.1971 16.7399 65.0885 17.1431C64.9799 17.5464 64.7898 17.8985 64.5182 18.1994C64.2426 18.4866 63.8984 18.6892 63.4854 18.8072Z" fill="#EEF0FB"/>
</svg>
