<svg width="109" height="108" viewBox="0 0 109 108" fill="none" xmlns="http://www.w3.org/2000/svg">
<g filter="url(#filter0_b_520_2831)">
<path d="M93.0752 16.0171H63.81C60.6939 16.0171 58.166 18.545 58.166 21.6549V68.8971C58.166 72.0132 60.6939 74.5348 63.81 74.5348H93.0752C96.1913 74.5348 98.7192 72.0132 98.7192 68.8971V21.6549C98.7192 18.545 96.1913 16.0171 93.0752 16.0171ZM90.7975 70.4801C90.566 70.7116 90.2407 70.8556 89.8902 70.8556H66.995C66.2879 70.8556 65.7123 70.2861 65.7123 69.5791C65.7123 69.2287 65.8562 68.9033 66.0877 68.6718C66.3192 68.4402 66.6383 68.2963 66.995 68.2963H89.8902C90.5973 68.2963 91.173 68.872 91.173 69.5791C91.173 69.9295 91.029 70.2549 90.7975 70.4801Z" fill="url(#paint0_linear_520_2831)"/>
<path d="M63.81 16.5908H93.0752C95.8748 16.5908 98.1455 18.8623 98.1455 21.6549V68.8971C98.1455 71.6955 95.8752 73.9611 93.0752 73.9611H63.81C61.0099 73.9611 58.7397 71.6955 58.7397 68.8971V21.6549C58.7397 18.8623 61.0104 16.5908 63.81 16.5908ZM89.8902 71.4293C90.3964 71.4293 90.8651 71.2224 91.2004 70.8885C91.5406 70.556 91.7467 70.0838 91.7467 69.5791C91.7467 68.5551 90.9142 67.7226 89.8902 67.7226H66.995C66.4797 67.7226 66.0165 67.9316 65.682 68.2661C65.3464 68.6016 65.1385 69.0716 65.1385 69.5791C65.1385 70.6066 65.9747 71.4293 66.995 71.4293H89.8902Z" stroke="url(#paint1_linear_520_2831)" stroke-width="1.14744"/>
</g>
<path d="M91.1736 69.5794C91.1736 69.9298 91.0297 70.2551 90.7982 70.4804C90.5666 70.7119 90.2413 70.8559 89.8909 70.8559H66.9956C66.2885 70.8559 65.7129 70.2864 65.7129 69.5794C65.7129 69.229 65.8568 68.9036 66.0883 68.6721C66.3198 68.4405 66.639 68.2966 66.9956 68.2966H89.8909C90.598 68.2966 91.1736 68.8723 91.1736 69.5794Z" fill="#EEF0FB"/>
<g filter="url(#filter1_f_520_2831)">
<path d="M54.4723 23.4878C38.8235 23.4878 39.8006 30.274 39.8006 30.274L39.818 37.3048H54.7514V39.4156H33.8867C33.8867 39.4156 23.873 38.28 23.873 54.0695C23.873 69.8595 32.6132 69.2995 32.6132 69.2995H37.8293V61.9723C37.8293 61.9723 37.5481 53.2321 46.43 53.2321H61.2412C61.2412 53.2321 69.5626 53.3666 69.5626 45.1898V31.6699C69.5626 31.6699 70.8264 23.4878 54.4723 23.4878ZM46.2381 28.2158C46.591 28.2155 46.9405 28.2848 47.2665 28.4197C47.5926 28.5546 47.8889 28.7525 48.1384 29.002C48.388 29.2515 48.5858 29.5478 48.7207 29.8739C48.8556 30.2 48.9249 30.5495 48.9246 30.9023C48.9249 31.2552 48.8556 31.6047 48.7207 31.9308C48.5858 32.2569 48.388 32.5532 48.1384 32.8027C47.8889 33.0522 47.5926 33.2501 47.2665 33.385C46.9405 33.5199 46.591 33.5892 46.2381 33.5888C45.8852 33.5892 45.5357 33.5199 45.2096 33.385C44.8836 33.2501 44.5873 33.0522 44.3377 32.8027C44.0882 32.5532 43.8903 32.2569 43.7554 31.9308C43.6205 31.6047 43.5513 31.2552 43.5516 30.9023C43.5513 30.5495 43.6205 30.2 43.7554 29.8739C43.8903 29.5478 44.0882 29.2515 44.3377 29.002C44.5873 28.7525 44.8836 28.5546 45.2096 28.4197C45.5357 28.2848 45.8852 28.2155 46.2381 28.2158Z" fill="url(#paint2_linear_520_2831)"/>
<path d="M54.9139 84.8102C70.5627 84.8102 69.5856 78.024 69.5856 78.024L69.5683 70.9935H54.6347V68.8827H75.4993C75.4993 68.8827 85.513 70.0183 85.513 54.2283C85.513 38.4386 76.7728 38.9986 76.7728 38.9986H71.5567V46.3255C71.5567 46.3255 71.8379 55.0657 62.956 55.0657H48.1448C48.1448 55.0657 39.8234 54.9312 39.8234 63.1083V76.6284C39.8234 76.6284 38.5598 84.8102 54.9137 84.8102M63.1479 80.0827C62.795 80.083 62.4456 80.0137 62.1195 79.8788C61.7934 79.7439 61.4971 79.5461 61.2476 79.2965C60.9981 79.047 60.8002 78.7507 60.6653 78.4246C60.5304 78.0985 60.4611 77.7491 60.4614 77.3962C60.4611 77.0433 60.5303 76.6938 60.6652 76.3676C60.8001 76.0415 60.998 75.7452 61.2475 75.4957C61.497 75.2461 61.7933 75.0482 62.1194 74.9133C62.4455 74.7784 62.795 74.7091 63.1479 74.7094C63.5008 74.7091 63.8503 74.7784 64.1764 74.9133C64.5025 75.0482 64.7988 75.2461 65.0483 75.4956C65.2978 75.7451 65.4957 76.0414 65.6306 76.3675C65.7655 76.6936 65.8348 77.0431 65.8344 77.3959C65.8348 77.7488 65.7655 78.0983 65.6306 78.4244C65.4957 78.7505 65.2978 79.0468 65.0483 79.2963C64.7988 79.5458 64.5025 79.7437 64.1764 79.8786C63.8503 80.0135 63.5008 80.083 63.1479 80.0827Z" fill="url(#paint3_linear_520_2831)"/>
</g>
<path d="M54.4723 23.4878C38.8235 23.4878 39.8006 30.274 39.8006 30.274L39.818 37.3048H54.7514V39.4156H33.8867C33.8867 39.4156 23.873 38.28 23.873 54.0695C23.873 69.8595 32.6132 69.2995 32.6132 69.2995H37.8293V61.9723C37.8293 61.9723 37.5481 53.2321 46.43 53.2321H61.2412C61.2412 53.2321 69.5626 53.3666 69.5626 45.1898V31.6699C69.5626 31.6699 70.8264 23.4878 54.4723 23.4878ZM46.2381 28.2158C46.591 28.2155 46.9405 28.2848 47.2665 28.4197C47.5926 28.5546 47.8889 28.7525 48.1384 29.002C48.388 29.2515 48.5858 29.5478 48.7207 29.8739C48.8556 30.2 48.9249 30.5495 48.9246 30.9023C48.9249 31.2552 48.8556 31.6047 48.7207 31.9308C48.5858 32.2569 48.388 32.5532 48.1384 32.8027C47.8889 33.0522 47.5926 33.2501 47.2665 33.385C46.9405 33.5199 46.591 33.5892 46.2381 33.5888C45.8852 33.5892 45.5357 33.5199 45.2096 33.385C44.8836 33.2501 44.5873 33.0522 44.3377 32.8027C44.0882 32.5532 43.8903 32.2569 43.7554 31.9308C43.6205 31.6047 43.5513 31.2552 43.5516 30.9023C43.5513 30.5495 43.6205 30.2 43.7554 29.8739C43.8903 29.5478 44.0882 29.2515 44.3377 29.002C44.5873 28.7525 44.8836 28.5546 45.2096 28.4197C45.5357 28.2848 45.8852 28.2155 46.2381 28.2158Z" fill="url(#paint4_linear_520_2831)"/>
<path d="M54.9139 84.8102C70.5627 84.8102 69.5856 78.024 69.5856 78.024L69.5683 70.9935H54.6347V68.8827H75.4993C75.4993 68.8827 85.513 70.0183 85.513 54.2283C85.513 38.4386 76.7728 38.9986 76.7728 38.9986H71.5567V46.3255C71.5567 46.3255 71.8379 55.0657 62.956 55.0657H48.1448C48.1448 55.0657 39.8234 54.9312 39.8234 63.1083V76.6284C39.8234 76.6284 38.5598 84.8102 54.9137 84.8102M63.1479 80.0827C62.795 80.083 62.4456 80.0137 62.1195 79.8788C61.7934 79.7439 61.4971 79.5461 61.2476 79.2965C60.9981 79.047 60.8002 78.7507 60.6653 78.4246C60.5304 78.0985 60.4611 77.7491 60.4614 77.3962C60.4611 77.0433 60.5303 76.6938 60.6652 76.3676C60.8001 76.0415 60.998 75.7452 61.2475 75.4957C61.497 75.2461 61.7933 75.0482 62.1194 74.9133C62.4455 74.7784 62.795 74.7091 63.1479 74.7094C63.5008 74.7091 63.8503 74.7784 64.1764 74.9133C64.5025 75.0482 64.7988 75.2461 65.0483 75.4956C65.2978 75.7451 65.4957 76.0414 65.6306 76.3675C65.7655 76.6936 65.8348 77.0431 65.8344 77.3959C65.8348 77.7488 65.7655 78.0983 65.6306 78.4244C65.4957 78.7505 65.2978 79.0468 65.0483 79.2963C64.7988 79.5458 64.5025 79.7437 64.1764 79.8786C63.8503 80.0135 63.5008 80.083 63.1479 80.0827Z" fill="url(#paint5_linear_520_2831)"/>
<defs>
<filter id="filter0_b_520_2831" x="37.5121" y="-4.63686" width="81.8606" height="99.8256" filterUnits="userSpaceOnUse" color-interpolation-filters="sRGB">
<feFlood flood-opacity="0" result="BackgroundImageFix"/>
<feGaussianBlur in="BackgroundImageFix" stdDeviation="10.327"/>
<feComposite in2="SourceAlpha" operator="in" result="effect1_backgroundBlur_520_2831"/>
<feBlend mode="normal" in="SourceGraphic" in2="effect1_backgroundBlur_520_2831" result="shape"/>
</filter>
<filter id="filter1_f_520_2831" x="0.924212" y="0.538958" width="107.538" height="107.22" filterUnits="userSpaceOnUse" color-interpolation-filters="sRGB">
<feFlood flood-opacity="0" result="BackgroundImageFix"/>
<feBlend mode="normal" in="SourceGraphic" in2="BackgroundImageFix" result="shape"/>
<feGaussianBlur stdDeviation="11.4744" result="effect1_foregroundBlur_520_2831"/>
</filter>
<linearGradient id="paint0_linear_520_2831" x1="60.4555" y1="71.2312" x2="109.061" y2="37.5473" gradientUnits="userSpaceOnUse">
<stop stop-color="white" stop-opacity="0.2"/>
<stop offset="1" stop-color="white" stop-opacity="0.49"/>
</linearGradient>
<linearGradient id="paint1_linear_520_2831" x1="61.0286" y1="20.6194" x2="107.93" y2="55.3728" gradientUnits="userSpaceOnUse">
<stop stop-color="white"/>
<stop offset="1" stop-color="white" stop-opacity="0"/>
</linearGradient>
<linearGradient id="paint2_linear_520_2831" x1="23.8767" y1="46.3899" x2="69.5858" y2="46.3899" gradientUnits="userSpaceOnUse">
<stop stop-color="#7C00FF"/>
<stop offset="1" stop-color="#2CF19A"/>
</linearGradient>
<linearGradient id="paint3_linear_520_2831" x1="62.6603" y1="86.6549" x2="62.6603" y2="41.08" gradientUnits="userSpaceOnUse">
<stop stop-color="#FF5C00"/>
<stop offset="0.52" stop-color="#FFCA40"/>
<stop offset="1" stop-color="#FFE0F9"/>
</linearGradient>
<linearGradient id="paint4_linear_520_2831" x1="23.8767" y1="46.3899" x2="69.5858" y2="46.3899" gradientUnits="userSpaceOnUse">
<stop stop-color="#7C00FF"/>
<stop offset="1" stop-color="#2CF19A"/>
</linearGradient>
<linearGradient id="paint5_linear_520_2831" x1="62.6603" y1="86.6549" x2="62.6603" y2="41.08" gradientUnits="userSpaceOnUse">
<stop stop-color="#FF5C00"/>
<stop offset="0.52" stop-color="#FFCA40"/>
<stop offset="1" stop-color="#FFE0F9"/>
</linearGradient>
</defs>
</svg>
