<svg width="117" height="105" viewBox="0 0 117 105" fill="none" xmlns="http://www.w3.org/2000/svg">
<g filter="url(#filter0_f_520_2698)">
<path d="M50.6207 26.8892C45.3389 24.3675 37.9564 23.1322 28.0726 23.0883C27.1404 23.0756 26.2266 23.3474 25.4529 23.8675C24.8178 24.2967 24.298 24.8755 23.939 25.5528C23.5801 26.2301 23.3931 26.9852 23.3945 27.7517V69.5762C23.3945 72.4035 25.4061 74.5364 28.0726 74.5364C38.4622 74.5364 48.884 75.5071 55.1262 81.4073C55.2116 81.4883 55.3189 81.5425 55.4349 81.5631C55.5508 81.5837 55.6702 81.5698 55.7783 81.5231C55.8864 81.4763 55.9784 81.3989 56.0428 81.3003C56.1073 81.2018 56.1413 81.0864 56.1408 80.9687V31.6871C56.141 31.3546 56.0699 31.0259 55.9322 30.7233C55.7945 30.4206 55.5934 30.1511 55.3426 29.9328C53.9127 28.7105 52.3244 27.6867 50.6207 26.8892ZM91.5067 23.8631C90.7326 23.3444 89.8187 23.0741 88.887 23.0883C79.0032 23.1322 71.6207 24.3616 66.3389 26.8892C64.6352 27.6852 63.0465 28.707 61.6155 29.927C61.3652 30.1456 61.1646 30.4153 61.0272 30.7179C60.8898 31.0204 60.8187 31.3489 60.8188 31.6813V80.9658C60.8187 81.0789 60.8521 81.1896 60.9146 81.2839C60.9772 81.3781 61.0662 81.4518 61.1705 81.4957C61.2748 81.5396 61.3898 81.5517 61.5009 81.5305C61.6121 81.5093 61.7145 81.4557 61.7953 81.3766C65.548 77.6488 72.1338 74.532 88.8928 74.5335C90.1335 74.5335 91.3234 74.0406 92.2007 73.1633C93.078 72.286 93.5709 71.0961 93.5709 69.8555V27.7532C93.5726 26.9851 93.3851 26.2285 93.0251 25.5501C92.6651 24.8716 92.1436 24.2922 91.5067 23.8631Z" fill="url(#paint0_linear_520_2698)"/>
</g>
<path d="M50.6207 26.8892C45.3389 24.3675 37.9564 23.1322 28.0726 23.0883C27.1404 23.0756 26.2266 23.3474 25.4529 23.8675C24.8178 24.2967 24.298 24.8755 23.939 25.5528C23.5801 26.2301 23.3931 26.9852 23.3945 27.7517V69.5762C23.3945 72.4035 25.4061 74.5364 28.0726 74.5364C38.4622 74.5364 48.884 75.5071 55.1262 81.4073C55.2116 81.4883 55.3189 81.5425 55.4349 81.5631C55.5508 81.5837 55.6702 81.5698 55.7783 81.5231C55.8864 81.4763 55.9784 81.3989 56.0428 81.3003C56.1073 81.2018 56.1413 81.0864 56.1408 80.9687V31.6871C56.141 31.3546 56.0699 31.0259 55.9322 30.7233C55.7945 30.4206 55.5934 30.1511 55.3426 29.9328C53.9127 28.7105 52.3244 27.6867 50.6207 26.8892ZM91.5067 23.8631C90.7326 23.3444 89.8187 23.0741 88.887 23.0883C79.0032 23.1322 71.6207 24.3616 66.3389 26.8892C64.6352 27.6852 63.0465 28.707 61.6155 29.927C61.3652 30.1456 61.1646 30.4153 61.0272 30.7179C60.8898 31.0204 60.8187 31.3489 60.8188 31.6813V80.9658C60.8187 81.0789 60.8521 81.1896 60.9146 81.2839C60.9772 81.3781 61.0662 81.4518 61.1705 81.4957C61.2748 81.5396 61.3898 81.5517 61.5009 81.5305C61.6121 81.5093 61.7145 81.4557 61.7953 81.3766C65.548 77.6488 72.1338 74.532 88.8928 74.5335C90.1335 74.5335 91.3234 74.0406 92.2007 73.1633C93.078 72.286 93.5708 71.0961 93.5708 69.8555V27.7532C93.5726 26.9851 93.3851 26.2285 93.0251 25.5501C92.6651 24.8716 92.1436 24.2922 91.5067 23.8631Z" fill="url(#paint1_linear_520_2698)"/>
<g filter="url(#filter1_b_520_2698)">
<path d="M58.4337 39.417C60.7728 30.1838 69.6069 25.4692 88.8409 25.383C89.1484 25.3818 89.4531 25.4415 89.7374 25.5586C90.0217 25.6758 90.28 25.848 90.4975 26.0654C90.7149 26.2829 90.8871 26.5412 91.0043 26.8255C91.1214 27.1098 91.1811 27.4145 91.18 27.722V69.8243C91.18 70.4446 90.9335 71.0395 90.4949 71.4782C90.0562 71.9168 89.4613 72.1633 88.8409 72.1633C70.1288 72.1633 62.8998 75.9364 58.4337 81.5193M58.4337 39.417C56.0947 30.1838 47.2606 25.4692 28.0265 25.383C27.719 25.3818 27.4144 25.4415 27.1301 25.5586C26.8458 25.6758 26.5874 25.848 26.37 26.0654C26.1526 26.2829 25.9803 26.5412 25.8632 26.8255C25.7461 27.1098 25.6864 27.4145 25.6875 27.722V69.5421C25.6875 70.9865 26.5822 72.1633 28.0265 72.1633C46.7387 72.1633 53.994 75.9642 58.4337 81.5193M58.4337 39.417V81.5193" stroke="url(#paint2_linear_520_2698)" stroke-width="4.67803" stroke-linecap="round" stroke-linejoin="round"/>
</g>
<g filter="url(#filter2_b_520_2698)">
<path d="M98.1822 78.8716L94.461 75.1467C99.9144 67.705 99.2849 57.1886 92.5603 50.4613C85.138 43.0316 73.1043 43.0316 65.682 50.4613C58.2597 57.891 58.2597 69.9367 65.682 77.3624C72.2101 83.897 82.311 84.6797 89.6972 79.7145L93.5187 83.5398C94.8058 84.8282 96.895 84.8282 98.1822 83.5398C99.4693 82.2513 99.4693 80.1601 98.1822 78.8716Z" fill="url(#paint3_linear_520_2698)"/>
<path d="M98.5881 78.4661L95.21 75.0847C100.517 67.4456 99.7741 56.8666 92.9662 50.0558C85.3198 42.4018 72.9225 42.4018 65.2761 50.0558C57.63 57.7095 57.6299 70.1182 65.2762 77.768C71.886 84.3843 82.05 85.2764 89.6211 80.4501L93.1128 83.9452C94.6241 85.458 97.0768 85.458 98.5881 83.9452C100.099 82.4328 100.099 79.9786 98.5881 78.4661Z" stroke="url(#paint4_linear_520_2698)" stroke-width="1.14744"/>
</g>
<defs>
<filter id="filter0_f_520_2698" x="0.445696" y="0.138933" width="116.073" height="104.382" filterUnits="userSpaceOnUse" color-interpolation-filters="sRGB">
<feFlood flood-opacity="0" result="BackgroundImageFix"/>
<feBlend mode="normal" in="SourceGraphic" in2="BackgroundImageFix" result="shape"/>
<feGaussianBlur stdDeviation="11.4744" result="effect1_foregroundBlur_520_2698"/>
</filter>
<filter id="filter1_b_520_2698" x="20.7163" y="20.4126" width="75.4347" height="66.0772" filterUnits="userSpaceOnUse" color-interpolation-filters="sRGB">
<feFlood flood-opacity="0" result="BackgroundImageFix"/>
<feGaussianBlur in="BackgroundImageFix" stdDeviation="1.3157"/>
<feComposite in2="SourceAlpha" operator="in" result="effect1_backgroundBlur_520_2698"/>
<feBlend mode="normal" in="SourceGraphic" in2="effect1_backgroundBlur_520_2698" result="shape"/>
</filter>
<filter id="filter2_b_520_2698" x="56.3374" y="41.1102" width="46.589" height="47.1748" filterUnits="userSpaceOnUse" color-interpolation-filters="sRGB">
<feFlood flood-opacity="0" result="BackgroundImageFix"/>
<feGaussianBlur in="BackgroundImageFix" stdDeviation="1.3157"/>
<feComposite in2="SourceAlpha" operator="in" result="effect1_backgroundBlur_520_2698"/>
<feBlend mode="normal" in="SourceGraphic" in2="effect1_backgroundBlur_520_2698" result="shape"/>
</filter>
<linearGradient id="paint0_linear_520_2698" x1="88.5531" y1="83.8964" x2="41.7861" y2="13.2138" gradientUnits="userSpaceOnUse">
<stop stop-color="#AA83FF"/>
<stop offset="1" stop-color="#FF3FA4"/>
</linearGradient>
<linearGradient id="paint1_linear_520_2698" x1="88.5531" y1="83.8964" x2="41.7861" y2="13.2138" gradientUnits="userSpaceOnUse">
<stop stop-color="#AA83FF"/>
<stop offset="1" stop-color="#FF3FA4"/>
</linearGradient>
<linearGradient id="paint2_linear_520_2698" x1="29.3849" y1="78.3501" x2="78.597" y2="20.936" gradientUnits="userSpaceOnUse">
<stop stop-color="white" stop-opacity="0.2"/>
<stop offset="1" stop-color="white" stop-opacity="0.49"/>
</linearGradient>
<linearGradient id="paint3_linear_520_2698" x1="62.3188" y1="82.2695" x2="97.4588" y2="47.6482" gradientUnits="userSpaceOnUse">
<stop stop-color="white" stop-opacity="0.2"/>
<stop offset="1" stop-color="white" stop-opacity="0.49"/>
</linearGradient>
<linearGradient id="paint4_linear_520_2698" x1="62.8705" y1="48.0048" x2="96.0159" y2="82.9218" gradientUnits="userSpaceOnUse">
<stop stop-color="white"/>
<stop offset="1" stop-color="white" stop-opacity="0"/>
</linearGradient>
</defs>
</svg>
