<svg width="161" height="160" viewBox="0 0 161 160" fill="none" xmlns="http://www.w3.org/2000/svg">
<path d="M46.6792 18.4569C46.5252 18.5268 46.3853 18.5408 46.2454 18.4848C46.1055 18.4289 46.0006 18.3309 45.9307 18.177L45.5109 17.3166C45.441 17.1626 45.4269 17.0227 45.4689 16.8758C45.5109 16.7359 45.6089 16.624 45.7628 16.554L52.5906 13.259C52.7445 13.1891 52.8914 13.1751 53.0383 13.2241C53.1852 13.273 53.2971 13.378 53.3671 13.5249L53.7868 14.3853C53.8568 14.5393 53.8708 14.6862 53.8218 14.8331C53.7729 14.98 53.6679 15.0849 53.521 15.1619L46.6932 18.4569H46.6792Z" fill="#F4F4F5"/>
<path d="M61.4617 20.2971C61.2798 20.3391 61.1329 20.3111 61.0069 20.2272C60.888 20.1432 60.8041 20.0173 60.7691 19.8564L57.2712 3.78724C57.2293 3.60535 57.2503 3.45145 57.3273 3.32553C57.4042 3.1996 57.5301 3.11565 57.712 3.07368L63.3015 1.85643C64.9875 1.48565 66.4077 1.44368 67.555 1.7305C68.7023 2.01733 69.6187 2.59797 70.3113 3.48643C71.0038 4.37488 71.5146 5.54317 71.8434 6.97729C72.0183 7.71184 72.1721 8.35545 72.291 8.9151C72.4099 9.47476 72.5429 10.1114 72.6828 10.8389C72.9766 12.357 72.9976 13.6582 72.7458 14.7565C72.4939 15.8479 71.9203 16.7503 71.0108 17.4569C70.1014 18.1634 68.8282 18.6951 67.1702 19.0519L61.4617 20.2971ZM62.8538 17.8067L66.5966 16.9952C67.7299 16.7503 68.5973 16.3935 69.199 15.9388C69.8006 15.4841 70.1854 14.8755 70.3323 14.1199C70.4862 13.3644 70.4442 12.42 70.2203 11.2867C70.1434 10.79 70.0664 10.3562 69.9895 9.98545C69.9125 9.61467 69.8285 9.2509 69.7516 8.88012C69.6676 8.50935 69.5627 8.08961 69.4298 7.6209C69.052 6.03986 68.4154 4.94154 67.527 4.33291C66.6385 3.72428 65.3443 3.61235 63.6373 3.98312L60.0206 4.77364L62.8608 17.8137L62.8538 17.8067Z" fill="#F4F4F5"/>
<path d="M76.2734 17.3237C76.1404 17.3237 76.0215 17.2608 75.9306 17.1558C75.8326 17.0509 75.7906 16.932 75.7976 16.7991C75.7976 16.7151 75.8117 16.6242 75.8396 16.5262L82.8913 0.562012C82.9682 0.40111 83.0662 0.268192 83.1851 0.170252C83.3041 0.0793072 83.486 0.0373329 83.7238 0.0443286L85.4377 0.128277C85.6686 0.142269 85.8435 0.198234 85.9554 0.30317C86.0673 0.408106 86.1513 0.54802 86.2143 0.722913L91.6149 17.3098C91.6429 17.4147 91.6569 17.5056 91.6499 17.5896C91.6499 17.7225 91.587 17.8414 91.482 17.9324C91.3771 18.0233 91.2582 18.0723 91.1253 18.0653L89.8451 18.0023C89.6422 17.9953 89.5023 17.9324 89.4113 17.8274C89.3274 17.7225 89.2644 17.6246 89.2365 17.5406L88.0331 13.8958L79.7852 13.4831L78.2252 16.988C78.2042 17.0719 78.1412 17.1628 78.0363 17.2538C77.9314 17.3447 77.7774 17.3937 77.5746 17.3797L76.2944 17.3168L76.2734 17.3237ZM80.6037 11.3634L87.3966 11.6992L84.4443 2.59777L80.6037 11.3564V11.3634Z" fill="#F4F4F5"/>
<path d="M96.6646 19.7235C96.5037 19.6815 96.3847 19.5906 96.3078 19.4576C96.2308 19.3247 96.2168 19.1778 96.2658 19.0099L100.246 4.74565L95.5872 3.44445C95.4263 3.40248 95.3074 3.31153 95.2304 3.17861C95.1534 3.0457 95.1395 2.89879 95.1815 2.73089L95.4682 1.70951C95.5172 1.53462 95.6082 1.4017 95.7411 1.33175C95.874 1.25479 96.0209 1.2408 96.1818 1.28278L107.872 4.54278C108.047 4.59175 108.172 4.68269 108.249 4.81561C108.326 4.94853 108.34 5.10943 108.291 5.28432L108.005 6.3057C107.963 6.4666 107.872 6.58553 107.732 6.66248C107.592 6.73943 107.438 6.75342 107.263 6.70445L102.632 5.41025L98.6513 19.6745C98.6093 19.8354 98.5184 19.9543 98.3855 20.0313C98.2526 20.1082 98.0916 20.1222 97.9167 20.0733L96.6576 19.7235H96.6646Z" fill="#F4F4F5"/>
<path d="M103.533 21.5211C103.414 21.4582 103.337 21.3602 103.295 21.2203C103.254 21.0804 103.267 20.9545 103.33 20.8355C103.372 20.7586 103.421 20.6816 103.484 20.6047L116.72 9.23665C116.86 9.11772 117.007 9.04776 117.154 9.01278C117.308 8.97781 117.483 9.01278 117.693 9.13171L119.197 9.94321C119.407 10.0551 119.533 10.1811 119.589 10.328C119.645 10.4749 119.658 10.6358 119.644 10.8107L117.378 28.1041C117.357 28.209 117.329 28.3 117.294 28.3699C117.231 28.4889 117.133 28.5658 116.993 28.6078C116.853 28.6498 116.727 28.6358 116.608 28.5728L115.475 27.9642C115.3 27.8662 115.195 27.7543 115.16 27.6214C115.125 27.4885 115.111 27.3765 115.125 27.2856L115.608 23.4799L108.339 19.5553L105.422 22.0458C105.366 22.1088 105.275 22.1647 105.135 22.2067C104.995 22.2487 104.842 22.2207 104.667 22.1228L103.533 21.5141V21.5211ZM110.011 18.0023L115.993 21.2343L117.245 11.7551L110.004 18.0093L110.011 18.0023Z" fill="#F4F4F5"/>
<path d="M122.772 33.5326C122.688 33.4277 122.646 33.3088 122.653 33.1689C122.66 33.029 122.716 32.91 122.821 32.8261C122.884 32.7701 122.961 32.7141 123.045 32.6652L139.45 26.7258C139.618 26.6698 139.786 26.6489 139.932 26.6698C140.086 26.6908 140.24 26.7958 140.394 26.9707L141.514 28.2649C141.667 28.4398 141.744 28.6077 141.744 28.7616C141.744 28.9155 141.702 29.0764 141.618 29.2373L133.37 44.6069C133.315 44.6978 133.259 44.7748 133.196 44.8237C133.091 44.9077 132.972 44.9497 132.832 44.9427C132.692 44.9357 132.573 44.8797 132.489 44.7748L131.65 43.8024C131.517 43.6485 131.461 43.5085 131.475 43.3686C131.489 43.2357 131.517 43.1238 131.559 43.0468L133.356 39.6609L127.949 33.4137L124.339 34.7079C124.262 34.7499 124.157 34.7639 124.017 34.7569C123.877 34.7499 123.737 34.666 123.605 34.512L122.765 33.5396L122.772 33.5326ZM130.076 32.5393L134.525 37.6811L139.058 29.2583L130.076 32.5393Z" fill="#F4F4F5"/>
<path d="M134.288 47.8604C134.211 47.6925 134.197 47.5386 134.253 47.4057C134.309 47.2658 134.414 47.1609 134.568 47.0909L149.433 40.0532C149.601 39.9763 149.755 39.9553 149.895 40.0042C150.035 40.0532 150.147 40.1512 150.224 40.3191L150.721 41.3684C150.805 41.5503 150.833 41.7042 150.791 41.8371C150.749 41.97 150.714 42.054 150.672 42.089L142.641 55.143L154.023 49.7563C154.191 49.6793 154.345 49.6583 154.484 49.7073C154.624 49.7493 154.736 49.8542 154.813 50.0221L155.331 51.1134C155.408 51.2813 155.422 51.4352 155.373 51.5822C155.317 51.7291 155.212 51.841 155.044 51.918L140.206 58.9417C140.052 59.0116 139.898 59.0256 139.751 58.9766C139.605 58.9277 139.486 58.8297 139.416 58.6758L138.898 57.5845C138.821 57.4166 138.807 57.2697 138.856 57.1438C138.905 57.0178 138.94 56.9339 138.954 56.8849L146.88 43.9079L135.589 49.2526C135.435 49.3225 135.288 49.3365 135.141 49.2806C134.994 49.2316 134.882 49.1197 134.805 48.9518L134.288 47.8604Z" fill="#F4F4F5"/>
<path d="M140.671 62.0261C140.65 61.8932 140.678 61.7672 140.762 61.6553C140.846 61.5364 140.951 61.4664 141.083 61.4454C141.167 61.4314 141.258 61.4244 141.363 61.4244L158.475 64.8453C158.65 64.8803 158.797 64.9503 158.916 65.0482C159.034 65.1462 159.111 65.3141 159.153 65.5449L159.44 67.2309C159.482 67.4617 159.461 67.6436 159.377 67.7765C159.293 67.9095 159.181 68.0214 159.028 68.1193L144.008 76.9899C143.917 77.0389 143.826 77.0739 143.742 77.0878C143.609 77.1088 143.483 77.0808 143.371 76.9969C143.252 76.913 143.182 76.808 143.161 76.6751L142.944 75.4089C142.909 75.213 142.937 75.0591 143.021 74.9472C143.105 74.8422 143.182 74.7653 143.259 74.7163L146.554 72.7505L145.169 64.6075L141.412 63.845C141.328 63.845 141.223 63.803 141.111 63.719C140.992 63.6351 140.923 63.4952 140.888 63.2993L140.671 62.0331V62.0261ZM147.429 64.9643L148.569 71.6662L156.81 66.8111L147.422 64.9643H147.429Z" fill="#F4F4F5"/>
<path d="M142.949 80.3623C142.963 80.1804 143.026 80.0405 143.145 79.9496C143.264 79.8586 143.404 79.8166 143.571 79.8306L159.997 81.0829C160.165 81.0969 160.298 81.1598 160.403 81.2648C160.508 81.3697 160.55 81.5166 160.536 81.7055L160.438 83.0347C160.424 83.2026 160.361 83.3355 160.242 83.4334C160.123 83.5314 159.983 83.5803 159.816 83.5663L144.999 82.44L144.362 90.7789C144.348 90.9608 144.285 91.1077 144.166 91.2057C144.047 91.3036 143.9 91.3526 143.711 91.3386L142.704 91.2616C142.536 91.2476 142.403 91.1847 142.305 91.0658C142.207 90.9468 142.158 90.7999 142.172 90.611L142.956 80.3623H142.949Z" fill="#F4F4F5"/>
<path d="M140.593 96.3958C140.642 96.2349 140.726 96.1159 140.865 96.039C140.998 95.962 141.145 95.948 141.313 95.997L147.029 97.634L158.579 94.6259C158.635 94.6259 158.684 94.6259 158.74 94.6259C158.795 94.6259 158.851 94.6259 158.914 94.6468C159.047 94.6818 159.145 94.7658 159.215 94.8917C159.285 95.0176 159.299 95.1435 159.264 95.2695L158.907 96.5287C158.865 96.6756 158.795 96.7945 158.69 96.8855C158.586 96.9764 158.46 97.0324 158.32 97.0394L149.12 99.5159L155.612 106.484C155.717 106.603 155.794 106.721 155.836 106.847C155.878 106.973 155.878 107.106 155.836 107.253L155.486 108.491C155.445 108.638 155.361 108.743 155.235 108.813C155.109 108.883 154.983 108.897 154.857 108.862C154.794 108.841 154.738 108.82 154.696 108.792C154.654 108.764 154.612 108.722 154.57 108.68L146.357 100.041L140.642 98.4035C140.481 98.3546 140.362 98.2636 140.285 98.1307C140.208 97.9978 140.201 97.8369 140.25 97.662L140.607 96.4028L140.593 96.3958Z" fill="#F4F4F5"/>
<path d="M134.222 110.926C134.956 109.66 135.761 108.716 136.649 108.086C137.538 107.456 138.426 107.093 139.308 106.988C140.189 106.89 140.98 107.023 141.679 107.386C141.798 107.456 141.875 107.561 141.91 107.708C141.952 107.855 141.931 107.995 141.854 108.128L141.21 109.24C141.112 109.415 140.994 109.52 140.854 109.555C140.714 109.59 140.581 109.59 140.448 109.555C140.049 109.443 139.601 109.422 139.098 109.499C138.594 109.576 138.083 109.807 137.559 110.192C137.034 110.577 136.537 111.178 136.069 111.99C135.348 113.242 135.033 114.284 135.138 115.131C135.243 115.977 135.663 116.614 136.404 117.041C136.915 117.334 137.412 117.418 137.908 117.285C138.405 117.152 138.958 116.838 139.573 116.341C140.189 115.844 140.938 115.173 141.819 114.326C142.735 113.445 143.582 112.759 144.351 112.269C145.121 111.78 145.87 111.521 146.604 111.493C147.339 111.465 148.122 111.689 148.948 112.165C149.731 112.619 150.312 113.235 150.683 114.011C151.053 114.788 151.193 115.683 151.095 116.691C150.997 117.698 150.62 118.761 149.976 119.881C149.451 120.783 148.878 121.504 148.248 122.035C147.619 122.574 146.975 122.952 146.31 123.169C145.653 123.386 145.023 123.484 144.428 123.449C143.834 123.414 143.316 123.281 142.875 123.043C142.77 122.987 142.694 122.889 142.645 122.763C142.596 122.637 142.617 122.49 142.708 122.329L143.379 121.175C143.435 121.07 143.526 120.986 143.652 120.909C143.778 120.832 143.932 120.811 144.121 120.846C144.764 121.105 145.464 121.063 146.205 120.713C146.947 120.364 147.591 119.727 148.129 118.803C148.675 117.859 148.941 116.985 148.913 116.187C148.892 115.39 148.493 114.767 147.723 114.319C147.227 114.032 146.737 113.934 146.254 114.018C145.765 114.102 145.226 114.375 144.638 114.83C144.044 115.285 143.337 115.907 142.505 116.705C141.511 117.684 140.623 118.44 139.839 118.971C139.056 119.503 138.293 119.797 137.559 119.846C136.824 119.895 136.041 119.678 135.208 119.202C134.292 118.671 133.648 117.978 133.284 117.125C132.914 116.271 132.809 115.313 132.97 114.249C133.13 113.186 133.55 112.067 134.229 110.891L134.222 110.926Z" fill="#F4F4F5"/>
<path d="M128.33 119.797C128.449 119.657 128.582 119.58 128.736 119.58C128.883 119.58 129.023 119.629 129.149 119.734L141.671 130.43C141.797 130.542 141.874 130.668 141.888 130.815C141.909 130.962 141.853 131.109 141.734 131.249L140.867 132.263C140.748 132.403 140.615 132.473 140.461 132.48C140.314 132.48 140.174 132.431 140.048 132.326L127.526 121.623C127.4 121.511 127.323 121.385 127.309 121.238C127.288 121.091 127.344 120.944 127.463 120.804L128.33 119.79V119.797Z" fill="#F4F4F5"/>
<path d="M119.566 128.066C120.699 127.143 121.797 126.548 122.847 126.275C123.903 126.002 124.862 125.974 125.722 126.198C126.582 126.422 127.275 126.828 127.8 127.416C127.884 127.521 127.919 127.646 127.905 127.8C127.891 127.954 127.821 128.08 127.702 128.171L126.701 128.983C126.548 129.109 126.394 129.165 126.254 129.151C126.114 129.137 125.988 129.088 125.876 129.004C125.547 128.752 125.127 128.577 124.631 128.472C124.134 128.367 123.574 128.402 122.945 128.577C122.322 128.752 121.637 129.13 120.909 129.724C119.79 130.634 119.125 131.501 118.922 132.327C118.719 133.152 118.887 133.901 119.426 134.565C119.797 135.02 120.237 135.279 120.741 135.328C121.252 135.384 121.881 135.286 122.63 135.041C123.385 134.796 124.323 134.432 125.449 133.957C126.625 133.46 127.653 133.117 128.548 132.935C129.437 132.753 130.234 132.781 130.934 133.012C131.633 133.243 132.284 133.733 132.886 134.474C133.459 135.181 133.781 135.957 133.851 136.818C133.921 137.678 133.732 138.567 133.277 139.469C132.823 140.379 132.095 141.239 131.095 142.051C130.283 142.708 129.493 143.17 128.709 143.45C127.926 143.73 127.191 143.849 126.499 143.821C125.806 143.793 125.183 143.653 124.645 143.415C124.106 143.17 123.665 142.862 123.337 142.484C123.26 142.393 123.225 142.281 123.218 142.142C123.218 142.002 123.288 141.876 123.427 141.764L124.463 140.924C124.554 140.847 124.673 140.798 124.813 140.77C124.953 140.742 125.106 140.777 125.274 140.882C125.785 141.351 126.45 141.561 127.268 141.498C128.087 141.442 128.912 141.071 129.745 140.393C130.591 139.707 131.144 138.986 131.41 138.231C131.675 137.475 131.521 136.755 130.962 136.062C130.605 135.622 130.178 135.349 129.696 135.258C129.213 135.167 128.611 135.223 127.898 135.44C127.184 135.65 126.296 135.985 125.232 136.433C123.959 136.993 122.854 137.384 121.93 137.601C121.007 137.818 120.188 137.825 119.489 137.601C118.789 137.377 118.132 136.902 117.523 136.16C116.858 135.342 116.502 134.46 116.46 133.537C116.418 132.613 116.663 131.676 117.187 130.739C117.712 129.801 118.502 128.906 119.559 128.052L119.566 128.066Z" fill="#F4F4F5"/>
<path d="M115.229 140.833C115.376 140.756 115.523 140.749 115.663 140.798C115.803 140.854 115.908 140.952 115.985 141.099L116.412 141.953C116.489 142.099 116.503 142.246 116.461 142.393C116.419 142.533 116.321 142.645 116.174 142.722L109.395 146.115C109.248 146.192 109.094 146.206 108.947 146.157C108.8 146.108 108.688 146.01 108.618 145.856L108.192 145.003C108.115 144.856 108.101 144.702 108.15 144.555C108.199 144.408 108.297 144.296 108.45 144.226L115.229 140.833Z" fill="#F4F4F5"/>
<path d="M100.421 139.196C100.603 139.154 100.75 139.175 100.875 139.259C101.001 139.343 101.078 139.469 101.12 139.63L104.835 155.65C104.877 155.832 104.863 155.986 104.786 156.111C104.709 156.237 104.583 156.328 104.408 156.37L98.8397 157.664C97.1537 158.056 95.7405 158.119 94.5932 157.846C93.4459 157.581 92.5225 157.007 91.8159 156.125C91.1094 155.244 90.5847 154.09 90.2349 152.656C90.046 151.921 89.8922 151.277 89.7592 150.725C89.6263 150.172 89.4933 149.528 89.3394 148.808C89.0246 147.297 88.9827 145.989 89.2206 144.89C89.4584 143.792 90.025 142.883 90.9135 142.169C91.8089 141.455 93.0822 140.903 94.7332 140.518L100.428 139.196H100.421ZM99.0635 141.707L95.3348 142.575C94.2085 142.834 93.3411 143.197 92.7464 143.666C92.1448 144.135 91.774 144.743 91.634 145.499C91.4941 146.254 91.5431 147.199 91.7879 148.332C91.8719 148.829 91.9489 149.263 92.0398 149.633C92.1238 150.004 92.2077 150.368 92.2987 150.739C92.3826 151.109 92.5016 151.522 92.6415 151.991C93.0402 153.572 93.6908 154.656 94.5862 155.251C95.4817 155.846 96.7829 155.944 98.4829 155.552L102.093 154.712L99.0775 141.707H99.0635Z" fill="#F4F4F5"/>
<path d="M85.647 142.372C85.7799 142.372 85.8988 142.428 85.9968 142.533C86.0947 142.638 86.1367 142.757 86.1367 142.889C86.1367 142.973 86.1227 143.064 86.1017 143.162L79.2669 159.217C79.1969 159.385 79.099 159.511 78.9731 159.609C78.8541 159.707 78.6722 159.749 78.4414 159.742L76.7275 159.679C76.4896 159.672 76.3147 159.616 76.2028 159.511C76.0908 159.406 75.9999 159.266 75.9369 159.099L70.3194 142.589C70.2914 142.484 70.2773 142.393 70.2773 142.309C70.2773 142.176 70.3334 142.057 70.4383 141.959C70.5433 141.861 70.6622 141.819 70.7951 141.819L72.0823 141.868C72.2852 141.868 72.4321 141.931 72.516 142.036C72.607 142.141 72.6629 142.232 72.6979 142.323L73.9501 145.947L82.2051 146.247L83.7232 142.722C83.7442 142.638 83.8071 142.547 83.9121 142.449C84.017 142.351 84.1709 142.309 84.3737 142.316L85.654 142.365L85.647 142.372ZM81.3935 148.388L74.6007 148.136L77.6719 157.196L81.3935 148.388Z" fill="#F4F4F5"/>
<path d="M65.2255 140.245C65.3864 140.287 65.5053 140.378 65.5823 140.511C65.6592 140.644 65.6803 140.791 65.6383 140.952L61.8536 155.265L66.5267 156.503C66.6876 156.545 66.8065 156.636 66.8835 156.769C66.9604 156.902 66.9815 157.049 66.9325 157.21L66.6596 158.231C66.6107 158.406 66.5197 158.539 66.3868 158.616C66.2539 158.693 66.107 158.714 65.9461 158.665L54.2072 155.566C54.0323 155.517 53.8995 155.426 53.8225 155.293C53.7456 155.16 53.7315 155.006 53.7805 154.824L54.0533 153.803C54.0953 153.642 54.1863 153.523 54.3192 153.446C54.4521 153.369 54.606 153.355 54.7879 153.404L59.44 154.636L63.2247 140.322C63.2667 140.161 63.3576 140.042 63.4906 139.966C63.6235 139.889 63.7774 139.875 63.9593 139.917L65.2255 140.252V140.245Z" fill="#F4F4F5"/>
<path d="M58.3402 138.538C58.4592 138.601 58.5431 138.699 58.5851 138.832C58.627 138.965 58.62 139.098 58.5571 139.217C58.5221 139.294 58.4661 139.371 58.4102 139.448L45.3282 150.998C45.1883 151.117 45.0484 151.194 44.8945 151.229C44.7406 151.263 44.5657 151.229 44.3558 151.117L42.8377 150.326C42.6278 150.214 42.495 150.088 42.439 149.948C42.383 149.801 42.362 149.64 42.383 149.466L44.4117 132.144C44.4257 132.039 44.4537 131.948 44.4957 131.878C44.5587 131.759 44.6566 131.675 44.7965 131.634C44.9295 131.592 45.0623 131.599 45.1813 131.661L46.3216 132.256C46.4965 132.347 46.6084 132.459 46.6434 132.592C46.6784 132.725 46.6924 132.837 46.6854 132.928L46.2586 136.74L53.5831 140.567L56.4654 138.042C56.5213 137.972 56.6123 137.923 56.7522 137.881C56.8851 137.839 57.0461 137.867 57.2209 137.958L58.3612 138.552L58.3402 138.538ZM51.9111 142.141L45.8808 138.993L44.7545 148.493L51.9042 142.141H51.9111Z" fill="#F4F4F5"/>
<path d="M38.936 126.785C39.0269 126.883 39.0689 127.009 39.0549 127.149C39.0479 127.289 38.9919 127.408 38.894 127.499C38.831 127.555 38.7541 127.611 38.6701 127.667L22.3422 133.83C22.1743 133.893 22.0133 133.914 21.8594 133.893C21.7055 133.872 21.5516 133.774 21.3977 133.599L20.2574 132.319C20.1035 132.144 20.0195 131.976 20.0195 131.822C20.0195 131.668 20.0545 131.507 20.1385 131.347L28.1836 115.872C28.2395 115.781 28.2955 115.704 28.3585 115.648C28.4564 115.557 28.5823 115.522 28.7222 115.529C28.8622 115.536 28.9811 115.592 29.072 115.69L29.9255 116.648C30.0584 116.802 30.1214 116.942 30.1074 117.075C30.0934 117.215 30.0654 117.32 30.0234 117.397L28.2745 120.811L33.7661 126.981L37.3619 125.638C37.4389 125.596 37.5438 125.575 37.6837 125.582C37.8236 125.589 37.9635 125.673 38.0964 125.82L38.95 126.778L38.936 126.785ZM31.6464 127.877L27.1272 122.798L22.7059 131.277L31.6464 127.877Z" fill="#F4F4F5"/>
<path d="M27.2318 112.619C27.3157 112.787 27.3297 112.941 27.2737 113.074C27.2177 113.214 27.1198 113.319 26.9659 113.396L12.198 120.636C12.0301 120.72 11.8762 120.734 11.7362 120.692C11.5963 120.65 11.4844 120.546 11.4005 120.378L10.8898 119.335C10.7988 119.153 10.7778 118.999 10.8128 118.867C10.8547 118.734 10.8897 118.65 10.9247 118.615L18.7739 105.456L7.46887 110.996C7.30098 111.08 7.14705 111.094 7.00713 111.052C6.86722 111.01 6.7553 110.905 6.67135 110.738L6.13967 109.653C6.05572 109.485 6.04168 109.331 6.09065 109.184C6.13962 109.038 6.25161 108.926 6.41251 108.842L21.1595 101.615C21.3064 101.538 21.4603 101.531 21.6142 101.573C21.7681 101.622 21.88 101.72 21.957 101.867L22.4887 102.951C22.5726 103.119 22.5866 103.266 22.5376 103.392C22.4886 103.518 22.4537 103.609 22.4397 103.651L14.6884 116.733L25.9026 111.234C26.0565 111.157 26.2034 111.15 26.3503 111.199C26.4972 111.248 26.6091 111.36 26.6931 111.521L27.2248 112.605L27.2318 112.619Z" fill="#F4F4F5"/>
<path d="M20.6573 98.537C20.6853 98.6699 20.6573 98.7958 20.5734 98.9147C20.4894 99.0337 20.3845 99.1036 20.2516 99.1246C20.1677 99.1386 20.0767 99.1456 19.9718 99.1526L2.81825 95.9625C2.64336 95.9276 2.48944 95.8576 2.37051 95.7597C2.25159 95.6617 2.16766 95.5008 2.12568 95.27L1.81783 93.584C1.77585 93.3531 1.7899 93.1713 1.87385 93.0383C1.9508 92.9054 2.06973 92.7865 2.22363 92.6955L17.1175 83.6221C17.2084 83.5731 17.2993 83.5382 17.3833 83.5242C17.5162 83.4962 17.6422 83.5242 17.7611 83.6081C17.88 83.6921 17.95 83.797 17.971 83.9299L18.2018 85.1961C18.2368 85.392 18.2158 85.5459 18.1319 85.6579C18.0479 85.7698 17.971 85.8467 17.8941 85.8957L14.627 87.9035L16.1241 96.0255L19.8948 96.7391C19.9788 96.7391 20.0837 96.781 20.2026 96.865C20.3215 96.9489 20.3984 97.0819 20.4334 97.2847L20.6643 98.551L20.6573 98.537ZM13.8575 95.6897L12.6263 89.0018L4.44822 93.9688L13.8575 95.6897Z" fill="#F4F4F5"/>
<path d="M18.1313 80.2364C18.1173 80.4183 18.0543 80.5582 17.9424 80.6561C17.8305 80.7471 17.6836 80.7891 17.5157 80.7821L1.07573 79.7537C0.907831 79.7397 0.774858 79.6837 0.669922 79.5788C0.564986 79.4739 0.523046 79.3269 0.530042 79.1451L0.613987 77.8159C0.627978 77.648 0.690954 77.5151 0.802885 77.4101C0.921812 77.3052 1.06172 77.2632 1.22961 77.2702L16.0605 78.2006L16.5852 69.8547C16.5992 69.6729 16.6621 69.526 16.7741 69.428C16.893 69.3231 17.0399 69.2811 17.2218 69.2951L18.2292 69.3581C18.3971 69.3651 18.53 69.428 18.635 69.5469C18.7399 69.6659 18.7819 69.8128 18.7679 69.9947L18.1243 80.2504L18.1313 80.2364Z" fill="#F4F4F5"/>
<path d="M20.2734 64.1743C20.2314 64.3352 20.1405 64.4541 20.0076 64.5311C19.8747 64.608 19.7277 64.622 19.5668 64.58L13.8304 63.02L2.32247 66.189C2.26651 66.189 2.21747 66.189 2.1615 66.196C2.10553 66.196 2.04957 66.196 1.98661 66.175C1.86068 66.1401 1.7558 66.0631 1.68584 65.9372C1.61588 65.8113 1.59493 65.6854 1.6299 65.5594L1.97269 64.2932C2.01466 64.1463 2.08458 64.0274 2.18951 63.9364C2.29445 63.8455 2.42039 63.7895 2.5603 63.7755L11.7247 61.1731L5.13468 54.2963C5.02974 54.1774 4.95282 54.0585 4.90385 53.9325C4.85488 53.8066 4.85488 53.6737 4.89685 53.5268L5.23263 52.2886C5.2746 52.1416 5.35163 52.0367 5.47755 51.9667C5.60347 51.8968 5.72934 51.8758 5.85526 51.9108C5.91822 51.9248 5.97417 51.9528 6.01615 51.9807C6.05812 52.0087 6.10013 52.0507 6.14211 52.0927L14.474 60.6204L20.2105 62.1805C20.3714 62.2225 20.4903 62.3134 20.5673 62.4463C20.6442 62.5792 20.6582 62.7332 20.6092 62.915L20.2664 64.1813L20.2734 64.1743Z" fill="#F4F4F5"/>
<path d="M26.4359 49.56C25.7223 50.8332 24.9248 51.7917 24.0433 52.4353C23.1618 53.0789 22.2804 53.4566 21.3989 53.5686C20.5174 53.6805 19.727 53.5616 19.0204 53.1978C18.9015 53.1348 18.8245 53.0229 18.7825 52.876C18.7405 52.7291 18.7546 52.5892 18.8315 52.4562L19.4612 51.3369C19.5591 51.162 19.678 51.0571 19.811 51.0151C19.9509 50.9802 20.0838 50.9732 20.2167 51.0151C20.6154 51.1271 21.0702 51.1341 21.5669 51.0501C22.0636 50.9662 22.5742 50.7283 23.0919 50.3365C23.6096 49.9448 24.0993 49.3362 24.561 48.5177C25.2675 47.2584 25.5614 46.2091 25.4495 45.3626C25.3375 44.5161 24.9038 43.8865 24.1553 43.4668C23.6446 43.1799 23.1409 43.103 22.6512 43.2429C22.1615 43.3828 21.6088 43.7046 21.0002 44.2083C20.3916 44.712 19.65 45.3976 18.7825 46.258C17.8731 47.1535 17.0406 47.8531 16.2781 48.3498C15.5155 48.8465 14.767 49.1193 14.0325 49.1543C13.2979 49.1892 12.5144 48.9794 11.6749 48.5107C10.8844 48.0699 10.2968 47.4613 9.91199 46.6848C9.52723 45.9083 9.38031 45.0198 9.46426 44.0054C9.54821 42.998 9.91201 41.9277 10.5416 40.8014C11.0523 39.8919 11.6189 39.1644 12.2415 38.6187C12.8642 38.0731 13.5078 37.6883 14.1654 37.4574C14.823 37.2266 15.4456 37.1286 16.0402 37.1496C16.6349 37.1776 17.1526 37.3035 17.6003 37.5344C17.7052 37.5903 17.7821 37.6813 17.8381 37.8072C17.8941 37.9331 17.8731 38.08 17.7822 38.2409L17.1315 39.4022C17.0756 39.5072 16.9846 39.5981 16.8657 39.6681C16.7468 39.745 16.5859 39.766 16.397 39.738C15.7464 39.4862 15.0538 39.5422 14.3122 39.8989C13.5777 40.2557 12.9411 40.8993 12.4164 41.8367C11.8848 42.7882 11.6329 43.6626 11.6679 44.4601C11.7029 45.2577 12.1016 45.8733 12.8782 46.314C13.3749 46.5938 13.8716 46.6848 14.3543 46.5938C14.837 46.5029 15.3757 46.2231 15.9633 45.7613C16.5509 45.2996 17.2505 44.663 18.069 43.8515C19.0484 42.8581 19.9298 42.0956 20.7063 41.5499C21.4829 41.0043 22.2384 40.7034 22.9799 40.6405C23.7215 40.5775 24.498 40.7874 25.3375 41.2561C26.2609 41.7738 26.9116 42.4594 27.2893 43.3058C27.6671 44.1523 27.786 45.1107 27.6391 46.1741C27.4922 47.2374 27.0865 48.3638 26.4219 49.553L26.4359 49.56Z" fill="#F4F4F5"/>
<path d="M32.2133 40.6056C32.0944 40.7455 31.9614 40.8225 31.8145 40.8295C31.6676 40.8365 31.5277 40.7875 31.3948 40.6826L18.7325 30.154C18.6066 30.0491 18.5296 29.9232 18.5086 29.7693C18.4876 29.6224 18.5367 29.4754 18.6556 29.3355L19.509 28.3072C19.628 28.1672 19.7609 28.0903 19.9078 28.0833C20.0547 28.0763 20.1947 28.1253 20.3206 28.2302L32.9828 38.7588C33.1087 38.8637 33.1856 38.9966 33.2066 39.1435C33.2276 39.2904 33.1787 39.4373 33.0597 39.5773L32.2063 40.6056H32.2133Z" fill="#F4F4F5"/>
<path d="M40.8652 32.2174C39.7459 33.1549 38.6546 33.7635 37.6052 34.0503C36.5558 34.3371 35.5974 34.3721 34.737 34.1692C33.8765 33.9594 33.1769 33.5606 32.6453 32.98C32.5613 32.875 32.5263 32.7491 32.5403 32.5952C32.5543 32.4413 32.6173 32.3154 32.7362 32.2174L33.7225 31.3919C33.8764 31.266 34.0234 31.203 34.1703 31.217C34.3172 31.231 34.4361 31.28 34.5481 31.357C34.8839 31.6018 35.3036 31.7767 35.8003 31.8746C36.297 31.9726 36.8566 31.9306 37.4862 31.7487C38.1089 31.5668 38.7805 31.1751 39.508 30.5734C40.6133 29.65 41.271 28.7755 41.4598 27.943C41.6557 27.1175 41.4738 26.369 40.9282 25.7114C40.5504 25.2567 40.1096 25.0118 39.599 24.9629C39.0883 24.9139 38.4587 25.0188 37.7101 25.2777C36.9616 25.5295 36.0242 25.9073 34.9119 26.404C33.7436 26.9217 32.7152 27.2715 31.8267 27.4673C30.9383 27.6632 30.1477 27.6492 29.4412 27.4184C28.7416 27.1945 28.084 26.7118 27.4684 25.9772C26.8878 25.2777 26.5589 24.5012 26.475 23.6407C26.391 22.7802 26.5729 21.8917 27.0137 20.9823C27.4544 20.0659 28.168 19.1984 29.1614 18.3659C29.9589 17.7013 30.7494 17.2256 31.526 16.9318C32.3025 16.645 33.037 16.512 33.7365 16.533C34.4291 16.554 35.0518 16.6799 35.5974 16.9178C36.1431 17.1487 36.5838 17.4565 36.9196 17.8342C36.9966 17.9252 37.0386 18.0371 37.0386 18.177C37.0386 18.3169 36.9756 18.4429 36.8357 18.5618L35.8073 19.4153C35.7164 19.4922 35.6045 19.5412 35.4645 19.5692C35.3246 19.5972 35.1707 19.5692 35.0028 19.4642C34.4851 19.0025 33.8135 18.7996 33.002 18.8696C32.1835 18.9396 31.365 19.3173 30.5395 20.0029C29.7001 20.7025 29.1544 21.43 28.9026 22.1856C28.6507 22.9411 28.8046 23.6617 29.3782 24.3472C29.742 24.788 30.1688 25.0468 30.6585 25.1308C31.1482 25.2147 31.7428 25.1518 32.4564 24.9279C33.1699 24.704 34.0514 24.3612 35.1078 23.8995C36.374 23.3259 37.4723 22.9201 38.3887 22.6823C39.3051 22.4444 40.1236 22.4374 40.8302 22.6473C41.5368 22.8572 42.2014 23.3259 42.81 24.0604C43.4886 24.8719 43.8524 25.7464 43.9083 26.6698C43.9643 27.6003 43.7335 28.5377 43.2158 29.4751C42.6981 30.4195 41.9216 31.322 40.8792 32.1964L40.8652 32.2174Z" fill="#F4F4F5"/>
</svg>
