<svg width="160" height="160" viewBox="0 0 160 160" fill="none" xmlns="http://www.w3.org/2000/svg">
<path d="M86.6052 21.0543C86.4501 21.027 86.3377 20.9636 86.268 20.8641C86.2008 20.7504 86.1797 20.6231 86.2045 20.4822L88.6396 6.67263C88.6669 6.51755 88.7304 6.40517 88.8299 6.33549C88.9319 6.25172 89.0604 6.22351 89.2155 6.25085L94.016 7.09734C95.4682 7.3534 96.5998 7.77827 97.411 8.37194C98.2221 8.96561 98.7563 9.7285 99.0135 10.6606C99.2732 11.5786 99.3007 12.6592 99.0961 13.9024C98.9983 14.5393 98.9071 15.0974 98.8226 15.5768C98.7381 16.0561 98.6341 16.6047 98.5106 17.2226C98.2537 18.5147 97.845 19.5547 97.2845 20.3426C96.7406 21.1189 95.9942 21.6415 95.0456 21.9103C94.1134 22.1675 92.9354 22.1706 91.5115 21.9195L86.6052 21.0543ZM88.5082 19.5364L91.7227 20.1033C92.6955 20.2748 93.4945 20.2776 94.1198 20.1116C94.7451 19.9457 95.2368 19.589 95.595 19.0416C95.9673 18.4967 96.2462 17.7391 96.4319 16.7688C96.5347 16.3508 96.6134 15.9867 96.6681 15.6766C96.7253 15.3523 96.7812 15.0351 96.8359 14.7249C96.8931 14.4007 96.9436 14.0316 96.9875 13.6178C97.2004 12.2452 97.0539 11.18 96.5479 10.4221C96.0445 9.65009 95.0596 9.13481 93.5933 8.87626L90.4846 8.32809L88.5082 19.5364Z" fill="#EEF0FB"/>
<path d="M104.97 26.3352C104.83 26.2625 104.742 26.1682 104.705 26.0524C104.675 25.9238 104.694 25.796 104.76 25.6691L111.235 13.2309C111.307 13.0912 111.402 13.0031 111.517 12.9666C111.64 12.9173 111.771 12.9291 111.911 13.0018L119.777 17.0969C119.917 17.1697 120.002 17.2703 120.032 17.3988C120.068 17.5147 120.05 17.6425 119.977 17.7821L119.601 18.506C119.528 18.6456 119.434 18.7337 119.318 18.7703C119.202 18.8068 119.074 18.7887 118.934 18.716L112.458 15.3447L110.287 19.5161L116.344 22.6693C116.484 22.742 116.568 22.8427 116.598 22.9712C116.635 23.0871 116.617 23.2148 116.544 23.3545L116.177 24.0593C116.111 24.1863 116.017 24.2744 115.894 24.3236C115.778 24.3601 115.651 24.342 115.511 24.2693L109.454 21.1162L107.203 25.44L113.832 28.8906C113.971 28.9633 114.059 29.0576 114.096 29.1735C114.132 29.2893 114.114 29.4171 114.042 29.5568L113.655 30.2996C113.589 30.4266 113.495 30.5147 113.372 30.564C113.256 30.6005 113.128 30.5824 112.989 30.5097L104.97 26.3352Z" fill="#EEF0FB"/>
<path d="M122.893 39.6367C122.012 38.756 121.41 37.8804 121.086 37.0098C120.762 36.1393 120.651 35.3294 120.752 34.5803C120.873 33.8312 121.162 33.2086 121.617 32.7126C121.698 32.6316 121.799 32.5911 121.921 32.5911C122.063 32.5911 122.179 32.6367 122.27 32.7278L123.045 33.5022C123.166 33.6237 123.227 33.7452 123.227 33.8666C123.227 33.9881 123.196 34.0995 123.136 34.2007C122.954 34.5044 122.837 34.8739 122.786 35.3092C122.746 35.7343 122.822 36.2051 123.014 36.7213C123.227 37.2376 123.617 37.7792 124.183 38.3461C125.054 39.2166 125.844 39.7025 126.552 39.8038C127.281 39.905 127.904 39.6975 128.42 39.1812C128.774 38.8269 128.946 38.4321 128.936 37.9968C128.946 37.5615 128.815 37.0351 128.541 36.4176C128.268 35.8001 127.878 35.0359 127.372 34.1248C126.846 33.1732 126.466 32.328 126.233 31.589C126.001 30.85 125.95 30.1718 126.082 29.5543C126.223 28.9469 126.583 28.3547 127.16 27.7777C127.706 27.231 128.339 26.8919 129.058 26.7603C129.787 26.6186 130.556 26.6996 131.366 27.0033C132.176 27.307 132.97 27.8486 133.75 28.628C134.377 29.2556 134.838 29.8883 135.131 30.5261C135.445 31.1638 135.617 31.7813 135.648 32.3786C135.688 32.9657 135.627 33.5022 135.466 33.9881C135.314 34.4639 135.091 34.8587 134.797 35.1725C134.727 35.2434 134.63 35.2889 134.509 35.3092C134.398 35.3193 134.286 35.2687 134.175 35.1573L133.37 34.3526C133.299 34.2817 133.244 34.1855 133.203 34.0641C133.173 33.9527 133.193 33.8211 133.264 33.6693C133.618 33.1935 133.734 32.6114 133.613 31.9231C133.492 31.2347 133.107 30.5666 132.459 29.9187C131.801 29.2607 131.138 28.8507 130.47 28.6888C129.812 28.5369 129.215 28.7292 128.678 29.2658C128.334 29.6099 128.142 29.9946 128.101 30.4198C128.071 30.8348 128.177 31.3359 128.42 31.923C128.663 32.5102 129.022 33.234 129.498 34.0944C130.085 35.127 130.51 36.0279 130.774 36.7973C131.047 37.5565 131.118 38.2448 130.986 38.8623C130.875 39.4799 130.531 40.0771 129.954 40.6541C129.316 41.2919 128.602 41.6715 127.813 41.7929C127.033 41.9043 126.218 41.7778 125.368 41.4133C124.538 41.0489 123.713 40.4567 122.893 39.6367Z" fill="#EEF0FB"/>
<path d="M132.374 52.6807C132.301 52.541 132.283 52.4132 132.32 52.2974C132.369 52.1749 132.457 52.0806 132.584 52.0145L145.041 45.5297C145.168 45.4636 145.29 45.4488 145.405 45.4853C145.534 45.5153 145.635 45.6001 145.707 45.7397L146.233 46.7493C146.306 46.889 146.317 47.02 146.268 47.1425C146.232 47.2584 146.15 47.3493 146.023 47.4154L133.566 53.9002C133.439 53.9663 133.311 53.9844 133.182 53.9545C133.066 53.918 132.972 53.8299 132.899 53.6902L132.374 52.6807Z" fill="#EEF0FB"/>
<path d="M138.19 71.0052C137.969 69.7504 138.014 68.6449 138.325 67.6888C138.638 66.7467 139.177 65.9685 139.941 65.3541C140.707 64.7538 141.657 64.3247 142.789 64.067C143.406 63.9435 144.061 63.8209 144.752 63.699C145.457 63.5747 146.127 63.4637 146.764 63.3659C147.916 63.221 148.948 63.3007 149.859 63.6052C150.787 63.9213 151.554 64.4766 152.159 65.2712C152.779 66.0633 153.198 67.0796 153.416 68.3203C153.59 69.3072 153.601 70.1921 153.448 70.9749C153.296 71.7578 153.042 72.4204 152.687 72.9627C152.348 73.5166 151.966 73.9474 151.541 74.255C151.118 74.5767 150.731 74.7757 150.381 74.8519C150.257 74.8884 150.145 74.8718 150.046 74.8021C149.96 74.73 149.905 74.6234 149.88 74.4824L149.66 73.2347C149.635 73.0937 149.645 72.983 149.689 72.9025C149.735 72.8362 149.824 72.7624 149.955 72.6812C150.299 72.4896 150.621 72.2148 150.922 71.8565C151.224 71.5124 151.445 71.0738 151.584 70.5405C151.739 70.0189 151.751 69.3845 151.619 68.6373C151.42 67.5094 150.956 66.6535 150.228 66.0696C149.503 65.4997 148.437 65.3097 147.032 65.4994C145.769 65.6783 144.515 65.8996 143.267 66.1631C141.867 66.4681 140.918 67.0207 140.42 67.8209C139.935 68.6187 139.791 69.5744 139.988 70.6882C140.119 71.4354 140.377 72.0732 140.761 72.6015C141.147 73.1439 141.652 73.5346 142.276 73.7735C142.914 74.01 143.677 74.0499 144.565 73.8933L145.453 73.7367L144.894 70.5645C144.869 70.4235 144.89 70.2962 144.957 70.1826C145.041 70.0806 145.16 70.0159 145.315 69.9886L145.992 69.8693C146.147 69.8419 146.275 69.8631 146.374 69.9328C146.49 70.014 146.561 70.1252 146.586 70.2662L147.428 75.0456C147.456 75.2007 147.427 75.3292 147.344 75.4312C147.274 75.5307 147.162 75.5941 147.006 75.6215L144.976 75.9795C143.82 76.1833 142.77 76.1214 141.825 75.7937C140.883 75.4801 140.093 74.9144 139.455 74.0966C138.83 73.2763 138.409 72.2458 138.19 71.0052Z" fill="#EEF0FB"/>
<path d="M139.048 84.4395C139.069 84.2834 139.127 84.1684 139.224 84.0944C139.334 84.0223 139.461 83.9957 139.602 84.0143L153.505 85.8446C153.661 85.8652 153.776 85.9237 153.85 86.02C153.938 86.1183 153.972 86.2455 153.952 86.4016L153.823 87.381C153.8 87.5513 153.741 87.6734 153.644 87.7474C153.562 87.8232 153.499 87.8654 153.455 87.874L141.666 93.5129L152.311 94.9143C152.467 94.9349 152.582 94.9934 152.656 95.0897C152.744 95.188 152.778 95.3152 152.758 95.4713L152.623 96.4932C152.602 96.6494 152.537 96.7635 152.426 96.8355C152.328 96.9237 152.201 96.9575 152.045 96.9369L138.163 95.1094C138.022 95.0907 137.907 95.0252 137.821 94.9127C137.733 94.8145 137.698 94.6944 137.717 94.5525L137.851 93.5305C137.872 93.3744 137.93 93.2594 138.027 93.1854C138.121 93.1257 138.185 93.0835 138.217 93.0588L149.896 87.4272L139.336 86.0369C139.194 86.0182 139.08 85.9527 138.994 85.8402C138.92 85.7439 138.893 85.6176 138.914 85.4615L139.048 84.4395Z" fill="#EEF0FB"/>
<path d="M136.873 108.044C137.048 107.668 137.302 107.36 137.635 107.121C137.975 106.9 138.352 106.768 138.768 106.725C139.177 106.694 139.569 106.767 139.946 106.942C140.335 107.124 140.643 107.378 140.87 107.705C141.09 108.045 141.219 108.413 141.255 108.809C141.298 109.224 141.232 109.619 141.057 109.996C140.875 110.385 140.615 110.69 140.275 110.911C139.948 111.137 139.584 111.275 139.181 111.325C138.779 111.374 138.384 111.308 137.994 111.127C137.618 110.951 137.313 110.69 137.08 110.345C136.846 109.999 136.704 109.625 136.655 109.223C136.619 108.826 136.691 108.434 136.873 108.044Z" fill="#EEF0FB"/>
<path d="M125.153 118.451C125.259 118.335 125.373 118.274 125.494 118.269C125.626 118.273 125.745 118.324 125.851 118.421L136.189 127.894C136.305 128.001 136.366 128.114 136.371 128.236C136.387 128.367 136.342 128.49 136.235 128.607L130.244 135.145C130.137 135.261 130.018 135.317 129.886 135.313C129.765 135.318 129.646 135.268 129.53 135.161L128.928 134.61C128.812 134.504 128.752 134.39 128.746 134.268C128.741 134.147 128.792 134.028 128.898 133.912L133.831 128.529L130.363 125.352L125.75 130.387C125.643 130.503 125.524 130.559 125.392 130.554C125.271 130.56 125.152 130.509 125.036 130.403L124.45 129.866C124.345 129.769 124.284 129.655 124.268 129.524C124.263 129.403 124.314 129.284 124.42 129.168L129.033 124.133L125.439 120.84L120.391 126.35C120.284 126.466 120.171 126.527 120.049 126.532C119.928 126.537 119.809 126.487 119.693 126.38L119.075 125.814C118.97 125.718 118.909 125.604 118.893 125.473C118.888 125.351 118.939 125.233 119.045 125.117L125.153 118.451Z" fill="#EEF0FB"/>
<path d="M113.038 129.471C113.137 129.414 113.252 129.397 113.382 129.422C113.499 129.453 113.586 129.518 113.643 129.617C113.672 129.667 113.691 129.714 113.7 129.758C113.704 129.822 113.707 129.87 113.709 129.902L112.918 138.368L120.311 141.811C120.391 141.864 120.457 141.934 120.507 142.02C120.564 142.12 120.577 142.228 120.545 142.345C120.514 142.463 120.449 142.55 120.349 142.607L119.234 143.251C119.11 143.323 118.993 143.349 118.882 143.33C118.779 143.323 118.668 143.288 118.549 143.225L112.592 140.466L112.021 146.994C112.029 147.122 112.01 147.232 111.964 147.324C111.913 147.436 111.832 147.525 111.72 147.589L110.66 148.201C110.561 148.258 110.453 148.271 110.336 148.24C110.218 148.208 110.131 148.143 110.074 148.044C110.024 147.957 110.002 147.862 110.009 147.759L110.657 139.648L102.959 136.108C102.92 136.098 102.88 136.071 102.839 136.029C102.805 135.999 102.774 135.959 102.746 135.909C102.688 135.81 102.675 135.702 102.707 135.585C102.738 135.467 102.81 135.376 102.921 135.312L104.056 134.657C104.167 134.593 104.284 134.566 104.407 134.578C104.517 134.597 104.628 134.632 104.74 134.683L110.98 137.503L111.64 130.7C111.652 130.577 111.677 130.463 111.716 130.359C111.754 130.254 111.829 130.169 111.941 130.104L113.038 129.471Z" fill="#EEF0FB"/>
<path d="M95.2968 137.509C95.4505 137.475 95.5786 137.491 95.6811 137.556C95.7866 137.635 95.8549 137.745 95.8859 137.884L98.9208 151.574C98.9549 151.728 98.9393 151.856 98.8741 151.959C98.8119 152.075 98.7039 152.15 98.5502 152.185L93.2251 153.365C92.1908 153.594 91.2591 153.625 90.43 153.457C89.5869 153.292 88.8814 152.92 88.3133 152.342C87.7484 151.778 87.3559 151 87.1359 150.008C86.9159 149.016 86.9428 148.145 87.2165 147.395C87.4901 146.645 87.9741 146.017 88.6685 145.511C89.3489 145.008 90.2062 144.642 91.2405 144.413L94.9513 143.59L93.7894 138.349C93.7584 138.209 93.781 138.08 93.8571 137.96C93.9224 137.858 94.0319 137.789 94.1856 137.755L95.2968 137.509ZM95.3627 145.347L91.7357 146.151C90.7014 146.38 89.9769 146.783 89.562 147.359C89.1471 147.934 89.0372 148.663 89.2324 149.543C89.4245 150.41 89.8249 151.025 90.4334 151.389C91.0419 151.752 91.8773 151.816 92.9395 151.581L96.5664 150.777L95.3627 145.347Z" fill="#EEF0FB"/>
<path d="M76.9818 139.508C77.1387 139.522 77.2562 139.576 77.3342 139.669C77.4111 139.776 77.4433 139.901 77.4308 140.043L76.2086 154.013C76.1949 154.17 76.1415 154.287 76.0484 154.365C75.9541 154.457 75.8285 154.497 75.6717 154.483L66.8366 153.71C66.6797 153.696 66.5629 153.636 66.486 153.529C66.408 153.435 66.3758 153.31 66.3895 153.154L66.4606 152.341C66.4743 152.184 66.5277 152.066 66.6208 151.988C66.7139 151.91 66.8388 151.878 66.9957 151.892L74.2691 152.528L74.679 147.843L67.8762 147.248C67.7193 147.234 67.6025 147.174 67.5256 147.066C67.4476 146.973 67.4154 146.848 67.4291 146.692L67.4984 145.9C67.5108 145.757 67.5642 145.64 67.6585 145.548C67.7516 145.469 67.8766 145.437 68.0334 145.451L74.8362 146.046L75.2611 141.19L67.8165 140.539C67.6596 140.525 67.5422 140.472 67.4641 140.379C67.386 140.286 67.3538 140.161 67.3675 140.004L67.4405 139.169C67.453 139.027 67.5064 138.909 67.6007 138.817C67.6938 138.739 67.8187 138.707 67.9756 138.72L76.9818 139.508Z" fill="#EEF0FB"/>
<path d="M59.5749 136.069C59.7204 136.13 59.8164 136.216 59.8628 136.328C59.9039 136.453 59.897 136.582 59.8422 136.715L54.4759 149.67C54.4157 149.815 54.3294 149.911 54.2172 149.958C54.0995 150.017 53.9679 150.017 53.8224 149.957L48.9816 147.952C47.487 147.333 46.4484 146.492 45.8659 145.429C45.2833 144.367 45.2769 143.148 45.8467 141.772C46.2685 140.754 46.8716 140.027 47.6558 139.593C48.4214 139.166 49.2927 139.008 50.2697 139.118L49.4004 132.575C49.3936 132.48 49.4039 132.399 49.4313 132.332C49.4751 132.227 49.5598 132.153 49.6852 132.112C49.7974 132.066 49.9065 132.064 50.0123 132.108L50.9646 132.503C51.1894 132.596 51.3301 132.724 51.3866 132.887C51.4431 133.05 51.4864 133.207 51.5164 133.359L52.3058 139.59L55.7777 141.028L57.8979 135.909C57.9527 135.777 58.0456 135.684 58.1765 135.629C58.2887 135.583 58.4176 135.59 58.5631 135.65L59.5749 136.069ZM55.0792 142.714L51.8057 141.358C50.8137 140.947 49.9881 140.846 49.3289 141.053C48.6642 141.273 48.1621 141.794 47.8224 142.614C47.4882 143.421 47.4781 144.137 47.7922 144.763C48.093 145.383 48.746 145.902 49.7512 146.318L53.0247 147.674L55.0792 142.714Z" fill="#EEF0FB"/>
<path d="M41.5833 125.656C41.7039 125.757 41.7695 125.868 41.7801 125.989C41.7815 126.121 41.7362 126.242 41.6442 126.352L32.6169 137.11C32.5248 137.22 32.4183 137.28 32.2973 137.291C32.1671 137.312 32.0417 137.272 31.921 137.171L31.0492 136.439C30.9285 136.338 30.8675 136.222 30.8662 136.09C30.8556 135.969 30.8963 135.853 30.9883 135.744L40.0156 124.985C40.1076 124.876 40.2187 124.81 40.349 124.788C40.47 124.778 40.5908 124.823 40.7114 124.924L41.5833 125.656Z" fill="#EEF0FB"/>
<path d="M32.0596 115.849C32.1365 115.97 32.1656 116.095 32.147 116.226C32.1087 116.352 32.0291 116.454 31.9084 116.531L20.0819 124.065C19.9491 124.15 19.8234 124.179 19.7048 124.153C19.5664 124.122 19.4588 124.046 19.3818 123.926L18.8049 123.02C18.7126 122.875 18.6796 122.743 18.7059 122.625C18.7322 122.506 18.7618 122.42 18.7947 122.365L23.6771 113.882L13.9026 114.686C13.8389 114.692 13.7516 114.688 13.6407 114.674C13.5221 114.648 13.4167 114.562 13.3244 114.417L12.759 113.53C12.6744 113.397 12.6513 113.268 12.6896 113.141C12.7082 113.011 12.7839 112.903 12.9168 112.818L24.7433 105.284C24.864 105.207 24.9936 105.184 25.1319 105.215C25.2505 105.241 25.3521 105.32 25.4367 105.453L26.0021 106.341C26.079 106.461 26.1082 106.587 26.0896 106.718C26.0512 106.844 25.9717 106.946 25.8509 107.023L16.9403 112.699L24.7713 111.963C24.9228 111.934 25.0656 111.945 25.1996 111.995C25.3215 112.053 25.4286 112.155 25.5209 112.3L25.8786 112.861C25.9786 113.018 26.0253 113.158 26.0188 113.281C26.0002 113.412 25.9497 113.546 25.8674 113.683L21.9016 120.487L30.8123 114.81C30.933 114.734 31.0626 114.71 31.2009 114.741C31.3195 114.767 31.4173 114.841 31.4942 114.962L32.0596 115.849Z" fill="#EEF0FB"/>
<path d="M22.9943 97.8734C23.035 98.0255 23.025 98.1541 22.9643 98.2593C22.8897 98.3683 22.7833 98.4412 22.645 98.4783L9.10025 102.108C8.94813 102.148 8.81948 102.138 8.71428 102.078C8.59525 102.021 8.51535 101.916 8.4746 101.764L6.17918 93.1973C6.13843 93.0452 6.15533 92.9147 6.2299 92.8058C6.29063 92.7006 6.39706 92.6276 6.54917 92.5868L7.33738 92.3756C7.48949 92.3349 7.61815 92.3449 7.72335 92.4056C7.82855 92.4664 7.90153 92.5728 7.94229 92.7249L9.83197 99.7773L14.3746 98.5601L12.6071 91.964C12.5664 91.8119 12.5833 91.6814 12.6579 91.5725C12.7186 91.4673 12.825 91.3943 12.9771 91.3536L13.7446 91.1479C13.8829 91.1109 14.0115 91.1209 14.1306 91.1779C14.2358 91.2386 14.3087 91.3451 14.3495 91.4972L16.1169 98.0933L20.8254 96.8316L18.8913 89.6133C18.8505 89.4612 18.8605 89.3325 18.9212 89.2273C18.982 89.1221 19.0884 89.0491 19.2405 89.0084L20.0495 88.7916C20.1878 88.7545 20.3164 88.7645 20.4354 88.8216C20.5406 88.8823 20.6136 88.9887 20.6544 89.1408L22.9943 97.8734Z" fill="#EEF0FB"/>
<path d="M20.2402 81.0251C20.2334 81.1824 20.1852 81.3021 20.0956 81.3841C19.9917 81.4656 19.8683 81.5032 19.7253 81.4969L5.71604 80.8853C5.55872 80.8784 5.43902 80.8302 5.35695 80.7406C5.26058 80.6505 5.21583 80.5267 5.2227 80.3694L5.26579 79.3825C5.27328 79.2109 5.32181 79.084 5.41137 79.002C5.48663 78.9193 5.54602 78.8717 5.58955 78.8593L16.8419 72.2144L6.11507 71.746C5.95774 71.7392 5.83805 71.691 5.75598 71.6014C5.65961 71.5112 5.61486 71.3875 5.62173 71.2301L5.66669 70.2004C5.67356 70.043 5.72892 69.9236 5.83279 69.8422C5.92297 69.7458 6.04673 69.7011 6.20405 69.7079L20.1918 70.3187C20.3349 70.3249 20.4542 70.3803 20.55 70.4848C20.6464 70.5749 20.6914 70.6916 20.6852 70.8346L20.6402 71.8644C20.6333 72.0217 20.5851 72.1414 20.4956 72.2234C20.4066 72.2912 20.3472 72.3388 20.3174 72.3661L9.17325 78.9943L19.8143 79.4589C19.9573 79.4651 20.0767 79.5205 20.1724 79.6249C20.2545 79.7145 20.2921 79.838 20.2852 79.9953L20.2402 81.0251Z" fill="#EEF0FB"/>
<path d="M24.3212 58.7197C24.2722 58.8542 24.1902 58.9539 24.0752 59.0187C23.9517 59.0651 23.8227 59.0638 23.6881 59.0149L11.8229 54.6963L10.4127 58.5707C10.3637 58.7052 10.2818 58.8049 10.1668 58.8696C10.0432 58.9161 9.91419 58.9148 9.77966 58.8659L8.93214 58.5574C8.78416 58.5035 8.6845 58.4216 8.63317 58.3115C8.57327 58.183 8.56781 58.0515 8.61677 57.917L12.1568 48.1907C12.2107 48.0427 12.2994 47.9455 12.4229 47.8991C12.5379 47.8343 12.6694 47.8288 12.8174 47.8827L13.6649 48.1911C13.7995 48.2401 13.8967 48.3288 13.9566 48.4573C14.0079 48.5674 14.0066 48.6964 13.9528 48.8444L12.55 52.6986L24.4152 57.0172C24.5498 57.0661 24.647 57.1548 24.7069 57.2833C24.7582 57.3934 24.757 57.5224 24.7031 57.6704L24.3212 58.7197Z" fill="#EEF0FB"/>
<path d="M29.9935 47.3971C29.9237 47.488 29.8287 47.5413 29.7082 47.5572C29.5878 47.5731 29.4821 47.5461 29.3913 47.4764C29.3345 47.4328 29.2764 47.3792 29.2169 47.3156L21.4363 34.6325C21.3576 34.4999 21.3147 34.3678 21.3076 34.236C21.3004 34.1042 21.3579 33.9588 21.4799 33.7998L22.3688 32.6413C22.4908 32.4823 22.6164 32.3892 22.7455 32.3619C22.8747 32.3347 23.0135 32.342 23.1619 32.3837L37.4135 36.6337C37.4991 36.6633 37.5702 36.6998 37.627 36.7434C37.7179 36.8131 37.7713 36.9082 37.7871 37.0286C37.803 37.1491 37.776 37.2547 37.7063 37.3456L37.0396 38.2145C36.935 38.3507 36.8225 38.4268 36.7021 38.4427C36.5904 38.4472 36.4974 38.439 36.4232 38.4181L33.285 37.4988L28.9972 43.0868L30.6974 45.8801C30.7454 45.9351 30.7774 46.0227 30.7933 46.1432C30.8091 46.2636 30.7647 46.392 30.6602 46.5283L29.9935 47.3971ZM27.9111 41.4685L31.4407 36.8686L23.628 34.5278L27.9111 41.4685Z" fill="#EEF0FB"/>
<path d="M44.217 32.5061C44.088 32.5964 43.9637 32.631 43.8441 32.6099C43.7162 32.5771 43.6112 32.5021 43.5291 32.3848L35.4738 20.8806C35.3917 20.7633 35.3612 20.6449 35.3823 20.5252C35.3952 20.3939 35.4661 20.283 35.5951 20.1927L36.5274 19.5399C36.6447 19.4578 36.7672 19.4331 36.8951 19.466C37.0264 19.4788 37.1332 19.5439 37.2153 19.6612L44.4823 30.0396L50.3224 25.9504C50.4514 25.8601 50.5798 25.8313 50.7076 25.8641C50.839 25.877 50.9498 25.948 51.0402 26.077L51.5328 26.7806C51.615 26.8978 51.6437 27.0263 51.6191 27.1658C51.598 27.2855 51.523 27.3904 51.394 27.4808L44.217 32.5061Z" fill="#EEF0FB"/>
<path d="M61.6804 19.1486C61.2844 19.2734 60.8857 19.2941 60.4841 19.2106C60.0918 19.1091 59.7395 18.9199 59.427 18.6432C59.1283 18.3621 58.9165 18.0236 58.7916 17.6277C58.6625 17.218 58.6418 16.8193 58.7297 16.4313C58.8311 16.0391 59.0156 15.6957 59.283 15.4012C59.5598 15.0888 59.8961 14.8702 60.2921 14.7453C60.7017 14.6162 61.1026 14.6024 61.4949 14.7038C61.8828 14.7917 62.2309 14.9671 62.539 15.2303C62.8471 15.4934 63.0657 15.8297 63.1949 16.2393C63.3197 16.6353 63.3335 17.0362 63.2364 17.4421C63.1392 17.848 62.959 18.205 62.6959 18.5132C62.4285 18.8076 62.09 19.0194 61.6804 19.1486Z" fill="#EEF0FB"/>
</svg>
