<svg width="160" height="160" viewBox="0 0 160 160" fill="none" xmlns="http://www.w3.org/2000/svg">
<path d="M86.841 21.0564C86.6859 21.029 86.5735 20.9655 86.5038 20.866C86.4366 20.7523 86.4154 20.625 86.4402 20.484L88.87 6.67357C88.8973 6.51848 88.9607 6.4061 89.0602 6.33646C89.1621 6.25271 89.2906 6.22454 89.4457 6.25194L90.4184 6.42385C90.5876 6.45374 90.707 6.51846 90.7767 6.61801C90.8489 6.70346 90.8883 6.76857 90.895 6.81336L96.0179 18.8402L97.8784 8.26556C97.9057 8.11046 97.9691 7.99809 98.0685 7.92844C98.1705 7.8447 98.299 7.81652 98.4541 7.84393L99.4691 8.02331C99.6242 8.05071 99.7353 8.12124 99.8025 8.23488C99.8863 8.33692 99.9146 8.46549 99.8873 8.62058L97.4612 22.4099C97.4364 22.5509 97.366 22.662 97.2499 22.7433C97.148 22.827 97.0265 22.8564 96.8855 22.8315L95.8705 22.6521C95.7154 22.6247 95.6031 22.5613 95.5334 22.4617C95.4778 22.3647 95.4383 22.2995 95.4151 22.2664L90.2947 10.349L88.4491 20.839C88.4243 20.98 88.3539 21.0912 88.2378 21.1724C88.1384 21.2421 88.0111 21.2632 87.856 21.2358L86.841 21.0564Z" fill="#EEF0FB"/>
<path d="M103.386 25.429C103.244 25.3618 103.152 25.271 103.111 25.1566C103.076 25.0293 103.089 24.9008 103.15 24.7712L109.113 12.0799C109.18 11.9374 109.271 11.8456 109.385 11.8045C109.505 11.7505 109.637 11.7571 109.779 11.8243L117.8 15.6098C117.942 15.677 118.031 15.7743 118.066 15.9016C118.107 16.016 118.094 16.1445 118.027 16.287L117.68 17.0256C117.613 17.1681 117.522 17.2599 117.408 17.301C117.294 17.342 117.166 17.329 117.023 17.2618L110.421 14.1454L108.421 18.4017L114.596 21.3165C114.738 21.3837 114.827 21.481 114.862 21.6083C114.903 21.7227 114.89 21.8512 114.823 21.9937L114.486 22.7128C114.425 22.8424 114.334 22.9342 114.214 22.9882C114.1 23.0293 113.971 23.0162 113.829 22.949L107.653 20.0343L105.58 24.4461L112.338 27.6358C112.481 27.703 112.573 27.7939 112.614 27.9083C112.655 28.0227 112.642 28.1511 112.575 28.2937L112.219 29.0516C112.158 29.1812 112.067 29.273 111.947 29.327C111.833 29.3681 111.705 29.3551 111.562 29.2878L103.386 25.429Z" fill="#EEF0FB"/>
<path d="M119.176 35.3138C119.067 35.2209 119.002 35.1091 118.982 34.9786C118.981 34.8465 119.027 34.7259 119.12 34.6168L127.299 24.9971L124.164 22.3195C124.055 22.2265 123.99 22.1148 123.97 21.9843C123.969 21.8521 124.015 21.7315 124.108 21.6225L124.692 20.9353C124.794 20.8154 124.906 20.7506 125.027 20.7409C125.168 20.7296 125.293 20.7705 125.402 20.8634L133.273 27.5853C133.392 27.6875 133.452 27.8047 133.453 27.9368C133.473 28.0674 133.433 28.1926 133.331 28.3126L132.746 28.9997C132.654 29.1088 132.537 29.1689 132.396 29.1802C132.275 29.1899 132.154 29.1436 132.035 29.0413L128.916 26.3777L120.737 35.9974C120.644 36.1065 120.527 36.1667 120.386 36.1779C120.265 36.1876 120.145 36.1413 120.025 36.039L119.176 35.3138Z" fill="#EEF0FB"/>
<path d="M127.507 44.0428C127.402 43.889 127.358 43.7365 127.376 43.5853C127.403 43.4459 127.481 43.3058 127.61 43.1652L137.424 33.0862C137.463 33.042 137.5 33.0077 137.536 32.9835C137.571 32.9592 137.595 32.943 137.606 32.9349C137.701 32.8702 137.808 32.8491 137.927 32.8715C138.046 32.8939 138.138 32.9525 138.203 33.0471L138.832 33.9697C139.001 34.2181 138.998 34.4288 138.821 34.6018L130.913 42.6728L138.491 40.2934C138.622 40.2561 138.757 40.2505 138.896 40.2767C139.055 40.3066 139.191 40.4043 139.304 40.5699L139.751 41.2264C139.872 41.4038 139.914 41.5663 139.876 41.7138C139.849 41.8532 139.791 41.9711 139.701 42.0676L134.748 48.2971L145.112 43.8277C145.337 43.7256 145.538 43.8047 145.715 44.0649L146.344 44.9875C146.409 45.0822 146.43 45.1892 146.407 45.3087C146.385 45.4282 146.327 45.5203 146.232 45.5851C146.22 45.5931 146.193 45.6034 146.149 45.6159C146.114 45.6401 146.072 45.6684 146.025 45.7008L133.09 51.2023C132.912 51.272 132.75 51.2879 132.603 51.2499C132.464 51.2237 132.342 51.1337 132.237 50.98L131.765 50.288C131.652 50.1224 131.605 49.964 131.623 49.8127C131.641 49.6615 131.703 49.5236 131.809 49.3992L137.059 42.5759L128.82 45.0169C128.658 45.0585 128.504 45.0604 128.356 45.0224C128.217 44.9962 128.091 44.9003 127.978 44.7347L127.507 44.0428Z" fill="#EEF0FB"/>
<path d="M136.533 61.8191C136.131 60.6557 135.982 59.5931 136.089 58.6316C136.209 57.6653 136.604 56.8155 137.275 56.0823C137.958 55.3444 138.92 54.7298 140.159 54.2385C140.749 54.0181 141.315 53.8139 141.855 53.6259C142.41 53.4332 142.987 53.2401 143.587 53.0468C144.849 52.6685 145.973 52.5659 146.957 52.7391C147.959 52.9211 148.806 53.3543 149.497 54.0385C150.207 54.7315 150.753 55.6327 151.137 56.7421C151.517 57.8379 151.639 58.8713 151.506 59.8423C151.39 60.8221 150.996 61.6945 150.321 62.4594C149.66 63.2197 148.715 63.8364 147.485 64.3094C146.899 64.5433 146.329 64.7567 145.775 64.9494C145.234 65.1374 144.661 65.3214 144.057 65.5011C142.785 65.8977 141.65 66.0118 140.653 65.8433C139.674 65.6836 138.838 65.2616 138.147 64.5774C137.469 63.8885 136.931 62.9691 136.533 61.8191ZM138.257 61.2197C138.613 62.2479 139.215 62.9786 140.061 63.4117C140.913 63.8584 142.044 63.8667 143.456 63.4366C144.074 63.2521 144.619 63.0776 145.092 62.913C145.579 62.7438 146.115 62.5422 146.701 62.3083C147.625 61.9569 148.321 61.5178 148.79 60.991C149.264 60.4777 149.545 59.9102 149.633 59.2886C149.72 58.6669 149.647 58.0179 149.413 57.3415C149.179 56.665 148.835 56.11 148.382 55.6764C147.929 55.2428 147.356 54.9647 146.662 54.8422C145.973 54.7332 145.155 54.8206 144.208 55.1043C143.608 55.2976 143.065 55.4789 142.578 55.6482C142.105 55.8127 141.566 56.0075 140.962 56.2326C139.588 56.7709 138.705 57.4796 138.312 58.3588C137.92 59.2379 137.901 60.1916 138.257 61.2197Z" fill="#EEF0FB"/>
<path d="M139.35 73.3587C139.34 73.2016 139.374 73.0772 139.454 72.9857C139.548 72.8931 139.667 72.8419 139.809 72.8322L153.799 71.8731C153.956 71.8623 154.081 71.8969 154.172 71.9767C154.278 72.0555 154.336 72.1735 154.347 72.3306L154.704 77.5581C154.814 79.1721 154.523 80.4763 153.83 81.4709C153.137 82.4655 152.048 83.0137 150.563 83.1155C149.463 83.1909 148.544 82.9741 147.807 82.465C147.084 81.9692 146.555 81.2593 146.219 80.3353L140.745 84.0253C140.663 84.074 140.586 84.1008 140.514 84.1057C140.4 84.1135 140.297 84.0704 140.204 83.9763C140.113 83.8965 140.063 83.7994 140.055 83.6852L139.985 82.6568C139.968 82.414 140.02 82.2311 140.141 82.108C140.262 81.9849 140.384 81.8761 140.506 81.7816L145.736 78.3021L145.48 74.5528L139.953 74.9317C139.81 74.9415 139.685 74.8999 139.578 74.8067C139.487 74.7269 139.436 74.6084 139.425 74.4513L139.35 73.3587ZM147.301 74.428L147.542 77.963C147.615 79.0342 147.891 79.8188 148.37 80.317C148.863 80.8141 149.553 81.0323 150.438 80.9716C151.309 80.9119 151.955 80.6021 152.376 80.0423C152.798 79.4968 152.972 78.6813 152.898 77.5958L152.657 74.0608L147.301 74.428Z" fill="#EEF0FB"/>
<path d="M139.107 89.1102C139.138 88.9558 139.204 88.8449 139.305 88.7776C139.42 88.713 139.548 88.6948 139.688 88.7229L153.438 91.4775C153.592 91.5084 153.703 91.5745 153.77 91.6756C153.852 91.7795 153.877 91.9087 153.846 92.0631L153.636 93.1161C153.605 93.2705 153.533 93.38 153.417 93.4446C153.314 93.526 153.185 93.5512 153.03 93.5203L147.808 92.4741L152.077 99.1768C152.122 99.2442 152.174 99.3496 152.233 99.4928C152.289 99.6501 152.295 99.841 152.25 100.066L152.023 101.203C152.001 101.315 151.939 101.405 151.838 101.472C151.737 101.54 151.631 101.562 151.518 101.54C151.406 101.517 151.32 101.471 151.261 101.401L146.2 93.6193L137.849 99.1515C137.751 99.2049 137.646 99.2203 137.533 99.1978C137.421 99.1753 137.331 99.1135 137.264 99.0124C137.196 98.9112 137.174 98.8045 137.196 98.6922L137.431 97.5129C137.479 97.2742 137.557 97.1001 137.667 96.9907C137.79 96.884 137.886 96.8082 137.953 96.7633L145.071 91.9257L139.281 90.7657C139.14 90.7375 139.031 90.6645 138.952 90.5465C138.885 90.4454 138.867 90.3176 138.897 90.1632L139.107 89.1102Z" fill="#EEF0FB"/>
<path d="M133.335 107.066C133.405 106.925 133.498 106.835 133.613 106.797C133.741 106.765 133.869 106.781 133.997 106.845L146.558 113.127C146.686 113.191 146.769 113.281 146.807 113.396C146.859 113.518 146.849 113.649 146.779 113.79L146.272 114.809C146.202 114.95 146.103 115.036 145.975 115.068C145.86 115.107 145.738 115.094 145.61 115.03L133.049 108.748C132.921 108.684 132.832 108.591 132.78 108.469C132.742 108.354 132.758 108.226 132.828 108.085L133.335 107.066Z" fill="#EEF0FB"/>
<path d="M127.265 116.927C127.369 116.809 127.482 116.747 127.603 116.74C127.735 116.742 127.854 116.791 127.961 116.887L138.414 126.234C138.532 126.339 138.594 126.452 138.601 126.573C138.618 126.704 138.575 126.829 138.47 126.946L137.813 127.684C137.699 127.812 137.581 127.88 137.46 127.887C137.35 127.903 137.274 127.903 137.232 127.885L124.328 125.91L132.332 133.067C132.449 133.172 132.511 133.285 132.518 133.406C132.536 133.537 132.492 133.661 132.387 133.779L131.702 134.549C131.597 134.667 131.479 134.724 131.347 134.721C131.217 134.739 131.093 134.695 130.975 134.59L120.538 125.258C120.431 125.162 120.374 125.044 120.366 124.902C120.348 124.771 120.387 124.652 120.482 124.545L121.168 123.775C121.272 123.658 121.385 123.595 121.506 123.589C121.618 123.592 121.694 123.593 121.734 123.591L134.545 125.51L126.605 118.411C126.498 118.315 126.441 118.197 126.432 118.055C126.426 117.934 126.474 117.814 126.579 117.696L127.265 116.927Z" fill="#EEF0FB"/>
<path d="M111.45 130.713C112.517 130.017 113.551 129.625 114.552 129.537C115.541 129.456 116.467 129.647 117.33 130.109C118.182 130.58 118.947 131.286 119.626 132.227C119.981 132.748 120.35 133.302 120.731 133.89C121.121 134.491 121.485 135.065 121.824 135.613C122.407 136.617 122.737 137.599 122.813 138.557C122.885 139.536 122.674 140.46 122.18 141.329C121.694 142.21 120.923 142.994 119.867 143.682C119.028 144.229 118.218 144.586 117.439 144.753C116.659 144.919 115.951 144.945 115.314 144.831C114.672 144.736 114.127 144.554 113.678 144.282C113.217 144.019 112.883 143.741 112.676 143.449C112.594 143.349 112.565 143.239 112.59 143.12C112.623 143.013 112.7 142.92 112.82 142.842L113.881 142.15C114.001 142.072 114.106 142.038 114.198 142.047C114.277 142.063 114.379 142.116 114.505 142.205C114.816 142.447 115.194 142.636 115.641 142.772C116.076 142.916 116.565 142.947 117.11 142.865C117.65 142.804 118.238 142.565 118.874 142.151C119.833 141.526 120.439 140.763 120.691 139.864C120.932 138.972 120.69 137.916 119.967 136.696C119.309 135.604 118.615 134.535 117.886 133.49C117.058 132.32 116.179 131.663 115.249 131.518C114.326 131.384 113.391 131.626 112.444 132.244C111.808 132.658 111.322 133.146 110.986 133.707C110.639 134.275 110.477 134.894 110.501 135.562C110.532 136.242 110.794 136.96 111.285 137.716L111.776 138.473L114.474 136.714C114.594 136.636 114.719 136.605 114.85 136.622C114.977 136.66 115.083 136.744 115.168 136.876L115.543 137.453C115.628 137.585 115.659 137.71 115.633 137.829C115.604 137.968 115.529 138.077 115.409 138.155L111.344 140.805C111.212 140.891 111.083 140.916 110.956 140.878C110.838 140.853 110.735 140.775 110.65 140.643L109.527 138.913C108.888 137.929 108.535 136.937 108.467 135.939C108.387 134.948 108.599 133.999 109.101 133.09C109.612 132.193 110.394 131.401 111.45 130.713Z" fill="#EEF0FB"/>
<path d="M98.8032 141.241C99.1983 141.114 99.5968 141.091 99.9987 141.172C100.391 141.271 100.745 141.458 101.058 141.733C101.358 142.012 101.572 142.349 101.699 142.745C101.83 143.154 101.853 143.552 101.767 143.941C101.667 144.334 101.485 144.679 101.219 144.975C100.944 145.289 100.609 145.51 100.214 145.637C99.8049 145.769 99.4042 145.786 99.0116 145.686C98.6233 145.601 98.2745 145.428 97.9652 145.166C97.6558 144.905 97.4355 144.57 97.3043 144.161C97.1775 143.766 97.1616 143.365 97.2566 142.958C97.3517 142.551 97.5299 142.193 97.7913 141.883C98.0571 141.587 98.3944 141.373 98.8032 141.241Z" fill="#EEF0FB"/>
<path d="M81.7512 139.541C83.0669 139.481 84.172 139.674 85.0665 140.12C85.9466 140.567 86.6282 141.217 87.1112 142.069C87.5942 142.921 87.8835 143.925 87.9791 145.082C88.02 145.668 88.0558 146.296 88.0863 146.969C88.1169 147.641 88.139 148.285 88.1527 148.9C88.1624 150.061 87.9655 151.087 87.5618 151.98C87.1581 152.872 86.5383 153.581 85.7023 154.107C84.8521 154.633 83.7691 154.926 82.4534 154.986C81.4666 155.031 80.5952 154.935 79.8392 154.697C79.0832 154.459 78.4517 154.123 77.9446 153.687C77.4233 153.252 77.0209 152.755 76.7374 152.195C76.4547 151.649 76.2853 151.076 76.2294 150.477C76.2093 150.349 76.2473 150.239 76.3435 150.149C76.4254 150.059 76.5307 150.011 76.6594 150.006L77.8393 149.952C77.968 149.946 78.084 149.976 78.1874 150.043C78.2764 150.111 78.3466 150.237 78.398 150.421C78.6918 151.525 79.1842 152.269 79.8753 152.653C80.552 153.038 81.3837 153.208 82.3705 153.163C83.5289 153.11 84.4292 152.739 85.0714 152.05C85.7143 151.376 86.0247 150.323 86.0026 148.891C85.9922 147.716 85.9376 146.515 85.8388 145.287C85.7308 143.859 85.3259 142.831 84.6238 142.204C83.9224 141.591 82.9925 141.311 81.8341 141.364C80.8473 141.409 80.0344 141.654 79.3954 142.099C78.7421 142.544 78.3193 143.33 78.1269 144.457C78.0924 144.645 78.0339 144.776 77.9514 144.852C77.8545 144.928 77.7417 144.969 77.613 144.975L76.4332 145.029C76.3044 145.035 76.1952 144.997 76.1055 144.915C76.0022 144.848 75.9547 144.75 75.9632 144.62C75.9645 144.018 76.0808 143.425 76.3122 142.842C76.5436 142.258 76.8992 141.726 77.3789 141.245C77.8444 140.765 78.4427 140.372 79.1741 140.067C79.9054 139.761 80.7644 139.586 81.7512 139.541Z" fill="#EEF0FB"/>
<path d="M66.5304 137.893C67.7318 138.163 68.7133 138.595 69.475 139.192C70.2336 139.802 70.7483 140.585 71.019 141.54C71.2867 142.51 71.3034 143.651 71.0693 144.963C70.946 145.581 70.822 146.169 70.6973 146.728C70.5695 147.301 70.4299 147.893 70.2788 148.505C69.936 149.778 69.432 150.787 68.7668 151.533C68.0845 152.289 67.2706 152.782 66.3249 153.01C65.3621 153.249 64.308 153.24 63.1625 152.983C62.031 152.73 61.0875 152.291 60.332 151.666C59.5595 151.053 59.0254 150.259 58.7299 149.283C58.4312 148.321 58.4043 147.192 58.6493 145.898C58.7586 145.276 58.8771 144.68 59.005 144.107C59.1297 143.548 59.2747 142.964 59.4398 142.356C59.7717 141.066 60.2719 140.041 60.9402 139.281C61.5914 138.532 62.3898 138.043 63.3355 137.815C64.2781 137.601 65.343 137.627 66.5304 137.893ZM66.1328 139.675C65.0712 139.437 64.1333 139.564 63.3194 140.056C62.4914 140.546 61.8889 141.503 61.5118 142.93C61.3436 143.553 61.2049 144.108 61.0957 144.597C60.9834 145.1 60.8727 145.662 60.7634 146.283C60.5762 147.254 60.5831 148.077 60.7843 148.753C60.9715 149.426 61.3063 149.963 61.7888 150.365C62.2712 150.766 62.8616 151.045 63.5601 151.202C64.2586 151.358 64.9114 151.358 65.5186 151.201C66.1257 151.043 66.664 150.702 67.1334 150.176C67.5887 149.647 67.945 148.906 68.2021 147.951C68.3532 147.339 68.485 146.782 68.5972 146.279C68.7064 145.79 68.8241 145.23 68.9505 144.598C69.2158 143.146 69.078 142.022 68.5369 141.226C67.9959 140.43 67.1945 139.913 66.1328 139.675Z" fill="#EEF0FB"/>
<path d="M56.1827 134.708C56.3219 134.782 56.4095 134.877 56.4454 134.993C56.4746 135.122 56.4559 135.249 56.3891 135.376L49.8549 147.783C49.7816 147.922 49.6869 148.01 49.5709 148.046C49.4483 148.094 49.3174 148.082 49.1782 148.008L48.305 147.546C48.1532 147.466 48.0593 147.368 48.0234 147.252C47.9808 147.148 47.9632 147.074 47.9706 147.029L46.7719 134.005L41.7687 143.506C41.6953 143.645 41.6006 143.732 41.4847 143.768C41.3621 143.817 41.2312 143.804 41.092 143.731L40.1808 143.249C40.0416 143.175 39.9574 143.074 39.9282 142.945C39.8796 142.822 39.892 142.691 39.9654 142.552L46.4896 130.164C46.5563 130.037 46.6573 129.953 46.7926 129.911C46.9152 129.862 47.0398 129.872 47.1664 129.938L48.0775 130.42C48.2167 130.494 48.3042 130.589 48.3401 130.705C48.3634 130.815 48.381 130.889 48.393 130.927L49.6227 143.846L54.5859 134.422C54.6526 134.295 54.7536 134.211 54.8889 134.169C55.0048 134.134 55.1324 134.152 55.2716 134.226L56.1827 134.708Z" fill="#EEF0FB"/>
<path d="M42.7931 126.422C42.908 126.53 42.9676 126.644 42.9717 126.766C42.9661 126.898 42.9145 127.016 42.8169 127.121L33.2572 137.38C33.1498 137.495 33.0355 137.555 32.9142 137.559C32.7832 137.574 32.6602 137.527 32.5452 137.419L31.8241 136.744C31.6986 136.627 31.6338 136.508 31.6297 136.386C31.6158 136.275 31.6182 136.199 31.6371 136.158L33.8983 123.273L26.5784 131.129C26.4711 131.244 26.3568 131.303 26.2355 131.308C26.1045 131.322 25.9815 131.276 25.8665 131.168L25.1139 130.464C24.999 130.356 24.9443 130.236 24.9499 130.104C24.9353 129.973 24.9817 129.85 25.089 129.735L34.6342 119.491C34.7317 119.387 34.8513 119.332 34.9928 119.327C35.1238 119.312 35.2416 119.354 35.3461 119.452L36.0986 120.156C36.2136 120.264 36.2732 120.378 36.2773 120.5C36.271 120.612 36.2686 120.688 36.2699 120.728L34.0662 133.519L41.3275 125.727C41.4251 125.622 41.5447 125.568 41.6862 125.563C41.8074 125.559 41.9256 125.61 42.0405 125.718L42.7931 126.422Z" fill="#EEF0FB"/>
<path d="M31.3068 113.715C31.3895 113.849 31.4169 113.976 31.389 114.094C31.3489 114.22 31.2681 114.32 31.1464 114.396L19.2282 121.784C19.0944 121.867 18.9684 121.895 18.8503 121.867C18.72 121.847 18.6135 121.77 18.5308 121.636L13.8728 114.088C13.7901 113.954 13.7688 113.825 13.8088 113.699C13.8367 113.58 13.9176 113.48 14.0514 113.397L14.745 112.967C14.8788 112.884 15.0048 112.856 15.1229 112.884C15.241 112.912 15.3415 112.993 15.4242 113.127L19.2588 119.34L23.2559 116.862L19.6694 111.051C19.5866 110.917 19.5653 110.787 19.6054 110.661C19.6333 110.543 19.7141 110.442 19.848 110.359L20.5233 109.94C20.645 109.865 20.7709 109.837 20.9012 109.858C21.0193 109.885 21.1198 109.966 21.2025 110.1L24.789 115.912L28.9321 113.343L25.0072 106.984C24.9245 106.85 24.8971 106.724 24.925 106.605C24.9529 106.487 25.0337 106.386 25.1676 106.303L25.8794 105.862C26.0011 105.787 26.127 105.759 26.2573 105.779C26.3754 105.807 26.4759 105.888 26.5586 106.022L31.3068 113.715Z" fill="#EEF0FB"/>
<path d="M23.3907 95.8562C23.7645 97.1192 23.842 98.2387 23.6233 99.2147C23.4005 100.177 22.9336 100.995 22.2224 101.67C21.5113 102.344 20.6061 102.867 19.5067 103.239C18.9482 103.42 18.3464 103.606 17.7015 103.798C17.0565 103.99 16.437 104.166 15.8428 104.328C14.7191 104.617 13.6758 104.674 12.7127 104.497C11.7497 104.32 10.913 103.889 10.2027 103.205C9.4883 102.506 8.94421 101.525 8.57042 100.262C8.29008 99.3149 8.17464 98.4457 8.2241 97.6543C8.27355 96.863 8.44877 96.1687 8.74976 95.5714C9.04668 94.9604 9.43302 94.4498 9.90879 94.0395C10.3708 93.6333 10.886 93.3308 11.4542 93.132C11.5736 93.0816 11.6887 93.0921 11.7995 93.1638C11.9062 93.2216 11.9779 93.3124 12.0144 93.4359L12.3496 94.5684C12.3862 94.692 12.3844 94.812 12.3442 94.9285C12.3 95.0312 12.1947 95.1297 12.0285 95.2239C11.0273 95.7755 10.4231 96.433 10.2161 97.1965C10.0051 97.9463 10.0397 98.7948 10.32 99.742C10.6491 100.854 11.2248 101.639 12.047 102.096C12.8554 102.558 13.9519 102.605 15.3363 102.238C16.4738 101.945 17.6265 101.602 18.7944 101.21C20.1545 100.761 21.0546 100.12 21.4949 99.2874C21.9215 98.4586 21.9702 97.4883 21.6411 96.3764C21.3608 95.4292 20.9282 94.699 20.3433 94.1859C19.7544 93.659 18.8903 93.438 17.7508 93.5228C17.5602 93.5346 17.4185 93.5096 17.3255 93.4476C17.2284 93.3719 17.1616 93.2723 17.125 93.1488L16.7899 92.0162C16.7533 91.8927 16.764 91.7775 16.8219 91.6707C16.8621 91.5542 16.946 91.4844 17.0735 91.4614C17.658 91.3176 18.2613 91.2876 18.8833 91.3715C19.5053 91.4554 20.107 91.6723 20.6883 92.0222C21.2656 92.3584 21.7902 92.8447 22.2622 93.481C22.7342 94.1173 23.1104 94.9091 23.3907 95.8562Z" fill="#EEF0FB"/>
<path d="M21.1263 81.2509C21.1295 81.394 21.0894 81.5167 21.0058 81.6188C20.9075 81.707 20.7869 81.7527 20.6437 81.7559L8.02026 82.044L8.1139 86.166C8.11715 86.3091 8.07698 86.4317 7.99338 86.5339C7.89514 86.622 7.77447 86.6677 7.63134 86.671L6.72966 86.6916C6.57223 86.6952 6.4496 86.655 6.36178 86.5711C6.25931 86.4732 6.20646 86.3527 6.2032 86.2096L5.96812 75.8617C5.96454 75.7043 6.01187 75.5815 6.1101 75.4933C6.1937 75.3912 6.31422 75.3383 6.47165 75.3347L7.37333 75.3141C7.51645 75.3109 7.63925 75.3582 7.74171 75.4561C7.82953 75.54 7.87524 75.6607 7.87881 75.8181L7.97197 79.9186L20.5954 79.6306C20.7386 79.6273 20.8614 79.6746 20.9638 79.7725C21.0516 79.8564 21.0973 79.9771 21.1009 80.1345L21.1263 81.2509Z" fill="#EEF0FB"/>
<path d="M22.9111 65.7538C22.8733 65.9067 22.8025 66.0145 22.6985 66.0772C22.5806 66.1364 22.4522 66.1488 22.3133 66.1143L8.68299 62.7303C8.54405 62.6958 8.4432 62.6265 8.38044 62.5225C8.30379 62.4149 8.28436 62.2847 8.32215 62.1318L8.59524 61.027C8.63302 60.8741 8.71085 60.768 8.82872 60.7088C8.9327 60.6461 9.05416 60.632 9.1931 60.6665L22.8234 64.0504C22.9623 64.0849 23.0701 64.156 23.1468 64.2635C23.2095 64.3676 23.222 64.4961 23.1842 64.6489L22.9111 65.7538Z" fill="#EEF0FB"/>
<path d="M29.2703 50.613C28.672 51.689 27.9794 52.5074 27.1925 53.0682C26.3932 53.6219 25.4975 53.8924 24.5055 53.8794C23.501 53.8595 22.4036 53.55 21.2134 52.9508C20.6565 52.6562 20.1281 52.3692 19.6281 52.09C19.1157 51.8038 18.588 51.5008 18.045 51.1812C16.923 50.4889 16.099 49.7171 15.5731 48.8659C15.0417 47.9951 14.8007 47.0735 14.8501 46.1008C14.894 45.1087 15.2012 44.0996 15.7717 43.0736C16.3352 42.0602 17.0229 41.28 17.8348 40.7332C18.6411 40.1669 19.5535 39.8812 20.5719 39.8761C21.5778 39.864 22.6661 40.1603 23.8369 40.765C24.4008 41.0472 24.9389 41.3313 25.4513 41.6176C25.9513 41.8968 26.4693 42.2025 27.0053 42.5347C28.1468 43.2214 28.9868 43.9939 29.5251 44.8521C30.058 45.6909 30.2997 46.5965 30.2502 47.5692C30.1883 48.5349 29.8617 49.5494 29.2703 50.613ZM27.6767 49.7229C28.2055 48.772 28.3493 47.8357 28.1083 46.914C27.8743 45.9798 27.1275 45.1282 25.868 44.3591C25.3195 44.0199 24.8265 43.7282 24.389 43.4839C23.9391 43.2326 23.4322 42.9658 22.8683 42.6837C21.992 42.227 21.2016 41.9988 20.4972 41.9989C19.7997 41.9865 19.1903 42.1544 18.669 42.5028C18.1477 42.8511 17.7132 43.3381 17.3653 43.9637C17.0174 44.5893 16.8328 45.2159 16.8115 45.8435C16.7901 46.471 16.9647 47.0851 17.3351 47.6855C17.7126 48.2735 18.322 48.827 19.1636 49.3463C19.7066 49.6659 20.203 49.9514 20.653 50.2027C21.0904 50.4471 21.5939 50.72 22.1633 51.0217C23.4785 51.6906 24.594 51.8792 25.5098 51.5872C26.4257 51.2952 27.148 50.6738 27.6767 49.7229Z" fill="#EEF0FB"/>
<path d="M35.2445 41.5624C35.1346 41.6752 35.0189 41.7322 34.8976 41.7336C34.766 41.725 34.6491 41.6706 34.5469 41.5704L24.5301 31.7573C24.4176 31.6471 24.3607 31.5312 24.3593 31.4096C24.3477 31.278 24.3968 31.1558 24.5068 31.043L25.1965 30.3359C25.3165 30.2129 25.4371 30.1507 25.5584 30.1493C25.6695 30.1379 25.7454 30.1421 25.7861 30.1619L38.5872 32.7223L30.9174 25.2084C30.8049 25.0982 30.7479 24.9823 30.7466 24.8607C30.735 24.7291 30.7841 24.6069 30.8941 24.4942L31.6138 23.7563C31.7237 23.6435 31.8445 23.5915 31.976 23.6001C32.1074 23.5885 32.2293 23.6378 32.3418 23.748L42.3432 33.546C42.4455 33.6462 42.4974 33.7673 42.499 33.9091C42.5106 34.0407 42.4665 34.1578 42.3665 34.2603L41.6468 34.9982C41.5369 35.1109 41.4212 35.168 41.2999 35.1694C41.1885 35.1605 41.1126 35.1563 41.0722 35.1568L28.3628 32.6562L35.9713 40.1099C36.0735 40.2101 36.1255 40.3312 36.1271 40.473C36.1285 40.5946 36.0742 40.7118 35.9642 40.8245L35.2445 41.5624Z" fill="#EEF0FB"/>
<path d="M51.719 28.4839C50.6458 29.1158 49.6475 29.4793 48.7242 29.5744C47.8008 29.6695 46.9897 29.574 46.2909 29.2877C45.5972 28.9818 45.0678 28.5459 44.7029 27.9799C44.645 27.8811 44.6313 27.7729 44.6619 27.6552C44.6975 27.5179 44.7709 27.4166 44.8819 27.3512L45.8257 26.7955C45.9737 26.7083 46.1064 26.68 46.2239 26.7105C46.3413 26.7411 46.4414 26.7985 46.524 26.8827C46.7717 27.1356 47.0997 27.3412 47.5079 27.4996C47.9088 27.6456 48.383 27.6903 48.9306 27.6337C49.4833 27.5575 50.1051 27.3159 50.7959 26.9092C51.8569 26.2845 52.5255 25.6416 52.8017 24.9805C53.0831 24.2999 53.0391 23.6446 52.6699 23.0147C52.4165 22.5824 52.0781 22.3165 51.6547 22.217C51.2363 22.0978 50.6942 22.0931 50.0283 22.2027C49.3625 22.3124 48.5253 22.4979 47.517 22.7594C46.4644 23.0303 45.5515 23.1857 44.7784 23.2256C44.0052 23.2655 43.3367 23.1441 42.7728 22.8615C42.2211 22.5716 41.739 22.0746 41.3263 21.3707C40.9354 20.7037 40.7667 20.0056 40.8204 19.2762C40.8669 18.5345 41.1388 17.8095 41.6363 17.1012C42.1338 16.393 42.8575 15.7592 43.8074 15.1999C44.5723 14.7495 45.3 14.4622 45.9905 14.338C46.6862 14.1943 47.3266 14.1827 47.9117 14.3033C48.4896 14.4116 48.9931 14.6052 49.4222 14.8842C49.844 15.1509 50.1697 15.4658 50.3992 15.8291C50.4499 15.9155 50.4697 16.0201 50.4587 16.1429C50.4405 16.2533 50.3635 16.3485 50.2278 16.4284L49.2471 17.0059C49.1607 17.0567 49.0537 17.0865 48.9261 17.0952C48.8107 17.0966 48.6886 17.044 48.5596 16.9372C48.1888 16.4744 47.6552 16.2154 46.9591 16.1601C46.2629 16.1048 45.5201 16.3097 44.7305 16.7745C43.9287 17.2467 43.3653 17.786 43.0405 18.3926C42.7281 18.9919 42.7637 19.6189 43.1474 20.2735C43.3936 20.6934 43.7171 20.9764 44.118 21.1224C44.5117 21.2561 45.023 21.279 45.6518 21.1912C46.2807 21.1033 47.071 20.937 48.0228 20.6922C49.169 20.3828 50.1471 20.1973 50.9573 20.1356C51.7602 20.0616 52.4436 20.1659 53.0076 20.4485C53.5766 20.7115 54.0675 21.195 54.4801 21.899C54.9363 22.6771 55.1237 23.4638 55.0424 24.2593C54.9538 25.0424 54.6263 25.8001 54.0599 26.5324C53.4986 27.245 52.7183 27.8955 51.719 28.4839Z" fill="#EEF0FB"/>
<path d="M64.7872 18.5721C64.3866 18.6813 63.9875 18.6862 63.5897 18.5869C63.2019 18.47 62.8576 18.2672 62.5567 17.9782C62.2695 17.6855 62.0716 17.3389 61.9629 16.9382C61.8504 16.5237 61.8458 16.1243 61.9492 15.74C62.0664 15.3519 62.2644 15.016 62.5434 14.7322C62.8325 14.4308 63.1773 14.2255 63.5778 14.1163C63.9922 14.0034 64.3932 14.0053 64.781 14.1222C65.165 14.2253 65.5055 14.4143 65.8027 14.6894C66.0999 14.9645 66.3047 15.3093 66.4172 15.7238C66.526 16.1245 66.5236 16.5258 66.4102 16.9277C66.2968 17.3296 66.1024 17.6793 65.8272 17.9769C65.5482 18.2607 65.2015 18.4591 64.7872 18.5721Z" fill="#EEF0FB"/>
</svg>
