<svg width="114" height="113" viewBox="0 0 114 113" fill="none" xmlns="http://www.w3.org/2000/svg">
<path fill-rule="evenodd" clip-rule="evenodd" d="M64.1612 27.6945C64.0185 26.2576 63.9455 25.5375 63.6568 24.9734C63.2878 24.2617 62.6736 23.7077 61.9279 23.4137C61.3405 23.1781 60.6171 23.1781 59.1703 23.1781H54.9758C53.5289 23.1781 52.8055 23.1781 52.2215 23.4104C51.4733 23.7054 50.8578 24.262 50.4892 24.9767C50.2005 25.5375 50.1275 26.2576 49.9848 27.6978C49.7127 30.4189 49.5767 31.7795 49.0059 32.5261C48.6507 32.9924 48.1783 33.3562 47.6368 33.5806C47.0953 33.805 46.504 33.882 45.9231 33.8037C44.9939 33.6776 43.932 32.8115 41.8148 31.0793C40.6965 30.1634 40.1357 29.7055 39.5351 29.513C38.7701 29.2685 37.9424 29.3098 37.2055 29.6291C36.6248 29.878 36.1105 30.3924 35.0917 31.4145L32.125 34.3778C31.1029 35.3999 30.5919 35.9142 30.3397 36.4917C30.0204 37.2285 29.9791 38.0562 30.2236 38.8212C30.416 39.4251 30.874 39.9826 31.7899 41.1043C33.5254 43.2248 34.3915 44.2833 34.5176 45.2158C34.5953 45.7962 34.518 46.3868 34.2936 46.9277C34.0692 47.4685 33.7057 47.9404 33.24 48.2953C32.4934 48.8661 31.1328 49.0021 28.4084 49.2743C26.9682 49.417 26.2481 49.49 25.6873 49.7787C24.9731 50.1464 24.4166 50.7607 24.121 51.5076C23.8887 52.0949 23.8887 52.8183 23.8887 54.2652V58.4597C23.8887 59.9065 23.8887 60.6299 24.121 61.214C24.4159 61.9621 24.9725 62.5777 25.6873 62.9462C26.2481 63.2349 26.9682 63.3079 28.4084 63.4506C31.1295 63.7227 32.49 63.8588 33.24 64.4295C33.7051 64.7849 34.068 65.2569 34.2918 65.7977C34.5156 66.3386 34.5923 66.929 34.5143 67.509C34.3915 68.4415 33.5254 69.5001 31.7932 71.6206C30.874 72.7389 30.416 73.2997 30.2236 73.9003C29.9791 74.6653 30.0204 75.493 30.3397 76.2299C30.5919 76.8106 31.1029 77.325 32.125 78.3437L35.0917 81.3104C36.1138 82.3325 36.6248 82.8435 37.2055 83.0957C37.9424 83.4151 38.7701 83.4563 39.5351 83.2119C40.1357 83.0194 40.6965 82.5615 41.8148 81.6456C43.9353 79.91 44.9939 79.0439 45.9264 78.9178C46.5068 78.8401 47.0974 78.9174 47.6382 79.1418C48.1791 79.3662 48.6509 79.7297 49.0059 80.1954C49.5767 80.9421 49.7127 82.3059 49.9848 85.0304C50.1275 86.4673 50.2005 87.1874 50.4892 87.7515C50.8582 88.4631 51.4724 89.0172 52.2181 89.3112C52.8055 89.5468 53.5289 89.5468 54.9758 89.5468H59.1703C60.6171 89.5468 61.3405 89.5468 61.9246 89.3145C62.6721 89.0203 63.2876 88.465 63.6568 87.7515C63.9455 87.1874 64.0185 86.4673 64.1612 85.0304C64.4333 82.3026 64.5693 80.9421 65.1401 80.1954C65.4953 79.7292 65.9677 79.3653 66.5093 79.1409C67.0508 78.9165 67.642 78.8395 68.2229 78.9178C69.1521 79.0439 70.214 79.91 72.3312 81.6423C73.4495 82.5581 74.0103 83.0161 74.6109 83.2086C75.3759 83.453 76.2036 83.4117 76.9405 83.0924C77.5212 82.8435 78.0355 82.3292 79.0543 81.3071L82.021 78.3437C83.0431 77.3217 83.5541 76.8106 83.8063 76.2299C84.1256 75.493 84.1669 74.6653 83.9224 73.9003C83.73 73.2964 83.272 72.7389 82.3561 71.6206C80.6239 69.5001 79.7578 68.4415 79.6317 67.5124C79.5528 66.9309 79.6295 66.339 79.8539 65.7968C80.0784 65.2547 80.4425 64.7818 80.9093 64.4262C81.656 63.8621 83.0165 63.7227 85.7409 63.4506C87.1778 63.3079 87.8979 63.2349 88.4621 62.9462C89.1749 62.5778 89.7302 61.9636 90.025 61.2173C90.2573 60.6299 90.2573 59.9065 90.2573 58.4597V54.2652C90.2573 52.8183 90.2573 52.0949 90.025 51.5109C89.7301 50.7628 89.1735 50.1472 88.4587 49.7787C87.8979 49.49 87.1778 49.417 85.7376 49.2743C83.0165 49.0021 81.656 48.8661 80.906 48.2953C80.4409 47.94 80.078 47.468 79.8542 46.9271C79.6304 46.3863 79.5537 45.7959 79.6317 45.2158C79.7545 44.2833 80.6206 43.2248 82.3528 41.1043C83.272 39.986 83.73 39.4251 83.9224 38.8245C84.1669 38.0595 84.1256 37.2318 83.8063 36.495C83.5541 35.9142 83.0431 35.3999 82.021 34.3811L79.0543 31.4145C78.0322 30.3924 77.5212 29.8813 76.9405 29.6291C76.2036 29.3098 75.3759 29.2685 74.6109 29.513C74.0103 29.7055 73.4495 30.1634 72.3312 31.0793C70.2107 32.8148 69.1521 33.6809 68.2229 33.8037C67.6423 33.8824 67.0512 33.8059 66.5098 33.5821C65.9683 33.3583 65.4957 32.9951 65.1401 32.5294C64.5693 31.7828 64.4333 30.4189 64.1612 27.6945Z" fill="url(#paint0_linear_520_2797)"/>
<g filter="url(#filter0_f_520_2797)">
<path fill-rule="evenodd" clip-rule="evenodd" d="M64.1612 27.6945C64.0185 26.2576 63.9455 25.5375 63.6568 24.9734C63.2878 24.2617 62.6736 23.7077 61.9279 23.4137C61.3405 23.1781 60.6171 23.1781 59.1703 23.1781H54.9758C53.5289 23.1781 52.8055 23.1781 52.2215 23.4104C51.4733 23.7054 50.8578 24.262 50.4892 24.9767C50.2005 25.5375 50.1275 26.2576 49.9848 27.6978C49.7127 30.4189 49.5767 31.7795 49.0059 32.5261C48.6507 32.9924 48.1783 33.3562 47.6368 33.5806C47.0953 33.805 46.504 33.882 45.9231 33.8037C44.9939 33.6776 43.932 32.8115 41.8148 31.0793C40.6965 30.1634 40.1357 29.7055 39.5351 29.513C38.7701 29.2685 37.9424 29.3098 37.2055 29.6291C36.6248 29.878 36.1105 30.3924 35.0917 31.4145L32.125 34.3778C31.1029 35.3999 30.5919 35.9142 30.3397 36.4917C30.0204 37.2285 29.9791 38.0562 30.2236 38.8212C30.416 39.4251 30.874 39.9826 31.7899 41.1043C33.5254 43.2248 34.3915 44.2833 34.5176 45.2158C34.5953 45.7962 34.518 46.3868 34.2936 46.9277C34.0692 47.4685 33.7057 47.9404 33.24 48.2953C32.4934 48.8661 31.1328 49.0021 28.4084 49.2743C26.9682 49.417 26.2481 49.49 25.6873 49.7787C24.9731 50.1464 24.4166 50.7607 24.121 51.5076C23.8887 52.0949 23.8887 52.8183 23.8887 54.2652V58.4597C23.8887 59.9065 23.8887 60.6299 24.121 61.214C24.4159 61.9621 24.9725 62.5777 25.6873 62.9462C26.2481 63.2349 26.9682 63.3079 28.4084 63.4506C31.1295 63.7227 32.4901 63.8588 33.24 64.4295C33.7051 64.7849 34.068 65.2569 34.2918 65.7977C34.5156 66.3386 34.5923 66.929 34.5143 67.509C34.3915 68.4415 33.5254 69.5001 31.7932 71.6206C30.874 72.7389 30.416 73.2997 30.2236 73.9003C29.9791 74.6653 30.0204 75.493 30.3397 76.2299C30.5919 76.8106 31.1029 77.325 32.125 78.3437L35.0917 81.3104C36.1138 82.3325 36.6248 82.8435 37.2055 83.0957C37.9424 83.4151 38.7701 83.4563 39.5351 83.2119C40.1357 83.0194 40.6965 82.5615 41.8148 81.6456C43.9353 79.91 44.9939 79.0439 45.9264 78.9178C46.5068 78.8401 47.0974 78.9174 47.6382 79.1418C48.1791 79.3662 48.6509 79.7297 49.0059 80.1954C49.5767 80.9421 49.7127 82.3059 49.9848 85.0304C50.1275 86.4673 50.2005 87.1874 50.4892 87.7515C50.8582 88.4631 51.4724 89.0172 52.2181 89.3112C52.8055 89.5468 53.5289 89.5468 54.9758 89.5468H59.1703C60.6171 89.5468 61.3405 89.5468 61.9246 89.3145C62.6721 89.0203 63.2876 88.465 63.6568 87.7515C63.9455 87.1874 64.0185 86.4673 64.1612 85.0304C64.4333 82.3026 64.5693 80.9421 65.1401 80.1954C65.4953 79.7292 65.9678 79.3653 66.5093 79.1409C67.0508 78.9165 67.642 78.8395 68.2229 78.9178C69.1521 79.0439 70.214 79.91 72.3312 81.6423C73.4495 82.5581 74.0103 83.0161 74.6109 83.2086C75.3759 83.453 76.2036 83.4117 76.9405 83.0924C77.5212 82.8435 78.0355 82.3292 79.0543 81.3071L82.021 78.3437C83.0431 77.3217 83.5541 76.8106 83.8063 76.2299C84.1256 75.493 84.1669 74.6653 83.9224 73.9003C83.73 73.2964 83.272 72.7389 82.3561 71.6206C80.6239 69.5001 79.7578 68.4415 79.6317 67.5124C79.5528 66.9309 79.6295 66.339 79.8539 65.7968C80.0784 65.2547 80.4425 64.7818 80.9093 64.4262C81.656 63.8621 83.0165 63.7227 85.7409 63.4506C87.1778 63.3079 87.8979 63.2349 88.4621 62.9462C89.1749 62.5778 89.7302 61.9636 90.025 61.2173C90.2573 60.6299 90.2573 59.9065 90.2573 58.4597V54.2652C90.2573 52.8183 90.2573 52.0949 90.025 51.5109C89.7301 50.7628 89.1735 50.1472 88.4587 49.7787C87.8979 49.49 87.1778 49.417 85.7376 49.2743C83.0165 49.0021 81.656 48.8661 80.906 48.2953C80.4409 47.94 80.078 47.468 79.8542 46.9271C79.6304 46.3863 79.5537 45.7959 79.6317 45.2158C79.7545 44.2833 80.6206 43.2248 82.3528 41.1043C83.272 39.986 83.73 39.4251 83.9224 38.8245C84.1669 38.0595 84.1256 37.2318 83.8063 36.495C83.5541 35.9142 83.0431 35.3999 82.021 34.3811L79.0543 31.4145C78.0322 30.3924 77.5212 29.8813 76.9405 29.6291C76.2036 29.3098 75.3759 29.2685 74.6109 29.513C74.0103 29.7055 73.4495 30.1634 72.3312 31.0793C70.2107 32.8148 69.1521 33.6809 68.2229 33.8037C67.6423 33.8824 67.0512 33.8059 66.5098 33.5821C65.9683 33.3583 65.4957 32.9951 65.1401 32.5294C64.5693 31.7828 64.4333 30.4189 64.1612 27.6945Z" fill="url(#paint1_linear_520_2797)"/>
</g>
<g filter="url(#filter1_b_520_2797)">
<path d="M57.0712 67.4239C63.1803 67.4239 68.1326 62.4715 68.1326 56.3625C68.1326 50.2534 63.1803 45.301 57.0712 45.301C50.9621 45.301 46.0098 50.2534 46.0098 56.3625C46.0098 62.4715 50.9621 67.4239 57.0712 67.4239Z" fill="url(#paint2_linear_520_2797)"/>
<path d="M57.0712 68.5714C63.814 68.5714 69.2801 63.1052 69.2801 56.3625C69.2801 49.6197 63.814 44.1536 57.0712 44.1536C50.3284 44.1536 44.8623 49.6197 44.8623 56.3625C44.8623 63.1052 50.3284 68.5714 57.0712 68.5714Z" stroke="url(#paint3_linear_520_2797)" stroke-width="2.29488"/>
</g>
<g filter="url(#filter2_b_520_2797)">
<path d="M97.9399 67.0375C99.7492 68.8468 99.8578 71.7779 100.783 74.006C101.739 76.3168 103.699 78.4828 103.699 80.9435C103.699 83.4042 101.739 85.5702 100.783 87.8809C99.8629 90.109 99.7544 93.0349 97.9399 94.8494C96.1254 96.6639 93.1995 96.7673 90.9714 97.6927C88.6606 98.649 86.4946 100.608 84.0339 100.608C81.5732 100.608 79.4072 98.649 77.0965 97.6927C74.8684 96.7725 71.9425 96.6639 70.128 94.8494C68.3186 93.0401 68.2101 90.109 67.2847 87.8809C66.3594 85.6529 64.3691 83.4042 64.3691 80.9435C64.3691 78.4828 66.3284 76.3168 67.2847 74.006C68.2049 71.7779 68.3135 68.852 70.128 67.0375C71.9373 65.2282 74.8684 65.1196 77.0965 64.1943C79.4072 63.2379 81.5732 61.2787 84.0339 61.2787C86.4946 61.2787 88.6606 63.2379 90.9714 64.1943C93.1995 65.1145 96.1254 65.223 97.9399 67.0375Z" fill="url(#paint4_linear_520_2797)"/>
<path d="M101.843 73.5659L101.843 73.5672C102.139 74.282 102.516 74.938 102.93 75.6612C103.149 76.0417 103.378 76.4408 103.611 76.8768C104.239 78.05 104.846 79.4167 104.846 80.9435C104.846 82.4702 104.239 83.8369 103.611 85.0101C103.378 85.4461 103.149 85.8453 102.93 86.2258C102.516 86.9488 102.139 87.6047 101.844 88.3193C101.565 88.9934 101.383 89.684 101.179 90.4597C101.066 90.8922 100.945 91.3511 100.796 91.8483C100.413 93.1327 99.8663 94.5457 98.7513 95.6608C97.6358 96.7763 96.2222 97.3218 94.9382 97.7042C94.4464 97.8507 93.9918 97.9703 93.5632 98.0831C92.7823 98.2887 92.0878 98.4715 91.4115 98.7523L91.4102 98.7529C90.6954 99.0487 90.0394 99.4251 89.3162 99.8399C88.9357 100.058 88.5366 100.287 88.1006 100.521C86.9274 101.149 85.5607 101.756 84.0339 101.756C82.5072 101.756 81.1405 101.149 79.9673 100.521C79.5313 100.287 79.1321 100.058 78.7516 99.8399C78.0288 99.4252 77.373 99.049 76.6585 98.7532C75.9843 98.4748 75.2935 98.293 74.5177 98.0889C74.0852 97.9751 73.6263 97.8543 73.1291 97.706C71.8447 97.3228 70.4317 96.7759 69.3166 95.6608C68.2036 94.5478 67.658 93.1339 67.2753 91.8501C67.1287 91.3584 67.0087 90.9037 66.8956 90.4749C66.6895 89.6932 66.506 88.9976 66.2251 88.321C65.9435 87.6431 65.5794 87.0086 65.1732 86.3008C64.9486 85.9095 64.7112 85.4958 64.4678 85.04C63.8369 83.8586 63.2217 82.4707 63.2217 80.9435C63.2217 79.4167 63.8286 78.05 64.4568 76.8768C64.6903 76.4408 64.9192 76.0417 65.1375 75.6612C65.5522 74.9383 65.9284 74.2825 66.2242 73.568L101.843 73.5659ZM101.843 73.5659C101.562 72.8894 101.378 72.1938 101.172 71.4121M101.843 73.5659L101.172 71.4121M76.6564 63.1346L76.6577 63.1341C77.3725 62.8382 78.0285 62.4619 78.7516 62.0471C79.1322 61.8288 79.5313 61.5998 79.9673 61.3663C81.1405 60.7381 82.5072 60.1312 84.0339 60.1312C85.5607 60.1312 86.9274 60.7381 88.1006 61.3663C88.5366 61.5998 88.9357 61.8288 89.3162 62.0471C90.0393 62.4619 90.6953 62.8382 91.4101 63.134L76.6564 63.1346ZM76.6564 63.1346C75.9798 63.4156 75.2842 63.599 74.5025 63.8052C74.0737 63.9183 73.619 64.0382 73.1273 64.1848C71.8435 64.5676 70.4296 65.1131 69.3166 66.2261C68.2015 67.3412 67.6546 68.7542 67.2714 70.0386M76.6564 63.1346L67.2714 70.0386M101.172 71.4121C101.059 70.9833 100.939 70.5285 100.793 70.0369M101.172 71.4121L100.793 70.0369M100.793 70.0369C100.41 68.7531 99.8643 67.3392 98.7513 66.2261M100.793 70.0369L98.7513 66.2261M98.7513 66.2261C97.6362 65.1111 96.2232 64.5641 94.9388 64.181M98.7513 66.2261L94.9388 64.181M67.2714 70.0386C67.1231 70.5359 67.0023 70.9948 66.8885 71.4272M67.2714 70.0386L66.8885 71.4272M66.8885 71.4272C66.6844 72.203 66.5027 72.8937 66.2243 73.5677L66.8885 71.4272ZM94.9388 64.181C94.4415 64.0326 93.9826 63.9119 93.5502 63.7981M94.9388 64.181L93.5502 63.7981M93.5502 63.7981C92.7746 63.594 92.0841 63.4123 91.4102 63.1341L93.5502 63.7981Z" stroke="url(#paint5_linear_520_2797)" stroke-width="2.29488"/>
</g>
<defs>
<filter id="filter0_f_520_2797" x="0.939837" y="0.229265" width="112.267" height="112.266" filterUnits="userSpaceOnUse" color-interpolation-filters="sRGB">
<feFlood flood-opacity="0" result="BackgroundImageFix"/>
<feBlend mode="normal" in="SourceGraphic" in2="BackgroundImageFix" result="shape"/>
<feGaussianBlur stdDeviation="11.4744" result="effect1_foregroundBlur_520_2797"/>
</filter>
<filter id="filter1_b_520_2797" x="23.0609" y="22.3522" width="68.0208" height="68.0205" filterUnits="userSpaceOnUse" color-interpolation-filters="sRGB">
<feFlood flood-opacity="0" result="BackgroundImageFix"/>
<feGaussianBlur in="BackgroundImageFix" stdDeviation="10.327"/>
<feComposite in2="SourceAlpha" operator="in" result="effect1_backgroundBlur_520_2797"/>
<feBlend mode="normal" in="SourceGraphic" in2="effect1_backgroundBlur_520_2797" result="shape"/>
</filter>
<filter id="filter2_b_520_2797" x="41.4203" y="38.3298" width="85.2278" height="85.2273" filterUnits="userSpaceOnUse" color-interpolation-filters="sRGB">
<feFlood flood-opacity="0" result="BackgroundImageFix"/>
<feGaussianBlur in="BackgroundImageFix" stdDeviation="10.327"/>
<feComposite in2="SourceAlpha" operator="in" result="effect1_backgroundBlur_520_2797"/>
<feBlend mode="normal" in="SourceGraphic" in2="effect1_backgroundBlur_520_2797" result="shape"/>
</filter>
<linearGradient id="paint0_linear_520_2797" x1="32.2173" y1="85.903" x2="97.5649" y2="48.1283" gradientUnits="userSpaceOnUse">
<stop stop-color="#3B3BF9"/>
<stop offset="0.51" stop-color="#10E0F9"/>
<stop offset="1" stop-color="#92FFFF"/>
</linearGradient>
<linearGradient id="paint1_linear_520_2797" x1="32.2173" y1="85.903" x2="97.5649" y2="48.1283" gradientUnits="userSpaceOnUse">
<stop stop-color="#3B3BF9"/>
<stop offset="0.51" stop-color="#10E0F9"/>
<stop offset="1" stop-color="#92FFFF"/>
</linearGradient>
<linearGradient id="paint2_linear_520_2797" x1="47.2587" y1="66.1749" x2="66.8837" y2="46.55" gradientUnits="userSpaceOnUse">
<stop stop-color="white" stop-opacity="0.2"/>
<stop offset="1" stop-color="white" stop-opacity="0.49"/>
</linearGradient>
<linearGradient id="paint3_linear_520_2797" x1="47.5714" y1="47.0409" x2="66.064" y2="66.8138" gradientUnits="userSpaceOnUse">
<stop stop-color="white"/>
<stop offset="1" stop-color="white" stop-opacity="0"/>
</linearGradient>
<linearGradient id="paint4_linear_520_2797" x1="66.5895" y1="98.3879" x2="101.478" y2="63.4991" gradientUnits="userSpaceOnUse">
<stop stop-color="white" stop-opacity="0.2"/>
<stop offset="1" stop-color="white" stop-opacity="0.49"/>
</linearGradient>
<linearGradient id="paint5_linear_520_2797" x1="67.1454" y1="64.3719" x2="100.021" y2="99.5237" gradientUnits="userSpaceOnUse">
<stop stop-color="white"/>
<stop offset="1" stop-color="white" stop-opacity="0"/>
</linearGradient>
</defs>
</svg>
