<svg width="177" height="177" viewBox="0 0 177 177" fill="none" xmlns="http://www.w3.org/2000/svg">
<path d="M85.8857 151.915L88.1235 152.126L86.5725 168.635L80.3385 168.05C76.7991 167.717 74.8742 165.647 75.1638 162.565C75.3783 160.281 76.6745 158.744 78.7919 158.275L76.0894 150.995L78.5784 151.229L81.0476 158.049L85.2721 158.446L85.8857 151.915ZM84.5234 166.416L85.0855 160.433L81.0665 160.055C78.9885 159.86 77.696 160.868 77.5179 162.763C77.3377 164.681 78.4721 165.847 80.5273 166.04L84.5234 166.416Z" fill="#F0F1F1"/>
<path d="M59.6702 145.295L69.0587 149.058L62.8893 164.45L53.5008 160.687L54.2688 158.771L61.571 161.698L63.4994 156.886L56.9211 154.25L57.6634 152.397L64.2418 155.034L66.1959 150.159L58.8937 147.232L59.6702 145.295Z" fill="#F0F1F1"/>
<path d="M38.3713 148.644C41.1301 150.922 44.472 150.261 46.9695 147.237C49.5253 144.142 49.1966 140.867 46.5616 138.69C44.3865 136.894 41.7156 136.562 39.5833 139.144L39.2766 139.516L43.5562 143.05L42.2856 144.589L36.379 139.71L42.2063 132.654L43.6565 133.852L42.349 135.687C43.9588 135.143 46.1868 135.615 48.0614 137.163C51.6867 140.157 52.0186 144.833 48.7617 148.777C45.5487 152.667 40.7591 153.352 36.9923 150.241C34.1982 147.934 33.352 144.528 34.9577 141.72L36.7969 143.238C35.9307 145.26 36.6736 147.242 38.3713 148.644Z" fill="#F0F1F1"/>
<path d="M32.159 129.836L23.0063 135.355L21.8456 133.43L30.8805 127.982C33.1589 126.609 33.6579 124.593 32.2959 122.335C30.9457 120.096 28.9229 119.628 26.6642 120.99L17.6293 126.438L16.4568 124.494L25.6095 118.975C28.8699 117.009 32.1484 117.871 34.1618 121.21C36.1871 124.568 35.4391 127.858 32.159 129.836Z" fill="#F0F1F1"/>
<path d="M10.901 109.71L24.9532 106.153L23.1636 99.0828L25.187 98.5707L27.528 107.82L11.4525 111.889L10.901 109.71Z" fill="#F0F1F1"/>
<path d="M24.3964 90.9485L24.3205 93.2867L7.94328 86.6968L8.0244 84.1981L24.7954 78.6615L24.7187 81.0226L20.5441 82.3787L20.3178 89.3474L24.3964 90.9485ZM11.5506 85.8501L18.3917 88.5965L18.574 82.9802L11.5685 85.2999C11.2438 85.4041 10.8504 85.5061 10.5968 85.5438C10.8245 85.597 11.2105 85.7243 11.5506 85.8501Z" fill="#F0F1F1"/>
<path d="M11.9862 69.3783L10.0268 68.7289L13.8722 57.1248L15.8316 57.7741L14.266 62.4985L28.0473 67.0654L27.3403 69.199L13.559 64.6321L11.9862 69.3783Z" fill="#F0F1F1"/>
<path d="M34.6328 39.2135C38.7127 42.1826 39.6252 46.9314 36.8586 50.7331C34.1054 54.5162 29.3331 55.0712 25.2533 52.1021C21.192 49.1465 20.2474 44.4028 23.0006 40.6197C25.7672 36.818 30.553 36.2445 34.6328 39.2135ZM33.2428 41.1236C30.1273 38.8563 26.7462 39.1757 24.7623 41.9018C22.7785 44.6279 23.5278 47.9247 26.6433 50.192C29.7589 52.4593 33.145 52.172 35.1288 49.4459C37.1127 46.7198 36.3398 43.3774 33.2428 41.1236Z" fill="#F0F1F1"/>
<path d="M48.5557 37.9501L46.724 39.2528L37.1132 25.7395L42.2157 22.1105C45.1128 20.0501 47.9223 20.3597 49.7169 22.883C51.0462 24.752 51.0688 26.7624 49.7721 28.5008L56.574 32.2474L54.5367 33.6963L48.2117 30.1454L44.7539 32.6046L48.5557 37.9501ZM40.1147 26.0815L43.5974 30.9785L46.887 28.6389C48.5878 27.4292 48.9084 25.8222 47.8051 24.2708C46.6885 22.7008 45.0677 22.5589 43.3855 23.7553L40.1147 26.0815Z" fill="#F0F1F1"/>
<path d="M64.7026 21.4553L56.2471 13.9124L58.6392 13.1105L64.2473 18.2213C64.5887 18.5181 64.8212 18.7788 65.1192 19.0901C65.1836 18.6331 65.1834 18.488 65.2911 17.8714L66.6635 10.4203L68.9903 9.64016L66.8337 20.7408L68.9771 27.1342L66.846 27.8486L64.7026 21.4553Z" fill="#F0F1F1"/>
<path d="M93.8846 20.4154C92.6964 20.3126 91.7551 19.2183 91.8559 18.0529C91.9606 16.8419 93.053 15.9234 94.264 16.0281C95.4751 16.1328 96.3707 17.2232 96.266 18.4343C96.1652 19.5997 95.0957 20.5201 93.8846 20.4154Z" fill="#F0F1F1"/>
<path d="M123.871 15.7427L117.156 28.5891L123.62 31.9676L122.653 33.8173L114.197 29.3976L121.879 14.7015L123.871 15.7427Z" fill="#F0F1F1"/>
<path d="M140.708 26.8468L130.06 39.5587L128.337 38.1154L138.985 25.4034L140.708 26.8468Z" fill="#F0F1F1"/>
<path d="M140.236 51.0936C137.483 47.2535 138.412 42.722 142.587 39.7289C146.744 36.7492 151.443 37.3599 154.209 41.2187C156.387 44.2572 156.249 47.8835 153.851 50.3644L152.448 48.407C153.84 46.6477 153.82 44.3761 152.417 42.4188C150.466 39.6972 147.133 39.3774 143.982 41.6356C140.832 43.8938 140.064 47.1532 142.015 49.8748C143.431 51.8508 145.616 52.655 147.636 51.9691L149.026 53.9078C145.927 55.2541 142.414 54.1321 140.236 51.0936Z" fill="#F0F1F1"/>
<path d="M150.723 72.9801L147.541 63.3789L163.282 58.1627L166.464 67.7639L164.504 68.4132L162.029 60.9456L157.109 62.5761L159.338 69.3035L157.444 69.9312L155.215 63.2038L150.229 64.856L152.704 72.3236L150.723 72.9801Z" fill="#F0F1F1"/>
<path d="M152.191 82.4126L152.15 80.1652L168.73 79.8654L168.77 82.1128L156.105 90.8294L168.924 90.5976L168.965 92.8449L152.385 93.1447L152.344 90.8974L165.01 82.1808L152.191 82.4126Z" fill="#F0F1F1"/>
<path d="M162.953 103.776C165.683 104.572 166.89 107.313 165.933 110.594C165.047 113.633 162.78 115.098 159.976 114.471L160.612 112.291C162.229 112.644 163.482 111.79 164.002 110.007C164.586 108.003 163.953 106.409 162.389 105.953C161.112 105.58 160.13 106.082 159.341 107.476L157.96 109.917C156.607 112.341 154.813 113.251 152.567 112.596C149.705 111.761 148.526 109.004 149.515 105.614C150.459 102.377 152.784 100.714 155.553 101.378L154.911 103.58C153.378 103.181 152.037 104.175 151.453 106.179C150.836 108.293 151.435 109.925 153.02 110.387C154.275 110.753 155.267 110.302 156.063 108.886L157.421 106.439C158.774 104.014 160.663 103.108 162.953 103.776Z" fill="#F0F1F1"/>
<path d="M158.352 127.764L143.853 119.717L144.944 117.751L159.443 125.798L158.352 127.764Z" fill="#F0F1F1"/>
<path d="M137.824 128.707L139.37 127.075L151.409 138.478L149.863 140.11L134.719 137.454L144.028 146.271L142.482 147.903L130.443 136.5L131.988 134.868L147.132 137.523L137.824 128.707Z" fill="#F0F1F1"/>
<path d="M124.376 157.908C127.559 156.272 128.271 152.941 126.478 149.453C124.644 145.883 121.504 144.892 118.465 146.453C115.956 147.743 114.596 150.066 116.127 153.044L116.347 153.473L121.284 150.936L122.196 152.711L115.382 156.212L111.2 148.072L112.872 147.213L114.042 149.138C114.178 147.444 115.491 145.583 117.653 144.472C121.835 142.323 126.263 143.865 128.6 148.414C130.907 152.902 129.645 157.573 125.3 159.806C122.077 161.462 118.614 160.895 116.667 158.311L118.788 157.22C120.304 158.814 122.418 158.914 124.376 157.908Z" fill="#F0F1F1"/>
<path d="M99.3209 156.256C100.513 156.213 101.581 157.185 101.623 158.354C101.667 159.568 100.695 160.613 99.4801 160.657C98.2653 160.701 97.2432 159.728 97.1993 158.514C97.157 157.345 98.1061 156.3 99.3209 156.256Z" fill="#F0F1F1"/>
</svg>
