<svg width="159" height="158" viewBox="0 0 159 158" fill="none" xmlns="http://www.w3.org/2000/svg">
<path d="M54.3105 23.1948C52.9973 23.7892 51.8015 24.0864 50.7233 24.0795C49.645 24.0795 48.7257 23.8583 47.9585 23.4298C47.1913 23.0013 46.6315 22.4414 46.279 21.7433C46.2237 21.6258 46.2237 21.4876 46.279 21.3493C46.3343 21.2042 46.4241 21.1074 46.5623 21.0452L47.7166 20.5199C47.8963 20.437 48.0553 20.4232 48.1866 20.4715C48.318 20.5199 48.4285 20.6029 48.5115 20.7065C48.7672 21.0245 49.1197 21.301 49.569 21.5291C50.0183 21.7571 50.5643 21.8608 51.2071 21.8539C51.8499 21.847 52.5964 21.6535 53.4396 21.2664C54.739 20.6789 55.5892 20.0154 55.997 19.2758C56.3979 18.5362 56.4255 17.7828 56.0799 17.0156C55.838 16.4903 55.4855 16.1309 55.0155 15.9581C54.5455 15.7784 53.9165 15.7162 53.1355 15.7577C52.3544 15.7992 51.3661 15.9097 50.1703 16.0895C48.9262 16.2692 47.8479 16.3383 46.9563 16.2899C46.0647 16.2415 45.3113 16.0134 44.6961 15.6194C44.0879 15.2186 43.5903 14.5896 43.1963 13.7325C42.83 12.9169 42.7194 12.0875 42.8645 11.2512C43.0097 10.4079 43.4175 9.61308 44.0741 8.85969C44.7376 8.1063 45.6431 7.4635 46.8112 6.9382C47.7512 6.51658 48.6221 6.26775 49.4377 6.19864C50.2533 6.12952 50.9928 6.19864 51.6425 6.39908C52.2992 6.59952 52.859 6.88982 53.3152 7.25614C53.7714 7.62247 54.11 8.03027 54.3312 8.47263C54.3796 8.5763 54.3865 8.70071 54.3589 8.83204C54.3312 8.96336 54.2276 9.06704 54.0617 9.14307L52.859 9.68911C52.7554 9.73749 52.6309 9.75822 52.4858 9.7444C52.3475 9.73749 52.2093 9.66146 52.0711 9.52322C51.6978 8.94263 51.1172 8.58321 50.3224 8.43115C49.5275 8.27909 48.6428 8.43115 47.6752 8.8666C46.6937 9.30896 45.9818 9.8619 45.5394 10.5185C45.097 11.1751 45.0625 11.9009 45.4219 12.7027C45.6569 13.2141 45.9886 13.5805 46.431 13.7878C46.8734 13.9952 47.4609 14.0919 48.1936 14.0643C48.9331 14.0436 49.8593 13.9468 50.9859 13.7809C52.3475 13.5666 53.4949 13.4699 54.4349 13.4906C55.3749 13.5113 56.149 13.7187 56.7711 14.0988C57.3932 14.4859 57.8977 15.108 58.2848 15.965C58.7133 16.9189 58.8308 17.8451 58.6373 18.7436C58.4438 19.6421 57.9738 20.4715 57.2411 21.2318C56.5015 21.9921 55.5201 22.6488 54.2967 23.2086L54.3105 23.1948Z" fill="#F4F4F5"/>
<path d="M70.7974 18.142C70.6315 18.1627 70.4864 18.1282 70.3689 18.0314C70.2445 17.9416 70.1754 17.8102 70.1546 17.6444L68.2539 3.13644L63.5193 3.75851C63.3534 3.77924 63.2083 3.74469 63.0908 3.65483C62.9733 3.56498 62.8972 3.43365 62.8765 3.26777L62.7383 2.231C62.7175 2.05129 62.7521 1.89923 62.8419 1.77482C62.9318 1.65731 63.0631 1.58128 63.229 1.56055L75.1173 0.0123016C75.297 -0.00843389 75.4491 0.0261252 75.5735 0.115979C75.691 0.205833 75.767 0.344069 75.7878 0.523776L75.926 1.56055C75.9468 1.72643 75.9122 1.86467 75.8223 1.98908C75.7325 2.1135 75.5942 2.18261 75.4145 2.20335L70.7007 2.8185L72.6014 17.3264C72.6222 17.4923 72.5876 17.6305 72.4908 17.7549C72.401 17.8794 72.2628 17.9485 72.0831 17.9692L70.7974 18.1351V18.142Z" fill="#F4F4F5"/>
<path d="M84.6318 17.5061C84.4521 17.4784 84.3207 17.3955 84.2447 17.278C84.1687 17.1605 84.141 17.0084 84.1687 16.8494L86.9058 0.834742C86.9334 0.655034 87.0094 0.516798 87.1269 0.433856C87.2444 0.344002 87.3896 0.316355 87.5693 0.344002L93.5549 1.36695C95.4004 1.6849 96.7897 2.36917 97.7228 3.41976C98.6559 4.47036 98.9738 5.84581 98.6835 7.54612C98.4692 8.80407 97.9785 9.77864 97.2113 10.4629C96.4441 11.1472 95.4972 11.555 94.3636 11.6794L97.0247 18.847C97.0592 18.9506 97.0662 19.0474 97.0523 19.1303C97.0316 19.2617 96.9556 19.3653 96.8311 19.4483C96.7067 19.5312 96.5823 19.5589 96.451 19.5312L95.276 19.3308C94.9995 19.2824 94.806 19.1718 94.7023 19.0059C94.5986 18.8331 94.5088 18.6672 94.4327 18.5083L91.9445 11.6725L87.6522 10.9398L86.574 17.2711C86.5463 17.4369 86.4703 17.5614 86.3459 17.6512C86.2215 17.7411 86.0694 17.7687 85.8897 17.7341L84.6387 17.5199L84.6318 17.5061ZM88.0047 8.84554L92.0551 9.53673C93.2784 9.74408 94.2392 9.64732 94.9373 9.23261C95.6354 8.8179 96.0639 8.10598 96.2367 7.09685C96.4095 6.10155 96.2367 5.28595 95.7321 4.66389C95.2276 4.04183 94.3498 3.62021 93.1057 3.40594L89.0623 2.71476L88.0117 8.84554H88.0047Z" fill="#F4F4F5"/>
<path d="M101.989 21.2867C101.872 21.2245 101.796 21.1277 101.754 20.9895C101.713 20.8582 101.727 20.7268 101.789 20.6093C101.83 20.5333 101.879 20.4573 101.941 20.3812L114.97 9.08732C115.108 8.96982 115.246 8.9007 115.398 8.86614C115.55 8.83159 115.723 8.86614 115.93 8.98365L117.423 9.77851C117.631 9.88909 117.755 10.0135 117.817 10.1587C117.873 10.3038 117.893 10.4628 117.873 10.6425L115.709 27.7354C115.688 27.8391 115.661 27.9289 115.626 27.9981C115.564 28.1156 115.467 28.1916 115.329 28.2331C115.198 28.2745 115.066 28.2607 114.956 28.1985L113.836 27.5972C113.663 27.5004 113.553 27.3898 113.525 27.2585C113.497 27.1272 113.477 27.0166 113.49 26.9267L113.947 23.1667L106.744 19.3237L103.876 21.7982C103.821 21.8604 103.731 21.9157 103.593 21.9571C103.461 21.9986 103.302 21.971 103.13 21.8811L102.01 21.2798L101.989 21.2867ZM108.376 17.7824L114.299 20.948L115.495 11.5756L108.369 17.7824H108.376Z" fill="#F4F4F5"/>
<path d="M121.724 34.2815C121.606 34.164 121.544 34.0327 121.537 33.8806C121.537 33.7286 121.592 33.5903 121.703 33.4728L131.856 22.9392L128.414 19.6215C128.297 19.504 128.235 19.3727 128.235 19.2206C128.235 19.0686 128.29 18.9303 128.401 18.8128L129.126 18.0595C129.251 17.9281 129.389 17.859 129.548 17.859C129.707 17.859 129.838 17.9143 129.956 18.0249L138.595 26.3467C138.727 26.4711 138.796 26.6163 138.796 26.7683C138.796 26.9204 138.734 27.0656 138.609 27.1969L137.884 27.9503C137.766 28.0678 137.635 28.13 137.483 28.1369C137.331 28.1438 137.185 28.0816 137.054 27.9503L133.633 24.6533L123.479 35.1869C123.362 35.3044 123.23 35.3667 123.078 35.3736C122.926 35.3736 122.781 35.3114 122.65 35.1869L121.717 34.2884L121.724 34.2815Z" fill="#F4F4F5"/>
<path d="M130.84 44.7662C130.75 44.6072 130.729 44.4552 130.77 44.3169C130.812 44.1787 130.909 44.0681 131.054 43.9852L145.216 36.0228C145.375 35.9329 145.527 35.9053 145.672 35.9398C145.818 35.9744 145.928 36.0711 146.018 36.2301L151.05 45.1878C151.14 45.3468 151.16 45.4989 151.119 45.6371C151.07 45.7753 150.974 45.8928 150.815 45.9827L149.992 46.4458C149.833 46.5356 149.688 46.5633 149.55 46.5218C149.412 46.4873 149.301 46.3836 149.211 46.2246L145.064 38.8497L140.316 41.5177L144.193 48.4157C144.283 48.5746 144.304 48.7267 144.262 48.8649C144.214 49.0032 144.117 49.1207 143.958 49.2105L143.157 49.6598C143.011 49.7427 142.866 49.7635 142.728 49.7289C142.59 49.6943 142.465 49.5976 142.382 49.4386L138.505 42.5406L133.584 45.3053L137.827 52.853C137.917 53.012 137.945 53.1572 137.903 53.2954C137.869 53.4336 137.765 53.5442 137.606 53.6341L136.763 54.111C136.618 54.1939 136.473 54.2147 136.335 54.1801C136.196 54.1456 136.079 54.0488 135.989 53.8898L130.853 44.7593L130.84 44.7662Z" fill="#F4F4F5"/>
<path d="M139.572 66.8085C139.275 65.3639 139.296 64.0852 139.628 62.9724C139.959 61.8665 140.561 60.9472 141.432 60.2215C142.296 59.4958 143.388 58.9636 144.687 58.6318C145.399 58.4728 146.159 58.3069 146.961 58.1411C147.763 57.9752 148.537 57.83 149.27 57.6987C150.597 57.4983 151.799 57.5605 152.878 57.8922C153.949 58.224 154.854 58.8391 155.587 59.7377C156.32 60.6362 156.831 61.8043 157.121 63.2351C157.35 64.3755 157.391 65.3985 157.239 66.3108C157.087 67.2232 156.817 68.0042 156.43 68.647C156.043 69.2898 155.615 69.8013 155.131 70.1814C154.647 70.5616 154.205 70.7966 153.804 70.8934C153.659 70.9417 153.534 70.921 153.424 70.845C153.313 70.769 153.244 70.6445 153.209 70.4856L152.919 69.0479C152.885 68.882 152.891 68.7576 152.947 68.6747C152.995 68.5917 153.099 68.495 153.244 68.3982C153.638 68.1632 154.004 67.8453 154.343 67.4236C154.682 67.0089 154.93 66.4905 155.083 65.8754C155.235 65.2602 155.228 64.5207 155.048 63.6567C154.785 62.3573 154.219 61.3827 153.361 60.7399C152.504 60.0902 151.26 59.9036 149.636 60.1662C148.178 60.4081 146.733 60.7053 145.295 61.0509C143.685 61.4449 142.607 62.1154 142.061 63.0554C141.515 63.9954 141.376 65.1082 141.632 66.3938C141.805 67.2577 142.123 67.9904 142.586 68.5986C143.049 69.2069 143.65 69.6423 144.383 69.8981C145.123 70.1538 146 70.1814 147.023 69.9672L148.046 69.7598L147.3 66.1035C147.265 65.9376 147.293 65.7924 147.376 65.668C147.459 65.5436 147.59 65.4607 147.77 65.4261L148.551 65.2671C148.73 65.2326 148.883 65.2533 149.007 65.3363C149.131 65.4192 149.214 65.5436 149.249 65.7095L150.369 71.2182C150.403 71.3979 150.382 71.5431 150.293 71.6675C150.203 71.7919 150.071 71.861 149.899 71.9025L147.556 72.3794C146.222 72.649 145.005 72.6144 143.899 72.2688C142.793 71.9232 141.867 71.2873 141.114 70.3612C140.36 69.435 139.835 68.253 139.545 66.8223L139.572 66.8085Z" fill="#F4F4F5"/>
<path d="M140.755 85.0692C140.776 84.9033 140.838 84.772 140.963 84.6752C141.087 84.5784 141.225 84.5439 141.391 84.5577L147.232 85.1867L157.966 80.3138C158.014 80.3 158.07 80.2931 158.118 80.2793C158.166 80.2655 158.229 80.2655 158.291 80.2793C158.422 80.2931 158.533 80.3553 158.623 80.4659C158.712 80.5765 158.747 80.694 158.733 80.8253L158.595 82.1109C158.581 82.2561 158.526 82.3874 158.443 82.498C158.36 82.6086 158.242 82.6777 158.104 82.7122L149.568 86.6727L157.061 92.3612C157.185 92.4579 157.275 92.5616 157.337 92.6791C157.399 92.7966 157.42 92.9279 157.406 93.0731L157.268 94.3379C157.254 94.4831 157.192 94.6075 157.081 94.6904C156.971 94.7734 156.853 94.8148 156.722 94.801C156.653 94.801 156.597 94.7803 156.549 94.7596C156.501 94.7388 156.452 94.7043 156.411 94.6697L146.955 87.6404L141.115 87.0114C140.949 86.9907 140.818 86.9285 140.728 86.804C140.631 86.6865 140.597 86.5345 140.61 86.3548L140.749 85.0692H140.755Z" fill="#F4F4F5"/>
<path d="M143.976 108.771C142.801 108.669 141.87 107.587 141.969 106.435C142.073 105.237 143.153 104.328 144.351 104.432C145.549 104.536 146.435 105.614 146.331 106.812C146.231 107.964 145.174 108.875 143.976 108.771Z" fill="#F0F1F1"/>
<path d="M124.075 121.108C125.056 120.071 126.065 119.352 127.116 118.951C128.167 118.55 129.252 118.502 130.372 118.806C131.491 119.11 132.632 119.767 133.8 120.776C134.346 121.267 134.857 121.744 135.348 122.2C135.839 122.663 136.343 123.147 136.862 123.665C137.926 124.757 138.631 125.87 138.984 126.983C139.336 128.096 139.343 129.201 139.011 130.293C138.68 131.386 138.044 132.422 137.111 133.411C136.191 134.385 135.189 135.076 134.125 135.47C133.06 135.864 131.954 135.92 130.814 135.643C129.673 135.367 128.533 134.717 127.386 133.708C126.833 133.231 126.314 132.761 125.823 132.298C125.333 131.835 124.835 131.344 124.331 130.819C123.245 129.727 122.52 128.621 122.16 127.522C121.801 126.416 121.787 125.331 122.126 124.259C122.464 123.188 123.121 122.138 124.089 121.115L124.075 121.108ZM125.609 122.559C124.745 123.478 124.31 124.488 124.317 125.6C124.317 126.706 124.918 127.874 126.114 129.098C126.632 129.637 127.109 130.107 127.538 130.508C127.966 130.909 128.457 131.351 129.01 131.828C129.867 132.588 130.683 133.072 131.47 133.279C132.258 133.487 132.991 133.466 133.675 133.224C134.36 132.982 134.989 132.561 135.555 131.959C136.122 131.358 136.509 130.708 136.717 130.01C136.924 129.312 136.896 128.572 136.647 127.805C136.399 127.031 135.873 126.236 135.071 125.414C134.553 124.902 134.076 124.439 133.648 124.038C133.219 123.637 132.728 123.181 132.175 122.684C130.89 121.557 129.687 121.032 128.574 121.101C127.462 121.17 126.473 121.661 125.609 122.573V122.559Z" fill="#F4F4F5"/>
<path d="M113.422 130.66C113.581 130.57 113.733 130.549 113.872 130.598C114.01 130.646 114.12 130.743 114.196 130.888L121.945 145.175C122.027 145.334 122.055 145.486 122.021 145.631C121.986 145.776 121.889 145.887 121.723 145.976L116.166 148.99C115.088 149.578 114.058 149.909 113.07 149.992C112.081 150.075 111.183 149.889 110.374 149.432C109.559 148.976 108.874 148.23 108.314 147.193C107.755 146.156 107.506 145.175 107.568 144.255C107.637 143.329 107.969 142.479 108.577 141.698C109.185 140.917 110.022 140.233 111.107 139.652L114.977 137.551L112.012 132.084C111.936 131.939 111.915 131.793 111.957 131.648C111.998 131.503 112.102 131.386 112.261 131.296L113.422 130.667V130.66ZM115.993 139.369L112.213 141.422C111.134 142.009 110.457 142.686 110.174 143.461C109.897 144.235 110.008 145.078 110.505 145.997C110.996 146.903 111.639 147.463 112.434 147.67C113.229 147.877 114.183 147.684 115.288 147.082L119.069 145.03L116 139.362L115.993 139.369Z" fill="#F4F4F5"/>
<path d="M92.1729 139.265C92.3318 139.23 92.477 139.265 92.6083 139.341C92.7327 139.424 92.8157 139.548 92.8502 139.714L95.691 154.07L100.377 153.144C100.543 153.109 100.681 153.144 100.813 153.22C100.937 153.303 101.02 153.427 101.048 153.593L101.248 154.616C101.283 154.796 101.262 154.948 101.172 155.072C101.082 155.197 100.965 155.28 100.799 155.307L89.0349 157.637C88.8552 157.671 88.7031 157.65 88.5787 157.561C88.4543 157.478 88.3713 157.346 88.3368 157.167L88.1364 156.144C88.1018 155.978 88.1363 155.833 88.2193 155.708C88.3022 155.584 88.4336 155.501 88.6133 155.466L93.2787 154.547L90.4449 140.191C90.4104 140.025 90.4449 139.88 90.5209 139.756C90.6039 139.631 90.7352 139.548 90.9149 139.514L92.1867 139.265H92.1729Z" fill="#F4F4F5"/>
<path d="M78.1311 140.55C78.3108 140.55 78.449 140.612 78.5457 140.723C78.6425 140.834 78.6909 140.972 78.684 141.138L78.1518 157.401C78.1518 157.567 78.0896 157.698 77.9859 157.809C77.8822 157.913 77.744 157.961 77.5574 157.954L76.2372 157.913C76.0575 157.913 75.9193 157.85 75.8225 157.74C75.7257 157.629 75.6773 157.491 75.6842 157.325L76.2165 141.062C76.2165 140.896 76.2787 140.758 76.3823 140.654C76.486 140.55 76.6312 140.502 76.8109 140.509L78.1311 140.55Z" fill="#F4F4F5"/>
<path d="M67.9163 139.893C68.0753 139.942 68.1928 140.039 68.2619 140.17C68.331 140.308 68.3448 140.453 68.2895 140.612L63.4305 156.115C63.3752 156.288 63.2784 156.413 63.1471 156.482C63.0089 156.551 62.8638 156.565 62.7048 156.509L61.5159 156.136C61.3224 156.074 61.198 155.984 61.1358 155.86C61.0736 155.735 61.0321 155.639 61.0183 155.563L59.0139 144.4L50.9478 152.404C50.8994 152.459 50.8095 152.514 50.692 152.584C50.5745 152.653 50.4225 152.653 50.2289 152.597L49.0677 152.231C48.8949 152.176 48.7706 152.079 48.7014 151.948C48.6323 151.809 48.6254 151.657 48.6738 151.485L53.5328 135.981C53.5812 135.822 53.678 135.712 53.8093 135.636C53.9406 135.56 54.0996 135.56 54.2724 135.615L55.4335 135.981C55.5925 136.03 55.7031 136.126 55.7791 136.258C55.8483 136.396 55.8621 136.541 55.8137 136.7L52.1504 148.381L58.5439 141.884C58.6545 141.746 58.7927 141.656 58.9448 141.608C59.0968 141.559 59.2696 141.566 59.4631 141.628L60.1958 141.856C60.4032 141.919 60.5483 142.015 60.6312 142.133C60.7142 142.25 60.7695 142.409 60.7971 142.589L62.3592 151.581L66.0225 139.9C66.0708 139.741 66.1676 139.631 66.2989 139.555C66.4302 139.479 66.5823 139.472 66.7413 139.52L67.9025 139.886L67.9163 139.893Z" fill="#F4F4F5"/>
<path d="M46.6547 131.053C46.8068 131.15 46.8966 131.274 46.9243 131.419C46.9519 131.565 46.9174 131.703 46.8275 131.848L37.9735 145.499C37.8836 145.637 37.7661 145.727 37.6279 145.762C37.4827 145.796 37.3376 145.762 37.1855 145.665L36.0796 144.946C35.9276 144.849 35.8377 144.725 35.8101 144.58C35.7824 144.434 35.817 144.289 35.9068 144.151L44.7609 130.5C44.8507 130.362 44.9682 130.272 45.1065 130.238C45.2516 130.203 45.3968 130.238 45.5488 130.334L46.6547 131.053Z" fill="#F4F4F5"/>
<path d="M39.0838 125.766C39.2083 125.897 39.2636 126.042 39.2498 126.194C39.2359 126.346 39.1668 126.478 39.0493 126.595L38.2752 127.335C38.0955 127.507 37.9157 127.611 37.743 127.639C37.5702 127.666 37.4388 127.694 37.3559 127.701L21.8043 129.754L27.9074 136.14C28.0249 136.258 28.0802 136.396 28.0733 136.548C28.0733 136.7 28.0111 136.831 27.8867 136.949L27.1679 137.633C27.0366 137.758 26.8914 137.82 26.7393 137.82C26.5873 137.82 26.4559 137.758 26.3384 137.633L18.5558 129.484C18.4314 129.353 18.3691 129.208 18.3691 129.056C18.3691 128.904 18.4382 128.765 18.5696 128.641L19.3437 127.901C19.4888 127.763 19.634 127.673 19.7722 127.632C19.9174 127.59 20.0556 127.556 20.2008 127.535L35.7386 125.392L29.4142 118.771C29.2898 118.64 29.2276 118.494 29.2276 118.342C29.2276 118.19 29.2967 118.052 29.4281 117.928L30.1469 117.243C30.2644 117.126 30.4026 117.071 30.5547 117.077C30.7067 117.084 30.845 117.147 30.9694 117.278L39.077 125.773L39.0838 125.766Z" fill="#F4F4F5"/>
<path d="M27.4276 112.585C27.4829 112.703 27.4898 112.834 27.4483 112.965C27.4 113.097 27.317 113.193 27.1995 113.256C27.1235 113.29 27.0406 113.325 26.9438 113.352L9.7679 114.866C9.58819 114.88 9.42922 114.852 9.29098 114.797C9.15275 114.735 9.02836 114.603 8.92468 114.396L8.18511 112.875C8.08143 112.668 8.05377 112.488 8.08833 112.343C8.12289 112.198 8.20585 112.053 8.32335 111.922L20.0942 99.3351C20.1702 99.2591 20.2462 99.2038 20.3153 99.1692C20.4328 99.1139 20.5642 99.107 20.6955 99.1485C20.8268 99.1969 20.9236 99.2798 20.9858 99.3973L21.5388 100.538C21.6286 100.717 21.6424 100.87 21.594 100.994C21.5456 101.118 21.4903 101.215 21.4281 101.284L18.85 104.063L22.4304 111.396L26.2042 111.078C26.2872 111.058 26.3908 111.071 26.5291 111.113C26.6604 111.161 26.771 111.272 26.8608 111.452L27.4138 112.592L27.4276 112.585ZM20.2048 111.68L17.2603 105.639L10.7908 112.53L20.2048 111.673V111.68Z" fill="#F4F4F5"/>
<path d="M19.0717 90.4881C19.0993 90.6539 19.0717 90.7991 18.9818 90.9235C18.8989 91.0479 18.7675 91.124 18.6086 91.1516L4.20435 93.7021L5.03378 98.409C5.06143 98.5749 5.03378 98.7131 4.94392 98.8375C4.85407 98.962 4.72963 99.038 4.57066 99.0656L3.5408 99.2453C3.3611 99.2799 3.20905 99.2453 3.08464 99.1624C2.96023 99.0725 2.88419 98.9481 2.85654 98.7892L0.769156 86.9769C0.734597 86.7971 0.769195 86.6451 0.852137 86.5207C0.941991 86.3963 1.07328 86.3202 1.25299 86.2857L2.28285 86.106C2.44873 86.0783 2.58697 86.106 2.71829 86.1958C2.84271 86.2857 2.91876 86.417 2.95332 86.5967L3.78274 91.276L18.187 88.7255C18.3528 88.6979 18.4911 88.7255 18.6155 88.8154C18.7399 88.9053 18.8159 89.0366 18.8505 89.2163L19.0786 90.4881H19.0717Z" fill="#F4F4F5"/>
<path d="M18.0624 76.4157C18.0555 76.5954 17.9932 76.7336 17.8757 76.8304C17.7651 76.9202 17.62 76.9686 17.461 76.9548L1.21134 76.0977C1.04545 76.0908 0.914117 76.0355 0.810439 75.9249C0.706762 75.8212 0.658413 75.6761 0.672237 75.4964L0.741338 74.1762C0.74825 73.9965 0.81047 73.8583 0.927971 73.7615C1.03856 73.6648 1.1837 73.6233 1.34958 73.6371L17.5993 74.4942C17.7652 74.5011 17.8965 74.5564 18.0002 74.667C18.1039 74.7707 18.1522 74.9158 18.1384 75.0955L18.0693 76.4157H18.0624Z" fill="#F4F4F5"/>
<path d="M21.018 60.8154C20.5964 62.1771 19.995 63.2691 19.2278 64.0916C18.4606 64.9141 17.5068 65.4325 16.3732 65.6537C15.2328 65.8749 13.9196 65.785 12.4266 65.391C11.7285 65.1906 11.0511 64.9902 10.4083 64.7897C9.76553 64.5893 9.10199 64.375 8.41081 64.14C6.97315 63.6216 5.85344 62.9373 5.04475 62.0941C4.24298 61.244 3.74536 60.2556 3.56566 59.1358C3.38595 58.0161 3.49653 56.7997 3.90433 55.5002C4.30521 54.2146 4.89963 53.164 5.68067 52.3415C6.46862 51.519 7.43624 50.9799 8.5836 50.7311C9.73096 50.4823 11.0373 50.5583 12.5096 50.9592C13.2146 51.1458 13.8919 51.3393 14.5347 51.5328C15.1775 51.7333 15.841 51.9545 16.5253 52.2033C17.9837 52.7079 19.1172 53.3783 19.9259 54.2146C20.7346 55.051 21.2253 56.0186 21.3912 57.1314C21.5571 58.2442 21.4327 59.4745 21.0111 60.8154H21.018ZM18.9997 60.1864C19.373 58.9838 19.3177 57.8848 18.8269 56.8895C18.3362 55.8942 17.2856 55.1132 15.6751 54.5395C14.9701 54.2838 14.3412 54.0695 13.7744 53.8967C13.2076 53.7239 12.5786 53.5442 11.8736 53.3576C10.7677 53.0465 9.82083 52.9774 9.02597 53.1364C8.23111 53.2954 7.57452 53.634 7.06995 54.1593C6.55848 54.6777 6.18523 55.3343 5.9364 56.1223C5.68758 56.9172 5.63228 57.6705 5.75669 58.3825C5.8811 59.1013 6.22669 59.751 6.79346 60.3316C7.36023 60.9191 8.18274 61.4029 9.26099 61.79C9.95217 62.025 10.5811 62.2254 11.141 62.3982C11.7008 62.571 12.3437 62.7646 13.0625 62.9719C14.7144 63.4143 16.0277 63.3659 16.9953 62.8129C17.963 62.26 18.6403 61.3891 19.0136 60.1795L18.9997 60.1864Z" fill="#F4F4F5"/>
<path d="M26.336 47.5725C26.2254 47.7176 26.1009 47.8005 25.9558 47.8213C25.8106 47.8351 25.6724 47.7936 25.5342 47.6969L12.4155 38.1102C12.2704 37.9996 12.1805 37.8752 12.1529 37.73C12.1252 37.5849 12.1667 37.4397 12.2704 37.2946L12.9478 36.3684C13.0653 36.2094 13.1897 36.1126 13.321 36.085C13.4523 36.0574 13.5421 36.0504 13.5974 36.0712L28.7205 36.8868L18.6707 29.5464C18.5256 29.4358 18.4357 29.3114 18.4081 29.1663C18.3804 29.0211 18.4219 28.876 18.5256 28.7308L19.2306 27.7701C19.3412 27.6249 19.4656 27.5351 19.6176 27.5143C19.7697 27.4936 19.9149 27.5351 20.0669 27.6388L33.1648 37.2116C33.2962 37.3084 33.3791 37.4397 33.4137 37.5918C33.4413 37.7507 33.4136 37.889 33.31 38.0272L32.6049 38.9949C32.4943 39.14 32.3769 39.223 32.2386 39.2368C32.1073 39.2506 32.0174 39.2644 31.9691 39.2713L16.9635 38.511L26.9304 45.7892C27.0617 45.886 27.1446 46.0104 27.1653 46.1624C27.1861 46.3145 27.1446 46.4596 27.0409 46.6117L26.336 47.5794V47.5725Z" fill="#F4F4F5"/>
<path d="M35.8412 28.3292C34.666 28.2276 33.735 27.1453 33.8346 25.9927C33.9382 24.7949 35.0186 23.8865 36.2164 23.9901C37.4142 24.0936 38.3 25.1721 38.1964 26.3699C38.0967 27.5224 37.0389 28.4328 35.8412 28.3292Z" fill="#F0F1F1"/>
</svg>
