<svg width="160" height="160" viewBox="0 0 160 160" fill="none" xmlns="http://www.w3.org/2000/svg">
<path d="M46.3653 18.5829C46.2118 18.6526 46.0723 18.6666 45.9327 18.6108C45.7932 18.555 45.6886 18.4573 45.6188 18.3038L45.2001 17.4457C45.1304 17.2922 45.1165 17.1527 45.1583 17.0062C45.2002 16.8666 45.2979 16.755 45.4514 16.6852L52.2605 13.3992C52.414 13.3295 52.5605 13.3155 52.707 13.3644C52.8535 13.4132 52.9652 13.5178 53.0349 13.6644L53.4535 14.5225C53.5233 14.676 53.5372 14.8225 53.4884 14.969C53.4395 15.1155 53.3349 15.2201 53.1884 15.2969L46.3792 18.5829H46.3653Z" fill="#F4F4F5"/>
<path d="M62.4151 20.0062C62.2337 20.0411 62.0872 20.0132 61.9616 19.9294C61.836 19.8457 61.7663 19.7132 61.7314 19.5527L58.6199 3.45069C58.585 3.2693 58.6059 3.11582 58.6826 2.99024C58.7594 2.86466 58.8919 2.78094 59.0733 2.74606L60.2105 2.52978C60.4058 2.4949 60.5663 2.50885 60.6779 2.57862C60.7965 2.64838 60.8663 2.71117 60.8942 2.75303L71.5126 13.7482L69.1266 1.4205C69.0917 1.23911 69.1126 1.08562 69.1894 0.960044C69.2661 0.834465 69.3987 0.757723 69.5801 0.715863L70.7661 0.485635C70.9475 0.450752 71.101 0.478658 71.2266 0.562378C71.3521 0.646097 71.4358 0.785629 71.4707 0.960044L74.5754 17.0411C74.6103 17.2086 74.5753 17.3551 74.4986 17.4946C74.4218 17.6341 74.2893 17.7109 74.1219 17.7458L72.9358 17.976C72.7544 18.0109 72.6079 17.9899 72.5033 17.9062C72.3916 17.8225 72.3219 17.7737 72.28 17.7458L61.7105 6.86923L64.0755 19.0992C64.1104 19.2667 64.0755 19.4132 63.9918 19.5388C63.9081 19.6643 63.7685 19.7481 63.5941 19.7829L62.4081 20.0132L62.4151 20.0062Z" fill="#F4F4F5"/>
<path d="M80.8856 17.5642C80.7042 17.5503 80.5647 17.4805 80.474 17.3619C80.3833 17.2433 80.3484 17.1038 80.3623 16.9363L81.8205 0.597103C81.8345 0.415711 81.8972 0.276179 82.0088 0.17153C82.1204 0.0738576 82.267 0.031998 82.4483 0.0459512L92.7807 0.966864C92.9621 0.980817 93.1016 1.05058 93.1923 1.16919C93.283 1.28779 93.3179 1.4343 93.304 1.62266L93.2203 2.57148C93.2063 2.75288 93.1435 2.89241 93.0319 2.9831C92.9203 3.0738 92.7738 3.10868 92.5924 3.09473L84.0879 2.33428L83.5995 7.81092L91.5529 8.52253C91.7342 8.53648 91.8738 8.60625 91.9644 8.72485C92.0551 8.84345 92.0901 8.98996 92.0761 9.17833L91.9924 10.1062C91.9784 10.2737 91.9156 10.4062 91.804 10.5039C91.6924 10.6016 91.5459 10.6434 91.3645 10.6295L83.4111 9.91785L82.9018 15.5968L91.6086 16.3712C91.79 16.3852 91.9296 16.448 92.0203 16.5596C92.111 16.6712 92.1458 16.8177 92.1319 16.9991L92.0482 17.9758C92.0342 18.1433 91.9714 18.2758 91.8598 18.3735C91.7482 18.4712 91.6016 18.513 91.4203 18.4991L80.8856 17.5572V17.5642Z" fill="#F4F4F5"/>
<path d="M100.805 21.2686C100.644 21.2128 100.54 21.1151 100.47 20.9755C100.407 20.836 100.4 20.6895 100.456 20.529L105.521 6.65955L100.993 5.00609C100.833 4.95028 100.728 4.8526 100.658 4.71307C100.595 4.57354 100.588 4.42703 100.644 4.26657L101.007 3.27589C101.07 3.10148 101.174 2.98287 101.314 2.92008C101.453 2.85729 101.6 2.85032 101.76 2.90613L113.132 7.05721C113.307 7.12 113.425 7.22465 113.488 7.36418C113.551 7.50372 113.551 7.6572 113.488 7.83162L113.125 8.8223C113.07 8.98276 112.972 9.08741 112.832 9.15717C112.693 9.21996 112.539 9.21996 112.365 9.15717L107.858 7.51069L102.793 21.3802C102.737 21.5407 102.639 21.6453 102.5 21.7151C102.36 21.7779 102.207 21.7779 102.033 21.7151L100.805 21.2686Z" fill="#F4F4F5"/>
<path d="M113.634 27.3174C113.459 27.1848 113.362 27.0383 113.327 26.8639C113.299 26.6965 113.327 26.5081 113.417 26.3058L120.562 11.4874C120.589 11.4247 120.617 11.3688 120.645 11.334C120.673 11.2921 120.694 11.2642 120.708 11.2572C120.792 11.1526 120.903 11.0898 121.043 11.0688C121.182 11.0479 121.308 11.0828 121.413 11.1595L122.452 11.9479C122.731 12.1572 122.808 12.3944 122.675 12.6525L116.899 24.5337L124.427 19.078C124.559 18.9873 124.713 18.9315 124.887 18.9036C125.061 18.8757 125.243 18.9385 125.431 19.078L126.171 19.6361C126.373 19.7896 126.478 19.9501 126.499 20.1175C126.52 20.285 126.499 20.4454 126.429 20.5849L123.247 29.3266L133.092 20.5222C133.301 20.3268 133.559 20.3408 133.852 20.557L134.891 21.3454C134.996 21.4291 135.059 21.5338 135.08 21.6803C135.101 21.8268 135.066 21.9454 134.989 22.05C134.982 22.064 134.954 22.0849 134.919 22.1198C134.885 22.1547 134.843 22.1965 134.801 22.2524L122.487 33.1568C122.313 33.3033 122.145 33.38 121.971 33.401C121.796 33.4219 121.629 33.3591 121.455 33.2335L120.673 32.6405C120.485 32.501 120.373 32.3405 120.338 32.1661C120.303 31.9917 120.317 31.8173 120.394 31.6429L123.68 22.1338L115.448 27.9034C115.28 28.0081 115.113 28.0708 114.945 28.0918C114.771 28.1127 114.597 28.0499 114.408 27.9034L113.627 27.3104L113.634 27.3174Z" fill="#F4F4F5"/>
<path d="M130.755 44.3128C129.924 43.1337 129.422 41.9896 129.234 40.8663C129.045 39.7431 129.22 38.6617 129.743 37.6222C130.266 36.5757 131.145 35.5781 132.38 34.6293C132.973 34.1897 133.545 33.7781 134.103 33.3874C134.655 32.9967 135.241 32.5991 135.855 32.1874C137.152 31.3572 138.387 30.8828 139.566 30.7642C140.745 30.6456 141.834 30.8619 142.845 31.4061C143.857 31.9572 144.757 32.7874 145.545 33.9107C146.326 35.0199 146.801 36.1432 146.975 37.2804C147.15 38.4175 146.982 39.5199 146.48 40.5942C145.978 41.6686 145.106 42.6663 143.878 43.5942C143.292 44.0477 142.727 44.4663 142.168 44.857C141.617 45.2477 141.024 45.6383 140.403 46.036C139.099 46.8941 137.871 47.3825 136.706 47.515C135.541 47.6476 134.459 47.4383 133.469 46.8871C132.478 46.336 131.571 45.4779 130.755 44.3128ZM132.499 43.0849C133.231 44.1244 134.145 44.7593 135.241 44.9756C136.336 45.1988 137.613 44.836 139.057 43.9012C139.692 43.4965 140.25 43.1198 140.738 42.7779C141.227 42.4361 141.757 42.0384 142.343 41.5849C143.271 40.8942 143.913 40.1757 144.275 39.4431C144.638 38.7106 144.771 37.978 144.666 37.2455C144.561 36.5199 144.275 35.8153 143.794 35.1316C143.313 34.4479 142.747 33.9316 142.099 33.5897C141.45 33.2479 140.717 33.1223 139.901 33.213C139.085 33.3037 138.192 33.6665 137.215 34.2874C136.601 34.699 136.05 35.0758 135.568 35.4176C135.087 35.7595 134.536 36.1571 133.929 36.6036C132.555 37.6501 131.794 38.7315 131.634 39.8478C131.473 40.964 131.759 42.0384 132.492 43.0779L132.499 43.0849Z" fill="#F4F4F5"/>
<path d="M137.262 54.8751C137.206 54.7007 137.206 54.5472 137.283 54.4216C137.36 54.296 137.472 54.1984 137.632 54.1495L153.176 48.931C153.35 48.8752 153.504 48.8752 153.643 48.931C153.776 48.9938 153.874 49.1054 153.936 49.2799L155.89 55.0914C156.49 56.8844 156.546 58.4471 156.057 59.7796C155.569 61.1122 154.494 62.054 152.848 62.6052C151.627 63.0168 150.525 63.0447 149.555 62.6889C148.578 62.3331 147.769 61.6843 147.113 60.7424L142.013 66.533C141.936 66.6097 141.853 66.6656 141.776 66.6935C141.65 66.7353 141.518 66.7214 141.392 66.6516C141.26 66.5818 141.176 66.4842 141.134 66.3516L140.751 65.2074C140.66 64.9354 140.667 64.7121 140.764 64.5377C140.862 64.3633 140.967 64.2028 141.078 64.0633L145.969 58.5797L144.574 54.4146L138.434 56.4797C138.274 56.5355 138.127 56.5285 137.988 56.4588C137.848 56.389 137.751 56.2704 137.695 56.096L137.29 54.8821L137.262 54.8751ZM146.576 53.7379L147.895 57.6657C148.292 58.8587 148.843 59.661 149.541 60.0796C150.239 60.4982 151.076 60.5471 152.06 60.2122C153.029 59.8843 153.671 59.3471 153.978 58.6006C154.285 57.8541 154.243 56.8704 153.839 55.6634L152.52 51.7356L146.569 53.7379H146.576Z" fill="#F4F4F5"/>
<path d="M141.895 71.8838C141.888 71.7024 141.93 71.5559 142.035 71.4513C142.139 71.3466 142.272 71.2908 142.439 71.2769L158.821 70.4536C159.002 70.4467 159.155 70.4885 159.267 70.5792C159.379 70.6769 159.441 70.8164 159.448 70.9978L159.511 72.2536C159.518 72.435 159.476 72.5885 159.372 72.7001C159.267 72.8117 159.127 72.8745 158.939 72.8815L152.716 73.1954L159.476 79.5721C159.546 79.6348 159.637 79.7465 159.741 79.9C159.846 80.0534 159.909 80.2627 159.923 80.5348L159.993 81.8883C159.993 82.0208 159.958 82.1394 159.86 82.2441C159.762 82.3487 159.651 82.4046 159.518 82.4115C159.386 82.4115 159.274 82.3906 159.19 82.3278L151.223 74.9605L143.332 83.6324C143.235 83.7231 143.123 83.772 142.991 83.7789C142.858 83.7859 142.739 83.7441 142.635 83.6464C142.53 83.5487 142.474 83.4371 142.467 83.3045L142.398 81.9022C142.384 81.6162 142.425 81.3999 142.53 81.2395C142.628 81.086 142.712 80.9674 142.774 80.8976L149.465 73.3699L142.565 73.7187C142.398 73.7257 142.258 73.6768 142.139 73.5792C142.028 73.4745 141.965 73.335 141.958 73.1466L141.895 71.8908V71.8838Z" fill="#F4F4F5"/>
<path d="M141.623 88.4886C141.651 88.3072 141.727 88.1746 141.846 88.0909C141.965 88.0072 142.111 87.9793 142.278 88.0072L158.52 90.449C158.687 90.4769 158.813 90.5467 158.904 90.6583C158.994 90.7769 159.029 90.9234 159.001 91.1048L158.806 92.4234C158.778 92.6048 158.701 92.7373 158.583 92.821C158.464 92.9047 158.318 92.9327 158.15 92.9048L141.909 90.4629C141.741 90.435 141.616 90.3653 141.525 90.2536C141.434 90.135 141.399 89.9885 141.427 89.8071L141.623 88.4886Z" fill="#F4F4F5"/>
<path d="M140.2 96.6858C140.27 96.5114 140.368 96.3998 140.507 96.344C140.647 96.2881 140.793 96.2951 140.947 96.3509L156.239 102.274C156.414 102.337 156.533 102.442 156.595 102.574C156.658 102.707 156.658 102.86 156.595 103.035L156.177 104.109C156.107 104.297 156.009 104.423 155.884 104.479C155.758 104.534 155.674 104.569 155.619 104.562L140.661 107.716L152.374 112.251C152.549 112.32 152.667 112.418 152.73 112.551C152.793 112.683 152.793 112.837 152.73 113.011L152.298 114.134C152.228 114.309 152.13 114.42 151.984 114.483C151.844 114.546 151.684 114.546 151.516 114.483L136.245 108.567C136.091 108.504 135.972 108.407 135.903 108.26C135.833 108.113 135.826 107.967 135.889 107.814L136.321 106.69C136.391 106.516 136.482 106.411 136.614 106.355C136.74 106.307 136.824 106.272 136.872 106.251L151.705 103.076L140.089 98.5765C139.935 98.5137 139.824 98.416 139.761 98.2765C139.698 98.1369 139.698 97.9765 139.761 97.809L140.193 96.6858H140.2Z" fill="#F4F4F5"/>
<path d="M128.766 118.027C129.687 116.855 130.685 116.032 131.752 115.565C132.82 115.097 133.922 114.958 135.045 115.153C136.175 115.348 137.292 115.837 138.394 116.618C138.98 117.058 139.601 117.539 140.257 118.048C140.905 118.557 141.526 119.053 142.105 119.534C143.131 120.427 143.871 121.39 144.317 122.436C144.764 123.483 144.882 124.578 144.666 125.729C144.457 126.881 143.891 128.039 142.984 129.197C142.259 130.118 141.498 130.815 140.696 131.297C139.894 131.771 139.119 132.078 138.373 132.204C137.626 132.329 136.95 132.329 136.343 132.204C135.736 132.078 135.268 131.897 134.927 131.653C134.801 131.569 134.724 131.464 134.717 131.332C134.703 131.199 134.752 131.06 134.857 130.927L135.771 129.762C135.875 129.629 135.973 129.553 136.078 129.539C136.175 129.518 136.315 129.539 136.482 129.587C136.915 129.734 137.403 129.804 137.947 129.797C138.492 129.783 139.043 129.636 139.622 129.357C140.194 129.071 140.759 128.583 141.303 127.885C142.133 126.832 142.51 125.764 142.447 124.683C142.384 123.602 141.722 122.52 140.459 121.446C139.322 120.483 138.15 119.562 136.943 118.683C135.582 117.699 134.368 117.309 133.287 117.504C132.206 117.699 131.257 118.32 130.441 119.36C129.889 120.057 129.534 120.783 129.373 121.536C129.206 122.29 129.268 123.036 129.555 123.769C129.841 124.502 130.399 125.199 131.229 125.848L132.059 126.497L134.389 123.532C134.494 123.399 134.62 123.322 134.773 123.309C134.926 123.288 135.073 123.336 135.22 123.455L135.854 123.95C136.001 124.062 136.085 124.195 136.099 124.348C136.12 124.502 136.071 124.641 135.973 124.774L132.471 129.239C132.359 129.385 132.227 129.462 132.08 129.476C131.934 129.49 131.787 129.434 131.641 129.322L129.743 127.836C128.662 126.985 127.894 126.029 127.441 124.955C126.98 123.881 126.868 122.75 127.085 121.564C127.308 120.371 127.873 119.199 128.78 118.041L128.766 118.027Z" fill="#F4F4F5"/>
<path d="M125.308 133.209C125.44 133.104 125.58 133.069 125.726 133.097C125.873 133.125 125.998 133.202 126.096 133.334L126.675 134.095C126.78 134.227 126.822 134.367 126.808 134.513C126.794 134.66 126.717 134.785 126.584 134.883L120.563 139.453C120.431 139.557 120.284 139.592 120.138 139.571C119.984 139.55 119.859 139.474 119.754 139.341L119.175 138.581C119.07 138.448 119.036 138.302 119.057 138.148C119.078 137.995 119.154 137.869 119.287 137.771L125.308 133.202V133.209Z" fill="#F4F4F5"/>
<path d="M96.2003 139.564C97.6863 139.16 98.9909 139.104 100.121 139.39C101.251 139.676 102.193 140.241 102.961 141.092C103.728 141.943 104.314 143.018 104.719 144.308C104.914 144.964 105.116 145.676 105.319 146.436C105.521 147.197 105.716 147.922 105.884 148.627C106.191 149.946 106.226 151.173 105.995 152.29C105.758 153.413 105.228 154.383 104.398 155.192C103.568 156.008 102.409 156.615 100.923 157.02C99.8071 157.32 98.7886 157.431 97.8677 157.355C96.9468 157.278 96.1304 157.055 95.4328 156.685C94.7351 156.315 94.1561 155.855 93.6886 155.297C93.2282 154.738 92.8864 154.125 92.6701 153.455C92.6143 153.315 92.6283 153.183 92.705 153.057C92.7817 152.932 92.8934 152.848 93.0399 152.813L94.3724 152.45C94.5189 152.408 94.6515 152.415 94.784 152.471C94.9096 152.52 95.0282 152.646 95.1328 152.848C95.7468 154.034 96.5002 154.759 97.3723 155.025C98.2514 155.29 99.249 155.269 100.365 154.969C101.677 154.613 102.612 153.964 103.17 153.022C103.728 152.08 103.819 150.797 103.428 149.164C103.114 147.825 102.751 146.471 102.326 145.09C101.837 143.485 101.119 142.418 100.156 141.895C99.1932 141.364 98.063 141.281 96.7514 141.629C95.6351 141.929 94.77 142.418 94.1421 143.095C93.5212 143.764 93.2422 144.769 93.305 146.108C93.312 146.332 93.277 146.499 93.1933 146.604C93.1096 146.715 92.998 146.785 92.8515 146.827L91.5189 147.19C91.3724 147.232 91.2399 147.218 91.1073 147.162C90.9748 147.099 90.905 146.994 90.8771 146.848C90.7236 146.157 90.7096 145.453 90.8213 144.727C90.9399 144.001 91.205 143.304 91.6236 142.634C92.0422 141.964 92.6282 141.364 93.3887 140.827C94.1422 140.29 95.084 139.871 96.2003 139.571V139.564Z" fill="#F4F4F5"/>
<path d="M78.6199 141.657C80.0571 141.692 81.285 141.971 82.2966 142.487C83.3082 143.003 84.0757 143.785 84.5989 144.831C85.1291 145.871 85.4082 147.175 85.4361 148.731C85.4361 149.471 85.4291 150.175 85.4081 150.852C85.3872 151.529 85.3663 152.24 85.3314 152.973C85.2268 154.515 84.8779 155.792 84.2709 156.803C83.664 157.815 82.8478 158.568 81.8083 159.057C80.7688 159.545 79.5618 159.768 78.1874 159.74C76.8339 159.705 75.6479 159.426 74.6293 158.889C73.6107 158.352 72.8224 157.564 72.2642 156.524C71.7061 155.478 71.4131 154.187 71.3991 152.645C71.3852 151.906 71.3852 151.201 71.3991 150.524C71.4131 149.848 71.448 149.136 71.4968 148.403C71.5805 146.848 71.9224 145.564 72.5084 144.545C73.0944 143.527 73.9037 142.787 74.9362 142.32C75.9688 141.852 77.1967 141.629 78.6199 141.664V141.657ZM78.5711 143.792C77.3014 143.764 76.2479 144.12 75.4177 144.873C74.5875 145.627 74.12 146.862 74.0084 148.585C73.9595 149.338 73.9247 150.008 73.9107 150.608C73.8967 151.201 73.8967 151.871 73.9107 152.603C73.9107 153.761 74.1061 154.703 74.4828 155.429C74.8596 156.154 75.3688 156.699 76.0176 157.047C76.6595 157.396 77.406 157.585 78.2432 157.606C79.0804 157.626 79.8269 157.473 80.4897 157.159C81.1525 156.838 81.6826 156.322 82.0942 155.617C82.5059 154.906 82.7501 153.978 82.8268 152.82C82.8617 152.087 82.8826 151.417 82.8966 150.824C82.9105 150.231 82.9175 149.555 82.9175 148.801C82.8896 147.078 82.478 145.815 81.6757 145.027C80.8734 144.238 79.8408 143.827 78.5641 143.799L78.5711 143.792Z" fill="#F4F4F5"/>
<path d="M66.2549 140.667C66.4293 140.723 66.5479 140.82 66.6107 140.953C66.6735 141.085 66.6735 141.232 66.6247 141.392L61.469 156.964C61.4131 157.139 61.3154 157.264 61.1899 157.334C61.0643 157.404 60.9108 157.411 60.7364 157.355L59.6411 156.992C59.4527 156.929 59.3201 156.839 59.2573 156.72C59.1876 156.601 59.1597 156.518 59.1597 156.462L55.2667 141.678L51.318 153.601C51.2621 153.776 51.1644 153.901 51.0389 153.971C50.9063 154.041 50.7599 154.048 50.5855 153.992L49.4413 153.615C49.2669 153.56 49.1413 153.462 49.0785 153.322C49.0087 153.183 49.0017 153.029 49.0645 152.855L54.2133 137.311C54.2691 137.151 54.3598 137.032 54.5063 136.955C54.6458 136.879 54.7993 136.865 54.9528 136.92L56.0969 137.297C56.2713 137.353 56.3899 137.444 56.4457 137.569C56.5016 137.695 56.5434 137.779 56.5644 137.82L60.4713 152.471L64.3851 140.646C64.4409 140.485 64.5317 140.374 64.6712 140.304C64.8107 140.234 64.9642 140.227 65.1387 140.29L66.2828 140.667H66.2549Z" fill="#F4F4F5"/>
<path d="M48.9786 133.892C49.1251 133.997 49.2157 134.122 49.2297 134.276C49.2506 134.422 49.2088 134.562 49.1112 134.702L39.5881 148.055C39.4834 148.201 39.3578 148.292 39.2113 148.327C39.0648 148.355 38.9183 148.32 38.7718 148.215L37.8299 147.545C37.6695 147.427 37.5718 147.301 37.5439 147.169C37.516 147.036 37.509 146.945 37.5229 146.89L38.1648 131.618L30.8743 141.846C30.7696 141.992 30.644 142.083 30.4975 142.118C30.351 142.146 30.2045 142.111 30.058 141.999L29.0743 141.301C28.9278 141.197 28.8371 141.064 28.8091 140.911C28.7812 140.757 28.8231 140.611 28.9348 140.457L38.4369 127.125C38.5346 126.985 38.6602 126.902 38.8207 126.874C38.9811 126.846 39.1207 126.874 39.2602 126.971L40.2438 127.669C40.3903 127.774 40.474 127.899 40.495 128.032C40.5089 128.164 40.5229 128.255 40.5299 128.304L39.9369 143.457L47.1647 133.313C47.2623 133.174 47.3879 133.097 47.5414 133.069C47.6949 133.041 47.8413 133.083 47.9948 133.188L48.9786 133.885V133.892Z" fill="#F4F4F5"/>
<path d="M34.4765 122.206C34.5951 122.353 34.6371 122.492 34.6161 122.639C34.5952 122.785 34.5184 122.911 34.3858 123.016L21.542 133.215C21.3955 133.327 21.2489 133.383 21.1024 133.369C20.9559 133.355 20.8233 133.278 20.7117 133.139L14.2653 125.011C14.1537 124.864 14.1049 124.718 14.1258 124.578C14.1468 124.439 14.2305 124.299 14.377 124.188L15.1234 123.595C15.2699 123.476 15.4095 123.427 15.549 123.448C15.6885 123.462 15.8141 123.546 15.9327 123.692L21.2419 130.383L25.5535 126.964L20.5862 120.706C20.4745 120.56 20.4257 120.413 20.4466 120.274C20.4675 120.134 20.5512 119.995 20.6977 119.883L21.4233 119.304C21.5559 119.199 21.6954 119.151 21.8419 119.165C21.9884 119.179 22.121 119.255 22.2326 119.395L27.2 125.653L31.665 122.109L26.2302 115.265C26.1186 115.118 26.0698 114.979 26.0837 114.839C26.0977 114.7 26.1814 114.574 26.3209 114.455L27.0883 113.848C27.2209 113.744 27.3604 113.695 27.5069 113.709C27.6534 113.723 27.786 113.8 27.8976 113.939L34.4696 122.22L34.4765 122.206Z" fill="#F4F4F5"/>
<path d="M23.0139 103.592C23.6069 105.016 23.8441 106.299 23.7046 107.457C23.5721 108.616 23.1325 109.627 22.393 110.499C21.6535 111.371 20.6628 112.097 19.4349 112.669C18.807 112.948 18.1303 113.241 17.4047 113.548C16.6791 113.855 15.9815 114.134 15.3117 114.399C14.042 114.881 12.8351 115.076 11.6909 114.992C10.5467 114.909 9.52114 114.511 8.60023 113.792C7.6863 113.081 6.92585 112.013 6.33283 110.59C5.88633 109.523 5.6422 108.532 5.60034 107.604C5.55848 106.676 5.6701 105.846 5.94219 105.106C6.21428 104.367 6.59792 103.732 7.08628 103.195C7.58162 102.658 8.14676 102.246 8.78163 101.939C8.91419 101.862 9.0467 101.862 9.17926 101.918C9.31182 101.981 9.40952 102.079 9.47231 102.218L10.0095 103.495C10.0653 103.634 10.0793 103.767 10.0444 103.899C10.0096 104.032 9.89787 104.165 9.72346 104.297C8.62813 105.065 8.00726 105.902 7.86076 106.809C7.71425 107.716 7.86068 108.699 8.30718 109.767C8.83043 111.016 9.59788 111.86 10.6025 112.292C11.6071 112.725 12.8978 112.641 14.4606 112.034C15.7443 111.553 17.0419 111.009 18.3535 110.402C19.8814 109.711 20.8372 108.853 21.2349 107.827C21.6325 106.809 21.5697 105.671 21.0465 104.423C20.6 103.355 20 102.56 19.2535 102.03C18.507 101.499 17.4744 101.353 16.1559 101.597C15.9396 101.632 15.7652 101.618 15.6466 101.548C15.528 101.479 15.4373 101.374 15.3815 101.241L14.8443 99.9646C14.7885 99.8251 14.7815 99.6856 14.8234 99.553C14.8653 99.4204 14.9629 99.3297 15.1025 99.2879C15.7653 99.0437 16.4629 98.9391 17.1955 98.953C17.928 98.9739 18.6536 99.1414 19.3722 99.4693C20.0907 99.7972 20.7604 100.299 21.3953 100.976C22.0232 101.653 22.5674 102.525 23.0139 103.592Z" fill="#F4F4F5"/>
<path d="M18.5971 88.2582C18.618 88.4256 18.5832 88.5651 18.4855 88.6907C18.3878 88.8093 18.2622 88.8861 18.0948 88.907L3.43691 90.7349L4.03689 95.5208C4.05782 95.6883 4.02299 95.8278 3.92532 95.9534C3.82765 96.072 3.70203 96.1487 3.53459 96.1696L2.4881 96.3022C2.30671 96.3231 2.15321 96.2882 2.0346 96.1976C1.916 96.1069 1.8393 95.9743 1.81837 95.8069L0.318385 83.7931C0.297455 83.6117 0.332355 83.4583 0.423051 83.3397C0.513747 83.2211 0.653262 83.1443 0.841631 83.1234L1.88812 82.9908C2.05556 82.9699 2.20207 83.0048 2.32067 83.1025C2.43927 83.2001 2.51605 83.3327 2.53698 83.5211L3.12998 88.2791L17.7878 86.4512C17.9553 86.4303 18.1018 86.4652 18.2204 86.5629C18.339 86.6605 18.4157 86.7931 18.4366 86.9814L18.5971 88.2791V88.2582Z" fill="#F4F4F5"/>
<path d="M18.1465 76.0424C18.1325 76.2238 18.0697 76.3633 17.9511 76.454C17.8325 76.5447 17.693 76.5866 17.5255 76.5726L1.13747 75.4075C0.970035 75.3936 0.837425 75.3378 0.732775 75.2262C0.628126 75.1215 0.586308 74.975 0.600261 74.7866L0.697944 73.4611C0.711897 73.2797 0.774707 73.1401 0.893309 73.0495C1.01191 72.9588 1.15143 72.9169 1.31887 72.9309L17.7069 74.0959C17.8744 74.1099 18.0069 74.1657 18.1115 74.2773C18.2162 74.389 18.2581 74.5285 18.2441 74.7169L18.1534 76.0424H18.1465Z" fill="#F4F4F5"/>
<path d="M20.8078 62.2981C20.4032 63.6794 19.8172 64.7887 19.0497 65.6329C18.2893 66.4701 17.3335 67.0142 16.1893 67.2515C15.0452 67.4887 13.7196 67.4189 12.2057 67.0422C11.4941 66.8468 10.8104 66.6584 10.1615 66.4631C9.51271 66.2677 8.83595 66.0654 8.13132 65.8352C6.67321 65.3329 5.5291 64.6631 4.70586 63.819C3.88262 62.9748 3.3663 61.9841 3.17096 60.8539C2.96864 59.7237 3.06633 58.4958 3.45702 57.1772C3.84074 55.8796 4.4198 54.8052 5.20118 53.961C5.98256 53.1168 6.95233 52.5587 8.10347 52.2866C9.25461 52.0145 10.5801 52.0773 12.0731 52.461C12.7917 52.6355 13.4755 52.8238 14.1243 53.0122C14.7731 53.2075 15.4499 53.4168 16.1475 53.661C17.6266 54.1494 18.7846 54.8122 19.6079 55.6354C20.4311 56.4586 20.9473 57.4423 21.1287 58.5586C21.3101 59.6749 21.2055 60.9237 20.8009 62.2841L20.8078 62.2981ZM18.7568 61.6911C19.1195 60.4702 19.0428 59.3609 18.5335 58.3633C18.0242 57.3656 16.9498 56.5912 15.3173 56.04C14.6056 55.7959 13.9638 55.5866 13.3917 55.4191C12.8196 55.2517 12.1778 55.0773 11.4592 54.9029C10.3429 54.6098 9.38014 54.547 8.57783 54.7215C7.77552 54.8959 7.11976 55.2447 6.61745 55.7819C6.11513 56.3121 5.73841 56.9819 5.50121 57.7842C5.264 58.5865 5.2151 59.347 5.34766 60.0725C5.48719 60.7911 5.84302 61.4469 6.42208 62.026C7.00114 62.605 7.83832 63.0864 8.93364 63.4632C9.63828 63.6864 10.2731 63.8817 10.8382 64.0492C11.4103 64.2166 12.0592 64.398 12.7847 64.6003C14.4591 65.0259 15.7777 64.9492 16.7475 64.3841C17.7172 63.819 18.387 62.919 18.7428 61.6981L18.7568 61.6911Z" fill="#F4F4F5"/>
<path d="M24.9712 50.6612C24.8666 50.8147 24.7481 50.9054 24.6015 50.9263C24.455 50.9473 24.3155 50.9194 24.169 50.8217L10.4809 41.787C10.3274 41.6823 10.2297 41.5637 10.1948 41.4172C10.1599 41.2707 10.1948 41.1242 10.2925 40.9707L10.9273 40.0079C11.0389 39.8405 11.1576 39.7428 11.2901 39.708C11.4227 39.6731 11.5134 39.6661 11.5622 39.68L26.848 39.7777L16.3691 32.8639C16.2156 32.7662 16.1179 32.6407 16.083 32.4941C16.0482 32.3476 16.0831 32.2011 16.1807 32.0476L16.8436 31.043C16.9482 30.8895 17.0737 30.7988 17.2202 30.7639C17.3737 30.736 17.5202 30.7639 17.6737 30.8686L31.3409 39.8893C31.4804 39.98 31.5711 40.1056 31.606 40.2591C31.6409 40.4126 31.613 40.5591 31.5223 40.6986L30.8595 41.7033C30.7619 41.8568 30.6433 41.9474 30.5037 41.9684C30.3712 41.9893 30.2805 42.0033 30.2316 42.0172L15.0645 41.9684L25.4597 48.8264C25.5992 48.9171 25.6829 49.0427 25.7178 49.1892C25.7457 49.3427 25.7178 49.4892 25.6131 49.6426L24.9504 50.6473L24.9712 50.6612Z" fill="#F4F4F5"/>
<path d="M40.149 32.6478C39.0397 33.5897 37.9583 34.2106 36.9118 34.5036C35.8654 34.7966 34.9096 34.8454 34.0515 34.6431C33.1864 34.4408 32.4887 34.0501 31.9585 33.4711C31.8748 33.3664 31.833 33.2408 31.8469 33.0873C31.8609 32.9339 31.9236 32.8083 32.0352 32.7106L33.0119 31.8804C33.1654 31.7478 33.3119 31.692 33.4515 31.706C33.591 31.7199 33.7166 31.7618 33.8282 31.8455C34.1631 32.0897 34.5817 32.2571 35.0771 32.3478C35.5724 32.4455 36.1305 32.3967 36.7514 32.2083C37.3723 32.0199 38.0421 31.6223 38.7537 31.0153C39.849 30.0874 40.4909 29.2014 40.6792 28.3781C40.8676 27.5479 40.6793 26.8084 40.1281 26.1596C39.7514 25.7131 39.3049 25.4689 38.7956 25.427C38.2863 25.3852 37.6653 25.4968 36.9188 25.7549C36.1723 26.0131 35.2445 26.3968 34.1352 26.8991C32.9771 27.4223 31.9515 27.7851 31.0724 27.9874C30.1934 28.1898 29.3981 28.1828 28.6935 27.9595C27.9958 27.7433 27.333 27.2688 26.719 26.5433C26.133 25.8526 25.7982 25.0782 25.7075 24.227C25.6168 23.3689 25.7842 22.4829 26.2167 21.569C26.6493 20.655 27.354 19.776 28.3377 18.9458C29.126 18.276 29.9074 17.7876 30.6818 17.4946C31.4562 17.2016 32.1887 17.0621 32.8794 17.076C33.5701 17.09 34.191 17.2156 34.7351 17.4388C35.2793 17.669 35.7258 17.969 36.0607 18.3388C36.1375 18.4295 36.1794 18.5411 36.1863 18.6806C36.1863 18.8202 36.1235 18.9458 35.984 19.0644L34.9654 19.9225C34.8747 19.9992 34.7631 20.055 34.6236 20.0829C34.4841 20.1108 34.3305 20.0829 34.1561 19.9853C33.6329 19.5248 32.9701 19.3364 32.1538 19.4132C31.3376 19.4899 30.5213 19.8736 29.705 20.5643C28.8748 21.269 28.3377 22.0015 28.0935 22.755C27.8493 23.5154 28.0097 24.227 28.5888 24.9038C28.9586 25.3363 29.3841 25.5945 29.8725 25.6782C30.3608 25.7619 30.9539 25.6852 31.6655 25.4619C32.3701 25.2317 33.2491 24.8829 34.3026 24.4154C35.5654 23.8294 36.6538 23.4178 37.5677 23.1736C38.4816 22.9364 39.2979 22.9154 40.0025 23.1178C40.7072 23.3201 41.3769 23.7805 41.9908 24.5131C42.6745 25.3154 43.0443 26.1805 43.1071 27.1084C43.1699 28.0363 42.9466 28.9711 42.4374 29.913C41.935 30.8548 41.1607 31.7688 40.1281 32.6478H40.149Z" fill="#F4F4F5"/>
</svg>
