<svg width="160" height="160" viewBox="0 0 160 160" fill="none" xmlns="http://www.w3.org/2000/svg">
<path d="M87.1603 21.0555C87.0052 21.0281 86.8929 20.9647 86.8232 20.8652C86.756 20.7515 86.7348 20.6242 86.7596 20.4832L89.1915 6.67314C89.2188 6.51805 89.2822 6.40568 89.3817 6.33602C89.4837 6.25226 89.6122 6.22407 89.7673 6.25145L95.5616 7.27452C96.6189 7.46121 97.4478 7.78929 98.0484 8.25876C98.6655 8.71662 99.077 9.26902 99.2829 9.91594C99.5028 10.5654 99.5483 11.2566 99.4192 11.9898C99.3174 12.5679 99.1306 13.051 98.8587 13.4391C98.6034 13.8156 98.3112 14.1129 97.9821 14.331C97.6554 14.535 97.3458 14.6838 97.0531 14.7775C97.5557 15.1425 97.9651 15.6655 98.2813 16.3464C98.6116 17.0298 98.701 17.8016 98.5495 18.6616C98.413 19.4371 98.1114 20.1179 97.6447 20.7043C97.1781 21.2906 96.5575 21.7189 95.7831 21.9892C95.0253 22.2479 94.1388 22.2877 93.1238 22.1085L87.1603 21.0555ZM89.048 19.6225L93.1505 20.3469C94.0528 20.5062 94.7941 20.3827 95.3744 19.9763C95.9547 19.57 96.3082 19.0073 96.4348 18.2882C96.5664 17.541 96.4277 16.8841 96.0187 16.3176C95.6122 15.737 94.9578 15.3671 94.0555 15.2078L89.953 14.4834L89.048 19.6225ZM90.2509 12.7915L94.142 13.4785C95.0442 13.6378 95.764 13.5541 96.3012 13.2274C96.841 12.8866 97.1741 12.3566 97.3008 11.6376C97.4274 10.9185 97.2916 10.3276 96.8934 9.86475C96.4952 9.40193 95.845 9.09087 94.9427 8.93156L91.0516 8.24453L90.2509 12.7915Z" fill="#EEF0FB"/>
<path d="M104.912 26.3042C104.769 26.237 104.678 26.1462 104.636 26.0319C104.601 25.9045 104.614 25.7761 104.675 25.6466L110.652 12.9379C110.713 12.8083 110.801 12.723 110.915 12.6819C111.035 12.6279 111.167 12.6344 111.309 12.7016L112.339 13.187C112.481 13.2542 112.57 13.3514 112.605 13.4788C112.646 13.5931 112.636 13.7151 112.575 13.8446L106.598 26.5533C106.537 26.6829 106.447 26.7747 106.326 26.8287C106.212 26.8698 106.084 26.8568 105.941 26.7896L104.912 26.3042Z" fill="#EEF0FB"/>
<path d="M116.072 33.0705C115.952 32.9683 115.887 32.8566 115.877 32.7354C115.877 32.6033 115.923 32.4828 116.016 32.3738L125.104 21.6946C125.206 21.5747 125.317 21.5099 125.438 21.5002C125.569 21.4797 125.694 21.5205 125.813 21.6227L130.289 25.4418C131.106 26.1388 131.655 26.8419 131.935 27.5512C132.235 28.2589 132.31 28.9439 132.159 29.6062C132.02 30.2779 131.709 30.8972 131.227 31.4641C130.847 31.9111 130.441 32.2331 130.01 32.4301C129.6 32.6255 129.197 32.7338 128.803 32.7551C128.418 32.7655 128.076 32.7369 127.776 32.6694C128.025 33.239 128.113 33.8975 128.041 34.6451C127.979 35.402 127.666 36.113 127.1 36.778C126.589 37.3777 125.985 37.8121 125.286 38.0813C124.587 38.3505 123.835 38.4055 123.031 38.2461C122.246 38.0852 121.462 37.6702 120.678 37.0011L116.072 33.0705ZM118.424 32.7912L121.593 35.4953C122.29 36.09 122.992 36.3591 123.697 36.3028C124.403 36.2464 124.993 35.9402 125.466 35.3842C125.958 34.8063 126.171 34.1695 126.105 33.4735C126.049 32.7667 125.672 32.116 124.975 31.5212L121.806 28.8172L118.424 32.7912ZM122.919 27.5089L125.925 30.0735C126.622 30.6683 127.285 30.9608 127.913 30.9513C128.551 30.9309 129.106 30.6426 129.58 30.0866C130.053 29.5306 130.235 28.952 130.126 28.351C130.017 27.75 129.614 27.1521 128.917 26.5574L125.911 23.9928L122.919 27.5089Z" fill="#EEF0FB"/>
<path d="M127.744 45.1752C127.655 45.0451 127.622 44.9203 127.645 44.8009C127.679 44.6733 127.755 44.5692 127.873 44.4883L139.463 36.5573C139.582 36.4764 139.7 36.4472 139.82 36.4696C139.951 36.484 140.061 36.5562 140.149 36.6863L140.791 37.6263C140.872 37.7446 140.895 37.8675 140.861 37.995C140.846 38.1263 140.78 38.2324 140.662 38.3132L130.206 45.4681L134.225 51.3569C134.313 51.4869 134.341 51.6157 134.306 51.7433C134.292 51.8746 134.22 51.9847 134.09 52.0736L133.381 52.5587C133.263 52.6395 133.134 52.6668 132.995 52.6407C132.876 52.6182 132.772 52.542 132.683 52.4119L127.744 45.1752Z" fill="#EEF0FB"/>
<path d="M135.818 60.6963C135.766 60.5475 135.767 60.4184 135.82 60.309C135.887 60.195 135.988 60.1145 136.123 60.0675L149.389 55.4596C149.525 55.4126 149.647 55.4156 149.756 55.4686C149.879 55.5169 149.966 55.6154 150.018 55.7642L150.39 56.8396C150.442 56.9884 150.434 57.1199 150.368 57.2339C150.315 57.3432 150.22 57.4214 150.085 57.4684L136.819 62.0763C136.683 62.1233 136.554 62.1227 136.432 62.0744C136.322 62.0214 136.242 61.9205 136.19 61.7717L135.818 60.6963Z" fill="#EEF0FB"/>
<path d="M138.84 77.3017C138.756 76.0734 138.892 75.0094 139.247 74.1098C139.615 73.2092 140.219 72.4934 141.059 71.9624C141.912 71.4304 143.001 71.0904 144.325 70.9423C144.953 70.8849 145.552 70.8367 146.123 70.7976C146.709 70.7575 147.316 70.723 147.946 70.6943C149.264 70.6614 150.375 70.8579 151.279 71.2839C152.199 71.7231 152.903 72.3637 153.391 73.2056C153.894 74.0608 154.186 75.074 154.266 76.2452C154.345 77.4021 154.192 78.4313 153.809 79.3329C153.441 80.2478 152.832 80.9855 151.98 81.5461C151.143 82.1056 150.069 82.4518 148.758 82.5847C148.131 82.6563 147.525 82.7121 146.94 82.7523C146.369 82.7914 145.768 82.8182 145.137 82.8327C143.806 82.8808 142.681 82.6924 141.762 82.2674C140.859 81.8558 140.163 81.229 139.675 80.3871C139.202 79.5442 138.923 78.5157 138.84 77.3017ZM140.661 77.177C140.736 78.2625 141.125 79.1255 141.828 79.7661C142.533 80.4209 143.623 80.7265 145.098 80.6829C145.743 80.6675 146.315 80.6426 146.815 80.6084C147.329 80.5732 147.899 80.5197 148.526 80.4481C149.509 80.3521 150.297 80.1116 150.887 79.7268C151.479 79.3562 151.899 78.8826 152.146 78.306C152.394 77.7294 152.493 77.0841 152.445 76.3699C152.396 75.6558 152.209 75.03 151.886 74.4925C151.562 73.9551 151.081 73.536 150.444 73.2352C149.807 72.9488 148.995 72.8179 148.006 72.8426C147.377 72.8713 146.805 72.9033 146.291 72.9385C145.791 72.9728 145.22 73.019 144.579 73.0773C143.111 73.2352 142.073 73.6866 141.464 74.4315C140.855 75.1763 140.587 76.0915 140.661 77.177Z" fill="#EEF0FB"/>
<path d="M137.532 93.0461C137.781 91.7966 138.224 90.783 138.861 90.0053C139.496 89.2417 140.28 88.7125 141.215 88.4178C142.147 88.1371 143.187 88.0825 144.335 88.254C144.956 88.3636 145.61 88.4872 146.298 88.6249C146.999 88.7654 147.665 88.9059 148.294 89.0464C149.42 89.3301 150.352 89.7795 151.09 90.3945C151.84 91.0264 152.353 91.8225 152.628 92.7828C152.918 93.746 152.939 94.8453 152.692 96.0807C152.496 97.0634 152.185 97.8917 151.758 98.5656C151.332 99.2394 150.855 99.7644 150.327 100.141C149.811 100.534 149.298 100.796 148.79 100.928C148.279 101.074 147.847 101.119 147.493 101.063C147.364 101.051 147.266 100.995 147.199 100.894C147.145 100.796 147.132 100.676 147.161 100.536L147.409 99.2936C147.437 99.1532 147.486 99.0535 147.556 98.9946C147.623 98.9497 147.733 98.9132 147.884 98.8851C148.274 98.8318 148.674 98.6929 149.084 98.4683C149.491 98.2578 149.856 97.9293 150.179 97.4829C150.513 97.0533 150.754 96.4665 150.903 95.7225C151.127 94.5993 151.006 93.6334 150.539 92.8247C150.07 92.03 149.147 91.4655 147.768 91.1311C146.527 90.8389 145.278 90.5889 144.02 90.3809C142.605 90.1561 141.52 90.3258 140.765 90.8901C140.024 91.4572 139.543 92.2953 139.321 93.4043C139.173 94.1484 139.182 94.8363 139.347 95.4681C139.51 96.114 139.839 96.6616 140.333 97.1109C140.842 97.563 141.538 97.8776 142.422 98.0546L143.307 98.2317L143.937 95.0729C143.965 94.9325 144.031 94.8216 144.135 94.7402C144.25 94.6756 144.385 94.6588 144.539 94.6897L145.213 94.8245C145.368 94.8555 145.478 94.9215 145.546 95.0226C145.625 95.1405 145.65 95.2697 145.622 95.4101L144.672 100.169C144.641 100.324 144.568 100.433 144.453 100.498C144.352 100.565 144.224 100.583 144.07 100.552L142.048 100.148C140.897 99.9175 139.941 99.4779 139.18 98.8292C138.416 98.1945 137.885 97.3801 137.588 96.3861C137.304 95.3949 137.285 94.2815 137.532 93.0461Z" fill="#EEF0FB"/>
<path d="M134.114 104.397C134.185 104.256 134.277 104.167 134.392 104.128C134.52 104.096 134.648 104.112 134.776 104.176L147.32 110.444C147.461 110.515 147.551 110.608 147.589 110.723C147.64 110.844 147.631 110.976 147.561 111.117L145.224 115.806C144.502 117.254 143.591 118.231 142.491 118.738C141.391 119.244 140.175 119.165 138.843 118.499C137.857 118.006 137.174 117.353 136.796 116.54C136.424 115.746 136.327 114.865 136.505 113.898L129.92 114.305C129.824 114.305 129.744 114.289 129.68 114.257C129.578 114.205 129.511 114.116 129.479 113.988C129.44 113.872 129.446 113.764 129.497 113.661L129.957 112.738C130.066 112.521 130.203 112.389 130.37 112.344C130.536 112.299 130.696 112.267 130.849 112.248L137.117 111.899L138.794 108.536L133.838 106.06C133.71 105.996 133.623 105.896 133.578 105.762C133.54 105.647 133.556 105.518 133.626 105.377L134.114 104.397ZM140.427 109.352L138.846 112.523C138.367 113.484 138.208 114.301 138.369 114.973C138.542 115.652 139.026 116.19 139.82 116.587C140.601 116.977 141.315 117.038 141.961 116.768C142.6 116.512 143.163 115.897 143.648 114.923L145.229 111.752L140.427 109.352Z" fill="#EEF0FB"/>
<path d="M126.885 116.768C126.961 116.682 127.06 116.636 127.181 116.629C127.302 116.622 127.405 116.657 127.491 116.733C127.544 116.781 127.598 116.839 127.653 116.907L134.471 130.139C134.54 130.278 134.573 130.413 134.57 130.545C134.567 130.677 134.499 130.818 134.366 130.967L133.395 132.058C133.261 132.207 133.129 132.291 132.999 132.308C132.868 132.326 132.73 132.308 132.585 132.256L118.696 126.96C118.612 126.924 118.544 126.882 118.491 126.834C118.405 126.758 118.359 126.659 118.352 126.538C118.345 126.416 118.38 126.313 118.456 126.227L119.185 125.41C119.299 125.281 119.417 125.214 119.538 125.207C119.65 125.211 119.742 125.226 119.814 125.252L122.874 126.402L127.56 121.143L126.071 118.23C126.027 118.171 126.002 118.081 125.995 117.96C125.988 117.839 126.042 117.714 126.156 117.586L126.885 116.768ZM128.523 122.838L124.665 127.167L132.279 130.082L128.523 122.838Z" fill="#EEF0FB"/>
<path d="M114.405 128.749C114.537 128.663 114.662 128.632 114.781 128.657C114.907 128.694 115.01 128.773 115.088 128.893L122.727 140.652C122.812 140.784 122.843 140.91 122.818 141.029C122.8 141.16 122.725 141.268 122.594 141.354L118.023 144.331C117.135 144.909 116.274 145.265 115.439 145.399C114.592 145.541 113.802 145.44 113.067 145.099C112.341 144.769 111.701 144.178 111.147 143.325C110.593 142.473 110.313 141.647 110.307 140.849C110.3 140.05 110.533 139.292 111.005 138.574C111.466 137.864 112.14 137.22 113.028 136.642L116.213 134.567L113.288 130.065C113.21 129.945 113.186 129.816 113.215 129.677C113.24 129.558 113.319 129.456 113.451 129.37L114.405 128.749ZM117.213 136.068L114.101 138.096C113.213 138.674 112.676 139.306 112.489 139.991C112.303 140.676 112.455 141.397 112.947 142.153C113.43 142.898 114.02 143.333 114.717 143.46C115.414 143.587 116.219 143.354 117.13 142.76L120.243 140.732L117.213 136.068Z" fill="#EEF0FB"/>
<path d="M101.138 135.997C101.288 135.949 101.417 135.952 101.525 136.008C101.637 136.077 101.716 136.18 101.759 136.316L106.047 149.667C106.095 149.817 106.091 149.946 106.036 150.054C105.985 150.176 105.884 150.261 105.734 150.309L104.692 150.645C104.542 150.693 104.411 150.683 104.298 150.614C104.177 150.562 104.092 150.462 104.044 150.312L102.232 144.669L95.2 146.933L97.0122 152.576C97.0604 152.726 97.0567 152.855 97.0012 152.963C96.9365 153.089 96.836 153.174 96.6997 153.218L95.6572 153.554C95.5073 153.602 95.3762 153.592 95.2638 153.523C95.1421 153.472 95.0572 153.371 95.0091 153.221L90.7215 139.87C90.6777 139.734 90.6882 139.603 90.7529 139.477C90.8084 139.368 90.9111 139.29 91.061 139.242L92.1035 138.906C92.2397 138.862 92.3687 138.866 92.4904 138.917C92.6028 138.986 92.6809 139.089 92.7246 139.225L94.6091 145.093L101.641 142.829L99.7562 136.961C99.7124 136.825 99.7229 136.694 99.7876 136.567C99.8431 136.459 99.9458 136.381 100.096 136.333L101.138 135.997Z" fill="#EEF0FB"/>
<path d="M80.7353 139.943C80.8783 139.936 81.0018 139.974 81.1058 140.055C81.1962 140.151 81.2446 140.271 81.2511 140.414L81.4815 145.476L87.0497 153.993C87.0659 154.035 87.0822 154.077 87.0984 154.12C87.1147 154.162 87.1241 154.212 87.1267 154.269C87.1319 154.383 87.0936 154.485 87.0117 154.575C86.9298 154.665 86.8316 154.712 86.7172 154.717L85.6017 154.768C85.473 154.774 85.357 154.744 85.2536 154.677C85.1509 154.624 85.0755 154.542 85.0274 154.429L80.528 147.67L76.6612 154.811C76.5949 154.928 76.5201 155.018 76.4369 155.079C76.3401 155.155 76.2273 155.196 76.0986 155.202L75.0045 155.252C74.8758 155.258 74.7666 155.22 74.6769 155.138C74.5872 155.056 74.5397 154.958 74.5345 154.843C74.5319 154.786 74.5368 154.736 74.5491 154.692C74.5615 154.649 74.581 154.605 74.6076 154.561L79.3578 145.573L79.1274 140.511C79.1209 140.368 79.1654 140.244 79.261 140.139C79.3429 140.049 79.4625 140.001 79.6198 139.994L80.7353 139.943Z" fill="#EEF0FB"/>
<path d="M64.5516 142.354C64.9567 142.445 65.312 142.627 65.6176 142.901C65.906 143.186 66.116 143.526 66.2475 143.923C66.3651 144.316 66.3786 144.715 66.2881 145.12C66.1945 145.539 66.0124 145.894 65.7419 146.186C65.4575 146.474 65.1258 146.679 64.7468 146.799C64.3507 146.931 63.9501 146.951 63.545 146.86C63.1259 146.766 62.7721 146.577 62.4836 146.292C62.1921 146.022 61.979 145.695 61.8443 145.313C61.7097 144.931 61.6892 144.53 61.7828 144.111C61.8733 143.706 62.0624 143.352 62.3499 143.05C62.6375 142.747 62.9723 142.529 63.3544 142.394C63.7334 142.274 64.1325 142.261 64.5516 142.354Z" fill="#EEF0FB"/>
<path d="M54.2513 134.342C54.3906 134.415 54.4781 134.51 54.514 134.626C54.5432 134.755 54.5245 134.883 54.4577 135.01L47.9189 147.414C47.8455 147.554 47.7508 147.641 47.6348 147.677C47.5121 147.725 47.3812 147.713 47.2419 147.639L42.6095 145.191C41.1792 144.435 40.2233 143.501 39.7418 142.388C39.2602 141.275 39.3666 140.06 40.0608 138.743C40.5748 137.768 41.2422 137.101 42.063 136.741C42.8644 136.387 43.7462 136.311 44.7084 136.512L44.4482 129.914C44.4502 129.818 44.468 129.738 44.5013 129.675C44.5548 129.573 44.6458 129.508 44.7744 129.479C44.8904 129.443 44.9991 129.452 45.1003 129.505L46.0116 129.987C46.2268 130.101 46.355 130.241 46.3961 130.409C46.4373 130.576 46.4658 130.737 46.4817 130.891L46.6912 137.171L50.0136 138.927L52.5971 134.026C52.6639 133.9 52.7649 133.815 52.9002 133.773C53.0162 133.738 53.1438 133.756 53.2831 133.83L54.2513 134.342ZM49.1625 140.542L46.0299 138.886C45.0806 138.385 44.2683 138.206 43.5931 138.351C42.9112 138.509 42.3633 138.981 41.9494 139.766C41.5422 140.538 41.4659 141.251 41.7206 141.904C41.9626 142.55 42.5646 143.127 43.5265 143.635L46.6591 145.291L49.1625 140.542Z" fill="#EEF0FB"/>
<path d="M40.7247 125.551C40.8397 125.658 40.8993 125.773 40.9034 125.894C40.8978 126.026 40.8462 126.145 40.7485 126.249L31.1842 136.504C31.0768 136.619 30.9624 136.679 30.8411 136.683C30.71 136.697 30.5869 136.651 30.4719 136.543L23.9943 130.486C23.8793 130.378 23.8245 130.258 23.8302 130.126C23.826 130.005 23.8776 129.887 23.9851 129.771L24.5416 129.175C24.649 129.059 24.7634 129 24.8847 128.996C25.0061 128.992 25.1242 129.043 25.2392 129.151L30.5719 134.138L33.7796 130.699L28.7919 126.034C28.6769 125.927 28.6222 125.807 28.6278 125.675C28.6237 125.554 28.6753 125.435 28.7827 125.32L29.3247 124.739C29.4223 124.634 29.5367 124.575 29.6678 124.56C29.7891 124.556 29.9073 124.608 30.0223 124.715L35.0099 129.38L38.3347 125.815L32.8766 120.71C32.7615 120.603 32.702 120.488 32.6978 120.367C32.6937 120.245 32.7453 120.127 32.8527 120.012L33.4239 119.399C33.5216 119.295 33.6359 119.235 33.767 119.221C33.8883 119.216 34.0065 119.268 34.1215 119.376L40.7247 125.551Z" fill="#EEF0FB"/>
<path d="M28.131 109.946C28.7856 111.005 29.1705 111.996 29.2858 112.918C29.4011 113.84 29.3235 114.655 29.0531 115.361C28.763 116.063 28.3395 116.603 27.7825 116.981C27.6852 117.042 27.5774 117.058 27.4592 117.03C27.3214 116.998 27.2186 116.927 27.1509 116.817L26.5753 115.885C26.485 115.739 26.4538 115.607 26.4817 115.489C26.5096 115.37 26.5647 115.269 26.647 115.184C26.8939 114.93 27.092 114.597 27.2411 114.185C27.3781 113.78 27.4123 113.304 27.3437 112.757C27.2554 112.205 27.0006 111.589 26.5792 110.907C25.9322 109.859 25.2756 109.205 24.6096 108.944C23.9238 108.678 23.2706 108.738 22.6499 109.122C22.2239 109.386 21.9659 109.731 21.8758 110.157C21.7661 110.579 21.7733 111.122 21.8974 111.786C22.0215 112.45 22.2252 113.283 22.5085 114.287C22.8022 115.334 22.9774 116.244 23.0343 117.018C23.0912 117.791 22.9847 118.463 22.715 119.034C22.4377 119.593 21.9522 120.087 21.2585 120.517C20.6013 120.924 19.908 121.109 19.1787 121.073C18.4371 121.044 17.7073 120.788 16.9892 120.307C16.2712 119.826 15.6225 119.116 15.0431 118.178C14.5767 117.423 14.2738 116.701 14.1346 116.013C13.9757 115.32 13.9501 114.679 14.0576 114.09C14.153 113.509 14.3352 113.001 14.6043 112.565C14.8612 112.136 15.1684 111.803 15.526 111.564C15.6112 111.511 15.7152 111.489 15.8381 111.497C15.9487 111.513 16.0454 111.588 16.1282 111.722L16.7263 112.69C16.779 112.775 16.8111 112.882 16.8226 113.009C16.8265 113.125 16.7767 113.248 16.6729 113.38C16.219 113.762 15.9722 114.302 15.9324 115C15.8925 115.699 16.1134 116.438 16.5949 117.217C17.0839 118.009 17.6348 118.56 18.2476 118.871C18.8528 119.17 19.4779 119.119 20.123 118.72C20.5368 118.463 20.8122 118.133 20.9491 117.728C21.0739 117.331 21.0855 116.818 20.984 116.191C20.8824 115.563 20.6989 114.776 20.4336 113.829C20.0995 112.689 19.8927 111.714 19.8132 110.904C19.7216 110.102 19.8107 109.416 20.0804 108.844C20.3305 108.268 20.8023 107.766 21.4961 107.336C22.2628 106.861 23.0442 106.655 23.8401 106.718C24.6239 106.788 25.3876 107.098 26.1311 107.648C26.8549 108.193 27.5216 108.959 28.131 109.946Z" fill="#EEF0FB"/>
<path d="M23.1887 99.604C23.2335 99.755 23.2269 99.8839 23.1689 99.9907C23.0973 100.102 22.9928 100.177 22.8556 100.218L9.41341 104.211C9.26245 104.256 9.1336 104.249 9.02686 104.191C8.9064 104.137 8.82381 104.035 8.77908 103.884L6.26005 95.3804C6.21532 95.2294 6.22879 95.0985 6.30045 94.9876C6.3584 94.8808 6.46285 94.8049 6.61381 94.7601L7.39605 94.5278C7.54701 94.4829 7.67585 94.4895 7.78259 94.5474C7.88933 94.6053 7.96506 94.7097 8.00979 94.8607L10.0836 101.861L14.5917 100.522L12.6521 93.9746C12.6074 93.8237 12.6209 93.6927 12.6926 93.5818C12.7505 93.475 12.8549 93.3992 13.0059 93.3543L13.7676 93.1281C13.9048 93.0874 14.0336 93.0939 14.1541 93.1477C14.2608 93.2056 14.3366 93.3101 14.3813 93.461L16.3209 100.009L20.9938 98.6206L18.8712 91.4554C18.8264 91.3044 18.8331 91.1755 18.891 91.0687C18.9489 90.9619 19.0534 90.8861 19.2044 90.8412L20.0072 90.6028C20.1444 90.562 20.2733 90.5686 20.3937 90.6224C20.5005 90.6803 20.5762 90.7847 20.6209 90.9357L23.1887 99.604Z" fill="#EEF0FB"/>
<path d="M20.1472 85.9539C20.1498 86.0684 20.1091 86.1696 20.0252 86.2574C19.9413 86.3453 19.842 86.3905 19.7275 86.3931C19.656 86.3947 19.5771 86.3894 19.4909 86.377L5.47972 81.3695C5.33529 81.3155 5.219 81.2394 5.13085 81.1412C5.0427 81.043 4.99634 80.8937 4.99179 80.6933L4.95859 79.2334C4.95404 79.0331 4.99356 78.8818 5.07715 78.7796C5.16075 78.6775 5.27346 78.5962 5.41528 78.5357L19.1848 72.9163C19.27 72.8857 19.3484 72.8696 19.42 72.8679C19.5345 72.8653 19.6357 72.906 19.7235 72.9899C19.8113 73.0738 19.8565 73.173 19.8591 73.2875L19.884 74.3824C19.8879 74.5542 19.8479 74.6839 19.764 74.7718C19.6798 74.8453 19.6022 74.8972 19.5313 74.9274L16.5096 76.1777L16.6697 83.2194L19.7451 84.3307C19.817 84.3433 19.8968 84.3916 19.9847 84.4756C20.0725 84.5595 20.1183 84.6873 20.1223 84.8591L20.1472 85.9539ZM14.8093 82.6389L14.6775 76.8424L7.12204 79.9144L14.8093 82.6389Z" fill="#EEF0FB"/>
<path d="M21.1021 68.6755C21.0642 68.8284 20.9933 68.9362 20.8893 68.9989C20.7714 69.0581 20.643 69.0705 20.5041 69.0361L6.89394 65.6601C6.74109 65.6222 6.6333 65.5512 6.57056 65.4472C6.49392 65.3397 6.47451 65.2095 6.51233 65.0566L7.77063 59.9703C8.15912 58.3999 8.83504 57.2474 9.79838 56.5129C10.7617 55.7784 11.9659 55.5903 13.411 55.9488C14.4809 56.2141 15.2893 56.7023 15.836 57.4131C16.3724 58.1067 16.6591 58.9448 16.6962 59.9275L23.0344 58.0924C23.1281 58.0714 23.2097 58.0695 23.2792 58.0868C23.3903 58.1143 23.4756 58.1871 23.5349 58.3051C23.5976 58.4091 23.6152 58.5167 23.5877 58.6279L23.3402 59.6285C23.2817 59.8648 23.1762 60.023 23.0237 60.1031C22.8711 60.1833 22.722 60.2495 22.5763 60.3019L16.5346 62.0114L15.6321 65.6594L21.0095 66.9932C21.1484 67.0277 21.2545 67.1056 21.3277 67.227C21.3904 67.3311 21.4029 67.4595 21.3651 67.6124L21.1021 68.6755ZM13.8605 65.2199L14.7114 61.7804C14.9692 60.7381 14.9464 59.9065 14.6429 59.2854C14.3254 58.6609 13.736 58.2418 12.8745 58.0282C12.0269 57.8179 11.3172 57.9147 10.7453 58.3186C10.1769 58.7087 9.76205 59.4317 9.50077 60.4879L8.64987 63.9275L13.8605 65.2199Z" fill="#EEF0FB"/>
<path d="M28.6586 49.7246C28.0529 50.8129 27.3759 51.6318 26.6276 52.1815C25.8793 52.7312 25.1312 53.0597 24.3834 53.167C23.63 53.2548 22.9526 53.1473 22.3511 52.8445C22.2511 52.7886 22.1845 52.7023 22.1512 52.5854C22.1124 52.449 22.1244 52.3245 22.187 52.2119L22.7196 51.2549C22.8032 51.1048 22.9033 51.0132 23.0201 50.98C23.1369 50.9468 23.2523 50.9456 23.3662 50.9764C23.708 51.0687 24.095 51.0798 24.5274 51.0096C24.9472 50.9323 25.3789 50.7306 25.8226 50.4044C26.2608 50.0587 26.6748 49.5356 27.0646 48.8351C27.6634 47.7593 27.9145 46.8666 27.8179 46.1569C27.7158 45.4278 27.346 44.8853 26.7084 44.5296C26.2708 44.2854 25.8442 44.2277 25.4285 44.3564C25.0073 44.4656 24.5373 44.7361 24.0184 45.1679C23.4996 45.5997 22.8715 46.1837 22.1341 46.9198C21.3633 47.6865 20.6546 48.2829 20.0079 48.7089C19.3612 49.1349 18.723 49.369 18.0934 49.4111C17.4707 49.4407 16.8031 49.2567 16.0905 48.859C15.4154 48.4823 14.9163 47.9661 14.5932 47.3103C14.2575 46.6476 14.1249 45.885 14.1952 45.0226C14.2656 44.1602 14.5688 43.2474 15.1049 42.2842C15.5365 41.5086 16.0188 40.8924 16.5515 40.4356C17.0788 39.9593 17.6253 39.6249 18.1912 39.4324C18.7445 39.233 19.2769 39.1448 19.7884 39.1679C20.2873 39.184 20.7278 39.2905 21.1098 39.4873C21.1973 39.5361 21.2674 39.6162 21.3201 39.7276C21.3603 39.832 21.3421 39.953 21.2655 40.0906L20.712 41.0851C20.6633 41.1726 20.5861 41.2525 20.4804 41.3247C20.3816 41.3843 20.2496 41.4008 20.0842 41.3741C19.5299 41.1631 18.9385 41.2102 18.3099 41.5152C17.6814 41.8202 17.1444 42.3731 16.6988 43.1736C16.2463 43.9867 16.0336 44.7369 16.0607 45.4242C16.0947 46.099 16.443 46.6212 17.1056 46.991C17.5306 47.2282 17.9531 47.3081 18.3729 47.2309C18.7802 47.1467 19.2328 46.9075 19.7308 46.5132C20.2288 46.1189 20.8262 45.5752 21.5233 44.8822C22.3553 44.0349 23.105 43.3795 23.7726 42.9159C24.4277 42.4454 25.0701 42.1891 25.6997 42.1469C26.3238 42.0854 26.9922 42.2534 27.7047 42.651C28.4923 43.0905 29.0525 43.6736 29.3853 44.4003C29.7057 45.1201 29.807 45.939 29.6893 46.8569C29.5661 47.7554 29.2225 48.7113 28.6586 49.7246Z" fill="#EEF0FB"/>
<path d="M35.2672 40.3609C35.1572 40.4735 35.0415 40.5306 34.9201 40.532C34.7885 40.5233 34.6715 40.4689 34.5692 40.3688L24.548 30.5602C24.4355 30.45 24.3785 30.3342 24.3771 30.2126C24.3655 30.0811 24.4147 29.959 24.5247 29.8463L30.7199 23.5C30.8299 23.3873 30.9507 23.3353 31.0824 23.3439C31.2038 23.3425 31.3207 23.3969 31.4333 23.5071L32.0164 24.0779C32.129 24.188 32.1859 24.3039 32.1873 24.4254C32.1887 24.547 32.1344 24.6641 32.0244 24.7768L26.9242 30.0013L30.2851 33.2909L35.0552 28.4044C35.1652 28.2917 35.286 28.2397 35.4176 28.2483C35.539 28.2469 35.656 28.3013 35.7685 28.4115L36.3363 28.9673C36.4387 29.0674 36.4956 29.1832 36.5072 29.3148C36.5086 29.4364 36.4543 29.5535 36.3443 29.6662L31.5741 34.5526L35.0578 37.9624L40.2779 32.6149C40.3879 32.5022 40.5036 32.4452 40.625 32.4438C40.7464 32.4424 40.8634 32.4968 40.9759 32.607L41.5744 33.1928C41.6767 33.2929 41.7337 33.4088 41.7453 33.5403C41.7467 33.6619 41.6924 33.779 41.5824 33.8917L35.2672 40.3609Z" fill="#EEF0FB"/>
<path d="M46.9852 30.2831C46.8495 30.363 46.7228 30.3876 46.6053 30.3571C46.4806 30.3142 46.382 30.231 46.3095 30.1076L39.2134 18.0131C39.1337 17.8773 39.1091 17.7505 39.1397 17.6329C39.163 17.5029 39.2425 17.398 39.3782 17.3181L43.8944 14.6613C45.2887 13.8411 46.5851 13.5186 47.7834 13.6939C48.9818 13.8693 49.9577 14.599 50.7111 15.8832C51.269 16.8339 51.4848 17.7534 51.3586 18.6415C51.2374 19.51 50.8385 20.3011 50.1617 21.0148L55.9027 24.2647C55.9832 24.317 56.0416 24.374 56.0778 24.4358C56.1357 24.5346 56.1433 24.6464 56.1004 24.7713C56.0698 24.8889 56.0052 24.9768 55.9064 25.0349L55.018 25.5575C54.8083 25.6809 54.6214 25.7161 54.4575 25.663C54.2936 25.61 54.142 25.5497 54.0028 25.4821L48.5588 22.3565L45.3197 24.262L48.1234 29.0405C48.1959 29.164 48.2142 29.2943 48.1786 29.4316C48.148 29.5492 48.0649 29.648 47.9291 29.7278L46.9852 30.2831ZM44.396 22.6876L47.45 20.891C48.3754 20.3466 48.9541 19.7487 49.1861 19.0974C49.4108 18.4337 49.2986 17.719 48.8494 16.9535C48.4075 16.2003 47.8423 15.7604 47.1539 15.6339C46.4779 15.5001 45.671 15.709 44.7332 16.2607L41.6792 18.0573L44.396 22.6876Z" fill="#EEF0FB"/>
<path d="M63.9295 18.3699C63.5289 18.479 63.1297 18.4839 62.7319 18.3845C62.344 18.2676 61.9996 18.0646 61.6986 17.7757C61.4114 17.483 61.2134 17.1363 61.1046 16.7356C60.992 16.3212 60.9873 15.9218 61.0906 15.5376C61.2077 15.1496 61.4058 14.8137 61.6848 14.53C61.9738 14.2287 62.3186 14.0235 62.7191 13.9144C63.1335 13.8016 63.5346 13.8036 63.9224 13.9205C64.3065 14.0236 64.6471 14.2128 64.9444 14.4879C65.2417 14.763 65.4466 15.1078 65.5592 15.5223C65.668 15.9229 65.6658 16.3242 65.5524 16.726C65.439 17.1278 65.2447 17.4775 64.9695 17.775C64.6906 18.0587 64.3439 18.257 63.9295 18.3699Z" fill="#EEF0FB"/>
</svg>
