<svg width="100" height="108" viewBox="0 0 100 108" fill="none" xmlns="http://www.w3.org/2000/svg">
<g filter="url(#filter0_f_520_2730)">
<path d="M76.8278 64.5632V44.0852C76.8278 34.4332 76.8278 29.6072 74.2 26.6072C71.904 23.986 68.3823 23.655 61.88 23.614H37.9635C31.4612 23.655 27.9394 23.986 25.6435 26.6072C23.0156 29.6072 23.0156 34.4332 23.0156 44.0852V64.5632C23.0156 74.2186 23.0156 79.0446 25.6435 82.0446C28.2683 85.0412 32.4985 85.0412 40.953 85.0412H58.8904C67.3449 85.0412 71.5752 85.0412 74.2 82.0446C76.8278 79.0411 76.8278 74.2186 76.8278 64.5632Z" fill="url(#paint0_linear_520_2730)"/>
</g>
<path d="M76.8278 64.5632V44.0852C76.8278 34.4332 76.8278 29.6072 74.2 26.6072C71.904 23.986 68.3823 23.655 61.88 23.614H37.9635C31.4612 23.655 27.9394 23.986 25.6435 26.6072C23.0156 29.6072 23.0156 34.4332 23.0156 44.0852V64.5632C23.0156 74.2186 23.0156 79.0446 25.6435 82.0446C28.2683 85.0412 32.4985 85.0412 40.953 85.0412H58.8904C67.3449 85.0412 71.5752 85.0412 74.2 82.0446C76.8278 79.0411 76.8278 74.2186 76.8278 64.5632Z" fill="url(#paint1_linear_520_2730)"/>
<path d="M37.3147 17.6069C36.2431 18.6784 35.6411 20.1318 35.6411 21.6472V25.0739C35.6411 26.5893 36.2431 28.0426 37.3147 29.1142C38.3862 30.1857 39.8395 30.7877 41.3549 30.7877H58.4885C60.0039 30.7877 61.4573 30.1857 62.5288 29.1142C63.6004 28.0426 64.2023 26.5893 64.2023 25.0739V21.6472C64.2023 20.1318 63.6004 18.6784 62.5288 17.6069C61.4573 16.5353 60.0039 15.9334 58.4885 15.9334H41.3549C39.8395 15.9334 38.3862 16.5353 37.3147 17.6069Z" fill="url(#paint2_linear_520_2730)" stroke="url(#paint3_linear_520_2730)" stroke-width="1.14744"/>
<path d="M65.928 55.3857L65.5211 55.7902L65.928 55.3857C65.3363 54.7905 64.5332 54.4555 63.695 54.4555H36.1488C35.3106 54.4555 34.5074 54.7905 33.9158 55.3857C33.3243 55.9808 32.9926 56.7871 32.9926 57.6272C32.9926 58.4673 33.3243 59.2737 33.9158 59.8688C34.5074 60.464 35.3106 60.799 36.1488 60.799H63.695C64.5332 60.799 65.3363 60.464 65.928 59.8688C66.5195 59.2737 66.8512 58.4673 66.8512 57.6272C66.8512 56.7871 66.5195 55.9808 65.928 55.3857ZM30.4725 43.2615C29.881 43.8566 29.5493 44.663 29.5493 45.5031C29.5493 46.3432 29.881 47.1495 30.4725 47.7446C31.0642 48.3398 31.8673 48.6748 32.7055 48.6748H67.1383C67.9765 48.6748 68.7796 48.3398 69.3712 47.7446C69.9628 47.1495 70.2944 46.3432 70.2944 45.5031C70.2944 44.663 69.9628 43.8566 69.3712 43.2615C68.7796 42.6663 67.9765 42.3313 67.1383 42.3313H32.7055C31.8673 42.3313 31.0642 42.6663 30.4725 43.2615ZM37.3591 67.5099C36.7676 68.1049 36.4359 68.9113 36.4359 69.7514C36.4359 70.5915 36.7676 71.3979 37.3591 71.993C37.9507 72.5882 38.7539 72.9232 39.5921 72.9232H60.2517C61.0899 72.9232 61.8931 72.5882 62.4847 71.993C63.0762 71.3979 63.4079 70.5915 63.4079 69.7514C63.4079 68.9113 63.0762 68.1049 62.4847 67.5099C61.8931 66.9147 61.0899 66.5797 60.2517 66.5797H39.5921C38.7539 66.5797 37.9507 66.9147 37.3591 67.5099Z" fill="url(#paint4_linear_520_2730)" stroke="url(#paint5_linear_520_2730)" stroke-width="1.14744"/>
<g filter="url(#filter1_b_520_2730)">
<path d="M87.8597 83.4375C91.9413 79.2442 94.4593 73.5177 94.4593 67.2024C94.4593 54.3433 84.037 43.921 71.1779 43.921C58.3188 43.921 47.8965 54.3433 47.8965 67.2024C47.8965 73.5177 50.4145 79.2442 54.4961 83.4375L52.1507 88.3466C51.2217 90.2909 52.0441 92.6211 53.9884 93.5552C55.9328 94.4842 58.263 93.6618 59.1971 91.7174L60.9231 88.108C64.0198 89.6309 67.4973 90.4889 71.1779 90.4889C74.8584 90.4889 78.3359 89.6309 81.4327 88.108L83.1587 91.7174C84.0877 93.6618 86.4179 94.4842 88.3673 93.5552C90.3117 92.6262 91.1341 90.296 90.2051 88.3466L87.8597 83.4375Z" fill="url(#paint6_linear_520_2730)"/>
<path d="M53.74 94.0723L53.7411 94.0728C55.9715 95.1386 58.6434 94.1948 59.7142 91.9659L59.7146 91.965L61.1935 88.8724C64.2333 90.2769 67.6131 91.0626 71.1779 91.0626C74.7426 91.0626 78.1225 90.2769 81.1623 88.8724L82.641 91.9648C83.707 94.1958 86.3798 95.1379 88.6141 94.0731L88.6147 94.0728C90.8456 93.0069 91.7878 90.3341 90.723 88.0997L90.7227 88.0992L88.5482 83.5478C92.5661 79.2796 95.033 73.5291 95.033 67.2024C95.033 54.0265 84.3538 43.3473 71.1779 43.3473C58.0019 43.3473 47.3228 54.0265 47.3228 67.2024C47.3228 73.5291 49.7896 79.2796 53.8075 83.5478L51.633 88.0992C50.5673 90.3296 51.5111 93.0015 53.74 94.0723Z" stroke="url(#paint7_linear_520_2730)" stroke-width="1.14744"/>
</g>
<path d="M73.0828 53.079C73.0828 52.0136 72.2191 51.1499 71.1537 51.1499C70.0883 51.1499 69.2246 52.0136 69.2246 53.079V67.5829C69.2246 68.6484 70.0883 69.512 71.1537 69.512C72.2191 69.512 73.0828 68.6484 73.0828 67.5829V53.079Z" fill="#EEF0FB"/>
<path d="M80.1178 69.5173C81.1832 69.5173 82.0469 68.6536 82.0469 67.5882C82.0469 66.5227 81.1832 65.6591 80.1178 65.6591H71.1575C70.0921 65.6591 69.2284 66.5227 69.2284 67.5882C69.2284 68.6536 70.0921 69.5173 71.1575 69.5173H80.1178Z" fill="#EEF0FB"/>
<defs>
<filter id="filter0_f_520_2730" x="0.0667896" y="0.665178" width="99.7102" height="107.325" filterUnits="userSpaceOnUse" color-interpolation-filters="sRGB">
<feFlood flood-opacity="0" result="BackgroundImageFix"/>
<feBlend mode="normal" in="SourceGraphic" in2="BackgroundImageFix" result="shape"/>
<feGaussianBlur stdDeviation="11.4744" result="effect1_foregroundBlur_520_2730"/>
</filter>
<filter id="filter1_b_520_2730" x="26.0961" y="22.1196" width="90.1653" height="93.6195" filterUnits="userSpaceOnUse" color-interpolation-filters="sRGB">
<feFlood flood-opacity="0" result="BackgroundImageFix"/>
<feGaussianBlur in="BackgroundImageFix" stdDeviation="10.327"/>
<feComposite in2="SourceAlpha" operator="in" result="effect1_backgroundBlur_520_2730"/>
<feBlend mode="normal" in="SourceGraphic" in2="effect1_backgroundBlur_520_2730" result="shape"/>
</filter>
<linearGradient id="paint0_linear_520_2730" x1="23.0199" y1="54.3209" x2="76.8284" y2="54.3209" gradientUnits="userSpaceOnUse">
<stop stop-color="#7C00FF"/>
<stop offset="1" stop-color="#2CF19A"/>
</linearGradient>
<linearGradient id="paint1_linear_520_2730" x1="23.0199" y1="54.3209" x2="76.8284" y2="54.3209" gradientUnits="userSpaceOnUse">
<stop stop-color="#7C00FF"/>
<stop offset="1" stop-color="#2CF19A"/>
</linearGradient>
<linearGradient id="paint2_linear_520_2730" x1="37.7625" y1="29.4401" x2="47.4899" y2="9.98538" gradientUnits="userSpaceOnUse">
<stop stop-color="white" stop-opacity="0.2"/>
<stop offset="1" stop-color="white" stop-opacity="0.49"/>
</linearGradient>
<linearGradient id="paint3_linear_520_2730" x1="38.1499" y1="17.5851" x2="46.9627" y2="36.4307" gradientUnits="userSpaceOnUse">
<stop stop-color="white"/>
<stop offset="1" stop-color="white" stop-opacity="0"/>
</linearGradient>
<linearGradient id="paint4_linear_520_2730" x1="32.3586" y1="70.6871" x2="57.3725" y2="37.0477" gradientUnits="userSpaceOnUse">
<stop stop-color="white" stop-opacity="0.2"/>
<stop offset="1" stop-color="white" stop-opacity="0.49"/>
</linearGradient>
<linearGradient id="paint5_linear_520_2730" x1="32.9182" y1="45.2208" x2="56.0439" y2="78.474" gradientUnits="userSpaceOnUse">
<stop stop-color="white"/>
<stop offset="1" stop-color="white" stop-opacity="0"/>
</linearGradient>
<linearGradient id="paint6_linear_520_2730" x1="50.5252" y1="91.1137" x2="94.7809" y2="49.9139" gradientUnits="userSpaceOnUse">
<stop stop-color="white" stop-opacity="0.2"/>
<stop offset="1" stop-color="white" stop-opacity="0.49"/>
</linearGradient>
<linearGradient id="paint7_linear_520_2730" x1="51.1833" y1="47.8547" x2="93.0856" y2="89.5643" gradientUnits="userSpaceOnUse">
<stop stop-color="white"/>
<stop offset="1" stop-color="white" stop-opacity="0"/>
</linearGradient>
</defs>
</svg>
