<svg width="140" height="138" viewBox="0 0 140 138" fill="none" xmlns="http://www.w3.org/2000/svg">
<path d="M55.4282 83.3814C47.3002 75.5025 47.3002 62.7282 55.4282 54.8493C63.5563 46.9704 76.7344 46.9704 84.8625 54.8493C92.9905 62.7282 92.9905 75.5025 84.8625 83.3814C76.7344 91.2603 63.5563 91.2603 55.4282 83.3814Z" fill="url(#paint0_linear_520_2906)" stroke="url(#paint1_linear_520_2906)" stroke-width="2.64328"/>
<path d="M42.5236 58.9851C40.7354 63.5686 40.1991 68.5222 40.9666 73.3657C41.7341 78.2091 43.7794 82.7783 46.9043 86.6303L36.3059 94.6779C31.5245 88.7476 28.4901 81.6723 27.5253 74.2041C26.5606 66.7358 27.7015 59.1537 30.8269 52.2637L28.1644 50.7352L41.6051 47.4041L45.0448 60.4328L42.5236 58.9851Z" fill="url(#paint2_linear_520_2906)"/>
<path d="M65.2782 27.6663C72.8318 26.832 80.4785 27.9546 87.4385 30.9196L89.0186 28.3388L92.4551 41.3675L79.024 44.6955L80.5174 42.2516C75.788 40.5169 70.6763 39.9966 65.6782 40.7412C60.6802 41.4857 55.9656 43.4699 51.9917 46.5011L43.6864 36.2276C49.9263 31.4897 57.4017 28.5256 65.2782 27.6663Z" fill="url(#paint3_linear_520_2906)"/>
<path d="M51.2713 109.72L47.8381 96.6854L61.2788 93.3512L59.7854 95.795C64.513 97.5289 69.6225 98.0493 74.6186 97.3059C79.6148 96.5624 84.328 94.5803 88.3014 91.5518L96.6035 101.825C90.4867 106.461 83.1884 109.403 75.4845 110.338C67.7805 111.274 59.959 110.169 52.8514 107.14L51.2713 109.72Z" fill="url(#paint4_linear_520_2906)"/>
<path d="M97.7626 79.0744C99.5521 74.4914 100.09 69.5378 99.3225 64.6941C98.5556 59.8505 96.5103 55.2811 93.3851 51.4293L103.984 43.3817C108.765 49.3108 111.799 56.3853 112.763 63.8526C113.727 71.32 112.586 78.9011 109.459 85.7896L112.122 87.3213L98.6843 90.6493L95.2447 77.6206L97.7626 79.0744Z" fill="url(#paint5_linear_520_2906)"/>
<g filter="url(#filter0_f_520_2906)">
<path d="M42.5236 58.9851C40.7354 63.5686 40.1991 68.5222 40.9666 73.3657C41.7341 78.2091 43.7794 82.7783 46.9043 86.6303L36.3059 94.6779C31.5245 88.7476 28.4901 81.6723 27.5253 74.2041C26.5606 66.7358 27.7015 59.1537 30.8269 52.2637L28.1644 50.7352L41.6051 47.4041L45.0448 60.4328L42.5236 58.9851Z" fill="url(#paint6_linear_520_2906)"/>
<path d="M65.2782 27.6663C72.8318 26.832 80.4785 27.9546 87.4385 30.9196L89.0186 28.3388L92.4551 41.3675L79.024 44.6955L80.5174 42.2516C75.788 40.5169 70.6763 39.9966 65.6782 40.7412C60.6802 41.4857 55.9656 43.4699 51.9917 46.5011L43.6864 36.2276C49.9263 31.4897 57.4017 28.5256 65.2782 27.6663Z" fill="url(#paint7_linear_520_2906)"/>
<path d="M51.2713 109.72L47.8381 96.6854L61.2788 93.3512L59.7854 95.795C64.513 97.5289 69.6225 98.0493 74.6186 97.3059C79.6148 96.5624 84.328 94.5803 88.3014 91.5518L96.6035 101.825C90.4867 106.461 83.1884 109.403 75.4845 110.338C67.7805 111.274 59.959 110.169 52.8514 107.14L51.2713 109.72Z" fill="url(#paint8_linear_520_2906)"/>
<path d="M97.7626 79.0744C99.5521 74.4914 100.09 69.5378 99.3225 64.6941C98.5556 59.8505 96.5103 55.2811 93.3851 51.4293L103.984 43.3817C108.765 49.3108 111.799 56.3853 112.763 63.8526C113.727 71.32 112.586 78.9011 109.459 85.7896L112.122 87.3213L98.6843 90.6493L95.2447 77.6206L97.7626 79.0744Z" fill="url(#paint9_linear_520_2906)"/>
</g>
<defs>
<filter id="filter0_f_520_2906" x="0.758572" y="0.965603" width="138.77" height="136.129" filterUnits="userSpaceOnUse" color-interpolation-filters="sRGB">
<feFlood flood-opacity="0" result="BackgroundImageFix"/>
<feBlend mode="normal" in="SourceGraphic" in2="BackgroundImageFix" result="shape"/>
<feGaussianBlur stdDeviation="13.2164" result="effect1_foregroundBlur_520_2906"/>
</filter>
<linearGradient id="paint0_linear_520_2906" x1="70.1453" y1="92.7938" x2="70.1453" y2="45.437" gradientUnits="userSpaceOnUse">
<stop stop-color="white" stop-opacity="0.2"/>
<stop offset="1" stop-color="white" stop-opacity="0.49"/>
</linearGradient>
<linearGradient id="paint1_linear_520_2906" x1="93.5722" y1="69.3305" x2="45.9466" y2="70.9743" gradientUnits="userSpaceOnUse">
<stop stop-color="white"/>
<stop offset="1" stop-color="white" stop-opacity="0"/>
</linearGradient>
<linearGradient id="paint2_linear_520_2906" x1="46.9027" y1="71.0358" x2="27.1921" y2="71.0358" gradientUnits="userSpaceOnUse">
<stop stop-color="#7C00FF"/>
<stop offset="1" stop-color="#2CF19A"/>
</linearGradient>
<linearGradient id="paint3_linear_520_2906" x1="148.812" y1="50.8575" x2="118.714" y2="-9.2166" gradientUnits="userSpaceOnUse">
<stop stop-color="#7C00FF"/>
<stop offset="0.52" stop-color="#FF6700"/>
<stop offset="1" stop-color="#FFD400"/>
</linearGradient>
<linearGradient id="paint4_linear_520_2906" x1="60.8243" y1="93.6516" x2="65.3017" y2="112.725" gradientUnits="userSpaceOnUse">
<stop stop-color="#10994D"/>
<stop offset="1" stop-color="#00FF79"/>
</linearGradient>
<linearGradient id="paint5_linear_520_2906" x1="94.7945" y1="92.5276" x2="128.607" y2="74.7678" gradientUnits="userSpaceOnUse">
<stop stop-color="#AA83FF"/>
<stop offset="1" stop-color="#FF3FA4"/>
</linearGradient>
<linearGradient id="paint6_linear_520_2906" x1="46.9027" y1="71.0358" x2="27.1921" y2="71.0358" gradientUnits="userSpaceOnUse">
<stop stop-color="#7C00FF"/>
<stop offset="1" stop-color="#2CF19A"/>
</linearGradient>
<linearGradient id="paint7_linear_520_2906" x1="148.812" y1="50.8575" x2="118.714" y2="-9.2166" gradientUnits="userSpaceOnUse">
<stop stop-color="#7C00FF"/>
<stop offset="0.52" stop-color="#FF6700"/>
<stop offset="1" stop-color="#FFD400"/>
</linearGradient>
<linearGradient id="paint8_linear_520_2906" x1="60.8243" y1="93.6516" x2="65.3017" y2="112.725" gradientUnits="userSpaceOnUse">
<stop stop-color="#10994D"/>
<stop offset="1" stop-color="#00FF79"/>
</linearGradient>
<linearGradient id="paint9_linear_520_2906" x1="94.7945" y1="92.5276" x2="128.607" y2="74.7678" gradientUnits="userSpaceOnUse">
<stop stop-color="#AA83FF"/>
<stop offset="1" stop-color="#FF3FA4"/>
</linearGradient>
</defs>
</svg>
