<svg width="175" height="176" viewBox="0 0 175 176" fill="none" xmlns="http://www.w3.org/2000/svg">
<path d="M75.6952 149.042L84.9012 150.043L83.1048 166.578L73.8988 165.577L74.0831 163.881L81.3665 164.673L81.9477 159.323L75.0828 158.577L75.2646 156.903L82.1295 157.649L82.7943 151.531L75.5109 150.739L75.6952 149.042Z" fill="white"/>
<path d="M57.3024 142.648L59.3317 143.486L60.6896 151.974L67.7012 146.943L69.6043 147.73L61.1763 153.627L62.9011 162.956L60.9138 162.135L59.6065 154.419L53.2172 158.956L51.3246 158.174L59.1025 152.808L57.3024 142.648Z" fill="white"/>
<path d="M37.9428 149.215C36.2785 147.86 35.3298 146.544 35.0966 145.269C34.8528 143.994 35.224 142.751 36.2101 141.539C36.6553 140.992 37.1701 140.546 37.7545 140.2C38.3282 139.856 38.9682 139.658 39.6745 139.607C40.376 139.562 41.1417 139.697 41.9715 140.011C42.7908 140.326 43.6708 140.866 44.6117 141.633L46.1819 142.911L50.3107 137.838L51.8103 139.059L41.3124 151.959L37.9428 149.215ZM39.1251 148.051L40.854 149.459L45.1336 144.2L43.731 143.057C42.9077 142.387 42.1508 141.917 41.4603 141.648C40.7639 141.375 40.1171 141.322 39.52 141.491C38.9181 141.666 38.349 142.083 37.8129 142.742C37.114 143.601 36.8681 144.462 37.0751 145.325C37.2773 146.194 37.9607 147.102 39.1251 148.051Z" fill="white"/>
<path d="M33.0351 118.557L38.2309 126.222L24.4668 135.559L19.271 127.894L20.6832 126.936L24.7939 133L29.2469 129.979L25.3724 124.264L26.7658 123.318L30.6403 129.034L35.7336 125.579L31.6229 119.515L33.0351 118.557Z" fill="white"/>
<path d="M12.1735 111.704C11.7647 110.401 11.5903 109.275 11.6502 108.326C11.7006 107.373 11.9892 106.582 12.5159 105.956C13.0426 105.329 13.8161 104.856 14.8364 104.536C15.6757 104.272 16.4252 104.204 17.085 104.33C17.7375 104.459 18.3147 104.715 18.8164 105.098C19.3181 105.481 19.7505 105.922 20.1135 106.42L25.8783 99.8276L26.5527 101.977L21.1516 107.942L22.1871 111.242L28.8078 109.162L29.3869 111.007L13.519 115.991L12.1735 111.704ZM13.803 111.311L14.5354 113.645L20.6242 111.732L19.8339 109.214C19.4275 107.919 18.8647 107.05 18.1458 106.608C17.4245 106.159 16.5502 106.096 15.5227 106.419C14.4446 106.757 13.7834 107.323 13.5392 108.115C13.2927 108.9 13.3806 109.965 13.803 111.311Z" fill="white"/>
<path d="M25.2445 92.6029L8.64503 93.6427L8.52421 91.7125L25.1237 90.6727L25.2445 92.6029Z" fill="white"/>
<path d="M26.4903 74.3917L10.9042 76.6168L10.8843 76.7056C11.1943 76.7441 11.5701 76.8013 12.0117 76.8772C12.4533 76.953 12.9347 77.0417 13.456 77.1432C13.9699 77.243 14.4933 77.3528 15.0261 77.4724L25.2823 79.7753L24.8888 81.5291L8.66087 77.8853L9.2885 75.0881L23.939 72.9794L23.9565 72.9017L11.6296 64.6539L12.2523 61.8788L28.4802 65.5226L28.0618 67.3875L17.6724 65.0546C17.1914 64.9466 16.7121 64.8312 16.2344 64.7084C15.7493 64.584 15.2947 64.4625 14.8705 64.3439C14.4389 64.2236 14.0664 64.1167 13.7532 64.0231L13.7333 64.1119L26.8365 72.8488L26.4903 74.3917Z" fill="white"/>
<path d="M36.9482 50.743L32.0768 58.6183L17.935 49.8641L22.8065 41.9888L24.2574 42.887L20.4033 49.1176L24.9786 51.9498L28.6113 46.0772L30.0428 46.9634L26.4102 52.836L31.6432 56.0754L35.4973 49.8448L36.9482 50.743Z" fill="white"/>
<path d="M52.1176 35.9061L50.4125 37.3428L34.4811 32.4986L34.4115 32.5573C34.6683 32.8269 34.9621 33.1347 35.2931 33.4806C35.6191 33.8208 35.9613 34.1919 36.3198 34.594C36.6791 34.9855 37.0371 35.393 37.3937 35.8165L43.5485 43.1264L42.1739 44.2846L31.4616 31.5618L33.158 30.1324L49.034 34.9638L49.0949 34.9125C48.9124 34.7192 48.6561 34.4442 48.326 34.0876C47.9911 33.7251 47.6342 33.3366 47.2554 32.9219C46.8774 32.4966 46.5321 32.0983 46.2195 31.727L40.0134 24.3561L41.4053 23.1833L52.1176 35.9061Z" fill="white"/>
<path d="M64.708 29.6451L62.9039 30.3729L57.3234 16.5299L52.4703 18.4877L51.8323 16.905L63.3213 12.27L63.9593 13.8527L59.1274 15.802L64.708 29.6451Z" fill="white"/>
<path d="M87.0899 25.1613L84.5678 20.0924L77.9293 20.7029L76.3845 26.1457L74.4361 26.3249L79.3877 9.09885L81.121 8.93947L89.0837 24.978L87.0899 25.1613ZM83.8328 18.4349L81.4158 13.3906C81.358 13.2589 81.262 13.043 81.1278 12.7431C81.0012 12.4425 80.8697 12.1309 80.7334 11.8083C80.5972 11.4857 80.4857 11.2256 80.399 11.0279C80.3519 11.3445 80.2973 11.6618 80.2351 11.9798C80.1798 12.2895 80.1227 12.5804 80.064 12.8524C80.0045 13.1168 79.9529 13.3424 79.9091 13.5292L78.4178 18.9329L83.8328 18.4349Z" fill="white"/>
<path d="M95.4162 25.8203L98.5834 9.49269L100.482 9.86123L97.644 24.4913L104.892 25.8983L104.563 27.5958L95.4162 25.8203Z" fill="white"/>
<path d="M125.691 28.6687C125.991 28.2305 126.309 27.9935 126.646 27.9575C126.988 27.9154 127.312 27.9992 127.618 28.2091C127.937 28.4276 128.142 28.7057 128.233 29.0434C128.328 29.3748 128.226 29.7597 127.926 30.1979C127.63 30.6299 127.305 30.871 126.949 30.9214C126.597 30.9656 126.261 30.8784 125.942 30.66C125.636 30.4501 125.442 30.1753 125.362 29.8356C125.286 29.4896 125.396 29.1007 125.691 28.6687Z" fill="white"/>
<path d="M151.962 58.1706C150.345 59.1164 148.821 59.6126 147.39 59.6589C145.965 59.7015 144.651 59.3238 143.446 58.5258C142.252 57.7306 141.19 56.5374 140.26 54.9464L137.981 51.0473L152.337 42.6494L154.869 46.9807C155.723 48.4408 156.189 49.8549 156.268 51.2231C156.354 52.5874 156.04 53.8608 155.326 55.0431C154.622 56.2282 153.5 57.2707 151.962 58.1706ZM150.875 56.447C152.165 55.6926 153.102 54.8543 153.688 53.932C154.277 53.0162 154.531 52.0238 154.451 50.9549C154.381 49.8886 153.996 48.7564 153.296 47.5582L151.889 45.1519L140.391 51.8783L141.579 53.9113C142.735 55.8887 144.09 57.0864 145.643 57.5045C147.2 57.9292 148.944 57.5767 150.875 56.447Z" fill="white"/>
<path d="M149.09 78.8168L147.062 69.7812L163.29 66.1374L165.318 75.173L163.653 75.5469L162.049 68.3983L156.799 69.5772L158.31 76.315L156.668 76.6839L155.156 69.9461L149.151 71.2944L150.755 78.443L149.09 78.8168Z" fill="white"/>
<path d="M153.551 96.8531C152.566 96.7997 151.739 96.5079 151.069 95.9779C150.406 95.4558 149.917 94.7457 149.601 93.8475C149.285 92.9493 149.159 91.9057 149.224 90.7167C149.258 90.0882 149.32 89.4953 149.411 88.9382C149.502 88.3811 149.617 87.8709 149.756 87.4075C149.895 86.9441 150.058 86.539 150.244 86.1921L152.095 86.2926C151.83 86.8479 151.573 87.5289 151.324 88.3356C151.083 89.1428 150.938 89.9933 150.889 90.8869C150.844 91.7199 150.916 92.4301 151.104 93.0176C151.3 93.6055 151.598 94.0584 151.999 94.3764C152.406 94.7023 152.906 94.8813 153.496 94.9134C154.064 94.9442 154.544 94.8449 154.937 94.6156C155.336 94.3866 155.707 93.989 156.049 93.4227C156.399 92.8645 156.778 92.0952 157.189 91.1148C157.477 90.4241 157.783 89.8179 158.108 89.2963C158.44 88.775 158.805 88.3429 159.203 88C159.602 87.657 160.056 87.4045 160.566 87.2423C161.076 87.0876 161.652 87.0278 162.296 87.0627C163.182 87.1108 163.927 87.3753 164.531 87.8563C165.143 88.3452 165.594 88.9962 165.884 89.8095C166.181 90.6307 166.302 91.5601 166.245 92.5976C166.197 93.4836 166.07 94.297 165.862 95.0377C165.655 95.7859 165.394 96.4667 165.079 97.0801L163.454 96.388C163.736 95.8033 163.979 95.1785 164.182 94.5135C164.385 93.8562 164.505 93.1715 164.544 92.4597C164.582 91.7478 164.509 91.14 164.324 90.6363C164.146 90.1405 163.874 89.7536 163.509 89.4755C163.145 89.1975 162.701 89.0443 162.179 89.016C161.595 88.9843 161.104 89.0792 160.705 89.3005C160.305 89.5295 159.939 89.9046 159.607 90.4258C159.282 90.955 158.933 91.6576 158.559 92.5336C158.15 93.4912 157.726 94.2999 157.288 94.9596C156.857 95.6198 156.344 96.1123 155.749 96.437C155.162 96.7621 154.429 96.9008 153.551 96.8531Z" fill="white"/>
<path d="M147.406 103.827L163.394 108.412L162.861 110.271L146.874 105.686L147.406 103.827Z" fill="white"/>
<path d="M147.681 124.949L144.705 129.943L137.777 125.812C137.97 124.912 138.241 124.027 138.591 123.158C138.937 122.296 139.401 121.376 139.983 120.399C140.868 118.914 141.912 117.836 143.114 117.167C144.313 116.504 145.616 116.235 147.025 116.36C148.441 116.489 149.904 117.003 151.415 117.905C152.894 118.786 154.011 119.845 154.766 121.082C155.518 122.324 155.868 123.677 155.818 125.139C155.77 126.612 155.284 128.124 154.36 129.674C153.887 130.469 153.363 131.177 152.79 131.798C152.22 132.429 151.619 132.971 150.987 133.424L149.919 131.927C150.462 131.535 151.005 131.068 151.548 130.527C152.087 129.992 152.559 129.386 152.963 128.708C153.658 127.542 154.013 126.398 154.027 125.277C154.038 124.162 153.736 123.121 153.121 122.154C152.502 121.193 151.589 120.353 150.384 119.634C149.192 118.924 148.039 118.496 146.924 118.352C145.815 118.212 144.774 118.404 143.8 118.927C142.827 119.45 141.957 120.353 141.193 121.637C140.808 122.282 140.514 122.857 140.31 123.362C140.113 123.871 139.953 124.346 139.832 124.786L144.21 127.396L146.196 124.064L147.681 124.949Z" fill="white"/>
<path d="M122.038 139.731L123.755 138.308L139.645 143.286L139.715 143.228C139.46 142.957 139.169 142.646 138.841 142.298C138.518 141.955 138.179 141.581 137.824 141.176C137.468 140.781 137.113 140.371 136.76 139.944L130.667 132.583L132.051 131.436L142.656 144.249L140.948 145.664L125.113 140.699L125.052 140.75C125.233 140.945 125.487 141.222 125.814 141.581C126.146 141.946 126.499 142.338 126.875 142.756C127.249 143.184 127.591 143.585 127.9 143.959L134.044 151.382L132.642 152.543L122.038 139.731Z" fill="white"/>
<path d="M105.691 155.629C105.818 156.145 105.783 156.54 105.585 156.816C105.389 157.098 105.111 157.284 104.75 157.373C104.375 157.466 104.031 157.433 103.719 157.276C103.408 157.126 103.19 156.793 103.063 156.277C102.937 155.769 102.975 155.366 103.174 155.067C103.376 154.775 103.664 154.583 104.04 154.49C104.401 154.401 104.734 154.44 105.041 154.606C105.349 154.78 105.566 155.121 105.691 155.629Z" fill="white"/>
</svg>
