<svg width="160" height="160" viewBox="0 0 160 160" fill="none" xmlns="http://www.w3.org/2000/svg">
<path d="M88.3489 21.057C88.1939 21.0296 88.0815 20.9661 88.0118 20.8666C87.9445 20.7529 87.9233 20.6256 87.9481 20.4846L90.3802 6.65272C90.4049 6.51172 90.4671 6.4064 90.5665 6.33676C90.6685 6.25302 90.797 6.22486 90.952 6.25228L92.0728 6.45047C92.2138 6.4754 92.3179 6.54469 92.3851 6.65835C92.4689 6.76039 92.4984 6.88192 92.4736 7.02292L90.2796 19.5012L97.3 20.7427C97.4551 20.7701 97.5663 20.8406 97.6335 20.9543C97.7173 21.0563 97.7456 21.1849 97.7183 21.34L97.5695 22.186C97.5447 22.327 97.4743 22.4381 97.3583 22.5194C97.2588 22.589 97.1316 22.6101 96.9765 22.5827L88.3489 21.057Z" fill="#EEF0FB"/>
<path d="M106.416 26.793C106.275 26.7221 106.186 26.629 106.147 26.5136C106.116 26.3853 106.132 26.2572 106.196 26.1292L112.484 13.5718C112.549 13.4438 112.638 13.3607 112.753 13.3225C112.875 13.2715 113.006 13.2815 113.147 13.3523L114.163 13.8643C114.304 13.9351 114.39 14.0346 114.422 14.1629C114.46 14.2783 114.447 14.4001 114.383 14.5281L108.095 27.0855C108.03 27.2135 107.938 27.303 107.816 27.3539C107.701 27.3921 107.573 27.3758 107.432 27.3049L106.416 26.793Z" fill="#EEF0FB"/>
<path d="M121.464 37.881C120.507 36.9758 119.879 36.0458 119.578 35.0911C119.287 34.1463 119.28 33.2033 119.556 32.2622C119.832 31.3212 120.352 30.4136 121.115 29.5395C121.507 29.1021 121.933 28.6384 122.394 28.1483C122.855 27.6583 123.302 27.194 123.734 26.7554C124.56 25.9404 125.433 25.3673 126.354 25.0363C127.275 24.7052 128.214 24.6576 129.171 24.8934C130.139 25.1391 131.102 25.7145 132.058 26.6197C132.776 27.2986 133.312 27.9929 133.666 28.7027C134.02 29.4124 134.218 30.1014 134.257 30.7696C134.307 31.4476 134.23 32.0837 134.025 32.6779C133.829 33.2617 133.536 33.7824 133.145 34.24C133.067 34.3437 132.962 34.3924 132.83 34.386C132.709 34.3896 132.602 34.3471 132.508 34.2585L131.65 33.4468C131.557 33.3582 131.498 33.2535 131.474 33.1324C131.461 33.0213 131.502 32.8832 131.599 32.7181C132.187 31.7375 132.379 30.8648 132.175 30.1C131.981 29.345 131.525 28.6281 130.808 27.9492C129.965 27.1522 129.074 26.7623 128.134 26.7795C127.204 26.7863 126.233 27.2963 125.221 28.3095C124.385 29.135 123.561 30.0109 122.749 30.9371C121.799 32.0094 121.343 33.0165 121.38 33.9586C121.428 34.8902 121.872 35.7546 122.715 36.5515C123.432 37.2304 124.172 37.645 124.935 37.7952C125.709 37.9552 126.566 37.7122 127.508 37.0662C127.667 36.9602 127.802 36.9106 127.913 36.9175C128.035 36.9342 128.143 36.9869 128.236 37.0754L129.094 37.8871C129.188 37.9757 129.237 38.0808 129.24 38.2024C129.264 38.3234 129.226 38.4259 129.128 38.5099C128.695 38.9281 128.189 39.2573 127.609 39.4972C127.03 39.7372 126.401 39.8519 125.723 39.8412C125.055 39.8403 124.358 39.6831 123.631 39.3696C122.904 39.0561 122.182 38.5599 121.464 37.881Z" fill="#EEF0FB"/>
<path d="M130.027 48.1814C129.948 48.045 129.925 47.918 129.956 47.8005C130 47.6758 130.084 47.5776 130.208 47.5059L142.343 40.4796C142.479 40.4007 142.606 40.377 142.723 40.4084C142.853 40.4326 142.957 40.513 143.035 40.6494L147.46 48.3355C147.539 48.472 147.556 48.6025 147.512 48.7272C147.481 48.8447 147.397 48.9429 147.261 49.0218L146.554 49.4307C146.418 49.5096 146.291 49.5333 146.174 49.5019C146.057 49.4705 145.959 49.3866 145.881 49.2501L142.238 42.9226L138.168 45.279L141.575 51.1971C141.654 51.3336 141.671 51.4641 141.627 51.5888C141.596 51.7063 141.512 51.8045 141.375 51.8834L140.688 52.2815C140.564 52.3532 140.437 52.377 140.308 52.3528C140.19 52.3214 140.093 52.2374 140.014 52.1009L136.607 46.1829L132.388 48.6254L136.117 55.1018C136.195 55.2382 136.219 55.3652 136.188 55.4827C136.156 55.6002 136.072 55.6984 135.936 55.7773L135.211 56.1969C135.087 56.2687 134.961 56.2924 134.831 56.2682C134.714 56.2368 134.616 56.1528 134.537 56.0164L130.027 48.1814Z" fill="#EEF0FB"/>
<path d="M136.804 62.9766C136.768 62.8233 136.782 62.695 136.845 62.5915C136.923 62.4847 137.032 62.4148 137.171 62.3817L150.814 59.1391C150.967 59.1027 151.095 59.1164 151.198 59.1801C151.316 59.2405 151.392 59.3474 151.429 59.5006L151.656 60.462C151.695 60.6291 151.683 60.7645 151.619 60.8679C151.569 60.9681 151.525 61.0301 151.487 61.0539L142.471 70.5247L152.918 68.0419C153.071 68.0054 153.199 68.0191 153.302 68.0828C153.42 68.1433 153.496 68.2501 153.533 68.4033L153.77 69.4065C153.806 69.5597 153.785 69.6897 153.707 69.7965C153.647 69.9139 153.54 69.9908 153.387 70.0272L139.765 73.2648C139.626 73.2979 139.496 73.2773 139.375 73.2029C139.258 73.1425 139.183 73.0426 139.15 72.9033L138.913 71.9002C138.877 71.7469 138.891 71.6186 138.954 71.5151C139.022 71.4256 139.066 71.3636 139.087 71.3291L148.003 61.9041L137.64 64.3671C137.501 64.4002 137.371 64.3795 137.25 64.3052C137.147 64.2415 137.077 64.133 137.041 63.9797L136.804 62.9766Z" fill="#EEF0FB"/>
<path d="M138.785 85.4555C138.857 84.2121 139.11 83.18 139.545 82.3593C139.98 81.5387 140.511 80.9172 141.138 80.4949C141.778 80.0877 142.435 79.8895 143.108 79.9001C143.223 79.9068 143.32 79.9555 143.401 80.0463C143.495 80.1522 143.539 80.2694 143.531 80.3981L143.468 81.4914C143.458 81.6629 143.407 81.789 143.317 81.8698C143.226 81.9505 143.122 82.0018 143.006 82.0237C142.658 82.0895 142.305 82.2481 141.946 82.4996C141.602 82.7519 141.301 83.1215 141.043 83.6084C140.799 84.1104 140.653 84.7616 140.607 85.5619C140.536 86.791 140.698 87.7039 141.093 88.3007C141.502 88.9125 142.071 89.2397 142.8 89.2823C143.3 89.3115 143.709 89.1777 144.028 88.8808C144.36 88.599 144.665 88.1508 144.945 87.5361C145.224 86.9215 145.536 86.1223 145.88 85.1385C146.241 84.1128 146.62 83.2673 147.017 82.6022C147.414 81.937 147.887 81.4484 148.436 81.1363C148.983 80.8384 149.665 80.7133 150.479 80.7609C151.251 80.806 151.925 81.0533 152.501 81.5028C153.092 81.9532 153.543 82.5818 153.854 83.3887C154.166 84.1957 154.29 85.1494 154.226 86.2498C154.175 87.1359 154.008 87.9006 153.727 88.5439C153.459 89.2022 153.113 89.7412 152.687 90.1609C152.275 90.5814 151.834 90.8927 151.363 91.0946C150.907 91.2974 150.464 91.3934 150.035 91.3827C149.934 91.3768 149.837 91.3353 149.741 91.258C149.659 91.1815 149.623 91.0647 149.632 90.9075L149.698 89.7712C149.704 89.6712 149.739 89.5657 149.802 89.4547C149.865 89.358 149.977 89.2856 150.138 89.2376C150.729 89.1861 151.241 88.8862 151.674 88.3379C152.107 87.7896 152.351 87.0581 152.404 86.1434C152.458 85.2144 152.323 84.4465 152 83.8397C151.676 83.2471 151.135 82.9287 150.377 82.8845C149.892 82.8561 149.476 82.9681 149.132 83.2204C148.802 83.4736 148.498 83.8861 148.221 84.4579C147.944 85.0297 147.642 85.7793 147.316 86.7067C146.935 87.8317 146.545 88.7482 146.145 89.4562C145.76 90.165 145.293 90.6755 144.744 90.9877C144.209 91.3149 143.534 91.4547 142.72 91.4072C141.819 91.3546 141.061 91.0737 140.445 90.5645C139.844 90.0561 139.397 89.3631 139.103 88.4856C138.824 87.6232 138.717 86.6131 138.785 85.4555Z" fill="#EEF0FB"/>
<path d="M135.647 100.479C135.701 100.331 135.782 100.231 135.892 100.18C136.016 100.133 136.145 100.135 136.279 100.184L149.472 104.999C149.606 105.048 149.699 105.128 149.751 105.238C149.816 105.353 149.821 105.485 149.767 105.633L149.379 106.703C149.325 106.851 149.237 106.948 149.113 106.994C149.003 107.046 148.881 107.047 148.747 106.998L135.554 102.182C135.419 102.133 135.32 102.051 135.255 101.936C135.204 101.826 135.205 101.697 135.258 101.549L135.647 100.479Z" fill="#EEF0FB"/>
<path d="M126.606 116.537C127.365 115.514 128.199 114.787 129.106 114.357C130.006 113.939 130.94 113.797 131.91 113.931C132.871 114.077 133.834 114.474 134.797 115.122C135.31 115.487 135.848 115.88 136.41 116.299C136.984 116.728 137.524 117.14 138.032 117.537C138.927 118.277 139.576 119.083 139.98 119.956C140.387 120.849 140.509 121.789 140.347 122.776C140.197 123.772 139.746 124.775 138.995 125.787C138.398 126.591 137.763 127.207 137.089 127.633C136.416 128.06 135.761 128.33 135.124 128.444C134.49 128.577 133.915 128.595 133.4 128.496C132.876 128.409 132.467 128.264 132.171 128.062C132.06 127.996 131.995 127.903 131.977 127.783C131.971 127.671 132.011 127.557 132.096 127.443L132.851 126.425C132.937 126.31 133.023 126.241 133.112 126.218C133.192 126.206 133.306 126.22 133.455 126.26C133.83 126.379 134.251 126.425 134.717 126.398C135.174 126.382 135.644 126.241 136.126 125.976C136.612 125.731 137.08 125.304 137.533 124.695C138.215 123.775 138.519 122.849 138.444 121.918C138.36 120.998 137.767 120.091 136.666 119.197C135.671 118.4 134.65 117.638 133.603 116.91C132.422 116.1 131.37 115.788 130.447 115.974C129.535 116.169 128.743 116.721 128.068 117.629C127.616 118.238 127.33 118.864 127.209 119.506C127.08 120.16 127.143 120.797 127.397 121.415C127.663 122.042 128.157 122.626 128.879 123.165L129.602 123.705L131.522 121.118C131.607 121.003 131.714 120.931 131.843 120.902C131.974 120.893 132.103 120.936 132.23 121.03L132.78 121.441C132.906 121.535 132.978 121.643 132.996 121.763C133.016 121.903 132.984 122.031 132.899 122.146L130.006 126.043C129.912 126.169 129.799 126.237 129.668 126.246C129.548 126.264 129.425 126.225 129.299 126.131L127.647 124.898C126.706 124.196 126.031 123.388 125.621 122.474C125.203 121.573 125.072 120.608 125.228 119.581C125.396 118.563 125.855 117.548 126.606 116.537Z" fill="#EEF0FB"/>
<path d="M118.075 125.897C118.201 125.803 118.324 125.765 118.444 125.782C118.572 125.812 118.679 125.884 118.765 125.998L127.123 137.258C127.217 137.384 127.255 137.508 127.237 137.628C127.228 137.76 127.161 137.873 127.035 137.967L126.243 138.558C126.105 138.661 125.976 138.703 125.856 138.686C125.745 138.68 125.671 138.664 125.634 138.638L113.393 134.109L119.793 142.731C119.887 142.857 119.925 142.98 119.907 143.101C119.898 143.233 119.83 143.346 119.704 143.44L118.878 144.056C118.752 144.151 118.625 144.183 118.496 144.154C118.365 144.145 118.252 144.077 118.158 143.951L109.813 132.709C109.727 132.594 109.695 132.466 109.715 132.326C109.724 132.194 109.786 132.085 109.901 132L110.727 131.383C110.853 131.289 110.976 131.251 111.096 131.268C111.205 131.294 111.279 131.31 111.319 131.316L123.479 135.771L117.13 127.219C117.045 127.104 117.012 126.976 117.033 126.836C117.051 126.716 117.122 126.608 117.249 126.514L118.075 125.897Z" fill="#EEF0FB"/>
<path d="M100.48 140.551C100.87 140.409 101.267 140.37 101.671 140.436C102.067 140.52 102.427 140.694 102.751 140.956C103.062 141.224 103.288 141.553 103.429 141.943C103.576 142.347 103.613 142.745 103.542 143.136C103.458 143.533 103.288 143.884 103.034 144.191C102.771 144.515 102.445 144.749 102.055 144.891C101.651 145.038 101.252 145.07 100.855 144.986C100.464 144.915 100.109 144.755 99.7904 144.506C99.4714 144.257 99.2387 143.93 99.0922 143.526C98.9506 143.136 98.9195 142.736 98.9992 142.326C99.0788 141.916 99.2433 141.551 99.4928 141.231C99.7472 140.925 100.076 140.698 100.48 140.551Z" fill="#EEF0FB"/>
<path d="M86.0116 139.547C86.1688 139.538 86.2928 139.573 86.3835 139.654C86.475 139.749 86.525 139.868 86.5333 140.011L87.3463 154.01C87.3554 154.167 87.3196 154.291 87.2388 154.382C87.1589 154.487 87.0403 154.544 86.8831 154.553L81.6524 154.859C80.0374 154.953 78.7363 154.649 77.749 153.947C76.7618 153.244 76.225 152.15 76.1387 150.664C76.0748 149.563 76.3012 148.646 76.8179 147.914C77.3211 147.196 78.0365 146.674 78.964 146.347L75.3314 140.837C75.2835 140.754 75.2575 140.677 75.2534 140.605C75.2467 140.491 75.291 140.388 75.386 140.296C75.4668 140.206 75.5643 140.157 75.6787 140.15L76.7077 140.09C76.9506 140.076 77.133 140.13 77.2548 140.252C77.3766 140.374 77.4841 140.497 77.5774 140.62L81.002 145.884L84.7536 145.665L84.4324 140.134C84.4241 139.991 84.4671 139.866 84.5613 139.761C84.6421 139.67 84.7611 139.62 84.9183 139.611L86.0116 139.547ZM84.8594 147.487L81.3223 147.694C80.2504 147.756 79.4629 148.024 78.9598 148.498C78.4576 148.987 78.2322 149.674 78.2837 150.56C78.3343 151.432 78.6373 152.081 79.1927 152.507C79.7337 152.935 80.5474 153.116 81.6335 153.053L85.1707 152.846L84.8594 147.487Z" fill="#EEF0FB"/>
<path d="M68.4228 138.767C68.5761 138.803 68.6846 138.873 68.7484 138.976C68.8089 139.094 68.8227 139.222 68.7898 139.362L65.5647 153.008C65.5284 153.161 65.4587 153.27 65.3553 153.334C65.2487 153.411 65.1188 153.432 64.9656 153.396L56.3372 151.345C56.184 151.308 56.0771 151.231 56.0166 151.114C55.9528 151.011 55.939 150.882 55.9752 150.729L56.1629 149.935C56.1991 149.782 56.2689 149.673 56.3722 149.609C56.4755 149.546 56.6038 149.532 56.757 149.568L63.8603 151.257L64.9419 146.68L58.2982 145.101C58.145 145.064 58.0382 144.988 57.9776 144.87C57.9138 144.767 57.9 144.638 57.9363 144.485L58.119 143.712C58.1519 143.573 58.2217 143.464 58.3283 143.386C58.4316 143.323 58.5599 143.309 58.7131 143.345L65.3568 144.924L66.4779 140.181L59.2075 138.453C59.0543 138.416 58.9458 138.346 58.8819 138.243C58.8181 138.139 58.8043 138.011 58.8406 137.858L59.0332 137.043C59.0661 136.903 59.1359 136.795 59.2425 136.717C59.3458 136.653 59.4741 136.64 59.6273 136.676L68.4228 138.767Z" fill="#EEF0FB"/>
<path d="M49.1227 131.042C50.2253 131.68 51.0429 132.426 51.5753 133.281C52.0953 134.128 52.3455 135.042 52.3257 136.023C52.2936 136.997 52.0131 138.001 51.4841 139.034C51.1822 139.587 50.8562 140.168 50.5063 140.776C50.1491 141.396 49.8036 141.982 49.4698 142.533C48.8417 143.509 48.1187 144.249 47.3008 144.751C46.4634 145.259 45.5464 145.489 44.5497 145.441C43.5458 145.406 42.4988 145.072 41.4085 144.441C40.5413 143.939 39.857 143.377 39.3556 142.756C38.8542 142.135 38.5098 141.514 38.3224 140.893C38.1154 140.276 38.0307 139.706 38.0682 139.182C38.0933 138.651 38.1889 138.226 38.3551 137.909C38.407 137.79 38.4915 137.715 38.6087 137.684C38.7188 137.665 38.8357 137.691 38.9596 137.763L40.0561 138.398C40.18 138.469 40.2586 138.548 40.292 138.633C40.313 138.712 40.3125 138.827 40.2907 138.98C40.2164 139.367 40.2201 139.791 40.3017 140.252C40.371 140.706 40.5652 141.157 40.8846 141.607C41.1844 142.062 41.6626 142.479 42.3192 142.859C43.3104 143.433 44.263 143.629 45.1773 143.447C46.0791 143.258 46.9083 142.564 47.665 141.364C48.3379 140.281 48.9736 139.177 49.5721 138.051C50.2368 136.782 50.4228 135.699 50.13 134.801C49.8301 133.916 49.1907 133.19 48.212 132.624C47.5554 132.243 46.9016 132.03 46.2508 131.984C45.5876 131.931 44.9645 132.067 44.3814 132.391C43.7913 132.727 43.2712 133.286 42.8212 134.068L42.3712 134.85L45.1588 136.464C45.2826 136.535 45.3665 136.634 45.4104 136.758C45.4347 136.888 45.4076 137.021 45.329 137.158L44.9862 137.753C44.9076 137.89 44.8097 137.974 44.6925 138.005C44.5558 138.042 44.4255 138.024 44.3016 137.953L40.1017 135.521C39.9654 135.442 39.8851 135.337 39.8608 135.208C39.8293 135.09 39.8528 134.963 39.9314 134.827L40.9599 133.04C41.5456 132.023 42.267 131.258 43.1239 130.745C43.9685 130.225 44.9086 129.983 45.9444 130.02C46.973 130.07 48.0324 130.411 49.1227 131.042Z" fill="#EEF0FB"/>
<path d="M35.4997 119.694C36.3237 120.569 36.8789 121.473 37.1653 122.404C37.4419 123.325 37.4249 124.258 37.1142 125.202C36.7834 126.146 36.1136 127.095 35.1049 128.049L28.7718 134.041C28.6574 134.149 28.5396 134.202 28.4184 134.198C28.2867 134.204 28.1669 134.15 28.059 134.035L27.3086 133.238C27.2007 133.123 27.1537 133 27.1677 132.869C27.1614 132.737 27.2154 132.616 27.3298 132.508L33.6941 126.487C34.7132 125.522 35.2415 124.569 35.2791 123.627C35.3166 122.685 34.943 121.797 34.1582 120.963C33.3833 120.139 32.5258 119.719 31.5858 119.701C30.636 119.674 29.6515 120.142 28.6324 121.106L22.2682 127.128C22.1538 127.236 22.0359 127.288 21.9147 127.285C21.7732 127.281 21.6535 127.227 21.5554 127.122L20.7902 126.309C20.6921 126.205 20.6501 126.087 20.664 125.955C20.6577 125.823 20.7118 125.703 20.8262 125.595L27.1592 119.603C28.168 118.649 29.1565 118.038 30.125 117.773C31.0733 117.506 31.9977 117.538 32.8982 117.868C33.7987 118.199 34.6659 118.807 35.4997 119.694Z" fill="#EEF0FB"/>
<path d="M27.416 108.483C27.4865 108.624 27.5026 108.752 27.4644 108.867C27.4133 108.989 27.3239 109.082 27.196 109.147L14.653 115.464C14.5252 115.528 14.4036 115.542 14.2885 115.503C14.1605 115.472 14.0613 115.385 13.9908 115.245L13.4811 114.227C13.417 114.099 13.4105 113.974 13.4615 113.852C13.4934 113.724 13.5732 113.628 13.7011 113.563L25.0166 107.864L21.8242 101.489C21.7537 101.349 21.744 101.217 21.795 101.095C21.8269 100.967 21.9131 100.867 22.0538 100.797L22.8209 100.41C22.9488 100.346 23.0799 100.336 23.2143 100.38C23.3295 100.419 23.4223 100.508 23.4928 100.649L27.416 108.483Z" fill="#EEF0FB"/>
<path d="M21.9578 94.736C21.9777 94.8488 21.9527 94.955 21.883 95.0545C21.8133 95.1541 21.7221 95.2138 21.6093 95.2338C21.5388 95.2462 21.46 95.2529 21.3729 95.2538L6.76924 92.428C6.61835 92.3965 6.49194 92.3389 6.39 92.2551C6.28806 92.1714 6.21974 92.0308 6.18503 91.8334L5.93216 90.3953C5.89746 90.1979 5.91372 90.0423 5.98095 89.9287C6.04818 89.815 6.14732 89.7175 6.27838 89.6362L19.0413 81.9929C19.121 81.9498 19.196 81.922 19.2665 81.9095C19.3793 81.8896 19.4854 81.9144 19.5849 81.984C19.6843 82.0537 19.744 82.1449 19.7638 82.2577L19.9535 83.3363C19.9832 83.5055 19.9632 83.6399 19.8935 83.7395C19.8213 83.8249 19.7525 83.888 19.6869 83.9286L16.8887 85.6229L18.1085 92.5599L21.3157 93.1922C21.3887 93.1938 21.4749 93.2295 21.5744 93.2991C21.6738 93.3687 21.7384 93.4882 21.7682 93.6574L21.9578 94.736ZM16.1821 92.2682L15.178 86.5578L8.1732 90.7404L16.1821 92.2682Z" fill="#EEF0FB"/>
<path d="M20.842 72.0561C20.8255 72.1983 20.7687 72.3141 20.6718 72.4037C20.5623 72.4773 20.4365 72.5058 20.2943 72.4892L7.75341 71.0192L7.2761 75.1145C7.25953 75.2567 7.20279 75.3725 7.10587 75.4621C6.9964 75.5357 6.87057 75.5642 6.72838 75.5475L5.8326 75.4425C5.6762 75.4242 5.56031 75.3674 5.48494 75.2721C5.39701 75.1609 5.36133 75.0342 5.37791 74.892L6.57614 64.611C6.59438 64.4546 6.65823 64.3396 6.7677 64.2659C6.86462 64.1764 6.99128 64.1408 7.14768 64.1591L8.04346 64.2641C8.18565 64.2808 8.30071 64.3447 8.38864 64.4559C8.464 64.5513 8.49257 64.6771 8.47434 64.8335L7.99952 68.9075L20.5404 70.3775C20.6826 70.3942 20.7977 70.4581 20.8856 70.5693C20.961 70.6646 20.9895 70.7905 20.9713 70.9469L20.842 72.0561Z" fill="#EEF0FB"/>
<path d="M25.7812 55.6144C25.2947 56.7454 24.6884 57.6295 23.9623 58.2669C23.2231 58.8986 22.3594 59.2581 21.3712 59.3454C20.3699 59.4269 19.2469 59.2297 18.0023 58.7537C17.4186 58.5168 16.8639 58.2846 16.3383 58.0573C15.7996 57.8242 15.244 57.5761 14.6715 57.3129C13.4853 56.7373 12.5877 56.0526 11.9785 55.2588C11.3618 54.4461 11.0289 53.5534 10.9798 52.5806C10.9232 51.5891 11.1268 50.5541 11.5907 49.4757C12.0489 48.4105 12.6542 47.5648 13.4066 46.9388C14.1514 46.294 15.0302 45.9176 16.0428 45.8097C17.0423 45.6961 18.155 45.8811 19.3807 46.3646C19.9702 46.5884 20.5343 46.8168 21.073 47.0498C21.5985 47.2772 22.1447 47.5291 22.7116 47.8055C23.9165 48.3735 24.8302 49.0573 25.4525 49.8569C26.0673 50.6376 26.3993 51.5143 26.4484 52.487C26.4844 53.4541 26.262 54.4965 25.7812 55.6144ZM24.1059 54.8897C24.5358 53.8902 24.5843 52.9441 24.2514 52.0514C23.9242 51.1455 23.0952 50.3735 21.7645 49.7355C21.1846 49.4534 20.6646 49.2129 20.2048 49.014C19.7317 48.8093 19.2005 48.5951 18.6111 48.3713C17.6931 48.0054 16.8838 47.8581 16.183 47.9293C15.488 47.9874 14.8987 48.216 14.4153 48.6152C13.9319 49.0145 13.5488 49.5428 13.266 50.2004C12.9831 50.8579 12.8628 51.5 12.905 52.1266C12.9471 52.7532 13.1828 53.3465 13.6121 53.9065C14.047 54.4534 14.7092 54.9426 15.5989 55.3743C16.1713 55.6375 16.6941 55.8715 17.1671 56.0761C17.627 56.275 18.1554 56.4958 18.7523 56.7384C20.1283 57.2713 21.2571 57.3462 22.1387 56.9633C23.0202 56.5804 23.676 55.8891 24.1059 54.8897Z" fill="#EEF0FB"/>
<path d="M32.3968 43.947C32.2957 44.0677 32.1848 44.1334 32.0639 44.144C31.9321 44.1453 31.8115 44.0999 31.7019 44.0077L20.9727 34.9791C20.8522 34.8777 20.7866 34.7665 20.776 34.6453C20.7545 34.5149 20.7942 34.3893 20.8953 34.2685L24.2576 30.25C25.2958 29.0093 26.4082 28.2709 27.5951 28.0347C28.782 27.7986 29.945 28.1599 31.0842 29.1185C31.9277 29.8282 32.4386 30.623 32.6171 31.5029C32.7938 32.3626 32.683 33.2423 32.2848 34.1421L38.7775 35.2836C38.8708 35.306 38.9448 35.3402 38.9996 35.3863C39.0872 35.46 39.1318 35.563 39.1332 35.6951C39.1438 35.8163 39.1123 35.9208 39.0388 36.0087L38.3774 36.7992C38.2212 36.9859 38.0571 37.0816 37.885 37.0865C37.7129 37.0914 37.55 37.0853 37.3963 37.0682L31.2248 35.9444L28.8133 38.8265L33.0524 42.3937C33.1619 42.4859 33.2229 42.6027 33.2352 42.7441C33.2459 42.8653 33.2006 42.9862 33.0996 43.107L32.3968 43.947ZM27.4167 37.6513L29.6904 34.9338C30.3794 34.1104 30.7241 33.3526 30.7244 32.6606C30.7138 31.9594 30.3689 31.3231 29.6898 30.7516C29.0216 30.1893 28.3423 29.9638 27.6519 30.0751C26.9706 30.1754 26.2809 30.6428 25.5827 31.4773L23.309 34.1947L27.4167 37.6513Z" fill="#EEF0FB"/>
<path d="M48.3666 29.43C48.247 29.5088 48.1219 29.5399 47.9912 29.5232C47.8645 29.4867 47.7619 29.4086 47.6834 29.2889L44.9041 25.0511L35.779 20.5743C35.7435 20.5463 35.708 20.5182 35.6725 20.4902C35.637 20.4622 35.6036 20.4242 35.5721 20.3763C35.5093 20.2806 35.4902 20.1731 35.5148 20.054C35.5394 19.9349 35.5995 19.8438 35.6951 19.7807L36.6273 19.1659C36.7348 19.095 36.8501 19.0618 36.973 19.0665C37.088 19.0592 37.1949 19.0916 37.2936 19.1637L44.6048 22.6761L44.2846 14.5525C44.2816 14.4173 44.3002 14.3021 44.3405 14.207C44.3849 14.0919 44.4609 13.9989 44.5684 13.928L45.4826 13.325C45.5902 13.254 45.7034 13.2308 45.8222 13.2554C45.941 13.2799 46.0318 13.34 46.0946 13.4358C46.126 13.4837 46.1475 13.5295 46.1591 13.5733C46.1707 13.6171 46.1764 13.6649 46.176 13.7165L46.6787 23.8806L49.4581 28.1184C49.5366 28.2381 49.5615 28.3674 49.5328 28.5064C49.5082 28.6255 49.4302 28.7284 49.2987 28.8151L48.3666 29.43Z" fill="#EEF0FB"/>
<path d="M62.5748 18.6083C62.1772 18.7277 61.7783 18.7428 61.3782 18.6537C60.9877 18.5467 60.6384 18.3526 60.3303 18.0714C60.036 17.7861 59.8294 17.4446 59.7107 17.0467C59.5878 16.6352 59.5732 16.236 59.6669 15.8491C59.7743 15.4582 59.9639 15.1173 60.2356 14.8264C60.517 14.5177 60.8564 14.3037 61.2541 14.1843C61.6654 14.0608 62.0663 14.0525 62.4568 14.1595C62.8433 14.2528 63.1884 14.4331 63.4924 14.7006C63.7963 14.9681 64.0098 15.3076 64.1326 15.7191C64.2514 16.1169 64.2591 16.5182 64.1558 16.9229C64.0525 17.3276 63.8671 17.6822 63.5994 17.9868C63.3277 18.2776 62.9861 18.4848 62.5748 18.6083Z" fill="#EEF0FB"/>
</svg>
