<svg width="119" height="114" viewBox="0 0 119 114" fill="none" xmlns="http://www.w3.org/2000/svg">
<g filter="url(#filter0_f_520_2868)">
<path d="M69.0496 86.0215C71.6885 86.0215 73.8278 83.8823 73.8278 81.2434C73.8278 78.6045 71.6885 76.4652 69.0496 76.4652C66.4107 76.4652 64.2715 78.6045 64.2715 81.2434C64.2715 83.8823 66.4107 86.0215 69.0496 86.0215Z" fill="url(#paint0_linear_520_2868)"/>
<path d="M69.0496 38.24C71.6885 38.24 73.8278 36.1008 73.8278 33.4619C73.8278 30.823 71.6885 28.6837 69.0496 28.6837C66.4107 28.6837 64.2715 30.823 64.2715 33.4619C64.2715 36.1008 66.4107 38.24 69.0496 38.24Z" fill="url(#paint1_linear_520_2868)"/>
<path d="M28.4344 62.1309C31.0733 62.1309 33.2125 59.9916 33.2125 57.3527C33.2125 54.7138 31.0733 52.5746 28.4344 52.5746C25.7955 52.5746 23.6562 54.7138 23.6562 57.3527C23.6562 59.9916 25.7955 62.1309 28.4344 62.1309Z" fill="url(#paint2_linear_520_2868)"/>
<path d="M85.7753 47.7964C83.6624 47.8027 81.6113 48.5097 79.9434 49.8067C78.2754 51.1037 77.0849 52.9174 76.5582 54.9636H66.3234C65.9851 53.6163 65.3546 52.3599 64.4767 51.2833C63.5988 50.2068 62.4948 49.3364 61.2431 48.7339C59.9914 48.1314 58.6226 47.8116 57.2335 47.7969C55.8444 47.7823 54.4691 48.0733 53.205 48.6493L45.615 39.1647C46.8635 37.525 47.5429 35.5228 47.5501 33.4619C47.5501 31.5719 46.9896 29.7243 45.9396 28.1527C44.8895 26.5812 43.397 25.3564 41.6508 24.6331C39.9047 23.9098 37.9832 23.7205 36.1295 24.0893C34.2757 24.458 32.573 25.3681 31.2365 26.7046C29.9 28.0411 28.9899 29.7439 28.6211 31.5976C28.2524 33.4513 28.4416 35.3728 29.1649 37.119C29.8882 38.8652 31.1131 40.3577 32.6846 41.4077C34.2561 42.4578 36.1037 43.0182 37.9938 43.0182C39.3409 43.0151 40.6719 42.7243 41.8976 42.1653L49.4853 51.65C48.231 53.2865 47.5513 55.2908 47.5513 57.3527C47.5513 59.4145 48.231 61.4189 49.4853 63.0554L41.8976 72.54C40.6719 71.981 39.3409 71.6903 37.9938 71.6871C36.1037 71.6871 34.2561 72.2476 32.6846 73.2977C31.1131 74.3477 29.8882 75.8402 29.1649 77.5864C28.4416 79.3326 28.2524 81.254 28.6211 83.1078C28.9899 84.9615 29.9 86.6643 31.2365 88.0007C32.573 89.3372 34.2757 90.2474 36.1295 90.6161C37.9832 90.9848 39.9047 90.7956 41.6508 90.0723C43.397 89.349 44.8895 88.1241 45.9396 86.5526C46.9896 84.9811 47.5501 83.1335 47.5501 81.2434C47.5431 79.1825 46.8636 77.1803 45.615 75.5407L53.2027 66.0561C54.4669 66.6325 55.8424 66.9238 57.2318 66.9094C58.6211 66.895 59.9903 66.5752 61.2423 65.9727C62.4943 65.3702 63.5985 64.4997 64.4765 63.4229C65.3546 62.3461 65.9852 61.0894 66.3234 59.7418H76.5582C77.0081 61.468 77.933 63.0335 79.2279 64.2605C80.5228 65.4875 82.1358 66.3269 83.8838 66.6832C85.6317 67.0396 87.4446 66.8987 89.1165 66.2766C90.7884 65.6544 92.2523 64.5759 93.3421 63.1636C94.4319 61.7512 95.1038 60.0616 95.2816 58.2866C95.4593 56.5115 95.1358 54.7222 94.3478 53.1218C93.5597 51.5214 92.3387 50.174 90.8234 49.2327C89.3081 48.2913 87.5592 47.7937 85.7753 47.7964ZM33.2157 33.4619C33.2157 32.5169 33.4959 31.5931 34.0209 30.8073C34.5459 30.0216 35.2922 29.4092 36.1653 29.0475C37.0384 28.6859 37.9991 28.5912 38.926 28.7756C39.8528 28.96 40.7042 29.415 41.3725 30.0833C42.0407 30.7515 42.4958 31.6029 42.6801 32.5298C42.8645 33.4566 42.7699 34.4174 42.4082 35.2905C42.0466 36.1636 41.4342 36.9098 40.6484 37.4348C39.8626 37.9599 38.9388 38.2401 37.9938 38.2401C36.7269 38.2388 35.5123 37.735 34.6165 36.8392C33.7207 35.9434 33.2169 34.7288 33.2157 33.4619ZM37.9938 86.0216C37.0488 86.0216 36.125 85.7413 35.3392 85.2163C34.5534 84.6913 33.941 83.945 33.5794 83.0719C33.2177 82.1989 33.1231 81.2381 33.3075 80.3113C33.4918 79.3844 33.9469 78.533 34.6151 77.8648C35.2834 77.1965 36.1348 76.7415 37.0616 76.5571C37.9885 76.3727 38.9492 76.4673 39.8223 76.829C40.6954 77.1906 41.4417 77.8031 41.9667 78.5888C42.4917 79.3746 42.772 80.2984 42.772 81.2434C42.7707 82.5103 42.2669 83.7249 41.3711 84.6207C40.4753 85.5165 39.2607 86.0203 37.9938 86.0216ZM57.1064 62.1308C56.1614 62.1308 55.2376 61.8506 54.4518 61.3256C53.666 60.8005 53.0536 60.0543 52.692 59.1812C52.3303 58.3081 52.2357 57.3474 52.4201 56.4205C52.6044 55.4936 53.0595 54.6423 53.7277 53.974C54.396 53.3058 55.2474 52.8507 56.1742 52.6663C57.1011 52.482 58.0618 52.5766 58.9349 52.9383C59.808 53.2999 60.5543 53.9123 61.0793 54.6981C61.6043 55.4839 61.8845 56.4077 61.8845 57.3527C61.8833 58.6195 61.3795 59.8341 60.4837 60.7299C59.5879 61.6258 58.3733 62.1296 57.1064 62.1308ZM85.7753 62.1308C84.8303 62.1308 83.9065 61.8506 83.1207 61.3256C82.3349 60.8005 81.7225 60.0543 81.3609 59.1812C80.9992 58.3081 80.9046 57.3474 81.089 56.4205C81.2733 55.4936 81.7284 54.6423 82.3966 53.974C83.0649 53.3058 83.9163 52.8507 84.8431 52.6663C85.77 52.482 86.7307 52.5766 87.6038 52.9383C88.4769 53.2999 89.2231 53.9123 89.7482 54.6981C90.2732 55.4839 90.5534 56.4077 90.5534 57.3527C90.5522 58.6195 90.0484 59.8341 89.1526 60.7299C88.2568 61.6258 87.0421 62.1296 85.7753 62.1308Z" fill="url(#paint3_linear_520_2868)"/>
</g>
<path d="M69.0496 86.0215C71.6885 86.0215 73.8278 83.8823 73.8278 81.2434C73.8278 78.6045 71.6885 76.4652 69.0496 76.4652C66.4107 76.4652 64.2715 78.6045 64.2715 81.2434C64.2715 83.8823 66.4107 86.0215 69.0496 86.0215Z" fill="url(#paint4_linear_520_2868)"/>
<path d="M69.0496 38.24C71.6885 38.24 73.8278 36.1008 73.8278 33.4619C73.8278 30.823 71.6885 28.6837 69.0496 28.6837C66.4107 28.6837 64.2715 30.823 64.2715 33.4619C64.2715 36.1008 66.4107 38.24 69.0496 38.24Z" fill="url(#paint5_linear_520_2868)"/>
<path d="M28.4344 62.1309C31.0733 62.1309 33.2125 59.9916 33.2125 57.3527C33.2125 54.7138 31.0733 52.5746 28.4344 52.5746C25.7955 52.5746 23.6562 54.7138 23.6562 57.3527C23.6562 59.9916 25.7955 62.1309 28.4344 62.1309Z" fill="url(#paint6_linear_520_2868)"/>
<path d="M85.7753 47.7964C83.6624 47.8027 81.6113 48.5097 79.9434 49.8067C78.2754 51.1037 77.0849 52.9174 76.5582 54.9636H66.3234C65.9851 53.6163 65.3546 52.3599 64.4767 51.2833C63.5988 50.2068 62.4948 49.3364 61.2431 48.7339C59.9914 48.1314 58.6226 47.8116 57.2335 47.7969C55.8444 47.7823 54.4691 48.0733 53.205 48.6493L45.615 39.1647C46.8635 37.525 47.5429 35.5228 47.5501 33.4619C47.5501 31.5719 46.9896 29.7243 45.9396 28.1527C44.8895 26.5812 43.397 25.3564 41.6508 24.6331C39.9047 23.9098 37.9832 23.7205 36.1295 24.0893C34.2757 24.458 32.573 25.3681 31.2365 26.7046C29.9 28.0411 28.9899 29.7439 28.6211 31.5976C28.2524 33.4513 28.4416 35.3728 29.1649 37.119C29.8882 38.8652 31.1131 40.3577 32.6846 41.4077C34.2561 42.4578 36.1037 43.0182 37.9938 43.0182C39.3409 43.0151 40.6719 42.7243 41.8976 42.1653L49.4853 51.65C48.231 53.2865 47.5513 55.2908 47.5513 57.3527C47.5513 59.4145 48.231 61.4189 49.4853 63.0554L41.8976 72.54C40.6719 71.981 39.3409 71.6903 37.9938 71.6871C36.1037 71.6871 34.2561 72.2476 32.6846 73.2977C31.1131 74.3477 29.8882 75.8402 29.1649 77.5864C28.4416 79.3326 28.2524 81.254 28.6211 83.1078C28.9899 84.9615 29.9 86.6643 31.2365 88.0007C32.573 89.3372 34.2757 90.2474 36.1295 90.6161C37.9832 90.9848 39.9047 90.7956 41.6508 90.0723C43.397 89.349 44.8895 88.1241 45.9396 86.5526C46.9896 84.9811 47.5501 83.1335 47.5501 81.2434C47.5431 79.1825 46.8636 77.1803 45.615 75.5407L53.2027 66.0561C54.4669 66.6325 55.8424 66.9238 57.2318 66.9094C58.6211 66.895 59.9903 66.5752 61.2423 65.9727C62.4943 65.3702 63.5985 64.4997 64.4765 63.4229C65.3546 62.3461 65.9852 61.0894 66.3234 59.7418H76.5582C77.0081 61.468 77.933 63.0335 79.2279 64.2605C80.5228 65.4875 82.1358 66.3269 83.8838 66.6832C85.6317 67.0396 87.4446 66.8987 89.1165 66.2766C90.7884 65.6544 92.2523 64.5759 93.3421 63.1636C94.4319 61.7512 95.1038 60.0616 95.2816 58.2866C95.4593 56.5115 95.1358 54.7222 94.3478 53.1218C93.5597 51.5214 92.3387 50.174 90.8234 49.2327C89.3081 48.2913 87.5592 47.7937 85.7753 47.7964ZM33.2157 33.4619C33.2157 32.5169 33.4959 31.5931 34.0209 30.8073C34.5459 30.0216 35.2922 29.4092 36.1653 29.0475C37.0384 28.6859 37.9991 28.5912 38.926 28.7756C39.8528 28.96 40.7042 29.415 41.3725 30.0833C42.0407 30.7515 42.4958 31.6029 42.6801 32.5298C42.8645 33.4566 42.7699 34.4174 42.4082 35.2905C42.0466 36.1636 41.4342 36.9098 40.6484 37.4348C39.8626 37.9599 38.9388 38.2401 37.9938 38.2401C36.7269 38.2388 35.5123 37.735 34.6165 36.8392C33.7207 35.9434 33.2169 34.7288 33.2157 33.4619ZM37.9938 86.0216C37.0488 86.0216 36.125 85.7413 35.3392 85.2163C34.5534 84.6913 33.941 83.945 33.5794 83.0719C33.2177 82.1989 33.1231 81.2381 33.3075 80.3113C33.4918 79.3844 33.9469 78.533 34.6151 77.8648C35.2834 77.1965 36.1348 76.7415 37.0616 76.5571C37.9885 76.3727 38.9492 76.4673 39.8223 76.829C40.6954 77.1906 41.4417 77.8031 41.9667 78.5888C42.4917 79.3746 42.772 80.2984 42.772 81.2434C42.7707 82.5103 42.2669 83.7249 41.3711 84.6207C40.4753 85.5165 39.2607 86.0203 37.9938 86.0216ZM57.1064 62.1308C56.1614 62.1308 55.2376 61.8506 54.4518 61.3256C53.666 60.8005 53.0536 60.0543 52.692 59.1812C52.3303 58.3081 52.2357 57.3474 52.4201 56.4205C52.6044 55.4936 53.0595 54.6423 53.7277 53.974C54.396 53.3058 55.2474 52.8507 56.1742 52.6663C57.1011 52.482 58.0618 52.5766 58.9349 52.9383C59.808 53.2999 60.5543 53.9123 61.0793 54.6981C61.6043 55.4839 61.8845 56.4077 61.8845 57.3527C61.8833 58.6195 61.3795 59.8341 60.4837 60.7299C59.5879 61.6258 58.3733 62.1296 57.1064 62.1308ZM85.7753 62.1308C84.8303 62.1308 83.9065 61.8506 83.1207 61.3256C82.3349 60.8005 81.7225 60.0543 81.3609 59.1812C80.9992 58.3081 80.9046 57.3474 81.089 56.4205C81.2733 55.4936 81.7284 54.6423 82.3966 53.974C83.0649 53.3058 83.9163 52.8507 84.8431 52.6663C85.77 52.482 86.7307 52.5766 87.6038 52.9383C88.4769 53.2999 89.2231 53.9123 89.7482 54.6981C90.2732 55.4839 90.5534 56.4077 90.5534 57.3527C90.5522 58.6195 90.0484 59.8341 89.1526 60.7299C88.2568 61.6258 87.0421 62.1296 85.7753 62.1308Z" fill="url(#paint7_linear_520_2868)"/>
<g filter="url(#filter1_b_520_2868)">
<path d="M40.6232 43.8417C46.2642 42.5104 49.7364 36.7673 48.3785 31.0144C47.0207 25.2614 41.3471 21.677 35.7061 23.0084C30.0651 24.3398 26.5929 30.0828 27.9507 35.8358C29.3086 41.5887 34.9822 45.1731 40.6232 43.8417Z" fill="url(#paint8_linear_520_2868)"/>
<path d="M40.755 44.4001C46.7147 42.9935 50.3651 36.9335 48.9369 30.8826C47.5088 24.8316 41.5339 21.0434 35.5743 22.45C29.6146 23.8566 25.9642 29.9166 27.3924 35.9675C28.8205 42.0185 34.7953 45.8067 40.755 44.4001Z" stroke="url(#paint9_linear_520_2868)" stroke-width="1.14744"/>
</g>
<g filter="url(#filter2_b_520_2868)">
<path d="M40.6232 91.6234C46.2642 90.292 49.7364 84.549 48.3785 78.796C47.0207 73.043 41.3471 69.4586 35.7061 70.79C30.0651 72.1214 26.5929 77.8644 27.9507 83.6174C29.3086 89.3704 34.9822 92.9548 40.6232 91.6234Z" fill="url(#paint10_linear_520_2868)"/>
<path d="M40.755 92.1817C46.7147 90.7751 50.3651 84.7151 48.9369 78.6642C47.5088 72.6132 41.5339 68.825 35.5743 70.2316C29.6146 71.6382 25.9642 77.6982 27.3924 83.7492C28.8205 89.8001 34.7953 93.5884 40.755 92.1817Z" stroke="url(#paint11_linear_520_2868)" stroke-width="1.14744"/>
</g>
<g filter="url(#filter3_b_520_2868)">
<path d="M88.7755 67.7325C94.4165 66.4011 97.8887 60.6581 96.5309 54.9051C95.1731 49.1521 89.4994 45.5677 83.8584 46.8991C78.2174 48.2305 74.7453 53.9735 76.1031 59.7265C77.4609 65.4795 83.1346 69.0639 88.7755 67.7325Z" fill="url(#paint12_linear_520_2868)"/>
<path d="M88.9073 68.2909C94.867 66.8843 98.5174 60.8243 97.0893 54.7733C95.6611 48.7224 89.6863 44.9341 83.7266 46.3407C77.767 47.7473 74.1166 53.8073 75.5447 59.8583C76.9729 65.9093 82.9477 69.6975 88.9073 68.2909Z" stroke="url(#paint13_linear_520_2868)" stroke-width="1.14744"/>
</g>
<g filter="url(#filter4_b_520_2868)">
<path d="M58.6349 67.7325C64.2759 66.4011 67.7481 60.6581 66.3903 54.9051C65.0324 49.1521 59.3588 45.5677 53.7178 46.8991C48.0768 48.2305 44.6046 53.9735 45.9625 59.7265C47.3203 65.4795 52.9939 69.0639 58.6349 67.7325Z" fill="url(#paint14_linear_520_2868)"/>
<path d="M58.7667 68.2909C64.7264 66.8843 68.3768 60.8243 66.9486 54.7733C65.5205 48.7224 59.5457 44.9341 53.586 46.3407C47.6263 47.7473 43.9759 53.8073 45.4041 59.8583C46.8322 65.9093 52.8071 69.6975 58.7667 68.2909Z" stroke="url(#paint15_linear_520_2868)" stroke-width="1.14744"/>
</g>
<defs>
<filter id="filter0_f_520_2868" x="0.707415" y="0.956804" width="117.57" height="112.792" filterUnits="userSpaceOnUse" color-interpolation-filters="sRGB">
<feFlood flood-opacity="0" result="BackgroundImageFix"/>
<feBlend mode="normal" in="SourceGraphic" in2="BackgroundImageFix" result="shape"/>
<feGaussianBlur stdDeviation="11.4744" result="effect1_foregroundBlur_520_2868"/>
</filter>
<filter id="filter1_b_520_2868" x="5.85582" y="0.928574" width="64.6184" height="64.993" filterUnits="userSpaceOnUse" color-interpolation-filters="sRGB">
<feFlood flood-opacity="0" result="BackgroundImageFix"/>
<feGaussianBlur in="BackgroundImageFix" stdDeviation="10.327"/>
<feComposite in2="SourceAlpha" operator="in" result="effect1_backgroundBlur_520_2868"/>
<feBlend mode="normal" in="SourceGraphic" in2="effect1_backgroundBlur_520_2868" result="shape"/>
</filter>
<filter id="filter2_b_520_2868" x="5.85582" y="48.7102" width="64.6184" height="64.993" filterUnits="userSpaceOnUse" color-interpolation-filters="sRGB">
<feFlood flood-opacity="0" result="BackgroundImageFix"/>
<feGaussianBlur in="BackgroundImageFix" stdDeviation="10.327"/>
<feComposite in2="SourceAlpha" operator="in" result="effect1_backgroundBlur_520_2868"/>
<feBlend mode="normal" in="SourceGraphic" in2="effect1_backgroundBlur_520_2868" result="shape"/>
</filter>
<filter id="filter3_b_520_2868" x="54.0082" y="24.8193" width="64.6184" height="64.993" filterUnits="userSpaceOnUse" color-interpolation-filters="sRGB">
<feFlood flood-opacity="0" result="BackgroundImageFix"/>
<feGaussianBlur in="BackgroundImageFix" stdDeviation="10.327"/>
<feComposite in2="SourceAlpha" operator="in" result="effect1_backgroundBlur_520_2868"/>
<feBlend mode="normal" in="SourceGraphic" in2="effect1_backgroundBlur_520_2868" result="shape"/>
</filter>
<filter id="filter4_b_520_2868" x="23.8675" y="24.8193" width="64.6184" height="64.993" filterUnits="userSpaceOnUse" color-interpolation-filters="sRGB">
<feFlood flood-opacity="0" result="BackgroundImageFix"/>
<feGaussianBlur in="BackgroundImageFix" stdDeviation="10.327"/>
<feComposite in2="SourceAlpha" operator="in" result="effect1_backgroundBlur_520_2868"/>
<feBlend mode="normal" in="SourceGraphic" in2="effect1_backgroundBlur_520_2868" result="shape"/>
</filter>
<linearGradient id="paint0_linear_520_2868" x1="69.0503" y1="86.4063" x2="69.0503" y2="76.8999" gradientUnits="userSpaceOnUse">
<stop stop-color="#FF5C00"/>
<stop offset="0.52" stop-color="#FFCA40"/>
<stop offset="1" stop-color="#FFE0F9"/>
</linearGradient>
<linearGradient id="paint1_linear_520_2868" x1="69.0503" y1="38.6248" x2="69.0503" y2="29.1184" gradientUnits="userSpaceOnUse">
<stop stop-color="#FF5C00"/>
<stop offset="0.52" stop-color="#FFCA40"/>
<stop offset="1" stop-color="#FFE0F9"/>
</linearGradient>
<linearGradient id="paint2_linear_520_2868" x1="12.6131" y1="64.3102" x2="30.8558" y2="50.0477" gradientUnits="userSpaceOnUse">
<stop stop-color="#7C00FF"/>
<stop offset="0.52" stop-color="#FF6700"/>
<stop offset="1" stop-color="#FFD400"/>
</linearGradient>
<linearGradient id="paint3_linear_520_2868" x1="90.5462" y1="93.4579" x2="33.9403" y2="22.1614" gradientUnits="userSpaceOnUse">
<stop stop-color="#AA83FF"/>
<stop offset="1" stop-color="#FF3FA4"/>
</linearGradient>
<linearGradient id="paint4_linear_520_2868" x1="69.0503" y1="86.4063" x2="69.0503" y2="76.8999" gradientUnits="userSpaceOnUse">
<stop stop-color="#FF5C00"/>
<stop offset="0.52" stop-color="#FFCA40"/>
<stop offset="1" stop-color="#FFE0F9"/>
</linearGradient>
<linearGradient id="paint5_linear_520_2868" x1="69.0503" y1="38.6248" x2="69.0503" y2="29.1184" gradientUnits="userSpaceOnUse">
<stop stop-color="#FF5C00"/>
<stop offset="0.52" stop-color="#FFCA40"/>
<stop offset="1" stop-color="#FFE0F9"/>
</linearGradient>
<linearGradient id="paint6_linear_520_2868" x1="12.6131" y1="64.3102" x2="30.8558" y2="50.0477" gradientUnits="userSpaceOnUse">
<stop stop-color="#7C00FF"/>
<stop offset="0.52" stop-color="#FF6700"/>
<stop offset="1" stop-color="#FFD400"/>
</linearGradient>
<linearGradient id="paint7_linear_520_2868" x1="90.5462" y1="93.4579" x2="33.9403" y2="22.1614" gradientUnits="userSpaceOnUse">
<stop stop-color="#AA83FF"/>
<stop offset="1" stop-color="#FF3FA4"/>
</linearGradient>
<linearGradient id="paint8_linear_520_2868" x1="31.285" y1="44.8041" x2="45.4863" y2="22.3253" gradientUnits="userSpaceOnUse">
<stop stop-color="white" stop-opacity="0.2"/>
<stop offset="1" stop-color="white" stop-opacity="0.49"/>
</linearGradient>
<linearGradient id="paint9_linear_520_2868" x1="27.3209" y1="26.7172" x2="49.0692" y2="40.8807" gradientUnits="userSpaceOnUse">
<stop stop-color="white"/>
<stop offset="1" stop-color="white" stop-opacity="0"/>
</linearGradient>
<linearGradient id="paint10_linear_520_2868" x1="31.285" y1="92.5857" x2="45.4863" y2="70.1069" gradientUnits="userSpaceOnUse">
<stop stop-color="white" stop-opacity="0.2"/>
<stop offset="1" stop-color="white" stop-opacity="0.49"/>
</linearGradient>
<linearGradient id="paint11_linear_520_2868" x1="27.3209" y1="74.4989" x2="49.0692" y2="88.6623" gradientUnits="userSpaceOnUse">
<stop stop-color="white"/>
<stop offset="1" stop-color="white" stop-opacity="0"/>
</linearGradient>
<linearGradient id="paint12_linear_520_2868" x1="79.4373" y1="68.6948" x2="93.6386" y2="46.216" gradientUnits="userSpaceOnUse">
<stop stop-color="white" stop-opacity="0.2"/>
<stop offset="1" stop-color="white" stop-opacity="0.49"/>
</linearGradient>
<linearGradient id="paint13_linear_520_2868" x1="75.4732" y1="50.608" x2="97.2216" y2="64.7715" gradientUnits="userSpaceOnUse">
<stop stop-color="white"/>
<stop offset="1" stop-color="white" stop-opacity="0"/>
</linearGradient>
<linearGradient id="paint14_linear_520_2868" x1="49.2967" y1="68.6948" x2="63.498" y2="46.216" gradientUnits="userSpaceOnUse">
<stop stop-color="white" stop-opacity="0.2"/>
<stop offset="1" stop-color="white" stop-opacity="0.49"/>
</linearGradient>
<linearGradient id="paint15_linear_520_2868" x1="45.3326" y1="50.608" x2="67.081" y2="64.7715" gradientUnits="userSpaceOnUse">
<stop stop-color="white"/>
<stop offset="1" stop-color="white" stop-opacity="0"/>
</linearGradient>
</defs>
</svg>
