<svg width="158" height="158" viewBox="0 0 158 158" fill="none" xmlns="http://www.w3.org/2000/svg">
<path d="M47.7231 20.431C46.5524 20.3298 45.6251 19.2516 45.7243 18.1035C45.8275 16.9104 46.9037 16.0055 48.0968 16.1087C49.29 16.2119 50.1723 17.2861 50.0691 18.4793C49.9699 19.6274 48.9162 20.5342 47.7231 20.431Z" fill="#F0F1F1"/>
<path d="M63.947 18.8781C63.7679 18.9056 63.6233 18.8781 63.5062 18.7885C63.3891 18.699 63.3202 18.575 63.2926 18.4097L60.696 2.43036C60.6684 2.25128 60.696 2.09975 60.7717 1.97578C60.8475 1.8518 60.9784 1.77603 61.1644 1.74848L67.384 0.735998C68.5893 0.536256 69.6706 0.563807 70.628 0.811762C71.5785 1.05972 72.3637 1.52808 72.9767 2.22373C73.5897 2.91938 73.9961 3.84922 74.1821 5.00634C74.368 6.16347 74.2854 7.16906 73.9203 8.01625C73.5553 8.86343 72.9629 9.55219 72.1364 10.0894C71.3098 10.6267 70.2974 10.9917 69.0852 11.1846L64.7528 11.8871L65.7447 18.0033C65.7722 18.1686 65.7447 18.3133 65.6483 18.4304C65.5587 18.5544 65.4278 18.6301 65.2487 18.6577L63.9538 18.8712L63.947 18.8781ZM64.3878 9.84147L68.6237 9.15271C69.829 8.95985 70.69 8.53971 71.2066 7.90604C71.7231 7.27238 71.8953 6.43897 71.73 5.41271C71.5647 4.40023 71.1446 3.66325 70.4696 3.20866C69.7946 2.74719 68.8303 2.62321 67.5905 2.82296L63.3546 3.51172L64.3809 9.84836L64.3878 9.84147Z" fill="#F4F4F5"/>
<path d="M83.386 17.1631C83.2069 17.1355 83.076 17.0598 82.9934 16.9358C82.9107 16.8118 82.8832 16.6741 82.9107 16.5088L85.4523 0.515641C85.4799 0.336562 85.5556 0.198809 85.6658 0.109269C85.7829 0.0197299 85.9275 -0.0147084 86.1066 0.0197299L92.0782 0.970226C93.9241 1.25951 95.3154 1.92761 96.259 2.96076C97.1957 3.9939 97.5333 5.36455 97.2646 7.0658C97.0649 8.32624 96.5896 9.29739 95.832 9.98616C95.0743 10.6818 94.1376 11.0951 93.008 11.2328L95.7424 18.3478C95.7769 18.4511 95.7838 18.5475 95.77 18.6302C95.7493 18.761 95.6804 18.8643 95.5564 18.947C95.4325 19.0296 95.3085 19.0572 95.1777 19.0365L93.9998 18.8506C93.7243 18.8092 93.5315 18.699 93.4213 18.5337C93.3111 18.3684 93.2215 18.2031 93.1458 18.0378L90.5836 11.2535L86.2995 10.5716L85.2939 16.8876C85.2664 17.0529 85.1905 17.1769 85.0735 17.2664C84.9495 17.3559 84.7979 17.3835 84.6188 17.3559L83.3722 17.1562L83.386 17.1631ZM86.6439 8.49154L90.6869 9.13209C91.9129 9.32494 92.8634 9.21474 93.5522 8.7946C94.2341 8.37445 94.6611 7.65813 94.8195 6.64565C94.9779 5.64694 94.7988 4.84108 94.2891 4.22808C93.7726 3.6082 92.8979 3.20182 91.6581 3.00897L87.615 2.36842L86.6439 8.49154Z" fill="#F4F4F5"/>
<path d="M107.541 24.5466C106.281 23.8853 105.323 23.1001 104.662 22.1979C104.001 21.2956 103.663 20.2693 103.656 19.1122C103.649 17.9551 103.973 16.6877 104.634 15.2964C104.958 14.649 105.282 14.0222 105.592 13.4299C105.909 12.8375 106.239 12.2245 106.597 11.5909C107.369 10.2753 108.244 9.30418 109.222 8.67052C110.2 8.03686 111.26 7.74069 112.39 7.76824C113.526 7.79579 114.69 8.1264 115.889 8.76695C117.074 9.39372 117.996 10.1651 118.658 11.0881C119.319 12.011 119.67 13.0511 119.705 14.222C119.739 15.3929 119.422 16.6602 118.754 18.0239C118.444 18.6852 118.134 19.3051 117.817 19.8974C117.507 20.4897 117.163 21.0958 116.791 21.7295C116.027 23.0657 115.166 24.0506 114.201 24.6912C113.237 25.3317 112.19 25.6279 111.074 25.5866C109.959 25.5453 108.774 25.194 107.534 24.5397L107.541 24.5466ZM108.526 22.6869C109.635 23.2723 110.723 23.417 111.791 23.1208C112.851 22.8246 113.816 21.9361 114.67 20.4622C115.049 19.8216 115.372 19.2431 115.648 18.7196C115.923 18.203 116.213 17.6107 116.523 16.9564C117.025 15.9301 117.273 15.014 117.259 14.2082C117.246 13.4023 117.039 12.6929 116.619 12.1006C116.206 11.5082 115.634 11.0192 114.897 10.6335C114.167 10.2478 113.437 10.048 112.714 10.0412C111.99 10.0343 111.288 10.2478 110.613 10.6955C109.938 11.1432 109.311 11.8595 108.733 12.8444C108.381 13.4781 108.064 14.0567 107.789 14.5732C107.513 15.0898 107.21 15.6821 106.88 16.3503C106.143 17.8862 105.95 19.1811 106.315 20.228C106.673 21.2818 107.41 22.0946 108.519 22.6869H108.526Z" fill="#F4F4F5"/>
<path d="M122.842 36.0282C122.256 35.4152 121.788 34.7678 121.423 34.0721C121.058 33.3765 120.83 32.674 120.734 31.9507C120.638 31.2275 120.713 30.5181 120.954 29.8087C121.195 29.0993 121.622 28.4312 122.249 27.7906C122.359 27.6873 122.483 27.6322 122.628 27.6322C122.773 27.6322 122.904 27.6873 123.021 27.8113L123.944 28.7824C124.068 28.9133 124.13 29.0579 124.13 29.2095C124.13 29.361 124.075 29.5056 123.978 29.6434C123.489 30.2013 123.2 30.773 123.124 31.3515C123.048 31.9301 123.124 32.4949 123.358 33.0459C123.592 33.5969 123.937 34.1204 124.405 34.6163C125.273 35.5254 126.23 35.9318 127.284 35.8423C128.338 35.7527 129.364 35.2293 130.356 34.2857L136.727 28.2108L130.652 21.8397C130.535 21.7226 130.48 21.5848 130.487 21.4333C130.487 21.2818 130.549 21.1509 130.673 21.0338L131.41 20.3313C131.527 20.2142 131.665 20.1591 131.816 20.166C131.968 20.166 132.099 20.228 132.216 20.3519L139.592 28.0868C139.716 28.2176 139.778 28.3623 139.778 28.5138C139.778 28.6653 139.709 28.8031 139.579 28.9271L132.044 36.1109C131.072 37.0338 130.053 37.6537 128.985 37.9637C127.918 38.2736 126.857 38.2805 125.817 37.9637C124.777 37.6537 123.792 37.0063 122.855 36.0282H122.842Z" fill="#F4F4F5"/>
<path d="M132.103 47.4963C132.02 47.331 132.013 47.1864 132.061 47.0486C132.116 46.9109 132.213 46.8076 132.364 46.7387L146.932 39.6651C147.097 39.5824 147.249 39.5686 147.386 39.61C147.524 39.6513 147.634 39.7546 147.717 39.9199L152.187 49.1356C152.27 49.3009 152.277 49.4524 152.228 49.5833C152.173 49.721 152.063 49.8244 151.905 49.907L151.058 50.3203C150.892 50.4029 150.748 50.4167 150.61 50.3685C150.479 50.3203 150.369 50.2169 150.293 50.0516L146.608 42.4683L141.725 44.8377L145.169 51.932C145.251 52.0973 145.258 52.2488 145.21 52.3797C145.155 52.5174 145.045 52.6207 144.886 52.7034L144.06 53.1029C143.908 53.1786 143.763 53.1924 143.626 53.1511C143.488 53.1098 143.378 53.0065 143.295 52.8411L139.851 45.7469L134.789 48.2058L138.556 55.9681C138.639 56.1334 138.653 56.2781 138.605 56.4158C138.556 56.5536 138.453 56.6569 138.288 56.7327L137.42 57.1528C137.268 57.2286 137.124 57.2424 136.986 57.201C136.848 57.1597 136.738 57.0564 136.655 56.8911L132.096 47.5032L132.103 47.4963Z" fill="#F4F4F5"/>
<path d="M139.521 70.2737C139.314 68.7653 139.418 67.4773 139.838 66.4097C140.258 65.3422 140.933 64.4881 141.863 63.8406C142.793 63.1932 143.915 62.7593 145.238 62.5251C145.906 62.4149 146.629 62.3116 147.394 62.2014C148.165 62.0981 148.902 62.0016 149.605 61.919C150.941 61.7881 152.139 61.9052 153.207 62.2703C154.274 62.6422 155.156 63.2827 155.852 64.1988C156.547 65.1149 156.995 66.3202 157.202 67.8286C157.36 68.9582 157.339 69.9707 157.147 70.866C156.954 71.7614 156.63 72.526 156.189 73.1596C155.741 73.8002 155.218 74.3099 154.612 74.6887C154.006 75.0744 153.358 75.3292 152.676 75.4532C152.532 75.4877 152.401 75.4601 152.291 75.3706C152.18 75.281 152.112 75.1571 152.091 75.0124L151.905 73.6624C151.884 73.5178 151.905 73.38 151.974 73.2629C152.043 73.1459 152.174 73.0494 152.38 72.9668C153.62 72.5122 154.426 71.8716 154.791 71.0451C155.163 70.2186 155.266 69.2406 155.115 68.111C154.929 66.7817 154.412 65.7898 153.565 65.1217C152.711 64.4536 151.464 64.2126 149.818 64.3848C148.468 64.5225 147.091 64.7085 145.692 64.9564C144.06 65.2319 142.924 65.8036 142.29 66.6784C141.656 67.5531 141.422 68.6482 141.608 69.9775C141.766 71.1071 142.131 72.0232 142.71 72.7188C143.289 73.4145 144.239 73.814 145.555 73.9173C145.775 73.9379 145.933 73.993 146.03 74.0895C146.126 74.1859 146.181 74.303 146.202 74.4545L146.388 75.8045C146.409 75.9491 146.381 76.0869 146.305 76.204C146.23 76.3211 146.119 76.3831 145.968 76.3899C145.279 76.4519 144.583 76.3831 143.888 76.1764C143.192 75.9698 142.545 75.6254 141.939 75.1295C141.339 74.6336 140.823 73.9862 140.396 73.1803C139.969 72.3744 139.673 71.4033 139.521 70.2737Z" fill="#F4F4F5"/>
<path d="M139.529 88.4499C139.556 88.2846 139.632 88.1606 139.756 88.078C139.88 87.9884 140.025 87.9609 140.183 87.9884L154.551 90.4818L155.363 85.7913C155.391 85.626 155.467 85.502 155.591 85.4193C155.715 85.3298 155.859 85.3023 156.025 85.3298L157.051 85.5089C157.23 85.5433 157.361 85.6191 157.45 85.7431C157.54 85.867 157.567 86.0117 157.54 86.1701L155.494 97.948C155.467 98.1271 155.384 98.2579 155.26 98.3475C155.136 98.437 154.985 98.4646 154.805 98.4301L153.779 98.251C153.614 98.2235 153.49 98.1477 153.407 98.0237C153.325 97.8998 153.29 97.7482 153.325 97.5692L154.137 92.8993L139.77 90.406C139.604 90.3785 139.48 90.3027 139.398 90.1787C139.308 90.0547 139.281 89.9032 139.315 89.7241L139.536 88.4568L139.529 88.4499Z" fill="#F4F4F5"/>
<path d="M142.448 116.867C141.277 116.766 140.35 115.688 140.449 114.54C140.552 113.347 141.628 112.442 142.821 112.545C144.015 112.648 144.897 113.723 144.794 114.916C144.694 116.064 143.641 116.971 142.448 116.867Z" fill="#F0F1F1"/>
<path d="M122.045 122.778C122.176 122.675 122.313 122.634 122.465 122.654C122.617 122.675 122.74 122.751 122.844 122.882L132.728 135.707C132.838 135.851 132.886 135.996 132.865 136.147C132.845 136.299 132.769 136.423 132.638 136.526L131.653 137.284C131.495 137.408 131.35 137.456 131.205 137.435C131.061 137.415 130.964 137.394 130.895 137.36L120.64 132.621L122.575 143.779C122.589 143.848 122.589 143.951 122.575 144.089C122.561 144.22 122.479 144.351 122.32 144.475L121.356 145.218C121.211 145.329 121.067 145.377 120.915 145.356C120.764 145.335 120.633 145.253 120.523 145.108L110.639 132.283C110.536 132.153 110.494 132.015 110.515 131.863C110.536 131.712 110.618 131.581 110.763 131.471L111.727 130.727C111.858 130.623 111.996 130.582 112.147 130.603C112.299 130.623 112.423 130.699 112.526 130.83L119.972 140.493L118.319 131.56C118.27 131.388 118.27 131.23 118.319 131.071C118.367 130.92 118.47 130.782 118.629 130.658L119.235 130.19C119.407 130.059 119.565 129.99 119.71 129.997C119.855 129.997 120.013 130.038 120.178 130.121L128.416 133.978L120.97 124.314C120.867 124.184 120.826 124.046 120.846 123.894C120.867 123.743 120.943 123.619 121.074 123.515L122.038 122.772L122.045 122.778Z" fill="#F4F4F5"/>
<path d="M104.346 134.866C104.47 134.825 104.594 134.839 104.718 134.907C104.842 134.969 104.925 135.066 104.966 135.197C104.994 135.273 105.008 135.362 105.021 135.465L103.947 152.616C103.933 152.795 103.885 152.946 103.802 153.077C103.72 153.208 103.568 153.304 103.348 153.373L101.736 153.876C101.516 153.945 101.337 153.952 101.192 153.89C101.054 153.828 100.923 153.731 100.813 153.594L90.1717 140.115C90.1097 140.032 90.0684 139.949 90.0408 139.867C89.9995 139.743 90.0133 139.619 90.0822 139.495C90.1511 139.371 90.2406 139.288 90.3715 139.247L91.5768 138.868C91.7628 138.806 91.9212 138.813 92.0382 138.882C92.1553 138.951 92.238 139.019 92.3 139.088L94.6556 142.043L102.418 139.612L102.666 135.844C102.659 135.762 102.687 135.658 102.749 135.534C102.811 135.41 102.941 135.321 103.127 135.259L104.333 134.88L104.346 134.866ZM102.377 141.85L95.9849 143.855L101.812 151.252L102.377 141.85Z" fill="#F4F4F5"/>
<path d="M83.0745 139.991C83.2536 139.991 83.3914 140.053 83.4879 140.163C83.5843 140.273 83.6325 140.411 83.6256 140.576L83.1503 156.762C83.1503 156.941 83.0883 157.086 82.9919 157.189C82.8886 157.293 82.7439 157.341 82.5648 157.341L81.4216 157.306C81.2218 157.306 81.0772 157.251 80.9807 157.155C80.8843 157.059 80.8292 156.99 80.8154 156.941L72.9566 144.062L72.5915 156.452C72.5915 156.631 72.5296 156.776 72.4331 156.879C72.3367 156.983 72.1921 157.031 72.0061 157.031L70.8146 156.997C70.6355 156.997 70.4908 156.935 70.3875 156.824C70.2842 156.714 70.2359 156.569 70.2428 156.384L70.7181 140.225C70.7181 140.06 70.7801 139.922 70.8903 139.812C71.0005 139.702 71.1383 139.647 71.3036 139.653L72.4951 139.688C72.6742 139.688 72.812 139.743 72.9015 139.846C72.9911 139.95 73.053 140.018 73.0805 140.046L80.9187 152.802L81.2769 140.507C81.2769 140.342 81.3389 140.204 81.4491 140.101C81.5593 139.998 81.7039 139.95 81.8899 139.956L83.0814 139.991H83.0745Z" fill="#F4F4F5"/>
<path d="M64.0542 138.455C64.1782 138.503 64.2677 138.592 64.3228 138.716C64.3779 138.84 64.3848 138.971 64.3366 139.095C64.3091 139.171 64.2677 139.254 64.2195 139.343L52.7653 152.147C52.6483 152.278 52.5105 152.368 52.3659 152.423C52.2212 152.471 52.0421 152.457 51.8286 152.375L50.2514 151.775C50.0379 151.693 49.8933 151.582 49.8175 151.452C49.7486 151.321 49.7073 151.162 49.7004 150.983L49.6797 133.812C49.6797 133.709 49.7004 133.619 49.7279 133.537C49.7762 133.413 49.8657 133.323 49.9897 133.268C50.1137 133.213 50.2445 133.206 50.3685 133.254L51.5532 133.702C51.7392 133.771 51.8562 133.867 51.9044 133.998C51.9526 134.122 51.9802 134.232 51.9802 134.322L52.0008 138.096L59.6048 140.989L62.1326 138.186C62.1808 138.117 62.2635 138.048 62.3943 137.993C62.5252 137.938 62.6767 137.945 62.8627 138.014L64.0404 138.461L64.0542 138.455ZM58.1859 142.718L51.932 140.335V149.75L58.1859 142.718Z" fill="#F4F4F5"/>
<path d="M40.1452 125.623C41.2817 126.56 42.0669 127.565 42.5008 128.633C42.9347 129.7 43.0449 130.789 42.8314 131.898C42.6179 133.007 42.1082 134.095 41.3024 135.169C40.8547 135.741 40.3656 136.34 39.849 136.974C39.3256 137.607 38.8228 138.2 38.3407 138.765C37.4384 139.756 36.4672 140.459 35.4272 140.872C34.3872 141.285 33.2989 141.375 32.1694 141.141C31.0398 140.9 29.9102 140.321 28.7875 139.391C27.8921 138.654 27.224 137.883 26.7694 137.084C26.3148 136.278 26.0393 135.507 25.9291 134.77C25.8258 134.026 25.8396 133.358 25.9774 132.765C26.1151 132.173 26.3079 131.712 26.5559 131.381C26.6386 131.257 26.7487 131.188 26.8796 131.181C27.0174 131.174 27.1414 131.223 27.2722 131.326L28.4017 132.256C28.5257 132.359 28.6015 132.462 28.6153 132.559C28.6291 132.655 28.6153 132.793 28.5533 132.958C28.3949 133.385 28.3122 133.867 28.3122 134.398C28.3122 134.935 28.4431 135.486 28.7117 136.058C28.9804 136.629 29.4487 137.194 30.1237 137.752C31.143 138.592 32.19 138.999 33.2576 138.957C34.3252 138.916 35.4065 138.289 36.5016 137.07C37.4797 135.968 38.4164 134.832 39.3118 133.668C40.3174 132.352 40.7307 131.161 40.5654 130.086C40.4001 129.012 39.8146 128.068 38.8022 127.235C38.1272 126.677 37.4177 126.305 36.6807 126.126C35.9437 125.947 35.2068 125.988 34.4698 126.25C33.7397 126.511 33.0371 127.049 32.3759 127.848L31.7147 128.654L34.5869 131.023C34.7109 131.126 34.7866 131.257 34.8004 131.409C34.8142 131.56 34.766 131.705 34.6489 131.842L34.1461 132.455C34.029 132.593 33.8981 132.676 33.7466 132.69C33.595 132.703 33.4573 132.662 33.3264 132.552L29.0079 128.984C28.8701 128.867 28.7944 128.736 28.7875 128.592C28.7806 128.447 28.8357 128.302 28.9459 128.164L30.4611 126.325C31.3221 125.279 32.2933 124.548 33.3609 124.121C34.4285 123.694 35.5512 123.605 36.7152 123.853C37.8861 124.101 39.0294 124.686 40.1521 125.609L40.1452 125.623Z" fill="#F4F4F5"/>
<path d="M29.6915 115.264C29.788 115.415 29.8155 115.567 29.7811 115.704C29.7466 115.842 29.6571 115.959 29.5124 116.049L15.8198 124.693C15.6683 124.789 15.5168 124.824 15.3722 124.796C15.2275 124.769 15.1104 124.679 15.014 124.528L9.54515 115.87C9.44873 115.718 9.42117 115.567 9.45561 115.429C9.49694 115.284 9.58651 115.167 9.74492 115.071L10.5439 114.568C10.6954 114.472 10.8401 114.437 10.9778 114.472C11.1156 114.499 11.2327 114.596 11.3291 114.747L15.8267 121.876L20.4208 118.976L16.2124 112.309C16.116 112.157 16.0885 112.006 16.1229 111.868C16.1642 111.723 16.2538 111.606 16.4122 111.51L17.1905 111.021C17.3283 110.931 17.4729 110.904 17.6175 110.931C17.7622 110.959 17.8792 111.048 17.9756 111.2L22.1841 117.867L26.9434 114.864L22.3356 107.57C22.2391 107.419 22.2047 107.274 22.2391 107.136C22.2736 106.998 22.3631 106.881 22.5147 106.785L23.3342 106.268C23.472 106.179 23.6166 106.151 23.7613 106.179C23.9059 106.206 24.023 106.296 24.1194 106.447L29.6915 115.277V115.264Z" fill="#F4F4F5"/>
<path d="M20.7709 98.9817C20.8053 99.1401 20.7847 99.2847 20.702 99.4156C20.6194 99.5465 20.5022 99.6291 20.3369 99.6636L4.53671 103.211C4.35763 103.252 4.20607 103.231 4.07521 103.149C3.94434 103.066 3.8617 102.949 3.82726 102.784L3.55863 101.571C3.51731 101.379 3.53104 101.22 3.60681 101.103C3.68257 100.986 3.75148 100.903 3.80658 100.855L12.4368 93.5542L1.50613 90.5994C1.43725 90.5788 1.3408 90.5374 1.22371 90.4754C1.10662 90.4066 1.02398 90.2757 0.982657 90.0828L0.714028 88.8982C0.672703 88.7191 0.693342 88.5676 0.775994 88.4367C0.858646 88.3058 0.989551 88.2232 1.16174 88.1819L16.962 84.6347C17.1204 84.6003 17.2719 84.6209 17.3959 84.7036C17.5268 84.7862 17.6094 84.9171 17.6507 85.0893L17.9194 86.274C17.9538 86.4324 17.9332 86.577 17.8505 86.7079C17.7679 86.8388 17.6507 86.9214 17.4854 86.9559L5.58356 89.6283L14.3791 91.8943C14.5513 91.9218 14.7028 91.9907 14.8199 92.1009C14.937 92.2111 15.0196 92.3627 15.061 92.5555L15.2332 93.3063C15.2814 93.5129 15.2745 93.6851 15.2057 93.8228C15.1437 93.9537 15.0403 94.0777 14.8957 94.1948L7.92538 100.029L19.8273 97.3562C19.9857 97.3218 20.1303 97.3424 20.2612 97.4251C20.392 97.5077 20.4747 97.6248 20.5091 97.7901L20.7778 98.9748L20.7709 98.9817Z" fill="#F4F4F5"/>
<path d="M17.5815 76.0524C17.5609 76.2315 17.4919 76.3692 17.3748 76.4519C17.2578 76.5345 17.1131 76.569 16.9478 76.5552L0.86517 74.6611C0.686091 74.6404 0.548355 74.5715 0.451928 74.4613C0.355501 74.3511 0.321039 74.2065 0.341702 74.0205L1.54015 63.8475C1.56081 63.6684 1.62972 63.5306 1.74681 63.448C1.8639 63.3653 2.01545 63.3309 2.19452 63.3516L3.13123 63.4618C3.31031 63.4824 3.44804 63.5513 3.53069 63.6615C3.62023 63.7717 3.64779 63.9163 3.62713 64.0954L2.64224 72.4708L8.03524 73.1045L8.95816 65.2732C8.97882 65.0941 9.04773 64.9564 9.16482 64.8737C9.28191 64.7911 9.43346 64.7566 9.61254 64.7773L10.5217 64.8875C10.687 64.9082 10.8179 64.9702 10.9074 65.0804C11.0038 65.1906 11.0382 65.3352 11.0176 65.5143L10.0946 73.3455L15.6874 74.0068L16.693 65.4385C16.7136 65.2594 16.7825 65.1217 16.8927 65.039C17.003 64.9564 17.1476 64.9219 17.3267 64.9426L18.2841 65.0597C18.4494 65.0804 18.5802 65.1424 18.6697 65.2526C18.7662 65.3628 18.8006 65.5074 18.78 65.6934L17.5608 76.0593L17.5815 76.0524Z" fill="#F4F4F5"/>
<path d="M21.0325 57.7589C20.9567 57.9242 20.8465 58.0275 20.7088 58.0688C20.571 58.1101 20.4264 58.0964 20.2749 58.0275L5.63171 51.1192C5.4664 51.0434 5.35621 50.9332 5.30111 50.8023C5.24601 50.6646 5.25974 50.5199 5.3355 50.3546L5.82458 49.3215C5.90723 49.1424 6.01741 49.0253 6.14139 48.9771C6.26536 48.9289 6.35491 48.9013 6.40312 48.9082L21.3493 46.8557L10.1363 41.566C9.97095 41.4902 9.86068 41.38 9.80558 41.2492C9.75048 41.1114 9.76429 40.9668 9.84005 40.8015L10.3497 39.727C10.4255 39.5617 10.5357 39.4584 10.6803 39.4033C10.825 39.355 10.9765 39.3619 11.1418 39.4446L25.7643 46.3391C25.9158 46.408 26.0191 46.5182 26.0742 46.6628C26.1293 46.8075 26.1294 46.959 26.0536 47.1037L25.5439 48.1781C25.4682 48.3434 25.3648 48.4468 25.2339 48.4881C25.1031 48.5294 25.0204 48.557 24.9722 48.5707L10.1431 50.6508L21.2666 55.8992C21.4182 55.9681 21.5146 56.0783 21.5697 56.216C21.618 56.3607 21.611 56.5122 21.5284 56.6775L21.0187 57.752L21.0325 57.7589Z" fill="#F4F4F5"/>
<path d="M33.9868 36.9444C33.8697 37.0615 33.7388 37.1304 33.5872 37.1304C33.4357 37.1304 33.298 37.0822 33.1809 36.9651L22.5808 26.9573L19.3092 30.4218C19.1921 30.5389 19.0612 30.6009 18.9097 30.6078C18.7582 30.6078 18.6204 30.5596 18.5033 30.4425L17.7456 29.7262C17.6148 29.6022 17.546 29.4644 17.5391 29.3129C17.5391 29.1614 17.5873 29.0236 17.7044 28.9065L25.9075 20.2143C26.0315 20.0835 26.1693 20.0146 26.3208 20.0077C26.4723 20.0077 26.617 20.0628 26.7478 20.1868L27.5055 20.9031C27.6226 21.0202 27.6846 21.151 27.6915 21.3026C27.6983 21.4541 27.6363 21.5987 27.5124 21.7296L24.2613 25.1734L34.8614 35.1812C34.9785 35.2983 35.0405 35.4291 35.0474 35.5807C35.0543 35.7322 34.9923 35.8768 34.8683 36.0077L33.9799 36.9444H33.9868Z" fill="#F4F4F5"/>
</svg>
