<svg width="44" height="33" viewBox="0 0 44 33" fill="none" xmlns="http://www.w3.org/2000/svg">
<rect x="1.77441" y="1.05859" width="40.5" height="30" rx="3" stroke="white" stroke-width="2"/>
<g clip-path="url(#clip0_856_421)">
<rect x="2.77441" y="2.05859" width="38.5" height="28" rx="3.5" fill="white"/>
<path fill-rule="evenodd" clip-rule="evenodd" d="M22.0247 20.7249C24.5547 20.7249 26.6081 18.6343 26.6081 16.0583C26.6081 13.4823 24.5547 11.3916 22.0247 11.3916C19.4947 11.3916 17.4414 13.4823 17.4414 16.0583C17.4414 18.6343 19.4947 20.7249 22.0247 20.7249ZM22.0247 18.8583C23.5427 18.8583 24.7747 17.6039 24.7747 16.0583C24.7747 14.5127 23.5427 13.2583 22.0247 13.2583C20.5067 13.2583 19.2747 14.5127 19.2747 16.0583C19.2747 17.6039 20.5067 18.8583 22.0247 18.8583Z" fill="#1A47B8"/>
<path d="M22.0251 16.9917C22.5313 16.9917 22.9417 16.5738 22.9417 16.0583C22.9417 15.5429 22.5313 15.125 22.0251 15.125C21.5188 15.125 21.1084 15.5429 21.1084 16.0583C21.1084 16.5738 21.5188 16.9917 22.0251 16.9917Z" fill="#1A47B8"/>
<path fill-rule="evenodd" clip-rule="evenodd" d="M2.77441 21.3086H41.2744V30.0586H2.77441V21.3086Z" fill="#249F58"/>
<path fill-rule="evenodd" clip-rule="evenodd" d="M2.77441 2.05859H41.2744V10.8086H2.77441V2.05859Z" fill="#FF6C2D"/>
</g>
<defs>
<clipPath id="clip0_856_421">
<rect x="2.77441" y="2.05859" width="38.5" height="28" rx="3.5" fill="white"/>
</clipPath>
</defs>
</svg>
