<svg width="32" height="32" viewBox="0 0 32 32" fill="none" xmlns="http://www.w3.org/2000/svg">
<rect width="32" height="32" />
<g id="qucik version" clip-path="url(#clip0_3_53)">
<rect width="1440" height="1430" transform="translate(-546 -1164)"/>
<g id="Group 1347">
<g id="Group 1348">
<g id="Group 1346">
<g id="location_on">
<mask id="mask0_3_53" style="mask-type:alpha" maskUnits="userSpaceOnUse" x="0" y="0" width="32" height="32">
<rect id="Bounding box" width="32" height="32" fill="#C9D0F2"/>
</mask>
<g mask="url(#mask0_3_53)">
<path id="location_on_2" d="M16.0002 16C16.7335 16 17.3613 15.7388 17.8835 15.2166C18.4057 14.6944 18.6668 14.0666 18.6668 13.3333C18.6668 12.6 18.4057 11.9722 17.8835 11.45C17.3613 10.9277 16.7335 10.6666 16.0002 10.6666C15.2668 10.6666 14.6391 10.9277 14.1168 11.45C13.5946 11.9722 13.3335 12.6 13.3335 13.3333C13.3335 14.0666 13.5946 14.6944 14.1168 15.2166C14.6391 15.7388 15.2668 16 16.0002 16ZM16.0002 25.8C18.7113 23.3111 20.7224 21.05 22.0335 19.0166C23.3446 16.9833 24.0002 15.1777 24.0002 13.6C24.0002 11.1777 23.2279 9.1944 21.6835 7.64996C20.1391 6.10551 18.2446 5.33329 16.0002 5.33329C13.7557 5.33329 11.8613 6.10551 10.3168 7.64996C8.77239 9.1944 8.00016 11.1777 8.00016 13.6C8.00016 15.1777 8.65572 16.9833 9.96683 19.0166C11.2779 21.05 13.2891 23.3111 16.0002 25.8ZM16.0002 29.3333C12.4224 26.2888 9.75016 23.4611 7.9835 20.85C6.21683 18.2388 5.3335 15.8222 5.3335 13.6C5.3335 10.2666 6.40572 7.61107 8.55016 5.63329C10.6946 3.65551 13.1779 2.66663 16.0002 2.66663C18.8224 2.66663 21.3057 3.65551 23.4502 5.63329C25.5946 7.61107 26.6668 10.2666 26.6668 13.6C26.6668 15.8222 25.7835 18.2388 24.0168 20.85C22.2502 23.4611 19.5779 26.2888 16.0002 29.3333Z" fill="#C9D0F2"/>
</g>
</g>
</g>
</g>
</g>
</g>
<defs>
<clipPath id="clip0_3_53">
<rect width="1440" height="1430" fill="white" transform="translate(-546 -1164)"/>
</clipPath>
</defs>
</svg>
