<svg width="134" height="94" viewBox="0 0 134 94" fill="none" xmlns="http://www.w3.org/2000/svg">
<path d="M39.3652 76.8565L42.9973 69.5793H44.6519L41.0198 76.8565H39.3652ZM43.8856 67.3779C43.9664 67.0787 44.1409 66.8221 44.4092 66.6067C44.6774 66.3918 44.9704 66.2842 45.2885 66.2842C45.5877 66.2842 45.8012 66.3752 45.9296 66.5574C46.0579 66.7395 46.083 66.976 46.0049 67.2653C45.9242 67.5646 45.7497 67.8216 45.4814 68.0365C45.2131 68.2519 44.9197 68.3591 44.6021 68.3591C44.3028 68.3591 44.0888 68.268 43.9605 68.0859C43.8322 67.9037 43.8071 67.6677 43.8852 67.3779H43.8856Z" fill="#EEF0FB"/>
<path d="M46.7721 74.8106L51.3795 69.5801H53.2161L46.5975 76.8573H45.0273L45.7146 69.5801H47.4114L46.7721 74.8106Z" fill="#EEF0FB"/>
<path d="M54.3345 77.0258C53.3251 77.0258 52.5812 76.7243 52.1039 76.1213C51.6261 75.5184 51.5211 74.7216 51.7885 73.7306C52.1115 72.5341 52.767 71.5153 53.7557 70.6741C54.7445 69.8329 55.8652 69.4121 57.1178 69.4121C58.1272 69.4121 58.8701 69.7158 59.3465 70.3237C59.8225 70.9316 59.9275 71.7306 59.6601 72.7212C59.3398 73.9083 58.6853 74.9226 57.6965 75.7638C56.7077 76.605 55.587 77.0258 54.3345 77.0258ZM54.8262 75.5677C55.5274 75.5677 56.177 75.299 56.7754 74.7615C57.3739 74.2241 57.775 73.5767 57.9796 72.8194C58.1308 72.2586 58.0944 71.7957 57.8705 71.4314C57.6462 71.0666 57.2304 70.8845 56.6229 70.8845C55.9217 70.8845 55.2725 71.151 54.6754 71.6835C54.0783 72.2165 53.6777 72.8612 53.4736 73.6184C53.3224 74.1792 53.3578 74.6445 53.5808 75.0137C53.8037 75.3829 54.2187 75.5677 54.8266 75.5677H54.8262Z" fill="#EEF0FB"/>
<path d="M79.2666 69.5236L78.4963 71.0799C78.3703 71.061 78.2469 71.0516 78.1253 71.0516C76.8822 71.0516 75.8907 71.7304 75.1509 73.0875L73.3138 76.8564H71.6875L75.2357 69.5792H76.8615L76.3739 70.5797C77.1459 69.8659 78.0369 69.5088 79.0463 69.5088L79.2671 69.5227L79.2666 69.5236Z" fill="#EEF0FB"/>
<path d="M83.2467 69.4126C83.7608 69.4126 84.2022 69.4991 84.5719 69.6719C84.9411 69.845 85.2112 70.0738 85.3821 70.3587C85.5526 70.644 85.6607 70.9455 85.706 71.2631C85.7509 71.5812 85.7352 71.8989 85.6589 72.2165H83.9766C84.038 71.8145 83.9546 71.4924 83.7258 71.2488C83.497 71.0056 83.1628 70.8841 82.7236 70.8841C82.0596 70.8841 81.4427 71.1528 80.8725 71.6902C80.3019 72.2277 79.9125 72.8845 79.703 73.6602C79.5464 74.2398 79.5697 74.7001 79.772 75.041C79.9744 75.3824 80.3467 75.5529 80.8891 75.5529C81.3283 75.5529 81.7568 75.4291 82.174 75.1815C82.5912 74.9338 82.9232 74.6135 83.169 74.2209H84.8797C84.4907 74.9688 83.8958 75.6234 83.095 76.1841C82.2938 76.7449 81.37 77.0253 80.3229 77.0253C79.3602 77.0253 78.6729 76.7149 78.2611 76.0931C77.8492 75.4717 77.7721 74.6839 78.0291 73.7306C78.3418 72.5718 78.9833 71.5619 79.9537 70.7019C80.9241 69.8419 82.0215 69.4121 83.2462 69.4121L83.2467 69.4126Z" fill="#EEF0FB"/>
<path d="M88.611 72.6359L86.493 76.8561H84.8672L90.1448 66.3398H91.7707L89.742 70.3824C90.423 69.7346 91.2323 69.4107 92.1695 69.4107C92.8537 69.4107 93.3485 69.6094 93.654 70.0065C93.9591 70.404 94.0147 70.9625 93.8204 71.6821C93.7375 71.989 93.5845 72.3515 93.3606 72.77L91.3162 76.8561H89.6904L91.851 72.5376C91.9775 72.2761 92.0614 72.0702 92.1018 71.9208C92.1924 71.5843 92.1587 71.3178 92.0004 71.1218C91.842 70.9253 91.5607 70.8275 91.1569 70.8275C90.0672 70.8275 89.2184 71.4304 88.611 72.6368V72.6359Z" fill="#EEF0FB"/>
<path d="M93.3672 76.8565L96.9993 69.5793H98.6538L95.0217 76.8565H93.3672ZM97.8875 67.3779C97.9683 67.0787 98.1428 66.8221 98.4111 66.6067C98.6794 66.3918 98.9723 66.2842 99.2904 66.2842C99.5896 66.2842 99.8032 66.3752 99.9315 66.5574C100.06 66.7395 100.085 66.976 100.007 67.2653C99.9261 67.5646 99.7516 67.8216 99.4833 68.0365C99.215 68.2519 98.9216 68.3591 98.604 68.3591C98.3048 68.3591 98.0908 68.268 97.9625 68.0859C97.8342 67.9037 97.809 67.6677 97.8871 67.3779H97.8875Z" fill="#EEF0FB"/>
<path d="M101.972 70.9113L98.9866 76.8565H97.332L100.318 70.9113H99.2024L99.8722 69.5793H100.987L101.937 67.6865H103.592L102.641 69.5793H103.866L103.197 70.9113H101.972Z" fill="#EEF0FB"/>
<path d="M115.64 69.2212C116.154 69.2212 116.595 69.3077 116.965 69.4805C117.334 69.6536 117.604 69.8824 117.775 70.1673C117.946 70.4526 118.054 70.7541 118.099 71.0717C118.144 71.3898 118.128 71.7074 118.052 72.0251H116.37C116.431 71.6231 116.348 71.301 116.119 71.0574C115.89 70.8142 115.556 70.6927 115.117 70.6927C114.453 70.6927 113.836 70.9614 113.266 71.4988C112.695 72.0363 112.305 72.6931 112.096 73.4688C111.939 74.0484 111.963 74.5087 112.165 74.8496C112.367 75.191 112.74 75.3615 113.282 75.3615C113.721 75.3615 114.149 75.2377 114.567 74.9901C114.984 74.7424 115.316 74.4221 115.562 74.0295H117.272C116.883 74.7774 116.289 75.4315 115.488 75.9927C114.686 76.5535 113.763 76.8339 112.716 76.8339C111.753 76.8339 111.065 76.5235 110.654 75.9017C110.242 75.2803 110.165 74.4925 110.422 73.5392C110.734 72.3804 111.376 71.3705 112.346 70.5105C113.317 69.6505 114.414 69.2207 115.639 69.2207L115.64 69.2212Z" fill="#EEF0FB"/>
<path d="M122.181 70.7198L119.196 76.6651H117.541L120.527 70.7198H119.411L120.081 69.3879H121.196L122.146 67.4951H123.801L122.85 69.3879H124.075L123.406 70.7198H122.181Z" fill="#EEF0FB"/>
<path d="M6.94141 53.7334H124.472" stroke="#EEF0FB" stroke-width="3.0255" stroke-miterlimit="10"/>
<path d="M6.94141 64.1895H124.472" stroke="#EEF0FB" stroke-width="3.0255" stroke-miterlimit="10"/>
<path d="M53.0615 56.5283L50.0234 59.9913H72.7033L76.1981 56.5283H53.0615Z" fill="#EEF0FB"/>
<path d="M51.6999 47.7427C51.6546 46.4313 51.3858 45.1572 50.8977 43.9504C50.3773 42.6633 49.6312 41.5063 48.6806 40.5117C47.7246 39.5117 46.6088 38.7253 45.3648 38.1752C44.0862 37.6095 42.7296 37.3197 41.3307 37.3125C40.4052 37.291 39.5084 37.4453 38.6641 37.7728C37.7983 38.1088 37.0257 38.6104 36.3671 39.2641C35.7005 39.9258 35.1872 40.7077 34.8409 41.5879C34.4865 42.4892 34.3254 43.4488 34.3627 44.4408C34.412 45.7575 35.0002 47.0186 36.019 47.9912C36.936 48.8669 38.0948 49.3802 39.1428 49.3802C39.1832 49.3802 39.2231 49.3793 39.263 49.3779C41.3617 49.298 42.5533 47.617 42.9265 46.6368L42.9153 46.6328C43.0109 46.3712 43.0633 46.0886 43.0633 45.7938C43.0633 44.4435 41.9687 43.3488 40.6183 43.3488C39.4698 43.3488 38.5066 44.1411 38.2442 45.2088C38.0786 44.9962 37.9005 44.683 37.8866 44.3084C37.8498 43.3241 38.1926 42.421 38.8521 41.7665C39.4963 41.1268 40.3756 40.7975 41.329 40.8405V40.8392C45.0795 40.8679 48.1279 44.0756 48.1804 48.0365C48.1409 49.7103 47.7623 51.2446 47.1113 52.6874H50.8982C51.3957 51.2056 51.6667 49.7198 51.7053 48.1401H51.7079C51.7079 48.1123 51.707 48.0845 51.707 48.0567C51.7093 47.9526 51.7102 47.8481 51.7102 47.7436H51.7003L51.6999 47.7427Z" fill="#EEF0FB"/>
<path d="M47.1047 58.8633C48.286 57.6821 49.3452 56.2559 50.0939 54.7812H45.9688C43.7593 57.8431 40.081 59.9288 36.0286 59.9436C30.5253 59.6471 25.7851 57.7624 22.2831 54.7812H17.2988C17.468 54.9845 17.7255 55.2707 17.9013 55.4677C21.1422 59.1006 25.4517 61.5645 30.5459 62.7341H40.7477C41.2062 62.5883 41.6593 62.4218 42.1061 62.233C43.9791 61.4407 45.661 60.307 47.1047 58.8633Z" fill="#EEF0FB"/>
<path d="M19.4987 51.9735C16.3901 48.2413 14.6553 43.2697 14.6553 37.4388C14.6553 19.1147 29.3738 3.9053 47.4683 3.52666C62.0788 3.5298 74.0055 7.2552 83.9287 14.9155C84.2454 15.16 84.3612 15.269 84.6748 15.5203L87.0211 12.8828C86.6424 12.5768 86.4626 12.4167 86.0839 12.1242C83.3908 10.0452 80.5129 8.21257 77.5299 6.67692C74.5905 5.1637 71.4591 3.89319 68.2227 2.89993C65.0469 1.92551 61.6714 1.18752 58.1901 0.707486C54.7859 0.238222 51.1722 0 47.4499 0H47.414C42.493 0.100941 37.7291 1.16239 33.254 3.1552C31.1011 4.11391 29.0266 5.28932 27.0881 6.64776C25.1675 7.99409 23.3631 9.53288 21.7247 11.2215C20.0859 12.9106 18.5987 14.7648 17.3049 16.732C15.998 18.719 14.876 20.8396 13.9702 23.0361C12.086 27.6036 11.1309 32.4488 11.1309 37.4379C11.1309 40.795 11.6535 43.9888 12.6845 46.9309C13.33 48.7734 14.1658 50.4917 15.1829 52.0695C15.2053 52.104 15.7755 52.6859 15.7979 52.7204H20.2178C20.1608 52.654 19.5565 52.0399 19.5004 51.9726L19.4987 51.9735Z" fill="#EEF0FB"/>
<path d="M114.021 52.6734H118.077C114.747 46.7838 110.932 40.8493 106.579 34.6789C105.519 33.1751 104.781 32.0195 103.712 30.6211L101.354 33.3133C106.101 39.6017 109.969 45.5958 114.021 52.6738V52.6734Z" fill="#EEF0FB"/>
<path d="M88.9124 19.2064C88.3565 19.3374 87.806 19.4989 87.2619 19.6914C85.3368 20.3715 83.5885 21.4002 82.0659 22.7484C80.5872 24.0579 79.3844 25.6155 78.4858 27.3831L78.4836 27.3822C78.4714 27.4074 78.4602 27.4329 78.4486 27.458C78.4019 27.5514 78.3557 27.6451 78.3104 27.7393L78.3194 27.7438C77.7945 28.9466 77.4876 30.2117 77.4078 31.5114C77.3225 32.8972 77.4966 34.2628 77.9255 35.5701C78.3571 36.8846 79.0246 38.0753 79.9093 39.108C80.8191 40.1695 81.9183 41.0165 83.1767 41.6257C84.0026 42.0443 84.8779 42.2919 85.7814 42.3605C86.7074 42.431 87.6208 42.3112 88.4965 42.0057C89.3834 41.6961 90.1838 41.2121 90.8756 40.5674C91.5839 39.907 92.1434 39.1107 92.5373 38.1995C93.0604 36.99 93.0734 35.5988 92.574 34.2817C92.1241 33.0959 91.3004 32.1332 90.3547 31.6814C90.3184 31.6639 90.282 31.6473 90.2452 31.6316C88.3175 30.799 86.5176 31.8017 85.7581 32.5253L85.7661 32.5338C85.5669 32.7285 85.3978 32.9614 85.2708 33.2274C84.6885 34.4459 85.2045 35.9052 86.4225 36.4876C87.4588 36.9828 88.6696 36.6832 89.3664 35.833C89.4242 36.0964 89.4498 36.4557 89.3009 36.7998C88.9097 37.7038 88.2111 38.3705 87.3336 38.6773C86.4763 38.9765 85.5409 38.8945 84.6997 38.4449V38.4458C81.3274 36.803 79.9604 32.5939 81.6208 28.9977C83.6908 24.9175 87.7782 22.4832 92.0846 22.3293L93.487 23.7457C95.6386 26.0485 97.028 27.8519 99.0195 30.4185L101.451 27.8344C100.251 26.3019 99.7265 25.4881 98.5287 24.1037L95.2532 20.4998C93.1757 18.3285 91.7481 17.0198 89.6311 15.2334L87.3839 17.948C88.1295 18.5766 88.1856 18.5434 88.9119 19.2082L88.9124 19.2064Z" fill="#EEF0FB"/>
<path d="M120.449 57.3876C119.996 56.5514 119.524 55.686 119.035 54.7959H115.007C115.315 55.3517 115.623 55.9085 115.929 56.4648H80.9101L77.9102 59.991H118.9L121.73 59.9856L120.45 57.3876H120.449Z" fill="#EEF0FB"/>
<path d="M94.8405 5.72949L33.2462 75.3076L32.6302 66.9487H31.2422L31.9878 76.8531H33.3602L95.8831 6.65232L94.8405 5.72949Z" fill="#EEF0FB"/>
<path d="M123.263 6.76539L122.218 5.8457L59.7168 76.854H61.4884L69.0882 68.2309L69.753 76.854H71.1451L70.378 66.7679L123.263 6.76539Z" fill="#EEF0FB"/>
<path d="M6.14258 79.9795H123.673" stroke="#EEF0FB" stroke-width="3.0255" stroke-miterlimit="10"/>
<path d="M105.561 75.7569C105.404 75.7358 105.258 75.6995 105.121 75.6492L110.141 70.674L110.21 70.6318C109.718 69.8296 108.884 69.3487 107.863 69.2783C105.899 69.1424 103.802 70.6049 103.092 72.6084C102.72 73.6591 102.793 74.7309 103.292 75.5496C103.742 76.2872 104.494 76.7618 105.408 76.8857C105.566 76.9072 105.725 76.9175 105.886 76.9175C107.177 76.9175 108.554 76.2468 109.508 75.1252L108.64 74.3877C107.812 75.3608 106.604 75.8987 105.561 75.7574V75.7569ZM104.166 72.9889C104.705 71.4685 106.328 70.3142 107.784 70.4146C108.077 70.4348 108.343 70.5062 108.575 70.6228L104.242 74.9171C103.944 74.3967 103.915 73.6973 104.166 72.9893V72.9889Z" fill="#EEF0FB"/>
<path d="M133.166 88.6689V89.4579H130.515V90.7729H132.896V91.5193H130.515V92.8485H133.251V93.6375H129.676V88.6689H133.166Z" fill="#EEF0FB"/>
<path d="M126.708 92.8757C126.997 92.8757 127.246 92.8283 127.455 92.7335C127.663 92.634 127.881 92.4776 128.109 92.2644L128.649 92.8188C128.123 93.4017 127.483 93.6931 126.73 93.6931C125.981 93.6931 125.358 93.4514 124.86 92.9681C124.368 92.4847 124.121 91.8734 124.121 91.1342C124.121 90.395 124.372 89.7789 124.875 89.2861C125.382 88.7933 126.019 88.5469 126.787 88.5469C127.559 88.5469 128.203 88.8312 128.72 89.3998L128.187 89.9827C127.95 89.7552 127.725 89.5965 127.512 89.5065C127.303 89.4164 127.057 89.3714 126.772 89.3714C126.27 89.3714 125.848 89.5349 125.507 89.8619C125.166 90.1841 124.995 90.5987 124.995 91.1058C124.995 91.6081 125.164 92.0298 125.5 92.371C125.841 92.7075 126.244 92.8757 126.708 92.8757Z" fill="#EEF0FB"/>
<path d="M122.225 88.6689H123.063V93.6375H122.154L119.339 90.0124V93.6375H118.5V88.6689H119.339L122.225 92.3793V88.6689Z" fill="#EEF0FB"/>
<path d="M117.34 88.6689V89.4579H114.688V90.7729H117.07V91.5193H114.688V92.8485H117.425V93.6375H113.85V88.6689H117.34Z" fill="#EEF0FB"/>
<path d="M111.635 88.6689H112.474V93.6375H111.635V88.6689Z" fill="#EEF0FB"/>
<path d="M108.669 92.8757C108.958 92.8757 109.207 92.8283 109.416 92.7335C109.624 92.634 109.842 92.4776 110.07 92.2644L110.61 92.8188C110.084 93.4017 109.444 93.6931 108.691 93.6931C107.942 93.6931 107.319 93.4514 106.821 92.9681C106.328 92.4847 106.082 91.8734 106.082 91.1342C106.082 90.395 106.333 89.7789 106.835 89.2861C107.343 88.7933 107.98 88.5469 108.748 88.5469C109.52 88.5469 110.164 88.8312 110.681 89.3998L110.148 89.9827C109.911 89.7552 109.686 89.5965 109.473 89.5065C109.264 89.4164 109.018 89.3714 108.733 89.3714C108.231 89.3714 107.809 89.5349 107.468 89.8619C107.127 90.1841 106.956 90.5987 106.956 91.1058C106.956 91.6081 107.125 92.0298 107.461 92.371C107.802 92.7075 108.205 92.8757 108.669 92.8757Z" fill="#EEF0FB"/>
<path d="M103.428 89.3217C103.187 89.3217 102.988 89.3714 102.831 89.4709C102.675 89.5704 102.597 89.7221 102.597 89.9258C102.597 90.1249 102.675 90.2789 102.831 90.3879C102.988 90.4921 103.319 90.6058 103.826 90.729C104.338 90.8523 104.722 91.0252 104.978 91.2479C105.239 91.4707 105.369 91.8 105.369 92.236C105.369 92.6672 105.205 93.0178 104.878 93.2879C104.551 93.5581 104.123 93.6931 103.592 93.6931C102.815 93.6931 102.125 93.4254 101.523 92.8899L102.049 92.2573C102.552 92.6932 103.073 92.9112 103.613 92.9112C103.883 92.9112 104.097 92.8544 104.253 92.7406C104.414 92.6222 104.495 92.4682 104.495 92.2786C104.495 92.0843 104.419 91.935 104.267 91.8308C104.12 91.7218 103.864 91.6247 103.499 91.5394C103.135 91.4493 102.857 91.3688 102.668 91.2977C102.478 91.2219 102.31 91.1247 102.163 91.0063C101.869 90.7835 101.722 90.4424 101.722 89.9827C101.722 89.523 101.888 89.17 102.22 88.9236C102.556 88.6725 102.971 88.5469 103.464 88.5469C103.781 88.5469 104.097 88.599 104.409 88.7033C104.722 88.8075 104.992 88.9544 105.22 89.144L104.772 89.7766C104.625 89.6439 104.426 89.5349 104.175 89.4496C103.924 89.3643 103.675 89.3217 103.428 89.3217Z" fill="#EEF0FB"/>
<path d="M95.9473 93.6375V88.6689H96.786V92.8414H99.0535V93.6375H95.9473Z" fill="#EEF0FB"/>
<path d="M91.3776 92.5073L90.88 93.6375H89.9844L92.1737 88.6689H93.0693L95.2586 93.6375H94.3629L93.8654 92.5073H91.3776ZM93.5242 91.7325L92.6215 89.6854L91.7187 91.7325H93.5242Z" fill="#EEF0FB"/>
<path d="M88.4551 88.6689H89.2938V93.6375H88.384L85.5692 90.0124V93.6375H84.7305V88.6689H85.5692L88.4551 92.3793V88.6689Z" fill="#EEF0FB"/>
<path d="M82.3011 89.8405C81.9646 89.4899 81.55 89.3145 81.0572 89.3145C80.5643 89.3145 80.1473 89.4899 79.8062 89.8405C79.4697 90.1912 79.3015 90.6177 79.3015 91.12C79.3015 91.6176 79.4697 92.0417 79.8062 92.3923C80.1473 92.743 80.5643 92.9183 81.0572 92.9183C81.55 92.9183 81.9646 92.743 82.3011 92.3923C82.6423 92.0417 82.8129 91.6176 82.8129 91.12C82.8129 90.6177 82.6423 90.1912 82.3011 89.8405ZM82.9195 92.9539C82.4172 93.442 81.7964 93.686 81.0572 93.686C80.3179 93.686 79.6972 93.442 79.1949 92.9539C78.6926 92.461 78.4414 91.8498 78.4414 91.12C78.4414 90.3855 78.6926 89.7742 79.1949 89.2861C79.6972 88.7933 80.3179 88.5469 81.0572 88.5469C81.7964 88.5469 82.4172 88.7933 82.9195 89.2861C83.4218 89.7742 83.6729 90.3855 83.6729 91.12C83.6729 91.8498 83.4218 92.461 82.9195 92.9539Z" fill="#EEF0FB"/>
<path d="M76.5488 88.6689H77.3876V93.6375H76.5488V88.6689Z" fill="#EEF0FB"/>
<path d="M74.1347 89.4366V93.6375H73.296V89.4366H71.7891V88.6689H75.6416V89.4366H74.1347Z" fill="#EEF0FB"/>
<path d="M68.0729 92.5073L67.5753 93.6375H66.6797L68.869 88.6689H69.7646L71.9539 93.6375H71.0582L70.5607 92.5073H68.0729ZM70.2195 91.7325L69.3168 89.6854L68.4141 91.7325H70.2195Z" fill="#EEF0FB"/>
<path d="M63.3418 93.6375V88.6689H64.1805V92.8414H66.448V93.6375H63.3418Z" fill="#EEF0FB"/>
<path d="M60.3659 89.3217C60.1242 89.3217 59.9252 89.3714 59.7688 89.4709C59.6124 89.5704 59.5343 89.7221 59.5343 89.9258C59.5343 90.1249 59.6124 90.2789 59.7688 90.3879C59.9252 90.4921 60.2569 90.6058 60.7639 90.729C61.2757 90.8523 61.6596 91.0252 61.9154 91.2479C62.1761 91.4707 62.3064 91.8 62.3064 92.236C62.3064 92.6672 62.1429 93.0178 61.8159 93.2879C61.489 93.5581 61.0601 93.6931 60.5294 93.6931C59.7522 93.6931 59.0628 93.4254 58.4609 92.8899L58.9869 92.2573C59.4892 92.6932 60.0105 92.9112 60.5507 92.9112C60.8208 92.9112 61.034 92.8544 61.1904 92.7406C61.3515 92.6222 61.4321 92.4682 61.4321 92.2786C61.4321 92.0843 61.3563 91.935 61.2046 91.8308C61.0577 91.7218 60.8019 91.6247 60.437 91.5394C60.0721 91.4493 59.7949 91.3688 59.6053 91.2977C59.4158 91.2219 59.2476 91.1247 59.1007 91.0063C58.8069 90.7835 58.66 90.4424 58.66 89.9827C58.66 89.523 58.8258 89.17 59.1575 88.9236C59.494 88.6725 59.9086 88.5469 60.4014 88.5469C60.7189 88.5469 61.034 88.599 61.3468 88.7033C61.6596 88.8075 61.9297 88.9544 62.1571 89.144L61.7093 89.7766C61.5624 89.6439 61.3634 89.5349 61.1122 89.4496C60.8611 89.3643 60.6123 89.3217 60.3659 89.3217Z" fill="#EEF0FB"/>
<path d="M56.6484 88.6689H57.4872V93.6375H56.5774L53.7626 90.0124V93.6375H52.9238V88.6689H53.7626L56.6484 92.3793V88.6689Z" fill="#EEF0FB"/>
<path d="M48.3541 92.5073L47.8566 93.6375H46.9609L49.1502 88.6689H50.0458L52.2351 93.6375H51.3395L50.8419 92.5073H48.3541ZM50.5007 91.7325L49.598 89.6854L48.6953 91.7325H50.5007Z" fill="#EEF0FB"/>
<path d="M46.4448 90.2825C46.4448 91.1023 46.087 91.6188 45.3715 91.832L46.6723 93.6375H45.6061L44.419 91.9671H43.3173V93.6375H42.4785V88.6689H44.3266C45.0848 88.6689 45.6274 88.7969 45.9544 89.0528C46.2813 89.3087 46.4448 89.7186 46.4448 90.2825ZM44.3621 91.2065C44.836 91.2065 45.1582 91.1331 45.3288 90.9862C45.4994 90.8393 45.5847 90.6047 45.5847 90.2825C45.5847 89.9555 45.4971 89.7328 45.3217 89.6143C45.1464 89.4911 44.8336 89.4295 44.3835 89.4295H43.3173V91.2065H44.3621Z" fill="#EEF0FB"/>
<path d="M40.0664 89.4366V93.6375H39.2276V89.4366H37.7207V88.6689H41.5733V89.4366H40.0664Z" fill="#EEF0FB"/>
<path d="M34.2973 91.2195H35.136V92.9183C34.6669 93.4348 33.9964 93.6931 33.1244 93.6931C32.3899 93.6931 31.7739 93.4514 31.2763 92.9681C30.7835 92.4847 30.5371 91.8734 30.5371 91.1342C30.5371 90.395 30.7883 89.7789 31.2906 89.2861C31.7976 88.7933 32.4089 88.5469 33.1244 88.5469C33.84 88.5469 34.4347 88.7554 34.9086 89.1724L34.4608 89.8121C34.2665 89.6463 34.0698 89.5325 33.8708 89.4709C33.6765 89.4046 33.449 89.3714 33.1884 89.3714C32.6861 89.3714 32.2644 89.5349 31.9232 89.8619C31.582 90.1841 31.4114 90.6106 31.4114 91.1413C31.4114 91.6673 31.5773 92.0914 31.909 92.4137C32.2407 92.7312 32.6411 92.8899 33.1102 92.8899C33.5841 92.8899 33.9798 92.788 34.2973 92.5842V91.2195Z" fill="#EEF0FB"/>
<path d="M28.6426 88.6689H29.4813V93.6375H28.5715L25.7567 90.0124V93.6375H24.918V88.6689H25.7567L28.6426 92.3793V88.6689Z" fill="#EEF0FB"/>
<path d="M22.7012 88.6689H23.5399V93.6375H22.7012V88.6689Z" fill="#EEF0FB"/>
<path d="M18.8446 88.6689C19.7355 88.6689 20.4202 88.8869 20.8988 89.3229C21.3774 89.7541 21.6167 90.3559 21.6167 91.1283C21.6167 91.9007 21.3846 92.512 20.9202 92.9622C20.4558 93.4124 19.745 93.6375 18.7877 93.6375H17.1387V88.6689H18.8446ZM20.7709 91.1497C20.7709 90.0124 20.1193 89.4437 18.8162 89.4437H17.9774V92.8485H18.9086C19.5104 92.8485 19.97 92.7063 20.2875 92.422C20.6098 92.1329 20.7709 91.7088 20.7709 91.1497Z" fill="#EEF0FB"/>
<path d="M13.1133 93.6375V88.6689H13.952V92.8414H16.2195V93.6375H13.1133Z" fill="#EEF0FB"/>
<path d="M10.8984 88.6689H11.7372V93.6375H10.8984V88.6689Z" fill="#EEF0FB"/>
<path d="M6.5608 92.5002C6.78825 92.7656 7.09627 92.8982 7.48484 92.8982C7.87342 92.8982 8.18143 92.7656 8.40889 92.5002C8.63635 92.2348 8.75008 91.8747 8.75008 91.4198V88.6689H9.58883V91.4553C9.58883 92.1708 9.39217 92.7229 8.99886 93.1115C8.60555 93.4953 8.10087 93.6872 7.48484 93.6872C6.86881 93.6872 6.36414 93.4953 5.97083 93.1115C5.57752 92.7229 5.38086 92.1708 5.38086 91.4553V88.6689H6.21961V91.4198C6.21961 91.8747 6.33334 92.2348 6.5608 92.5002Z" fill="#EEF0FB"/>
<path d="M2.60085 93.6375H0.425781V88.6689H2.35917C2.69562 88.6689 2.98468 88.7092 3.22635 88.7898C3.47277 88.8703 3.65521 88.9793 3.77367 89.1168C4.00113 89.3726 4.11486 89.6617 4.11486 89.9839C4.11486 90.3725 3.99165 90.6616 3.74524 90.8511C3.65521 90.9175 3.5936 90.9601 3.56043 90.9791C3.52726 90.9933 3.46803 91.0193 3.38273 91.0573C3.69075 91.1236 3.93479 91.2634 4.11486 91.4766C4.29967 91.6851 4.39208 91.9458 4.39208 92.2585C4.39208 92.6044 4.27361 92.9101 4.03667 93.1755C3.75709 93.4835 3.27848 93.6375 2.60085 93.6375ZM1.26453 90.7303H2.33074C2.93729 90.7303 3.24057 90.5241 3.24057 90.1119C3.24057 89.8749 3.16712 89.7044 3.02022 89.6001C2.87332 89.4958 2.64586 89.4437 2.33785 89.4437H1.26453V90.7303ZM1.26453 92.8627H2.57952C2.88754 92.8627 3.1221 92.8153 3.28322 92.7205C3.44907 92.621 3.532 92.4362 3.532 92.1661C3.532 91.7254 3.17897 91.5051 2.4729 91.5051H1.26453V92.8627Z" fill="#EEF0FB"/>
</svg>
