<svg width="94" height="69" viewBox="0 0 94 69" fill="none" xmlns="http://www.w3.org/2000/svg">
<path d="M28.2573 53.8122L30.8004 48.717H31.9589L29.4158 53.8122H28.2573ZM31.4223 47.1756C31.4789 46.9661 31.6011 46.7864 31.7889 46.6356C31.9768 46.4852 32.1819 46.4098 32.4046 46.4098C32.6141 46.4098 32.7636 46.4736 32.8534 46.6011C32.9433 46.7286 32.9609 46.8942 32.9062 47.0968C32.8497 47.3063 32.7275 47.4863 32.5396 47.6367C32.3518 47.7875 32.1464 47.8626 31.924 47.8626C31.7145 47.8626 31.5646 47.7988 31.4748 47.6713C31.385 47.5437 31.3674 47.3785 31.422 47.1756H31.4223Z" fill="white"/>
<path d="M33.445 52.3792L36.6709 48.7169H37.9569L33.3228 53.8122H32.2234L32.7046 48.7169H33.8926L33.445 52.3792Z" fill="white"/>
<path d="M38.7396 53.93C38.0329 53.93 37.5121 53.7189 37.1778 53.2967C36.8433 52.8746 36.7698 52.3167 36.957 51.6228C37.1832 50.7851 37.6421 50.0717 38.3344 49.4828C39.0267 48.8938 39.8114 48.5992 40.6884 48.5992C41.3951 48.5992 41.9153 48.8118 42.2489 49.2374C42.5822 49.6631 42.6557 50.2225 42.4685 50.9161C42.2442 51.7472 41.7859 52.4574 41.0936 53.0464C40.4013 53.6354 39.6166 53.93 38.7396 53.93ZM39.0839 52.9091C39.5748 52.9091 40.0297 52.721 40.4487 52.3447C40.8677 51.9683 41.1486 51.5151 41.2918 50.9848C41.3976 50.5922 41.3722 50.268 41.2155 50.013C41.0584 49.7576 40.7672 49.6301 40.3419 49.6301C39.8509 49.6301 39.3964 49.8167 38.9783 50.1895C38.5602 50.5627 38.2797 51.0141 38.1368 51.5443C38.031 51.9369 38.0558 52.2627 38.2119 52.5212C38.368 52.7797 38.6586 52.9091 39.0842 52.9091H39.0839Z" fill="white"/>
<path d="M56.2 48.6777L55.6606 49.7674C55.5724 49.7542 55.486 49.7476 55.4009 49.7476C54.5304 49.7476 53.8363 50.2228 53.3183 51.173L52.032 53.8119H50.8933L53.3776 48.7166H54.516L54.1745 49.4171C54.7151 48.9174 55.339 48.6673 56.0457 48.6673L56.2003 48.6771L56.2 48.6777Z" fill="white"/>
<path d="M58.9852 48.5992C59.3452 48.5992 59.6543 48.6598 59.9131 48.7807C60.1716 48.902 60.3607 49.0622 60.4804 49.2616C60.5998 49.4614 60.6755 49.6725 60.7072 49.8949C60.7386 50.1176 60.7276 50.34 60.6742 50.5624H59.4963C59.5393 50.2809 59.4809 50.0554 59.3207 49.8848C59.1605 49.7146 58.9265 49.6295 58.619 49.6295C58.1541 49.6295 57.7222 49.8176 57.3229 50.1939C56.9234 50.5702 56.6507 51.0301 56.504 51.5732C56.3944 51.979 56.4108 52.3013 56.5524 52.54C56.6941 52.7791 56.9548 52.8984 57.3346 52.8984C57.6421 52.8984 57.9421 52.8118 58.2342 52.6384C58.5263 52.465 58.7588 52.2407 58.9309 51.9658H60.1286C59.8563 52.4895 59.4398 52.9478 58.8791 53.3404C58.318 53.733 57.6713 53.9294 56.9381 53.9294C56.2641 53.9294 55.7828 53.712 55.4945 53.2766C55.2061 52.8416 55.1521 52.29 55.3321 51.6225C55.551 50.8112 56.0002 50.1041 56.6796 49.5019C57.3591 48.8998 58.1274 48.5988 58.9849 48.5988L58.9852 48.5992Z" fill="white"/>
<path d="M62.7426 50.8573L61.2597 53.8122H60.1213L63.8166 46.449H64.9549L63.5345 49.2795C64.0113 48.8259 64.578 48.5991 65.2342 48.5991C65.7132 48.5991 66.0597 48.7383 66.2736 49.0163C66.4872 49.2946 66.5261 49.6857 66.3901 50.1895C66.332 50.4044 66.2249 50.6582 66.0682 50.9512L64.6367 53.8122H63.4984L65.0112 50.7885C65.0997 50.6054 65.1585 50.4612 65.1867 50.3566C65.2502 50.121 65.2266 49.9344 65.1158 49.7972C65.0049 49.6596 64.8079 49.5911 64.5252 49.5911C63.7622 49.5911 63.1679 50.0133 62.7426 50.8579V50.8573Z" fill="white"/>
<path d="M66.0703 53.8122L68.6134 48.717H69.7718L67.2288 53.8122H66.0703ZM69.2353 47.1756C69.2919 46.9661 69.4141 46.7864 69.6019 46.6356C69.7897 46.4852 69.9949 46.4098 70.2176 46.4098C70.4271 46.4098 70.5766 46.4736 70.6664 46.6011C70.7563 46.7286 70.7739 46.8942 70.7192 47.0968C70.6627 47.3063 70.5405 47.4863 70.3526 47.6367C70.1648 47.7875 69.9594 47.8626 69.737 47.8626C69.5275 47.8626 69.3776 47.7988 69.2878 47.6713C69.1979 47.5437 69.1804 47.3785 69.235 47.1756H69.2353Z" fill="white"/>
<path d="M72.0978 49.6495L70.0073 53.8122H68.8489L70.9393 49.6495H70.1584L70.6274 48.7169H71.4077L72.0733 47.3917H73.2317L72.5661 48.7169H73.4239L72.9553 49.6495H72.0978Z" fill="white"/>
<path d="M81.666 48.4663C82.0259 48.4663 82.335 48.5269 82.5939 48.6478C82.8524 48.7691 83.0415 48.9293 83.1611 49.1288C83.2805 49.3285 83.3562 49.5396 83.3879 49.762C83.4193 49.9847 83.4084 50.2071 83.355 50.4295H82.177C82.2201 50.1481 82.1616 49.9225 82.0014 49.752C81.8412 49.5817 81.6072 49.4966 81.2997 49.4966C80.8348 49.4966 80.4029 49.6847 80.0037 50.061C79.6041 50.4374 79.3315 50.8972 79.1848 51.4403C79.0752 51.8462 79.0915 52.1684 79.2331 52.4072C79.3748 52.6462 79.6355 52.7656 80.015 52.7656C80.3225 52.7656 80.6225 52.6789 80.9146 52.5055C81.2067 52.3321 81.4392 52.1078 81.6113 51.833H82.809C82.5367 52.3566 82.1205 52.8146 81.5595 53.2075C80.9985 53.6002 80.3517 53.7965 79.6186 53.7965C78.9445 53.7965 78.4633 53.5791 78.1749 53.1438C77.8865 52.7087 77.8325 52.1571 78.0125 51.4896C78.2314 50.6783 78.6806 49.9712 79.36 49.3691C80.0395 48.7669 80.8078 48.466 81.6653 48.466L81.666 48.4663Z" fill="white"/>
<path d="M86.2474 49.5167L84.157 53.6793H82.9985L85.089 49.5167H84.3081L84.777 48.5841H85.5573L86.2229 47.2588H87.3814L86.7158 48.5841H87.5736L87.105 49.5167H86.2474Z" fill="white"/>
<path d="M5.55933 37.6243H87.8507" stroke="white" stroke-width="2.11835" stroke-miterlimit="10"/>
<path d="M5.55933 44.9441H87.8507" stroke="white" stroke-width="2.11835" stroke-miterlimit="10"/>
<path d="M37.8489 39.579L35.7217 42.0037H51.6014L54.0484 39.579H37.8489Z" fill="white"/>
<path d="M36.897 33.4277C36.8653 32.5096 36.6771 31.6175 36.3354 30.7725C35.971 29.8713 35.4486 29.0612 34.783 28.3648C34.1136 27.6647 33.3324 27.114 32.4614 26.7289C31.5662 26.3328 30.6163 26.1299 29.6369 26.1249C28.9889 26.1098 28.361 26.2179 27.7698 26.4472C27.1636 26.6824 26.6227 27.0336 26.1615 27.4913C25.6948 27.9546 25.3354 28.5021 25.0929 29.1184C24.8448 29.7495 24.732 30.4213 24.7581 31.1159C24.7926 32.0378 25.2044 32.9208 25.9178 33.6018C26.5598 34.2149 27.3712 34.5743 28.105 34.5743C28.1332 34.5743 28.1612 34.5736 28.1891 34.5727C29.6586 34.5168 30.4929 33.3398 30.7542 32.6534L30.7463 32.6506C30.8133 32.4675 30.85 32.2696 30.85 32.0632C30.85 31.1177 30.0836 30.3513 29.1381 30.3513C28.3339 30.3513 27.6595 30.906 27.4758 31.6536C27.3599 31.5047 27.2352 31.2855 27.2254 31.0232C27.1997 30.334 27.4397 29.7017 27.9014 29.2434C28.3525 28.7955 28.9681 28.5649 29.6356 28.5951V28.5941C32.2616 28.6142 34.396 30.8602 34.4328 33.6335C34.4052 34.8054 34.14 35.8797 33.6843 36.8899H36.3357C36.684 35.8524 36.8738 34.812 36.9008 33.706H36.9027C36.9027 33.6866 36.902 33.6671 36.902 33.6476C36.9036 33.5747 36.9042 33.5016 36.9042 33.4284H36.8973L36.897 33.4277Z" fill="white"/>
<path d="M33.6787 41.2143C34.5058 40.3872 35.2474 39.3887 35.7716 38.3562H32.8834C31.3363 40.5 28.7609 41.9603 25.9235 41.9707C22.0703 41.7631 18.7514 40.4435 16.2994 38.3562H12.8096C12.928 38.4985 13.1083 38.6989 13.2314 38.8368C15.5006 41.3805 18.518 43.1056 22.0847 43.9245H29.2277C29.5487 43.8224 29.866 43.7059 30.1788 43.5736C31.4903 43.0189 32.6679 42.2251 33.6787 41.2143Z" fill="white"/>
<path d="M14.3503 36.3901C12.1738 33.777 10.9591 30.296 10.9591 26.2135C10.9591 13.3835 21.2646 2.73436 33.9338 2.46925C44.1635 2.47145 52.5143 5.07986 59.4622 10.4434C59.6839 10.6146 59.765 10.6909 59.9845 10.8668L61.6274 9.02011C61.3622 8.80588 61.2363 8.69374 60.9712 8.48894C59.0855 7.03334 57.0705 5.75018 54.982 4.67496C52.9239 3.61546 50.7314 2.72588 48.4653 2.03044C46.2417 1.34818 43.8783 0.831461 41.4408 0.495359C39.0573 0.166795 36.5271 0 33.9209 0H33.8958C30.4502 0.0706757 27.1147 0.813871 23.9814 2.20917C22.4739 2.88043 21.0215 3.70341 19.6642 4.65455C18.3195 5.5972 17.0561 6.67461 15.909 7.85694C14.7615 9.03958 13.7202 10.3378 12.8143 11.7152C11.8993 13.1064 11.1137 14.5912 10.4795 16.1291C9.1602 19.3271 8.49146 22.7196 8.49146 26.2128C8.49146 28.5634 8.8574 30.7995 9.57923 32.8595C10.0312 34.1496 10.6164 35.3526 11.3285 36.4574C11.3442 36.4816 11.7435 36.889 11.7592 36.9131H14.8538C14.8139 36.8667 14.3908 36.4366 14.3516 36.3895L14.3503 36.3901Z" fill="white"/>
<path d="M80.5305 36.8811H83.3701C81.039 32.7574 78.3678 28.6023 75.3199 24.282C74.5774 23.2291 74.0606 22.4199 73.3124 21.4408L71.6611 23.3258C74.9854 27.7288 77.6934 31.9256 80.5305 36.8814V36.8811Z" fill="white"/>
<path d="M62.9522 13.4478C62.563 13.5396 62.1776 13.6526 61.7966 13.7874C60.4487 14.2636 59.2246 14.9839 58.1585 15.9278C57.1232 16.8447 56.281 17.9353 55.6519 19.1729L55.6503 19.1723C55.6418 19.1899 55.634 19.2078 55.6258 19.2253C55.5931 19.2907 55.5608 19.3563 55.5291 19.4223L55.5353 19.4254C55.1678 20.2676 54.953 21.1534 54.8971 22.0634C54.8374 23.0337 54.9592 23.9898 55.2595 24.9052C55.5617 25.8255 56.0291 26.6592 56.6486 27.3823C57.2856 28.1255 58.0552 28.7185 58.9363 29.1451C59.5145 29.4381 60.1274 29.6115 60.76 29.6596C61.4083 29.7089 62.0479 29.625 62.661 29.4111C63.282 29.1944 63.8424 28.8555 64.3268 28.4041C64.8228 27.9417 65.2145 27.3842 65.4902 26.7462C65.8565 25.8993 65.8656 24.9253 65.516 24.003C65.2009 23.1728 64.6242 22.4987 63.9621 22.1824C63.9366 22.1702 63.9112 22.1585 63.8854 22.1476C62.5357 21.5646 61.2755 22.2666 60.7437 22.7733L60.7493 22.7792C60.6099 22.9156 60.4914 23.0786 60.4025 23.2649C59.9948 24.118 60.3561 25.1398 61.2089 25.5475C61.9345 25.8943 62.7823 25.6845 63.2701 25.0892C63.3106 25.2736 63.3285 25.5252 63.2242 25.7662C62.9503 26.3991 62.4612 26.8659 61.8468 27.0807C61.2466 27.2902 60.5916 27.2328 60.0027 26.918V26.9186C57.6415 25.7684 56.6844 22.8213 57.8469 20.3034C59.2962 17.4465 62.1581 15.7421 65.1733 15.6344L66.1552 16.6261C67.6617 18.2384 68.6345 19.5011 70.0289 21.2982L71.7314 19.4889C70.8911 18.4159 70.5239 17.8461 69.6852 16.8767L67.3919 14.3534C65.9372 12.8331 64.9377 11.9168 63.4554 10.666L61.882 12.5668C62.4041 13.0068 62.4433 12.9836 62.9519 13.4491L62.9522 13.4478Z" fill="white"/>
<path d="M85.0342 40.1809C84.7166 39.5954 84.3865 38.9894 84.0441 38.3662H81.2233C81.4394 38.7554 81.6549 39.1452 81.8691 39.5347H57.35L55.2495 42.0037H83.9492L85.9306 41.9999L85.0345 40.1809H85.0342Z" fill="white"/>
<path d="M67.103 4.01312L23.9766 52.7294L23.5454 46.8769H22.5735L23.0955 53.8116H24.0564L67.833 4.65926L67.103 4.01312Z" fill="white"/>
<path d="M87.0027 4.73778L86.2712 4.09384L42.51 53.8116H43.7504L49.0715 47.774L49.5371 53.8116H50.5118L49.9746 46.7496L87.0027 4.73778Z" fill="white"/>
<path d="M5 56H87.2911" stroke="white" stroke-width="2.11835" stroke-miterlimit="10"/>
<path d="M74.6074 53.0429C74.4977 53.0282 74.395 53.0027 74.2992 52.9675L77.8142 49.484L77.8622 49.4545C77.5176 48.8928 76.934 48.5561 76.2191 48.5068C74.8439 48.4116 73.3757 49.4356 72.8788 50.8385C72.6181 51.5741 72.6693 52.3245 73.0189 52.8978C73.3339 53.4142 73.8601 53.7465 74.5002 53.8332C74.6105 53.8483 74.7223 53.8555 74.8351 53.8555C75.7385 53.8555 76.7031 53.3859 77.3706 52.6006L76.7628 52.0842C76.1836 52.7656 75.3377 53.1422 74.6074 53.0432V53.0429ZM73.6305 51.1048C74.0077 50.0403 75.1442 49.2321 76.1641 49.3024C76.3692 49.3166 76.5555 49.3665 76.7176 49.4482L73.6839 52.4549C73.475 52.0905 73.4549 51.6008 73.6305 51.1052V51.1048Z" fill="white"/>
<path d="M0.667544 67C0.623041 67 0.588653 66.9879 0.564378 66.9636C0.540104 66.9353 0.527967 66.9009 0.527967 66.8604V62.8976C0.527967 62.8531 0.540104 62.8187 0.564378 62.7945C0.588653 62.7662 0.623041 62.752 0.667544 62.752H2.33034C2.63377 62.752 2.88056 62.8026 3.0707 62.9037C3.2649 63.0008 3.4065 63.1343 3.49551 63.3042C3.58856 63.4742 3.63508 63.6643 3.63508 63.8747C3.63508 64.0406 3.60676 64.1842 3.55012 64.3055C3.49753 64.4229 3.43077 64.52 3.34986 64.5968C3.26894 64.6697 3.19005 64.7263 3.11318 64.7668C3.27097 64.8436 3.41054 64.969 3.53192 65.143C3.65733 65.317 3.72004 65.5274 3.72004 65.7741C3.72004 65.9967 3.66947 66.201 3.56833 66.3871C3.46718 66.5732 3.31547 66.7229 3.11318 66.8361C2.91494 66.9454 2.66815 67 2.37282 67H0.667544ZM1.12269 66.5084H2.29393C2.5569 66.5084 2.75918 66.4376 2.90078 66.296C3.04238 66.1544 3.11318 65.9805 3.11318 65.7741C3.11318 65.5597 3.04238 65.3837 2.90078 65.2462C2.75918 65.1046 2.5569 65.0338 2.29393 65.0338H1.12269V66.5084ZM1.12269 64.5483H2.23931C2.49823 64.5483 2.69445 64.4896 2.82796 64.3723C2.96147 64.2509 3.02822 64.0871 3.02822 63.8807C3.02822 63.6744 2.96147 63.5166 2.82796 63.4074C2.69445 63.2982 2.49823 63.2435 2.23931 63.2435H1.12269V64.5483ZM6.03881 67.0607C5.69897 67.0607 5.40566 67 5.15887 66.8786C4.91613 66.7573 4.728 66.5732 4.59449 66.3264C4.46503 66.0756 4.4003 65.7539 4.4003 65.3615V62.8976C4.4003 62.8531 4.41243 62.8187 4.43671 62.7945C4.46098 62.7662 4.49537 62.752 4.53987 62.752H4.84937C4.89387 62.752 4.92826 62.7662 4.95254 62.7945C4.98086 62.8187 4.99502 62.8531 4.99502 62.8976V65.3736C4.99502 65.7701 5.08807 66.0634 5.27417 66.2536C5.46028 66.4437 5.71516 66.5388 6.03881 66.5388C6.35843 66.5388 6.61128 66.4437 6.79739 66.2536C6.98754 66.0634 7.08261 65.7701 7.08261 65.3736V62.8976C7.08261 62.8531 7.09475 62.8187 7.11902 62.7945C7.14734 62.7662 7.18173 62.752 7.22219 62.752H7.53776C7.57821 62.752 7.61058 62.7662 7.63485 62.7945C7.66317 62.8187 7.67733 62.8531 7.67733 62.8976V65.3615C7.67733 65.7539 7.61058 66.0756 7.47707 66.3264C7.34761 66.5732 7.1615 66.7573 6.91876 66.8786C6.67602 67 6.3827 67.0607 6.03881 67.0607ZM8.68652 67C8.64202 67 8.60763 66.9879 8.58336 66.9636C8.55908 66.9353 8.54695 66.9009 8.54695 66.8604V62.8916C8.54695 62.8511 8.55908 62.8187 8.58336 62.7945C8.60763 62.7662 8.64202 62.752 8.68652 62.752H9.00816C9.04861 62.752 9.08098 62.7662 9.10525 62.7945C9.12953 62.8187 9.14167 62.8511 9.14167 62.8916V66.472H11.1625C11.207 66.472 11.2414 66.4862 11.2657 66.5145C11.2899 66.5388 11.3021 66.5732 11.3021 66.6177V66.8604C11.3021 66.9009 11.2899 66.9353 11.2657 66.9636C11.2414 66.9879 11.207 67 11.1625 67H8.68652ZM11.9611 67C11.9166 67 11.8823 66.9879 11.858 66.9636C11.8337 66.9353 11.8216 66.9009 11.8216 66.8604V62.8976C11.8216 62.8531 11.8337 62.8187 11.858 62.7945C11.8823 62.7662 11.9166 62.752 11.9611 62.752H13.3387C13.7554 62.752 14.0912 62.8147 14.3461 62.9401C14.601 63.0655 14.7871 63.2516 14.9044 63.4984C15.0217 63.7412 15.0824 64.0406 15.0865 64.3966C15.0905 64.5786 15.0925 64.7384 15.0925 64.876C15.0925 65.0135 15.0905 65.1713 15.0865 65.3493C15.0784 65.7216 15.0157 66.031 14.8983 66.2778C14.7851 66.5206 14.603 66.7026 14.3522 66.824C14.1054 66.9413 13.7777 67 13.3691 67H11.9611ZM12.4163 66.4842H13.3387C13.6179 66.4842 13.8404 66.4457 14.0063 66.3689C14.1721 66.292 14.2915 66.1686 14.3643 65.9987C14.4412 65.8288 14.4816 65.6042 14.4857 65.3251C14.4938 65.2037 14.4978 65.0985 14.4978 65.0095C14.4978 64.9165 14.4978 64.8254 14.4978 64.7364C14.4978 64.6434 14.4938 64.5382 14.4857 64.4209C14.4776 64.0284 14.3845 63.7391 14.2065 63.553C14.0285 63.3629 13.7291 63.2678 13.3084 63.2678H12.4163V66.4842ZM16.0003 67C15.9558 67 15.9214 66.9879 15.8971 66.9636C15.8728 66.9353 15.8607 66.9009 15.8607 66.8604V62.8916C15.8607 62.8511 15.8728 62.8187 15.8971 62.7945C15.9214 62.7662 15.9558 62.752 16.0003 62.752H16.3219C16.3624 62.752 16.3947 62.7662 16.419 62.7945C16.4473 62.8187 16.4615 62.8511 16.4615 62.8916V66.8604C16.4615 66.9009 16.4473 66.9353 16.419 66.9636C16.3947 66.9879 16.3624 67 16.3219 67H16.0003ZM17.5148 67C17.4703 67 17.4359 66.9879 17.4116 66.9636C17.3873 66.9353 17.3752 66.9009 17.3752 66.8604V62.8976C17.3752 62.8531 17.3873 62.8187 17.4116 62.7945C17.4359 62.7662 17.4703 62.752 17.5148 62.752H17.7939C17.8425 62.752 17.8789 62.7641 17.9031 62.7884C17.9274 62.8086 17.9416 62.8248 17.9456 62.837L19.9604 65.9319V62.8976C19.9604 62.8531 19.9725 62.8187 19.9968 62.7945C20.0211 62.7662 20.0555 62.752 20.1 62.752H20.3913C20.4358 62.752 20.4702 62.7662 20.4944 62.7945C20.5228 62.8187 20.5369 62.8531 20.5369 62.8976V66.8544C20.5369 66.8948 20.5228 66.9292 20.4944 66.9575C20.4702 66.9858 20.4378 67 20.3973 67H20.106C20.0615 67 20.0272 66.9879 20.0029 66.9636C19.9826 66.9393 19.9685 66.9231 19.9604 66.915L17.9517 63.8504V66.8604C17.9517 66.9009 17.9375 66.9353 17.9092 66.9636C17.8849 66.9879 17.8506 67 17.8061 67H17.5148ZM22.9854 67.0607C22.6293 67.0607 22.3259 66.9939 22.0751 66.8604C21.8283 66.7269 21.6381 66.5388 21.5046 66.296C21.3752 66.0533 21.3023 65.7681 21.2861 65.4404C21.2821 65.2624 21.2801 65.0742 21.2801 64.876C21.2801 64.6737 21.2821 64.4815 21.2861 64.2995C21.3023 63.9718 21.3752 63.6886 21.5046 63.4499C21.6381 63.2112 21.8303 63.0251 22.0811 62.8916C22.332 62.7581 22.6334 62.6913 22.9854 62.6913C23.2726 62.6913 23.5214 62.7318 23.7318 62.8127C23.9422 62.8936 24.1141 62.9968 24.2476 63.1222C24.3852 63.2435 24.4863 63.371 24.551 63.5045C24.6198 63.638 24.6562 63.7553 24.6603 63.8565C24.6643 63.8929 24.6542 63.9232 24.6299 63.9475C24.6057 63.9677 24.5733 63.9778 24.5328 63.9778H24.1748C24.1343 63.9778 24.104 63.9698 24.0838 63.9536C24.0676 63.9374 24.0514 63.9091 24.0352 63.8686C23.9988 63.7634 23.9381 63.6603 23.8532 63.5591C23.7722 63.458 23.661 63.375 23.5194 63.3103C23.3818 63.2415 23.2038 63.2071 22.9854 63.2071C22.6657 63.2071 22.4068 63.2941 22.2086 63.4681C22.0144 63.642 21.9092 63.9293 21.893 64.3298C21.8809 64.6899 21.8809 65.05 21.893 65.41C21.9092 65.8146 22.0164 66.1059 22.2146 66.2839C22.4129 66.4579 22.6718 66.5449 22.9914 66.5449C23.2058 66.5449 23.396 66.5064 23.5619 66.4296C23.7318 66.3486 23.8653 66.2252 23.9624 66.0594C24.0595 65.8935 24.108 65.6831 24.108 65.4282V65.1734H23.1978C23.1573 65.1734 23.1229 65.1612 23.0946 65.1369C23.0703 65.1086 23.0582 65.0722 23.0582 65.0277V64.8335C23.0582 64.789 23.0703 64.7546 23.0946 64.7303C23.1229 64.702 23.1573 64.6879 23.1978 64.6879H24.5693C24.6138 64.6879 24.6481 64.702 24.6724 64.7303C24.6967 64.7546 24.7088 64.789 24.7088 64.8335V65.4161C24.7088 65.7478 24.6401 66.0371 24.5025 66.2839C24.369 66.5307 24.1728 66.7229 23.9138 66.8604C23.6549 66.9939 23.3454 67.0607 22.9854 67.0607ZM27.6863 67C27.6459 67 27.6115 66.9879 27.5832 66.9636C27.5589 66.9353 27.5468 66.9009 27.5468 66.8604V63.2921H26.3816C26.3411 63.2921 26.3067 63.28 26.2784 63.2557C26.2541 63.2274 26.242 63.193 26.242 63.1525V62.8976C26.242 62.8531 26.2541 62.8187 26.2784 62.7945C26.3067 62.7662 26.3411 62.752 26.3816 62.752H29.3066C29.3511 62.752 29.3855 62.7662 29.4098 62.7945C29.4381 62.8187 29.4523 62.8531 29.4523 62.8976V63.1525C29.4523 63.193 29.4381 63.2274 29.4098 63.2557C29.3855 63.28 29.3511 63.2921 29.3066 63.2921H28.1475V66.8604C28.1475 66.9009 28.1334 66.9353 28.1051 66.9636C28.0808 66.9879 28.0464 67 28.0019 67H27.6863ZM30.1273 67C30.0828 67 30.0484 66.9879 30.0241 66.9636C29.9998 66.9353 29.9877 66.9009 29.9877 66.8604V62.8976C29.9877 62.8531 29.9998 62.8187 30.0241 62.7945C30.0484 62.7662 30.0828 62.752 30.1273 62.752H31.608C32.0652 62.752 32.4273 62.8592 32.6943 63.0736C32.9613 63.288 33.0948 63.6056 33.0948 64.0264C33.0948 64.3379 33.0159 64.5928 32.8581 64.791C32.7044 64.9852 32.494 65.1208 32.227 65.1976L33.1616 66.8119C33.1737 66.8361 33.1798 66.8584 33.1798 66.8786C33.1798 66.911 33.1656 66.9393 33.1373 66.9636C33.113 66.9879 33.0847 67 33.0523 67H32.761C32.6923 67 32.6417 66.9818 32.6093 66.9454C32.577 66.909 32.5486 66.8726 32.5244 66.8361L31.6444 65.2947H30.5824V66.8604C30.5824 66.9009 30.5683 66.9353 30.5399 66.9636C30.5157 66.9879 30.4813 67 30.4368 67H30.1273ZM30.5824 64.7789H31.5837C31.8872 64.7789 32.1137 64.7162 32.2634 64.5908C32.4131 64.4613 32.488 64.2712 32.488 64.0203C32.488 63.7735 32.4131 63.5854 32.2634 63.4559C32.1178 63.3265 31.8912 63.2618 31.5837 63.2618H30.5824V64.7789ZM33.5342 67C33.5018 67 33.4735 66.9879 33.4492 66.9636C33.4249 66.9393 33.4128 66.911 33.4128 66.8786C33.4128 66.8584 33.4148 66.8361 33.4189 66.8119L34.9239 62.8855C34.9401 62.845 34.9623 62.8127 34.9906 62.7884C35.019 62.7641 35.0614 62.752 35.1181 62.752H35.5307C35.5833 62.752 35.6238 62.7641 35.6521 62.7884C35.6845 62.8127 35.7088 62.845 35.7249 62.8855L37.2239 66.8119C37.232 66.8361 37.236 66.8584 37.236 66.8786C37.236 66.911 37.2239 66.9393 37.1996 66.9636C37.1753 66.9879 37.147 67 37.1146 67H36.8051C36.7566 67 36.7202 66.9879 36.6959 66.9636C36.6757 66.9393 36.6615 66.9171 36.6534 66.8968L36.3197 66.0351H34.3292L33.9954 66.8968C33.9913 66.9171 33.9772 66.9393 33.9529 66.9636C33.9286 66.9879 33.8922 67 33.8437 67H33.5342ZM34.5052 65.5132H36.1437L35.3244 63.3588L34.5052 65.5132ZM37.8796 67C37.8351 67 37.8007 66.9879 37.7764 66.9636C37.7521 66.9353 37.74 66.9009 37.74 66.8604V62.8976C37.74 62.8531 37.7521 62.8187 37.7764 62.7945C37.8007 62.7662 37.8351 62.752 37.8796 62.752H38.1587C38.2073 62.752 38.2437 62.7641 38.268 62.7884C38.2922 62.8086 38.3064 62.8248 38.3104 62.837L40.3252 65.9319V62.8976C40.3252 62.8531 40.3373 62.8187 40.3616 62.7945C40.3859 62.7662 40.4203 62.752 40.4648 62.752H40.7561C40.8006 62.752 40.835 62.7662 40.8592 62.7945C40.8876 62.8187 40.9017 62.8531 40.9017 62.8976V66.8544C40.9017 66.8948 40.8876 66.9292 40.8592 66.9575C40.835 66.9858 40.8026 67 40.7622 67H40.4709C40.4264 67 40.392 66.9879 40.3677 66.9636C40.3475 66.9393 40.3333 66.9231 40.3252 66.915L38.3165 63.8504V66.8604C38.3165 66.9009 38.3024 66.9353 38.274 66.9636C38.2498 66.9879 38.2154 67 38.1709 67H37.8796ZM43.1742 67.0607C42.8222 67.0607 42.5269 67.0081 42.2882 66.9029C42.0495 66.7937 41.8654 66.6541 41.7359 66.4842C41.6105 66.3102 41.5438 66.1261 41.5357 65.9319C41.5357 65.8996 41.5478 65.8712 41.5721 65.847C41.6004 65.8186 41.6328 65.8045 41.6692 65.8045H41.9787C42.0272 65.8045 42.0636 65.8166 42.0879 65.8409C42.1122 65.8652 42.1284 65.8935 42.1365 65.9259C42.1567 66.023 42.2052 66.1201 42.2821 66.2172C42.363 66.3102 42.4743 66.3891 42.6159 66.4538C42.7615 66.5145 42.9476 66.5449 43.1742 66.5449C43.5221 66.5449 43.777 66.4842 43.9388 66.3628C44.1047 66.2374 44.1876 66.0715 44.1876 65.8652C44.1876 65.7236 44.1431 65.6103 44.0541 65.5253C43.9692 65.4363 43.8377 65.3574 43.6597 65.2887C43.4817 65.2199 43.251 65.145 42.9678 65.0641C42.6725 64.9792 42.4277 64.8861 42.2335 64.785C42.0394 64.6838 41.8937 64.5584 41.7966 64.4087C41.7036 64.259 41.657 64.0689 41.657 63.8383C41.657 63.6198 41.7157 63.4256 41.833 63.2557C41.9503 63.0817 42.1182 62.9442 42.3367 62.843C42.5592 62.7419 42.8283 62.6913 43.1438 62.6913C43.3947 62.6913 43.6131 62.7257 43.7992 62.7945C43.9894 62.8592 44.1472 62.9482 44.2726 63.0615C44.398 63.1707 44.4931 63.2901 44.5578 63.4195C44.6225 63.545 44.6569 63.6683 44.661 63.7897C44.661 63.818 44.6509 63.8464 44.6306 63.8747C44.6104 63.899 44.578 63.9111 44.5335 63.9111H44.2119C44.1836 63.9111 44.1532 63.903 44.1209 63.8868C44.0926 63.8706 44.0703 63.8403 44.0541 63.7958C44.0298 63.6299 43.9368 63.4903 43.775 63.3771C43.6131 63.2638 43.4028 63.2071 43.1438 63.2071C42.8809 63.2071 42.6664 63.2577 42.5006 63.3588C42.3387 63.46 42.2578 63.6178 42.2578 63.8322C42.2578 63.9698 42.2963 64.0851 42.3731 64.1781C42.45 64.2671 42.5714 64.346 42.7372 64.4148C42.9031 64.4836 43.1196 64.5564 43.3866 64.6333C43.7102 64.7223 43.9752 64.8173 44.1816 64.9185C44.3879 65.0156 44.5396 65.139 44.6367 65.2887C44.7379 65.4343 44.7884 65.6224 44.7884 65.853C44.7884 66.1079 44.7217 66.3264 44.5882 66.5084C44.4547 66.6865 44.2665 66.824 44.0238 66.9211C43.7851 67.0142 43.5019 67.0607 43.1742 67.0607ZM45.5785 67C45.534 67 45.4996 66.9879 45.4754 66.9636C45.4511 66.9353 45.439 66.9009 45.439 66.8604V62.8916C45.439 62.8511 45.4511 62.8187 45.4754 62.7945C45.4996 62.7662 45.534 62.752 45.5785 62.752H45.9002C45.9406 62.752 45.973 62.7662 45.9973 62.7945C46.0215 62.8187 46.0337 62.8511 46.0337 62.8916V66.472H48.0545C48.099 66.472 48.1334 66.4862 48.1577 66.5145C48.182 66.5388 48.1941 66.5732 48.1941 66.6177V66.8604C48.1941 66.9009 48.182 66.9353 48.1577 66.9636C48.1334 66.9879 48.099 67 48.0545 67H45.5785ZM48.4283 67C48.396 67 48.3677 66.9879 48.3434 66.9636C48.3191 66.9393 48.307 66.911 48.307 66.8786C48.307 66.8584 48.309 66.8361 48.313 66.8119L49.8181 62.8855C49.8342 62.845 49.8565 62.8127 49.8848 62.7884C49.9131 62.7641 49.9556 62.752 50.0122 62.752H50.4249C50.4775 62.752 50.518 62.7641 50.5463 62.7884C50.5786 62.8127 50.6029 62.845 50.6191 62.8855L52.118 66.8119C52.1261 66.8361 52.1302 66.8584 52.1302 66.8786C52.1302 66.911 52.118 66.9393 52.0938 66.9636C52.0695 66.9879 52.0412 67 52.0088 67H51.6993C51.6508 67 51.6144 66.9879 51.5901 66.9636C51.5699 66.9393 51.5557 66.9171 51.5476 66.8968L51.2138 66.0351H49.2233L48.8896 66.8968C48.8855 66.9171 48.8714 66.9393 48.8471 66.9636C48.8228 66.9879 48.7864 67 48.7378 67H48.4283ZM49.3993 65.5132H51.0378L50.2186 63.3588L49.3993 65.5132ZM53.2518 67C53.2114 67 53.177 66.9879 53.1487 66.9636C53.1244 66.9353 53.1123 66.9009 53.1123 66.8604V63.2921H51.9471C51.9066 63.2921 51.8722 63.28 51.8439 63.2557C51.8196 63.2274 51.8075 63.193 51.8075 63.1525V62.8976C51.8075 62.8531 51.8196 62.8187 51.8439 62.7945C51.8722 62.7662 51.9066 62.752 51.9471 62.752H54.8721C54.9166 62.752 54.951 62.7662 54.9753 62.7945C55.0036 62.8187 55.0178 62.8531 55.0178 62.8976V63.1525C55.0178 63.193 55.0036 63.2274 54.9753 63.2557C54.951 63.28 54.9166 63.2921 54.8721 63.2921H53.713V66.8604C53.713 66.9009 53.6989 66.9353 53.6706 66.9636C53.6463 66.9879 53.6119 67 53.5674 67H53.2518ZM55.6928 67C55.6483 67 55.6139 66.9879 55.5896 66.9636C55.5653 66.9353 55.5532 66.9009 55.5532 66.8604V62.8916C55.5532 62.8511 55.5653 62.8187 55.5896 62.7945C55.6139 62.7662 55.6483 62.752 55.6928 62.752H56.0144C56.0549 62.752 56.0872 62.7662 56.1115 62.7945C56.1398 62.8187 56.154 62.8511 56.154 62.8916V66.8604C56.154 66.9009 56.1398 66.9353 56.1115 66.9636C56.0872 66.9879 56.0549 67 56.0144 67H55.6928ZM58.5909 67.0607C58.247 67.0607 57.9517 67.002 57.7049 66.8847C57.4581 66.7633 57.268 66.5792 57.1345 66.3325C57.0009 66.0816 56.9261 65.7681 56.9099 65.3918C56.9059 65.2138 56.9038 65.0439 56.9038 64.8821C56.9038 64.7162 56.9059 64.5442 56.9099 64.3662C56.9261 63.994 57.003 63.6845 57.1405 63.4377C57.2821 63.1869 57.4763 63.0008 57.7231 62.8794C57.9739 62.754 58.2632 62.6913 58.5909 62.6913C58.9227 62.6913 59.2119 62.754 59.4587 62.8794C59.7096 63.0008 59.9058 63.1869 60.0474 63.4377C60.189 63.6845 60.2658 63.994 60.278 64.3662C60.2861 64.5442 60.2901 64.7162 60.2901 64.8821C60.2901 65.0439 60.2861 65.2138 60.278 65.3918C60.2658 65.7681 60.191 66.0816 60.0534 66.3325C59.9199 66.5792 59.7298 66.7633 59.483 66.8847C59.2362 67.002 58.9388 67.0607 58.5909 67.0607ZM58.5909 66.5449C58.9024 66.5449 59.1553 66.4518 59.3495 66.2657C59.5477 66.0796 59.6549 65.7782 59.6711 65.3615C59.6792 65.1794 59.6833 65.0176 59.6833 64.876C59.6833 64.7303 59.6792 64.5685 59.6711 64.3905C59.663 64.1114 59.6104 63.8848 59.5133 63.7108C59.4203 63.5369 59.2949 63.4094 59.1371 63.3285C58.9793 63.2476 58.7972 63.2071 58.5909 63.2071C58.3927 63.2071 58.2147 63.2476 58.0569 63.3285C57.8991 63.4094 57.7717 63.5369 57.6746 63.7108C57.5815 63.8848 57.5289 64.1114 57.5168 64.3905C57.5127 64.5685 57.5107 64.7303 57.5107 64.876C57.5107 65.0176 57.5127 65.1794 57.5168 65.3615C57.533 65.7782 57.6402 66.0796 57.8384 66.2657C58.0367 66.4518 58.2875 66.5449 58.5909 66.5449ZM61.1694 67C61.1249 67 61.0905 66.9879 61.0662 66.9636C61.0419 66.9353 61.0298 66.9009 61.0298 66.8604V62.8976C61.0298 62.8531 61.0419 62.8187 61.0662 62.7945C61.0905 62.7662 61.1249 62.752 61.1694 62.752H61.4485C61.4971 62.752 61.5335 62.7641 61.5577 62.7884C61.582 62.8086 61.5962 62.8248 61.6002 62.837L63.615 65.9319V62.8976C63.615 62.8531 63.6271 62.8187 63.6514 62.7945C63.6757 62.7662 63.7101 62.752 63.7546 62.752H64.0459C64.0904 62.752 64.1248 62.7662 64.149 62.7945C64.1774 62.8187 64.1915 62.8531 64.1915 62.8976V66.8544C64.1915 66.8948 64.1774 66.9292 64.149 66.9575C64.1248 66.9858 64.0924 67 64.0519 67H63.7606C63.7161 67 63.6818 66.9879 63.6575 66.9636C63.6372 66.9393 63.6231 66.9231 63.615 66.915L61.6063 63.8504V66.8604C61.6063 66.9009 61.5921 66.9353 61.5638 66.9636C61.5395 66.9879 61.5052 67 61.4606 67H61.1694ZM65.2381 67C65.1936 67 65.1592 66.9879 65.1349 66.9636C65.1107 66.9353 65.0985 66.9009 65.0985 66.8604V62.8916C65.0985 62.8511 65.1107 62.8187 65.1349 62.7945C65.1592 62.7662 65.1936 62.752 65.2381 62.752H65.5597C65.6002 62.752 65.6326 62.7662 65.6568 62.7945C65.6811 62.8187 65.6933 62.8511 65.6933 62.8916V66.472H67.7141C67.7586 66.472 67.793 66.4862 67.8173 66.5145C67.8415 66.5388 67.8537 66.5732 67.8537 66.6177V66.8604C67.8537 66.9009 67.8415 66.9353 67.8173 66.9636C67.793 66.9879 67.7586 67 67.7141 67H65.2381ZM70.9212 67.0607C70.5692 67.0607 70.2739 67.0081 70.0352 66.9029C69.7965 66.7937 69.6124 66.6541 69.4829 66.4842C69.3575 66.3102 69.2908 66.1261 69.2827 65.9319C69.2827 65.8996 69.2948 65.8712 69.3191 65.847C69.3474 65.8186 69.3798 65.8045 69.4162 65.8045H69.7257C69.7742 65.8045 69.8106 65.8166 69.8349 65.8409C69.8592 65.8652 69.8754 65.8935 69.8835 65.9259C69.9037 66.023 69.9522 66.1201 70.0291 66.2172C70.11 66.3102 70.2213 66.3891 70.3629 66.4538C70.5085 66.5145 70.6946 66.5449 70.9212 66.5449C71.2691 66.5449 71.524 66.4842 71.6858 66.3628C71.8517 66.2374 71.9347 66.0715 71.9347 65.8652C71.9347 65.7236 71.8902 65.6103 71.8011 65.5253C71.7162 65.4363 71.5847 65.3574 71.4067 65.2887C71.2287 65.2199 70.9981 65.145 70.7149 65.0641C70.4195 64.9792 70.1748 64.8861 69.9806 64.785C69.7864 64.6838 69.6407 64.5584 69.5436 64.4087C69.4506 64.259 69.4041 64.0689 69.4041 63.8383C69.4041 63.6198 69.4627 63.4256 69.58 63.2557C69.6974 63.0817 69.8653 62.9442 70.0837 62.843C70.3063 62.7419 70.5753 62.6913 70.8909 62.6913C71.1417 62.6913 71.3602 62.7257 71.5463 62.7945C71.7364 62.8592 71.8942 62.9482 72.0196 63.0615C72.145 63.1707 72.2401 63.2901 72.3048 63.4195C72.3696 63.545 72.404 63.6683 72.408 63.7897C72.408 63.818 72.3979 63.8464 72.3777 63.8747C72.3574 63.899 72.3251 63.9111 72.2806 63.9111H71.9589C71.9306 63.9111 71.9003 63.903 71.8679 63.8868C71.8396 63.8706 71.8173 63.8403 71.8011 63.7958C71.7769 63.6299 71.6838 63.4903 71.522 63.3771C71.3602 63.2638 71.1498 63.2071 70.8909 63.2071C70.6279 63.2071 70.4135 63.2577 70.2476 63.3588C70.0858 63.46 70.0048 63.6178 70.0048 63.8322C70.0048 63.9698 70.0433 64.0851 70.1201 64.1781C70.197 64.2671 70.3184 64.346 70.4843 64.4148C70.6501 64.4836 70.8666 64.5564 71.1336 64.6333C71.4573 64.7223 71.7223 64.8173 71.9286 64.9185C72.1349 65.0156 72.2866 65.139 72.3837 65.2887C72.4849 65.4343 72.5354 65.6224 72.5354 65.853C72.5354 66.1079 72.4687 66.3264 72.3352 66.5084C72.2017 66.6865 72.0135 66.824 71.7708 66.9211C71.5321 67.0142 71.2489 67.0607 70.9212 67.0607ZM74.7153 67.0607C74.343 67.0607 74.0336 66.9919 73.7868 66.8544C73.544 66.7168 73.3599 66.5246 73.2345 66.2778C73.1091 66.031 73.0403 65.7438 73.0282 65.4161C73.0241 65.2502 73.0221 65.0722 73.0221 64.8821C73.0221 64.6919 73.0241 64.5099 73.0282 64.3359C73.0403 64.0082 73.1091 63.7209 73.2345 63.4742C73.3599 63.2274 73.544 63.0352 73.7868 62.8976C74.0336 62.7601 74.343 62.6913 74.7153 62.6913C74.9944 62.6913 75.2392 62.7297 75.4496 62.8066C75.6599 62.8835 75.8339 62.9866 75.9715 63.1161C76.1131 63.2456 76.2203 63.3912 76.2931 63.553C76.3659 63.7108 76.4064 63.8747 76.4145 64.0446C76.4185 64.081 76.4064 64.1114 76.378 64.1356C76.3538 64.1599 76.3234 64.172 76.287 64.172H75.9532C75.9168 64.172 75.8845 64.1619 75.8561 64.1417C75.8319 64.1215 75.8137 64.0851 75.8015 64.0325C75.7328 63.7169 75.6033 63.5004 75.4131 63.3831C75.227 63.2658 74.9924 63.2071 74.7092 63.2071C74.3855 63.2071 74.1286 63.3002 73.9385 63.4863C73.7483 63.6683 73.6452 63.9617 73.629 64.3662C73.6168 64.698 73.6168 65.0378 73.629 65.3858C73.6452 65.7903 73.7483 66.0857 73.9385 66.2718C74.1286 66.4538 74.3855 66.5449 74.7092 66.5449C74.9924 66.5449 75.227 66.4862 75.4131 66.3689C75.6033 66.2515 75.7328 66.0351 75.8015 65.7195C75.8137 65.6669 75.8319 65.6305 75.8561 65.6103C75.8845 65.5901 75.9168 65.58 75.9532 65.58H76.287C76.3234 65.58 76.3538 65.5921 76.378 65.6164C76.4064 65.6406 76.4185 65.671 76.4145 65.7074C76.4064 65.8773 76.3659 66.0432 76.2931 66.205C76.2203 66.3628 76.1131 66.5064 75.9715 66.6359C75.8339 66.7653 75.6599 66.8685 75.4496 66.9454C75.2392 67.0223 74.9944 67.0607 74.7153 67.0607ZM77.2224 67C77.1779 67 77.1435 66.9879 77.1193 66.9636C77.095 66.9353 77.0829 66.9009 77.0829 66.8604V62.8916C77.0829 62.8511 77.095 62.8187 77.1193 62.7945C77.1435 62.7662 77.1779 62.752 77.2224 62.752H77.5441C77.5845 62.752 77.6169 62.7662 77.6412 62.7945C77.6695 62.8187 77.6837 62.8511 77.6837 62.8916V66.8604C77.6837 66.9009 77.6695 66.9353 77.6412 66.9636C77.6169 66.9879 77.5845 67 77.5441 67H77.2224ZM78.7369 67C78.6924 67 78.658 66.9879 78.6338 66.9636C78.6095 66.9353 78.5974 66.9009 78.5974 66.8604V62.8976C78.5974 62.8531 78.6095 62.8187 78.6338 62.7945C78.658 62.7662 78.6924 62.752 78.7369 62.752H81.2433C81.2878 62.752 81.3222 62.7662 81.3464 62.7945C81.3707 62.8187 81.3828 62.8531 81.3828 62.8976V63.1282C81.3828 63.1727 81.3707 63.2071 81.3464 63.2314C81.3222 63.2557 81.2878 63.2678 81.2433 63.2678H79.1799V64.5968H81.1098C81.1543 64.5968 81.1886 64.611 81.2129 64.6393C81.2372 64.6636 81.2493 64.698 81.2493 64.7425V64.967C81.2493 65.0075 81.2372 65.0419 81.2129 65.0702C81.1886 65.0945 81.1543 65.1066 81.1098 65.1066H79.1799V66.4842H81.2918C81.3363 66.4842 81.3707 66.4963 81.395 66.5206C81.4192 66.5449 81.4314 66.5792 81.4314 66.6237V66.8604C81.4314 66.9009 81.4192 66.9353 81.395 66.9636C81.3707 66.9879 81.3363 67 81.2918 67H78.7369ZM82.2723 67C82.2278 67 82.1934 66.9879 82.1691 66.9636C82.1449 66.9353 82.1327 66.9009 82.1327 66.8604V62.8976C82.1327 62.8531 82.1449 62.8187 82.1691 62.7945C82.1934 62.7662 82.2278 62.752 82.2723 62.752H82.5515C82.6 62.752 82.6364 62.7641 82.6607 62.7884C82.685 62.8086 82.6991 62.8248 82.7032 62.837L84.718 65.9319V62.8976C84.718 62.8531 84.7301 62.8187 84.7544 62.7945C84.7786 62.7662 84.813 62.752 84.8575 62.752H85.1488C85.1933 62.752 85.2277 62.7662 85.252 62.7945C85.2803 62.8187 85.2945 62.8531 85.2945 62.8976V66.8544C85.2945 66.8948 85.2803 66.9292 85.252 66.9575C85.2277 66.9858 85.1953 67 85.1549 67H84.8636C84.8191 67 84.7847 66.9879 84.7604 66.9636C84.7402 66.9393 84.726 66.9231 84.718 66.915L82.7092 63.8504V66.8604C82.7092 66.9009 82.6951 66.9353 82.6668 66.9636C82.6425 66.9879 82.6081 67 82.5636 67H82.2723ZM87.7308 67.0607C87.3586 67.0607 87.0491 66.9919 86.8023 66.8544C86.5595 66.7168 86.3755 66.5246 86.25 66.2778C86.1246 66.031 86.0558 65.7438 86.0437 65.4161C86.0397 65.2502 86.0376 65.0722 86.0376 64.8821C86.0376 64.6919 86.0397 64.5099 86.0437 64.3359C86.0558 64.0082 86.1246 63.7209 86.25 63.4742C86.3755 63.2274 86.5595 63.0352 86.8023 62.8976C87.0491 62.7601 87.3586 62.6913 87.7308 62.6913C88.0099 62.6913 88.2547 62.7297 88.4651 62.8066C88.6754 62.8835 88.8494 62.9866 88.987 63.1161C89.1286 63.2456 89.2358 63.3912 89.3086 63.553C89.3814 63.7108 89.4219 63.8747 89.43 64.0446C89.434 64.081 89.4219 64.1114 89.3936 64.1356C89.3693 64.1599 89.3389 64.172 89.3025 64.172H88.9688C88.9324 64.172 88.9 64.1619 88.8717 64.1417C88.8474 64.1215 88.8292 64.0851 88.817 64.0325C88.7483 63.7169 88.6188 63.5004 88.4287 63.3831C88.2426 63.2658 88.0079 63.2071 87.7247 63.2071C87.401 63.2071 87.1441 63.3002 86.954 63.4863C86.7638 63.6683 86.6607 63.9617 86.6445 64.3662C86.6324 64.698 86.6324 65.0378 86.6445 65.3858C86.6607 65.7903 86.7638 66.0857 86.954 66.2718C87.1441 66.4538 87.401 66.5449 87.7247 66.5449C88.0079 66.5449 88.2426 66.4862 88.4287 66.3689C88.6188 66.2515 88.7483 66.0351 88.817 65.7195C88.8292 65.6669 88.8474 65.6305 88.8717 65.6103C88.9 65.5901 88.9324 65.58 88.9688 65.58H89.3025C89.3389 65.58 89.3693 65.5921 89.3936 65.6164C89.4219 65.6406 89.434 65.671 89.43 65.7074C89.4219 65.8773 89.3814 66.0432 89.3086 66.205C89.2358 66.3628 89.1286 66.5064 88.987 66.6359C88.8494 66.7653 88.6754 66.8685 88.4651 66.9454C88.2547 67.0223 88.0099 67.0607 87.7308 67.0607ZM90.238 67C90.1935 67 90.1591 66.9879 90.1348 66.9636C90.1105 66.9353 90.0984 66.9009 90.0984 66.8604V62.8976C90.0984 62.8531 90.1105 62.8187 90.1348 62.7945C90.1591 62.7662 90.1935 62.752 90.238 62.752H92.7443C92.7888 62.752 92.8232 62.7662 92.8474 62.7945C92.8717 62.8187 92.8839 62.8531 92.8839 62.8976V63.1282C92.8839 63.1727 92.8717 63.2071 92.8474 63.2314C92.8232 63.2557 92.7888 63.2678 92.7443 63.2678H90.681V64.5968H92.6108C92.6553 64.5968 92.6897 64.611 92.7139 64.6393C92.7382 64.6636 92.7504 64.698 92.7504 64.7425V64.967C92.7504 65.0075 92.7382 65.0419 92.7139 65.0702C92.6897 65.0945 92.6553 65.1066 92.6108 65.1066H90.681V66.4842H92.7928C92.8373 66.4842 92.8717 66.4963 92.896 66.5206C92.9203 66.5449 92.9324 66.5792 92.9324 66.6237V66.8604C92.9324 66.9009 92.9203 66.9353 92.896 66.9636C92.8717 66.9879 92.8373 67 92.7928 67H90.238Z" fill="white"/>
</svg>
