<svg width="25" height="24" viewBox="0 0 25 24" fill="none" xmlns="http://www.w3.org/2000/svg">
<mask id="mask0_189_320" style="mask-type:alpha" maskUnits="userSpaceOnUse" x="0" y="0" width="25" height="24">
<rect x="0.5" width="24" height="24" fill="#D9D9D9"/>
</mask>
<g mask="url(#mask0_189_320)">
<path d="M5.98075 21.5C5.16153 21.5 4.45993 21.208 3.87595 20.624C3.29198 20.0401 3 19.3384 3 18.5192C3 17.7 3.29198 16.9984 3.87595 16.4145C4.45993 15.8305 5.16153 15.5385 5.98075 15.5385C6.27408 15.5385 6.55928 15.5824 6.83633 15.6702C7.11338 15.7581 7.36728 15.8815 7.59805 16.0404L11.75 11.8885V8.35958C11.1064 8.1942 10.5737 7.84699 10.1519 7.31796C9.73014 6.78891 9.51925 6.17652 9.51925 5.48078C9.51925 4.66157 9.81123 3.95996 10.3952 3.37598C10.9792 2.79201 11.6808 2.50003 12.5 2.50003C13.3192 2.50003 14.0208 2.79201 14.6048 3.37598C15.1887 3.95996 15.4807 4.66157 15.4807 5.48078C15.4807 6.17652 15.2714 6.78891 14.8528 7.31796C14.4342 7.84699 13.9 8.1942 13.25 8.35958V11.8885L17.4173 16.0404C17.6481 15.8815 17.8989 15.7581 18.1697 15.6702C18.4406 15.5824 18.7237 15.5385 19.0192 15.5385C19.8384 15.5385 20.54 15.8305 21.124 16.4145C21.708 16.9984 22 17.7 22 18.5192C22 19.3384 21.708 20.0401 21.124 20.624C20.54 21.208 19.8384 21.5 19.0192 21.5C18.2 21.5 17.4984 21.208 16.9144 20.624C16.3305 20.0401 16.0385 19.3384 16.0385 18.5192C16.0385 18.2703 16.068 18.0282 16.1269 17.7931C16.1859 17.558 16.2725 17.3378 16.3866 17.1327L12.5 13.2462L8.6134 17.1327C8.7275 17.3378 8.81404 17.558 8.87303 17.7931C8.93199 18.0282 8.96148 18.2703 8.96148 18.5192C8.96148 19.3384 8.66949 20.0401 8.08553 20.624C7.50156 21.208 6.79997 21.5 5.98075 21.5ZM19.0181 20C19.4291 20 19.7788 19.8562 20.0673 19.5685C20.3557 19.2807 20.5 18.9314 20.5 18.5204C20.5 18.1094 20.3561 17.7596 20.0684 17.4712C19.7807 17.1827 19.4314 17.0385 19.0204 17.0385C18.6093 17.0385 18.2596 17.1823 17.9711 17.47C17.6827 17.7577 17.5385 18.1071 17.5385 18.5181C17.5385 18.9291 17.6823 19.2789 17.97 19.5673C18.2577 19.8558 18.6071 20 19.0181 20ZM12.4988 6.96153C12.9099 6.96153 13.2596 6.81768 13.548 6.52998C13.8365 6.24228 13.9808 5.89292 13.9808 5.48191C13.9808 5.07089 13.8369 4.72116 13.5492 4.43271C13.2615 4.14424 12.9121 4.00001 12.5011 4.00001C12.0901 4.00001 11.7404 4.14386 11.4519 4.43156C11.1634 4.71927 11.0192 5.06863 11.0192 5.47963C11.0192 5.89065 11.1631 6.24039 11.4508 6.52886C11.7385 6.81731 12.0878 6.96153 12.4988 6.96153ZM5.9796 20C6.39062 20 6.74036 19.8562 7.02882 19.5685C7.31728 19.2807 7.4615 18.9314 7.4615 18.5204C7.4615 18.1094 7.31765 17.7596 7.02995 17.4712C6.74225 17.1827 6.39289 17.0385 5.98188 17.0385C5.57086 17.0385 5.22113 17.1823 4.93268 17.47C4.64421 17.7577 4.49998 18.1071 4.49998 18.5181C4.49998 18.9291 4.64382 19.2789 4.93152 19.5673C5.21924 19.8558 5.5686 20 5.9796 20Z" fill="#EEF0FB"/>
</g>
</svg>
