<svg width="32" height="32" viewBox="0 0 32 32" fill="none" xmlns="http://www.w3.org/2000/svg">
<mask id="mask0_191_315" style="mask-type:alpha" maskUnits="userSpaceOnUse" x="0" y="0" width="32" height="32">
<rect width="32" height="32" fill="#C9D0F2"/>
</mask>
<g mask="url(#mask0_191_315)">
<path d="M16 30.6666L12 26.6666H6.66667C5.93333 26.6666 5.30556 26.4055 4.78333 25.8833C4.26111 25.3611 4 24.7333 4 24V5.33329C4 4.59996 4.26111 3.97218 4.78333 3.44996C5.30556 2.92774 5.93333 2.66663 6.66667 2.66663H25.3333C26.0667 2.66663 26.6944 2.92774 27.2167 3.44996C27.7389 3.97218 28 4.59996 28 5.33329V24C28 24.7333 27.7389 25.3611 27.2167 25.8833C26.6944 26.4055 26.0667 26.6666 25.3333 26.6666H20L16 30.6666ZM6.66667 22.4666C7.86667 21.2888 9.26111 20.3611 10.85 19.6833C12.4389 19.0055 14.1556 18.6666 16 18.6666C17.8444 18.6666 19.5611 19.0055 21.15 19.6833C22.7389 20.3611 24.1333 21.2888 25.3333 22.4666V5.33329H6.66667V22.4666ZM16 16C17.2889 16 18.3889 15.5444 19.3 14.6333C20.2111 13.7222 20.6667 12.6222 20.6667 11.3333C20.6667 10.0444 20.2111 8.9444 19.3 8.03329C18.3889 7.12218 17.2889 6.66663 16 6.66663C14.7111 6.66663 13.6111 7.12218 12.7 8.03329C11.7889 8.9444 11.3333 10.0444 11.3333 11.3333C11.3333 12.6222 11.7889 13.7222 12.7 14.6333C13.6111 15.5444 14.7111 16 16 16ZM9.33333 24H22.6667V23.6666C21.7333 22.8888 20.7 22.3055 19.5667 21.9166C18.4333 21.5277 17.2444 21.3333 16 21.3333C14.7556 21.3333 13.5667 21.5277 12.4333 21.9166C11.3 22.3055 10.2667 22.8888 9.33333 23.6666V24ZM16 13.3333C15.4444 13.3333 14.9722 13.1388 14.5833 12.75C14.1944 12.3611 14 11.8888 14 11.3333C14 10.7777 14.1944 10.3055 14.5833 9.91663C14.9722 9.52774 15.4444 9.33329 16 9.33329C16.5556 9.33329 17.0278 9.52774 17.4167 9.91663C17.8056 10.3055 18 10.7777 18 11.3333C18 11.8888 17.8056 12.3611 17.4167 12.75C17.0278 13.1388 16.5556 13.3333 16 13.3333Z" fill="#C9D0F2"/>
</g>
</svg>
