<svg width="25" height="24" viewBox="0 0 25 24" fill="none" xmlns="http://www.w3.org/2000/svg">
<mask id="mask0_189_310" style="mask-type:alpha" maskUnits="userSpaceOnUse" x="0" y="0" width="25" height="24">
<rect x="0.5" width="24" height="24" fill="#D9D9D9"/>
</mask>
<g mask="url(#mask0_189_310)">
<path d="M2.86523 20.5769V4.32691L7.61521 0.884613L12.3652 4.32691V7.07694H22.1344V20.5769H2.86523ZM4.36518 19.0769H6.86521V16.5769H4.36518V19.0769ZM4.36518 15.0769H6.86521V12.5769H4.36518V15.0769ZM4.36518 11.0769H6.86521V8.57691H4.36518V11.0769ZM4.36518 7.07694H6.86521V4.57691H4.36518V7.07694ZM8.36518 7.07694H10.8652V4.57691H8.36518V7.07694ZM8.36518 19.0769H20.6344V8.57691H8.36518V19.0769ZM14.5575 12.5769V11.0769H18.2498V12.5769H14.5575ZM14.5575 16.5769V15.0769H18.2498V16.5769H14.5575ZM10.8652 12.5769V11.0769H12.3652V12.5769H10.8652ZM10.8652 16.5769V15.0769H12.3652V16.5769H10.8652Z" fill="#EEF0FB"/>
</g>
</svg>
