<svg width="43" height="33" viewBox="0 0 43 33" fill="none" xmlns="http://www.w3.org/2000/svg">
<g clip-path="url(#clip0_856_395)">
<g clip-path="url(#clip1_856_395)">
<rect x="2.19531" y="2.05859" width="38.5" height="28" rx="3.5" fill="white"/>
<path fill-rule="evenodd" clip-rule="evenodd" d="M2.19531 2.05859H18.6953V15.1253H2.19531V2.05859Z" fill="#1A47B8"/>
<path fill-rule="evenodd" clip-rule="evenodd" d="M18.6953 2.05859V3.92526H40.6953V2.05859H18.6953ZM18.6953 5.79193V7.65859H40.6953V5.79193H18.6953ZM18.6953 9.52526V11.3919H40.6953V9.52526H18.6953ZM18.6953 13.2586V15.1253H40.6953V13.2586H18.6953ZM2.19531 16.9919V18.8586H40.6953V16.9919H2.19531ZM2.19531 20.7253V22.5919H40.6953V20.7253H2.19531ZM2.19531 24.4586V26.3253H40.6953V24.4586H2.19531ZM2.19531 28.1919V30.0586H40.6953V28.1919H2.19531Z" fill="#F93939"/>
<path fill-rule="evenodd" clip-rule="evenodd" d="M4.0293 3.9248V5.79147H5.86263V3.9248H4.0293ZM7.69596 3.9248V5.79147H9.5293V3.9248H7.69596ZM11.3626 3.9248V5.79147H13.196V3.9248H11.3626ZM15.0293 3.9248V5.79147H16.8626V3.9248H15.0293ZM13.196 5.79147V7.65814H15.0293V5.79147H13.196ZM9.5293 5.79147V7.65814H11.3626V5.79147H9.5293ZM5.86263 5.79147V7.65814H7.69596V5.79147H5.86263ZM4.0293 7.65814V9.52481H5.86263V7.65814H4.0293ZM7.69596 7.65814V9.52481H9.5293V7.65814H7.69596ZM11.3626 7.65814V9.52481H13.196V7.65814H11.3626ZM15.0293 7.65814V9.52481H16.8626V7.65814H15.0293ZM4.0293 11.3915V13.2581H5.86263V11.3915H4.0293ZM7.69596 11.3915V13.2581H9.5293V11.3915H7.69596ZM11.3626 11.3915V13.2581H13.196V11.3915H11.3626ZM15.0293 11.3915V13.2581H16.8626V11.3915H15.0293ZM13.196 9.52481V11.3915H15.0293V9.52481H13.196ZM9.5293 9.52481V11.3915H11.3626V9.52481H9.5293ZM5.86263 9.52481V11.3915H7.69596V9.52481H5.86263Z" fill="white"/>
</g>
</g>
<rect x="1.19531" y="1.05859" width="40.5" height="30" rx="3" stroke="white" stroke-width="2"/>
<defs>
<clipPath id="clip0_856_395">
<rect x="2.19531" y="2.05859" width="38.5" height="28" rx="2" fill="white"/>
</clipPath>
<clipPath id="clip1_856_395">
<rect x="2.19531" y="2.05859" width="38.5" height="28" rx="3.5" fill="white"/>
</clipPath>
</defs>
</svg>
